<svg width="129" height="126" viewBox="0 0 129 126" fill="none" xmlns="http://www.w3.org/2000/svg">
<path d="M64.6667 0.666672C29.3067 0.666672 0.666666 29.3067 0.666666 64.6667C0.659407 78.102 4.88307 91.1985 12.7384 102.098C20.5938 112.998 31.682 121.147 44.4299 125.39C47.6299 125.947 48.8267 124.027 48.8267 122.343C48.8267 120.827 48.7435 115.79 48.7435 110.427C32.6667 113.39 28.5067 106.51 27.2267 102.907C26.5035 101.063 23.3867 95.3867 20.6667 93.8635C18.4267 92.6667 15.2267 89.7035 20.5835 89.6267C25.6267 89.5435 29.2235 94.2667 30.4267 96.1867C36.1867 105.863 45.3899 103.143 49.0635 101.467C49.6267 97.3067 51.3035 94.5099 53.1467 92.9099C38.9067 91.3099 24.0267 85.7867 24.0267 61.3067C24.0267 54.3435 26.5035 48.5899 30.5867 44.1035C29.9467 42.5035 27.7067 35.9435 31.2267 27.1435C31.2267 27.1435 36.5835 25.4667 48.8267 33.7099C54.0367 32.2639 59.4197 31.5361 64.8267 31.5467C70.2667 31.5467 75.7067 32.2635 80.8267 33.7035C93.0635 25.3835 98.4267 27.1499 98.4267 27.1499C101.947 35.9499 99.7067 42.5099 99.0667 44.1099C103.143 48.5899 105.627 54.2667 105.627 61.3067C105.627 85.8699 90.6699 91.3099 76.4299 92.9099C78.7467 94.9067 80.7499 98.7467 80.7499 104.75C80.7499 113.307 80.6667 120.187 80.6667 122.35C80.6667 124.027 81.8699 126.023 85.0699 125.383C97.774 121.094 108.813 112.929 116.634 102.037C124.455 91.1454 128.663 78.0754 128.667 64.6667C128.667 29.3067 100.027 0.666672 64.6667 0.666672Z" fill="#000814"/>
</svg>
