<?xml version="1.0" encoding="utf-8"?>
<!-- Generator: Adobe Illustrator 27.1.0, SVG Export Plug-In . SVG Version: 6.00 Build 0)  -->
<svg version="1.1" id="Layer_1" xmlns="http://www.w3.org/2000/svg" xmlns:xlink="http://www.w3.org/1999/xlink" x="0px" y="0px"
	 viewBox="0 0 4000 4000" style="enable-background:new 0 0 4000 4000;" xml:space="preserve">
<style type="text/css">
	.st0{opacity:0.2;fill:#371A45;enable-background:new    ;}
	.st1{fill:#F9F9F9;}
	.st2{opacity:0.2;}
	.st3{fill:#371A45;}
	.st4{fill:#CCCCCC;}
	.st5{fill:#22A7F0;}
	.st6{opacity:0.7;}
	.st7{fill:#FFFFFF;}
	.st8{fill:#1C7AEA;}
	.st9{fill:#080056;}
	.st10{opacity:0.15;}
	.st11{fill:#220F2D;}
	.st12{opacity:0.75;}
	.st13{clip-path:url(#SVGID_00000134968260540467881740000013421334018911805576_);}
	.st14{enable-background:new    ;}
	.st15{fill:#FFD833;}
	.st16{fill:#FCFCFC;}
	.st17{clip-path:url(#SVGID_00000050645090166011717510000007490712933498525119_);}
	.st18{clip-path:url(#SVGID_00000178888237850378678600000004537223641183106748_);}
	.st19{fill:#FFD243;}
	.st20{fill:#FCAC38;}
	.st21{opacity:0.6;}
	.st22{opacity:0.5;}
	.st23{fill:#E6A75C;}
	.st24{clip-path:url(#SVGID_00000072966693351211810760000006386005434164827017_);}
	.st25{filter:url(#Adobe_OpacityMaskFilter);}
	.st26{clip-path:url(#SVGID_00000066517491569907702700000017802289285956341148_);}
	.st27{clip-path:url(#SVGID_00000004527715810729501730000004703684376361356189_);}
	
		.st28{clip-path:url(#SVGID_00000080198276097674864600000001967711345895720334_);fill:url(#SVGID_00000080891906184604269940000012767494100306379661_);}
	
		.st29{clip-path:url(#SVGID_00000066517491569907702700000017802289285956341148_);mask:url(#SVGID_00000009580594614991927530000009316890188532205997_);fill:url(#SVGID_00000115480569294946685060000000761051244365375897_);}
	.st30{fill:#DB2C2C;}
</style>
<g>
	<g>
		<ellipse class="st0" cx="2103" cy="3344.9" rx="1477" ry="106.2"/>
		<g>
			<g>
				<g>
					<path class="st1" d="M2466.9,2978.1c4.7,23.7,7.2,50.3,7.2,79.7c0,215-98.4,262.5-181.5,262.5h-590.4
						c-233.9,0-509.4,14-569.9-307.9c-34.7-184.7,94.3-516.1,163.7-675.7c24.4-56.1,41.4-91,41.4-91
						c812.6-82.4,1198.2,387.5,1198.2,387.5h-421.3c8.6,17.8,15.9,36,22.2,54.1c23.6,68.1,31.9,133.8,34.7,168.7
						c1.3,16.2,1.4,25.8,1.4,25.8c38.9-36.2,81-60.1,145.8-60.1C2382.4,2821.5,2445.9,2871.2,2466.9,2978.1z"/>
				</g>
				<g class="st2">
					<path class="st3" d="M2171.2,2855.9h-443.8c-185.4-79.1-355.6-19.9-355.6-19.9v-209.7h650.5l114.1,60.9
						C2160.2,2755.3,2168.4,2821.1,2171.2,2855.9z"/>
				</g>
				<g class="st2">
					<path class="st3" d="M2474.1,3057.8c0,215-98.4,262.5-181.5,262.5h-590.4c-233.9,0-509.4,14-569.9-307.9
						c-34.7-184.7,94.3-516.1,163.7-675.7l65.9-11.4c0,0-225.7,471.2-146,681.5c79.6,210.3,541.9,117.4,541.9,117.4
						s38.4,83,118.3,83c79.9,0,110.2-79.7,118.3-172.6c0,0,21.8,69.6,73.6,77.1c48.4,7,95.8,20.4,138.2,44.8
						c35.1,20.2,80.9,37.5,134.9,37.5c82.6,0,121.9-108.1,125.8-215.8C2471.6,3001.8,2474.1,3028.3,2474.1,3057.8z"/>
				</g>
				<g>
					<path class="st3" d="M1646.4,3345.8c-219.6,0-479.6-12.2-539.1-328.7c-47.9-254.9,196.8-761.1,207.3-782.6l6.2-12.7l14.1-1.4
						c426.2-43.2,734.7,66.3,918.5,165.8c200.1,108.3,297.9,225.9,301.9,230.9l34.1,41.5H2153c25.6,65.4,36.6,130.6,41.4,173.4
						c37.6-24.8,76.7-35.8,124.1-35.8c90.1,0,181,80.9,181,261.6c0,250.5-129.6,287.9-206.9,287.9h-590.4c-9.3,0-18.7,0-28.1,0
						C1664.9,3345.7,1655.7,3345.8,1646.4,3345.8z M1354.2,2269.5c-37.8,80.5-237.8,521-196.9,738.2
						c54.2,288.3,289.4,287.8,516.7,287.2c9.5,0,18.9,0,28.2,0h590.4c103.6,0,156.1-79.8,156.1-237.1
						c0-145.6-65.4-210.8-130.2-210.8c-50.6,0-87.8,15.4-128.6,53.3l-41.8,38.9l-0.9-57.1c0-1.2-2.8-128.1-55.8-237.8l-17.6-36.4
						H2476c-45-43-128-112.9-249.2-178.2C2051.7,2335.2,1758.8,2231.5,1354.2,2269.5z"/>
				</g>
				<g>
					<ellipse class="st4" cx="2355.8" cy="3076.4" rx="118.3" ry="206.6"/>
				</g>
				<g>
					<path class="st3" d="M2355.8,3303.7c-77.9,0-138.9-99.8-138.9-227.3s61-227.3,138.9-227.3s138.9,99.8,138.9,227.3
						S2433.7,3303.7,2355.8,3303.7z M2355.8,2890.4c-52.9,0-97.6,85.2-97.6,186s44.7,186,97.6,186s97.6-85.2,97.6-186
						S2408.7,2890.4,2355.8,2890.4z"/>
				</g>
				<g>
					<path class="st3" d="M2467.2,3027.6h-222.9c-11.4,0-20.6-9.2-20.6-20.6s9.2-20.6,20.6-20.6h222.9c11.4,0,20.6,9.2,20.6,20.6
						S2478.6,3027.6,2467.2,3027.6z"/>
				</g>
				<g>
					<path class="st3" d="M2465.8,3173.1h-220c-11.4,0-20.6-9.2-20.6-20.6s9.2-20.6,20.6-20.6h220c11.4,0,20.6,9.2,20.6,20.6
						S2477.2,3173.1,2465.8,3173.1z"/>
				</g>
				<g>
					<path class="st3" d="M2189.3,2893.9c-1.1,1.6-2.8,4-4.1,6.2c-1.4,2.3-2.8,4.6-4.2,7c-2.7,4.7-5.3,9.6-7.8,14.5
						c-4.9,9.9-9.1,20.1-12.6,30.5c-1.8,5.2-3.3,10.4-4.4,15.8c-0.8,5.4-1.4,10.8-2.3,16.1c-2.9,10.5-6.6,20.3-18.1,31.7l-0.3,0.2
						c-3.7,3.7-9.6,3.6-13.3-0.1c-0.1-0.1-0.1-0.1-0.2-0.2c-2.9-3.1-5-6.3-6.6-9.6c-1.8-3.3-3-6.6-3.8-9.9c-0.8-3.3-1.3-6.7-1.6-10
						c-0.1-3.3,0.1-6.6,0.5-9.9c0.7-6.6,3.4-12.6,5.1-18.9c2.2-6.1,3.7-12.4,5.9-18.5c4.1-12.2,9-24.1,14.6-35.6
						c2.9-5.7,5.9-11.4,9.1-17c1.6-2.8,3.3-5.6,5-8.3c1.8-2.9,3.4-5.3,5.8-8.6c6.6-9.3,19.5-11.4,28.8-4.8
						c9.2,6.6,11.4,19.4,4.9,28.7L2189.3,2893.9z"/>
				</g>
				<g>
					<g>
						<path class="st1" d="M2117.1,2968.5h-294c-36.1,0-65.3-29.2-65.3-65.3v-134.6c0-36.1,29.2-65.3,65.3-65.3h294
							c36.1,0,65.3,29.2,65.3,65.3v134.6C2182.4,2939.3,2153.1,2968.5,2117.1,2968.5z"/>
					</g>
					<g class="st2">
						<path class="st3" d="M2181.9,2910.7c-3.7,32.6-31.3,57.8-64.8,57.8h-294c-36.1,0-65.3-29.2-65.3-65.3v-134.6
							c0-36,29.2-65.3,65.3-65.3h23.2c-0.3,2.4-0.5,5-0.5,7.5v134.6c0,36,29.2,65.3,65.3,65.3L2181.9,2910.7L2181.9,2910.7z"/>
					</g>
					<g>
						<path class="st3" d="M2117.1,2989.2h-294c-47.4,0-85.9-38.6-85.9-85.9v-134.6c0-47.4,38.6-85.9,85.9-85.9h294
							c47.4,0,85.9,38.6,85.9,85.9v134.6C2203,2950.6,2164.5,2989.2,2117.1,2989.2z M1823.1,2724.1c-24.6,0-44.6,20-44.6,44.6v134.6
							c0,24.6,20,44.6,44.6,44.6h294c24.6,0,44.6-20,44.6-44.6v-134.6c0-24.6-20-44.6-44.6-44.6H1823.1z"/>
					</g>
					<g>
						<path class="st3" d="M2109.3,2981.2c-7,0-12.6-5.7-12.6-12.6v-88.2c0-11.8-6.2-22.9-16.2-29l-6.6-4.1
							c-17.4-10.7-28.3-30.1-28.3-50.6v-93.3c0-7,5.7-12.6,12.6-12.6s12.6,5.7,12.6,12.6v93.3c0,11.8,6.2,22.9,16.2,29l6.6,4.1
							c17.4,10.7,28.3,30.1,28.3,50.6v88.2C2122,2975.5,2116.3,2981.2,2109.3,2981.2z"/>
					</g>
				</g>
				<g>
					<g>
						<path class="st5" d="M1883.3,2837.8c0.8,28.8,20.4,51.5,43.8,50.9l39.5-1.1l-3-104.1l-39.5,1.1
							C1900.7,2785.1,1882.5,2809,1883.3,2837.8z"/>
					</g>
					<g class="st6">
						<path class="st7" d="M1885.4,2819.5c7.4-10.4,18.3-17.2,30.6-17.6l39.4-1.1l2.5,86.9l8.6-0.2l-3-104.1l-39.5,1.1
							C1905.9,2785,1890.8,2799.6,1885.4,2819.5z"/>
					</g>
					<g>
						<path class="st8" d="M1883.3,2837.8c0.8,28.8,20.4,51.5,43.8,50.8l39.5-1.1l-3-104.1l-21.2,0.6l1.5,51.1l-39.4,1.1
							c-7.5,0.2-14.6-2-20.8-6.1C1883.3,2832.6,1883.2,2835.1,1883.3,2837.8z"/>
					</g>
					<g>
						<path class="st3" d="M1926.1,2899.1c-28.5,0-52.2-27.1-53.2-61l0,0c-1-34.5,21.9-63.2,50.9-64l39.5-1.1
							c5.8-0.2,10.6,4.4,10.7,10.1l3,104.1c0.2,5.8-4.4,10.6-10.1,10.7l-39.5,1.1C1926.9,2899.1,1926.5,2899.1,1926.1,2899.1z
							 M1893.7,2837.5c0.7,22.9,15.4,41.2,33,40.7l29-0.8l-2.4-83.3l-29,0.8C1906.8,2795.4,1893.1,2814.5,1893.7,2837.5
							L1893.7,2837.5z"/>
					</g>
					<g>
						
							<ellipse transform="matrix(0.9996 -2.869966e-02 2.869966e-02 0.9996 -80.5646 57.5677)" class="st5" cx="1965.2" cy="2835.4" rx="42.3" ry="52.1"/>
					</g>
					<g class="st6">
						<path class="st7" d="M1922.8,2836.6c0.1,3.1,0.4,6.2,0.9,9.2c2.8-24.4,19.5-43.4,40.4-44c20.8-0.6,38.6,17.4,42.8,41.6
							c0.3-3,0.5-6.1,0.4-9.2c-0.8-28.7-20.4-51.5-43.7-50.8C1940.2,2784,1922,2807.9,1922.8,2836.6z"/>
					</g>
					<g>
						<path class="st8" d="M1922.8,2836.6c0.8,28.8,20.4,51.6,43.7,50.9c23.3-0.7,41.5-24.5,40.7-53.3c-0.1-1.8-0.2-3.5-0.4-5.1
							c-6.4,17.1-20.3,29.1-36.8,29.6c-21.9,0.6-40.5-19.4-43.4-45.7C1924,2820.1,1922.6,2828.1,1922.8,2836.6z"/>
					</g>
					<g>
						<path class="st3" d="M1965.5,2897.9c-28.5,0-52.2-27.1-53.2-61l0,0c-1-34.5,21.8-63.2,50.9-64c14.6-0.5,28.2,6,38.5,18
							c9.8,11.4,15.5,26.7,15.9,43c0.5,16.3-4.3,31.9-13.5,43.8c-9.6,12.6-22.9,19.8-37.4,20.2
							C1966.4,2897.9,1966,2897.9,1965.5,2897.9z M1933.2,2836.3c0.7,22.9,15.6,41,33,40.7c8.1-0.2,15.7-4.5,21.4-12
							c6.2-8.2,9.5-19,9.2-30.5c-0.3-11.5-4.2-22.2-10.9-30c-6.2-7.2-14.1-11-22.1-10.8C1946.3,2794.3,1932.6,2813.4,1933.2,2836.3
							L1933.2,2836.3z"/>
					</g>
				</g>
				<g>
					<g>
						<path class="st1" d="M1994.4,3076.4c0,203.4-105.4,243.9-292.2,243.9l-108.4-177L1399.7,2826c0,0,198.7-43.7,312.1,43.8
							c0,0,46.2-49.5,117.6-54.7c74.2-5.5,155.3,51,164.2,228.2v0.1C1994.1,3053.9,1994.4,3064.9,1994.4,3076.4z"/>
					</g>
					<g class="st2">
						<path class="st9" d="M1994.4,3076.4c0,203.4-105.4,243.9-292.2,243.9l-108.4-177c92-4.6,164-19.1,164-19.1s38.4,83,118.3,83
							c77.4,0,108.2-74.8,117.5-163.9C1994.1,3053.9,1994.4,3064.9,1994.4,3076.4z"/>
					</g>
					<g>
						<ellipse class="st4" cx="1876.1" cy="3076.4" rx="118.3" ry="206.6"/>
					</g>
					<g>
						<path class="st3" d="M1876.1,3303.7c-77.9,0-138.9-99.8-138.9-227.3s61-227.3,138.9-227.3c77.9,0,138.9,99.8,138.9,227.3
							S1954,3303.7,1876.1,3303.7z M1876.1,2890.4c-52.9,0-97.7,85.2-97.7,186s44.7,186,97.7,186s97.7-85.2,97.7-186
							S1929,2890.4,1876.1,2890.4z"/>
					</g>
					<g>
						<path class="st3" d="M1702.2,3340.9c-11.4,0-20.7-9.2-20.7-20.6s9.2-20.6,20.7-20.6c180.1,0,271.6-34.5,271.6-223.2
							c0-127-34.4-185.7-63.3-212.5c-28.1-26.1-58.8-29.8-79.6-28.2c-62,4.6-103.7,47.8-104.1,48.3c-7.3,7.7-19.3,8.7-27.7,2.2
							c-104.3-80.5-293.2-40.4-295.1-39.9c-11.1,2.4-22.2-4.6-24.6-15.7c-2.4-11.1,4.6-22.1,15.7-24.6c8.2-1.8,194.2-41.5,315,37.5
							c20.2-16.7,61.9-44.7,117.7-48.8c41.6-3.1,79.8,10.5,110.7,39.2c34.9,32.4,76.5,100.8,76.5,242.7
							C2015,3296.7,1895.3,3340.9,1702.2,3340.9z"/>
					</g>
					<g>
						<path class="st3" d="M1826.8,3027.8c-23.3,0-44.8,0-62.3-0.1c-11.4-0.1-20.6-9.4-20.5-20.8c0.1-11.4,9.3-20.5,20.7-20.5
							c0,0,0.1,0,0.1,0c56.1,0.3,152,0,222.6-0.3c0,0,0.1,0,0.1,0c11.4,0,20.6,9.2,20.7,20.6c0.1,11.4-9.2,20.7-20.6,20.7
							C1938.9,3027.6,1878.3,3027.8,1826.8,3027.8z"/>
					</g>
					<g>
						<path class="st3" d="M1820.8,3173.1c-20.2,0-39,0-54.8-0.1c-11.4-0.1-20.6-9.3-20.6-20.8c0.1-11.4,9.3-20.6,20.7-20.6
							c0,0,0.1,0,0.1,0c60.4,0.3,163.7-0.1,219.9-0.3l0.1,41.3C1944.7,3172.9,1877.5,3173.1,1820.8,3173.1z"/>
					</g>
					<g>
						<path class="st3" d="M1724.4,2886.1c-0.1,0.3-0.9,1.1-1.4,1.8l-1.9,2.2c-1.3,1.4-2.6,3.1-3.9,4.6c-2.7,3.1-5.3,6.3-8,9.6
							c-5.2,6.6-10.5,13.2-15.5,20.2c-10,13.8-19.8,28.2-28.7,43.5c-4,7.8-8.8,15.4-12.4,23.6c-1.9,4.1-4,8-5.9,12.1l-5.4,12.4
							c-4,8.2-6.6,16.9-10.3,25.4c-3.2,8.6-6.1,17.4-9.6,26.3l-0.1,0.2c-0.6,1.5-2.3,2.3-3.9,1.7c-1.1-0.4-1.8-1.5-1.9-2.7
							c-0.4-9.5-0.8-19.1-0.4-28.7c0.2-4.8,0.6-9.6,1-14.4c0.3-4.8,0.7-9.6,1.6-14.4l2.3-14.4c0.8-4.8,2-9.5,3.1-14.2
							c2.1-9.6,5.1-18.9,8.1-28.3c6.6-18.5,14.7-36.9,25.7-53.7c2.7-4.2,5.6-8.4,8.7-12.3c1.6-2,3-4.1,4.6-6l5-5.7
							c3.3-3.9,7-7.4,10.8-11c1.9-1.8,3.9-3.4,6-5.1c1.1-0.9,2-1.6,3.2-2.5c1.2-0.9,2.1-1.6,3.9-2.7c8.6-5.8,20.2-3.5,26,5.1
							c3.1,4.6,3.9,10.1,2.6,15.1L1724.4,2886.1z"/>
					</g>
				</g>
				<g>
					<g>
						<path class="st7" d="M2347.6,2048c-58.6,108.9-145.1,203.7-255,273.1c-22.4,14.1-45.7,27.2-70,39.1
							c-11.8,5.8-23.9,11.3-36.2,16.7c-37.1,15.9-74.8,28.5-112.8,38c-32.8,8.3-65.8,14.2-98.7,18c-39.8,4.6-79.6,5.9-119.1,4.1
							c-14.4-0.7-28.7-1.7-43-3.2c-261.1-26.7-501-187.8-613.9-442.3c-166.3-374.8,6.3-810,385.3-972.1
							c73-31.2,148.4-50.1,223.7-57.3c8.8-0.9,17.7-1.6,26.5-2.1c23.7-1.5,47.3-1.8,70.8-1.1c54.3,1.7,108.1,9.4,160.2,22.5
							c52.2,13,102.8,31.5,150.9,55.2c15.3,7.5,30.4,15.5,45.2,24.1c22.2,12.8,43.7,26.7,64.6,41.8
							c104.1,75,190.1,177.4,245.5,302.2C2467.5,1620.4,2451,1855.9,2347.6,2048z"/>
						<path class="st3" d="M1689.3,2439.6c-11.2,0-22.4-0.2-33.6-0.7c-14.4-0.7-28.9-1.7-43.1-3.2
							c-270.6-27.6-506.4-197.5-615.4-443.4c-80.3-181-84.8-381.8-12.6-565.3c72.7-185,214.4-330.3,398.9-409.2
							c72-30.7,147.4-50,224.3-57.4c8.4-0.9,17.1-1.6,26.6-2.1c23.6-1.5,47.4-1.8,70.9-1.1c53.9,1.7,108,9.3,160.6,22.5
							c52.2,13,103.1,31.6,151.3,55.3c15.5,7.6,30.7,15.7,45.3,24.1c22.6,13.1,44.4,27.2,64.8,41.9
							c107.4,77.4,192.5,182.2,246.1,303c92.7,208.9,83.9,443.9-24.2,644.9c-59.9,111.4-148.3,206.1-255.7,273.8
							c-22.7,14.3-46.3,27.5-70.1,39.2c-10.9,5.4-22.7,10.8-36.2,16.7c-36.7,15.7-74.7,28.5-113.1,38.1c-32.2,8.1-65.4,14.2-99,18.1
							C1746.9,2438,1718.1,2439.6,1689.3,2439.6z M1681.8,960.5c-15.7,0-31.5,0.5-47.1,1.5c-9.4,0.5-18.1,1.2-26.4,2.1
							c-76.5,7.4-151.6,26.6-223.2,57.2c-183.6,78.5-324.6,223.1-396.9,407.2c-71.8,182.6-67.3,382.4,12.6,562.4
							c108.5,244.6,343.1,413.7,612.4,441.2c14.2,1.4,28.6,2.5,42.9,3.2c39.8,1.7,79.7,0.4,118.8-4.1c33.3-3.8,66.5-9.9,98.5-18
							c38.2-9.6,76.1-22.4,112.6-37.9c13.4-5.8,25.2-11.3,36.1-16.6c23.7-11.6,47.2-24.8,69.8-39
							c106.8-67.4,194.8-161.6,254.4-272.4l0,0c107.6-199.9,116.4-433.8,24.1-641.6c-53.3-120.2-138-224.5-244.9-301.5
							c-20.2-14.7-41.9-28.7-64.4-41.7c-14.5-8.4-29.6-16.4-45.1-24c-48-23.6-98.7-42.1-150.6-55c-52.4-13.1-106.2-20.7-159.9-22.4
							C1697.5,960.6,1689.7,960.5,1681.8,960.5z"/>
					</g>
					<g class="st10">
						<path class="st3" d="M999,1991.6c112.8,254.5,352.8,415.7,613.9,442.3c14.3,1.4,28.6,2.5,43,3.2c39.5,1.8,79.3,0.4,119.1-4.1
							c33-3.8,66-9.7,98.7-18c38-9.5,75.7-22.2,112.8-38c12.3-5.4,24.3-10.9,36.2-16.7c24.2-11.9,47.5-25,70-39.1
							c109.9-69.3,196.4-164.1,255-273.1c32.2-59.8,56-123.9,70.6-190.3c-58.3,102.7-141.9,192-246.8,258.1
							c-22.4,14.2-45.7,27.2-70,39.1c-11.8,5.8-23.9,11.3-36.2,16.7c-37.1,15.9-74.8,28.5-112.8,38.1c-32.8,8.3-65.8,14.2-98.7,18
							c-39.8,4.6-79.7,5.9-119.1,4.1c-14.4-0.7-28.7-1.7-43-3.2c-261.1-26.6-501-187.8-613.9-442.3c-65.9-148.4-78.5-306.4-46.3-453
							C920.8,1528.1,900.8,1770.4,999,1991.6z"/>
					</g>
					<g>
						<path class="st3" d="M1689.3,2452c-11.4,0-22.7-0.2-34.1-0.8c-14.6-0.7-29.3-1.8-43.8-3.2c-275-28.1-514.6-200.8-625.4-450.7
							c-81.7-184-86.2-388.2-12.8-574.8c73.9-188.1,218-335.9,405.6-416.1c73.2-31.2,149.9-50.9,227.9-58.4
							c8.5-0.9,17.4-1.6,27.1-2.2c23.9-1.5,48.2-1.9,72-1.1c54.8,1.8,109.8,9.5,163.3,22.9c53,13.2,104.7,32.1,153.7,56.2
							c15.8,7.7,31.2,16,46,24.5c23,13.3,45.2,27.7,65.8,42.6c109.2,78.7,195.7,185.2,250.2,308c94.2,212.4,85.3,451.4-24.7,655.7
							l0,0c-60.9,113.3-150.8,209.5-260,278.4c-23.1,14.6-47.1,27.9-71.3,39.8c-11,5.4-23.1,11-36.8,16.9c-37.3,16-76,29-115,38.8
							c-32.7,8.3-66.5,14.5-100.6,18.4C1747.8,2450.3,1718.6,2452,1689.3,2452z M1681.8,972.8c-15.4,0-31,0.5-46.4,1.5
							c-9.3,0.5-17.7,1.2-25.9,2.1c-75.3,7.2-149.2,26.2-219.6,56.2c-180.5,77.2-319.1,219.4-390.3,400.3
							c-70.6,179.5-66.2,375.9,12.4,552.9c106.7,240.6,337.5,406.9,602.3,433.9c13.9,1.4,28.1,2.4,42.2,3.1
							c39.1,1.7,78.4,0.4,116.8-4.1c32.8-3.8,65.4-9.7,96.9-17.7c37.6-9.4,74.8-22,110.7-37.3c13.2-5.7,24.8-11.1,35.4-16.3
							c23.4-11.5,46.5-24.4,68.7-38.4c105-66.2,191.5-158.8,250.1-267.8c105.7-196.5,114.4-426.4,23.7-630.8
							c-52.4-118.2-135.7-220.8-240.8-296.5c-19.9-14.4-41.2-28.2-63.4-41.1c-14.2-8.2-29.1-16.2-44.3-23.6
							c-47.2-23.2-97.1-41.4-148.1-54.1c-51.6-12.9-104.4-20.3-157.3-22C1697.2,973,1689.5,972.8,1681.8,972.8z M2347.6,2048
							L2347.6,2048L2347.6,2048z"/>
					</g>
					<g>
						<path class="st3" d="M1689.3,2463.2c-11.5,0-23.1-0.2-34.6-0.8c-14.8-0.7-29.8-1.8-44.4-3.3
							c-279-28.5-522.1-203.7-634.5-457.2c-82.9-186.8-87.5-394-13-583.4c75.1-190.9,221.2-340.9,411.6-422.3
							c74.2-31.7,152.1-51.6,231.3-59.2c8.6-0.9,17.7-1.6,27.5-2.2c24.2-1.5,48.8-1.9,73-1.1c55.6,1.8,111.4,9.6,165.6,23.2
							c53.8,13.4,106.2,32.6,155.9,57c16,7.8,31.7,16.2,46.7,24.9c23.4,13.5,45.8,28.1,66.8,43.3
							c110.8,79.8,198.6,187.9,253.8,312.5c95.7,215.6,86.5,458.2-25,665.6l0,0c-61.9,115-153.1,212.6-263.8,282.5
							c-23.4,14.8-47.8,28.4-72.3,40.4c-11.2,5.5-23.3,11.1-37.2,17.2c-37.9,16.2-77.2,29.4-116.8,39.4
							c-33.1,8.4-67.5,14.7-102,18.6C1748.7,2461.5,1719,2463.2,1689.3,2463.2z M1681.8,984c-15.2,0-30.5,0.5-45.7,1.4
							c-9.2,0.5-17.4,1.2-25.4,2c-74.3,7.2-147,25.8-216.4,55.4c-177.8,76-314.2,216-384.3,394.2c-69.5,176.7-65.1,370,12.2,544.3
							c105.1,236.9,332.4,400.7,593.2,427.3c13.7,1.4,27.7,2.4,41.6,3.1c38.5,1.7,77.2,0.4,115-4c32.3-3.7,64.4-9.6,95.4-17.4
							c37.1-9.3,73.7-21.7,109.1-36.8c13-5.6,24.4-10.9,34.9-16.1c23-11.3,45.8-24,67.7-37.8c103.4-65.2,188.5-156.4,246.2-263.6
							c104.1-193.4,112.6-419.8,23.3-620.9c-51.6-116.4-133.6-217.4-237.1-291.9c-19.6-14.2-40.6-27.8-62.5-40.5
							c-14-8.1-28.7-15.9-43.6-23.2c-46.5-22.8-95.6-40.8-145.9-53.3c-50.8-12.7-102.9-20-154.9-21.7
							C1697,984.2,1689.4,984,1681.8,984z M2347.6,2048L2347.6,2048L2347.6,2048z"/>
					</g>
					<g>
						<path class="st3" d="M2236.8,2202.1c-436.2,304.6-1035.6,91.4-1072.2-430.9c-24.9-355.3,308.5-652,655.9-651.9
							c252.9,0,500.3,109.2,609.6,496.3c0,0,21.6,178.6-26.4,297.8s-115,227-115,227L2236.8,2202.1z"/>
					</g>
					<g>
						<path class="st11" d="M1164.6,1771.2c36.6,522.3,636,735.5,1072.2,430.9l10.5-12.5c-482.3,87.2-966.6-196.1-1013.5-723.6
							C1183.3,1557.5,1156.9,1661.6,1164.6,1771.2z"/>
					</g>
					<g class="st12">
						<g>
							<defs>
								<path id="SVGID_1_" d="M2236.8,2202.1c-436.2,304.6-1035.6,91.4-1072.2-430.9c-24.9-355.3,308.5-652,655.9-651.9
									c252.9,0,500.3,109.2,609.6,496.3c0,0,21.6,178.6-26.4,297.8s-115,227-115,227L2236.8,2202.1z"/>
							</defs>
							<clipPath id="SVGID_00000165231690236425965700000006623636093813650064_">
								<use xlink:href="#SVGID_1_"  style="overflow:visible;"/>
							</clipPath>
							<g style="clip-path:url(#SVGID_00000165231690236425965700000006623636093813650064_);">
								<g class="st14">
									<circle class="st7" cx="1809.8" cy="1909.5" r="6.6"/>
								</g>
								<g class="st14">
									<path class="st7" d="M1390.6,1654.8c0,3.6-2.9,6.6-6.6,6.6s-6.6-2.9-6.6-6.6s2.9-6.6,6.6-6.6S1390.6,1651.1,1390.6,1654.8z
										"/>
								</g>
								<g class="st14">
									<circle class="st7" cx="2090" cy="2183.3" r="6.6"/>
								</g>
								<g class="st14">
									<circle class="st7" cx="1792.5" cy="2275" r="6.6"/>
								</g>
								<g class="st14">
									<circle class="st7" cx="1774.9" cy="2540.4" r="6.6"/>
								</g>
								<g class="st14">
									
										<ellipse transform="matrix(0.1602 -0.9871 0.9871 0.1602 -374.831 3634.8596)" class="st7" cx="1948.8" cy="2037.7" rx="11.3" ry="11.3"/>
								</g>
								<g>
									<circle class="st15" cx="1561.9" cy="2189.9" r="11.3"/>
								</g>
								<g class="st14">
									<ellipse class="st7" cx="1612.6" cy="1967.2" rx="16" ry="16"/>
								</g>
								<g>
									<circle class="st15" cx="1685.2" cy="1704" r="13.3"/>
								</g>
								<g class="st14">
									<circle class="st7" cx="2310.1" cy="2055.6" r="6.6"/>
								</g>
								<g>
									<path class="st15" d="M2219.3,2288.2c0,3.6-2.9,6.6-6.6,6.6c-3.6,0-6.6-2.9-6.6-6.6c0-3.6,2.9-6.6,6.6-6.6
										C2216.4,2281.6,2219.3,2284.6,2219.3,2288.2z"/>
								</g>
								<g class="st14">
									<circle class="st7" cx="1444" cy="2183.3" r="6.6"/>
								</g>
								<g class="st14">
									<circle class="st7" cx="1889.3" cy="2445.9" r="10.7"/>
								</g>
								<g class="st14">
									<circle class="st7" cx="1302.5" cy="2406.7" r="6.6"/>
								</g>
								<g class="st14">
									<circle class="st7" cx="1377.4" cy="1916.1" r="6.6"/>
								</g>
								<g class="st14">
									<circle class="st7" cx="2406.9" cy="2333.9" r="6.6"/>
								</g>
								<g class="st14">
									<circle class="st7" cx="2163.2" cy="2540.4" r="6.6"/>
								</g>
								<g>
									<g>
										<path class="st16" d="M2198.3,1874.4c2.3,5.8,3.5,11.7,4.3,17.5c0.8,5.8,1.2,11.7,1.2,17.5c0,5.8-0.4,11.7-1.2,17.5
											c-0.9,5.8-2,11.7-4.4,17.5c-2.3-5.8-3.5-11.7-4.4-17.5c-0.8-5.8-1.2-11.7-1.2-17.5c0-5.8,0.4-11.7,1.2-17.5
											C2194.8,1886.1,2196,1880.3,2198.3,1874.4z"/>
									</g>
									<g>
										<path class="st16" d="M2233.4,1909.5c-5.8,2.3-11.7,3.5-17.5,4.3c-5.8,0.8-11.7,1.2-17.5,1.2s-11.7-0.4-17.5-1.2
											c-5.8-0.8-11.7-2-17.5-4.3c5.8-2.3,11.7-3.5,17.5-4.3c5.8-0.8,11.7-1.2,17.5-1.2c5.8,0,11.7,0.4,17.5,1.2
											C2221.7,1906,2227.5,1907.2,2233.4,1909.5z"/>
									</g>
								</g>
								<g>
									<g>
										<path class="st16" d="M2316.7,2470.2c2.3,5.8,3.5,11.7,4.3,17.5c0.8,5.8,1.2,11.7,1.2,17.5s-0.4,11.7-1.2,17.5
											c-0.9,5.8-2,11.7-4.4,17.5c-2.3-5.8-3.5-11.7-4.4-17.5c-0.8-5.8-1.2-11.7-1.2-17.5s0.4-11.7,1.2-17.5
											C2313.2,2481.9,2314.4,2476.1,2316.7,2470.2z"/>
									</g>
									<g>
										<path class="st16" d="M2351.8,2505.3c-5.8,2.3-11.7,3.5-17.5,4.3c-5.8,0.8-11.7,1.2-17.5,1.2s-11.7-0.4-17.5-1.2
											c-5.8-0.9-11.7-2-17.5-4.4c5.8-2.3,11.7-3.5,17.5-4.4c5.8-0.8,11.7-1.2,17.5-1.2s11.7,0.4,17.5,1.2
											C2340.1,2501.8,2345.9,2503,2351.8,2505.3z"/>
									</g>
								</g>
								<g>
									<g>
										<path class="st16" d="M1479,2400.1c2.3,5.8,3.5,11.7,4.3,17.5c0.8,5.8,1.2,11.7,1.2,17.5s-0.4,11.7-1.2,17.5
											c-0.8,5.8-2,11.7-4.3,17.5c-2.3-5.8-3.5-11.7-4.3-17.5c-0.8-5.8-1.2-11.7-1.2-17.5c0-5.8,0.4-11.7,1.2-17.5
											C1475.6,2411.8,1476.7,2406,1479,2400.1z"/>
									</g>
									<g>
										<path class="st16" d="M1514.1,2435.2c-5.8,2.3-11.7,3.5-17.5,4.3c-5.8,0.8-11.7,1.2-17.5,1.2c-5.8,0-11.7-0.4-17.5-1.2
											c-5.8-0.9-11.7-2-17.5-4.4c5.8-2.3,11.7-3.5,17.5-4.4c5.8-0.8,11.7-1.2,17.5-1.2c5.8,0,11.7,0.4,17.5,1.2
											C1502.4,2431.7,1508.2,2432.9,1514.1,2435.2z"/>
									</g>
								</g>
							</g>
						</g>
						<g>
							<defs>
								<path id="SVGID_00000008144909166436018420000005143656259837719182_" d="M2236.8,2202.1
									c-436.2,304.6-1035.6,91.4-1072.2-430.9c-24.9-355.3,308.5-652,655.9-651.9c252.9,0,500.3,109.2,609.6,496.3
									c0,0,21.6,178.6-26.4,297.8s-115,227-115,227L2236.8,2202.1z"/>
							</defs>
							<clipPath id="SVGID_00000027606157682524450620000003771470260877585069_">
								<use xlink:href="#SVGID_00000008144909166436018420000005143656259837719182_"  style="overflow:visible;"/>
							</clipPath>
							<g style="clip-path:url(#SVGID_00000027606157682524450620000003771470260877585069_);">
								<g class="st14">
									<circle class="st7" cx="1643.6" cy="1070.1" r="6.6"/>
								</g>
								<g class="st14">
									<path class="st7" d="M1224.3,815.4c0,3.6-2.9,6.6-6.6,6.6s-6.6-3-6.6-6.6s2.9-6.6,6.6-6.6
										C1221.3,808.8,1224.3,811.8,1224.3,815.4z"/>
								</g>
								<g class="st14">
									<circle class="st7" cx="1923.7" cy="1344" r="6.6"/>
								</g>
								<g class="st14">
									<circle class="st7" cx="1626.2" cy="1435.7" r="6.6"/>
								</g>
								<g class="st14">
									<circle class="st7" cx="1608.7" cy="1701" r="6.6"/>
								</g>
								<g class="st14">
									<ellipse class="st7" cx="1782.5" cy="1198.4" rx="11.3" ry="11.3"/>
								</g>
								<g>
									<circle class="st15" cx="1395.6" cy="1350.6" r="11.3"/>
								</g>
								<g class="st14">
									<ellipse class="st7" cx="1446.4" cy="1127.9" rx="16" ry="16"/>
								</g>
								<g>
									<circle class="st15" cx="1518.9" cy="864.7" r="13.3"/>
								</g>
								<g class="st14">
									<circle class="st7" cx="2143.9" cy="1216.3" r="6.6"/>
								</g>
								<g>
									<path class="st15" d="M2053.1,1448.8c0,3.6-2.9,6.6-6.6,6.6s-6.6-2.9-6.6-6.6s2.9-6.6,6.6-6.6S2053.1,1445.2,2053.1,1448.8
										z"/>
								</g>
								<g class="st14">
									<circle class="st7" cx="1277.7" cy="1344" r="6.6"/>
								</g>
								<g class="st14">
									<circle class="st7" cx="1723.1" cy="1606.5" r="10.7"/>
								</g>
								<g class="st14">
									<circle class="st7" cx="1136.2" cy="1567.4" r="6.6"/>
								</g>
								<g class="st14">
									<circle class="st7" cx="1211.1" cy="1076.7" r="6.6"/>
								</g>
								<g class="st14">
									<circle class="st7" cx="2240.6" cy="1494.6" r="6.6"/>
								</g>
								<g class="st14">
									<circle class="st7" cx="1997" cy="1701" r="6.6"/>
								</g>
								<g>
									<g>
										<path class="st16" d="M2032,1035.1c2.3,5.8,3.5,11.7,4.3,17.5c0.8,5.8,1.2,11.7,1.2,17.5c0,5.8-0.4,11.7-1.2,17.5
											c-0.8,5.8-2,11.7-4.3,17.5c-2.3-5.8-3.5-11.7-4.3-17.5c-0.8-5.8-1.2-11.7-1.2-17.5c0-5.8,0.4-11.7,1.2-17.5
											C2028.6,1046.8,2029.8,1040.9,2032,1035.1z"/>
									</g>
									<g>
										<path class="st16" d="M2067.1,1070.1c-5.8,2.3-11.7,3.5-17.5,4.3c-5.8,0.8-11.7,1.2-17.5,1.2c-5.8,0-11.7-0.4-17.5-1.2
											c-5.8-0.8-11.7-2-17.5-4.3c5.8-2.3,11.7-3.5,17.5-4.3c5.8-0.8,11.7-1.2,17.5-1.2c5.8,0,11.7,0.4,17.5,1.2
											C2055.4,1066.7,2061.3,1067.8,2067.1,1070.1z"/>
									</g>
								</g>
								<g>
									<g>
										<path class="st16" d="M2150.4,1630.9c2.3,5.8,3.5,11.7,4.3,17.5c0.8,5.8,1.2,11.7,1.2,17.5c0,5.8-0.4,11.7-1.2,17.5
											c-0.9,5.8-2,11.7-4.4,17.5c-2.3-5.8-3.5-11.7-4.4-17.5c-0.8-5.8-1.2-11.7-1.2-17.5c0-5.8,0.4-11.7,1.2-17.5
											C2147,1642.6,2148.2,1636.7,2150.4,1630.9z"/>
									</g>
									<g>
										<path class="st16" d="M2185.5,1666c-5.8,2.3-11.7,3.5-17.5,4.3c-5.8,0.8-11.7,1.2-17.5,1.2s-11.7-0.4-17.5-1.2
											c-5.8-0.8-11.7-2-17.5-4.3c5.8-2.3,11.7-3.5,17.5-4.3c5.8-0.8,11.7-1.2,17.5-1.2c5.8,0,11.7,0.4,17.5,1.2
											C2173.8,1662.5,2179.7,1663.7,2185.5,1666z"/>
									</g>
								</g>
								<g>
									<g>
										<path class="st16" d="M1312.8,1560.8c2.3,5.8,3.5,11.7,4.3,17.5c0.8,5.8,1.2,11.7,1.2,17.5c0,5.8-0.4,11.7-1.2,17.5
											c-0.8,5.8-2,11.7-4.3,17.5c-2.3-5.8-3.5-11.7-4.3-17.5c-0.8-5.8-1.2-11.7-1.2-17.5c0-5.8,0.4-11.7,1.2-17.5
											C1309.3,1572.5,1310.5,1566.6,1312.8,1560.8z"/>
									</g>
									<g>
										<path class="st16" d="M1347.8,1595.8c-5.8,2.3-11.7,3.5-17.5,4.3c-5.8,0.8-11.7,1.2-17.5,1.2c-5.8,0-11.7-0.4-17.5-1.2
											c-5.8-0.8-11.7-2-17.5-4.3c5.8-2.3,11.7-3.5,17.5-4.3c5.8-0.8,11.7-1.2,17.5-1.2c5.8,0,11.7,0.4,17.5,1.2
											C1336.1,1592.4,1342,1593.6,1347.8,1595.8z"/>
									</g>
								</g>
							</g>
						</g>
						<g>
							<defs>
								<path id="SVGID_00000161621002777947424720000001604329888123519665_" d="M2236.8,2202.1
									c-436.2,304.6-1035.6,91.4-1072.2-430.9c-24.9-355.3,308.5-652,655.9-651.9c252.9,0,500.3,109.2,609.6,496.3
									c0,0,21.6,178.6-26.4,297.8s-115,227-115,227L2236.8,2202.1z"/>
							</defs>
							<clipPath id="SVGID_00000127733264239605248310000005548707871888179077_">
								<use xlink:href="#SVGID_00000161621002777947424720000001604329888123519665_"  style="overflow:visible;"/>
							</clipPath>
							<g style="clip-path:url(#SVGID_00000127733264239605248310000005548707871888179077_);">
								<g>
									<g>
										<path class="st19" d="M2127,1793.1c-0.6,5.2-1.4,10.4-2.6,15.5c-2.8,11.8-7.2,23.5-13.4,34.7
											c-35.8,64.4-117,87.6-181.4,51.8c-51.3-28.5-76.4-85.8-66.5-140.5c2.6-14,7.4-27.8,14.7-40.9
											c11.4-20.5,27.4-36.8,45.9-48.4c3-1.9,6-3.6,9.2-5.2c16.8-8.7,35.2-13.8,54.1-14.8c0.2,0,0.3,0,0.5,0
											c1.2-0.1,2.3-0.1,3.5-0.1c2.3-0.1,4.6-0.1,6.9,0c15.7,0.4,31.4,3.6,46.6,9.7c5,2,9.9,4.4,14.8,7.1c1,0.6,2.1,1.2,3.1,1.8
											c0.6,0.4,1.2,0.7,1.8,1.1C2109.3,1692.4,2132.5,1743.1,2127,1793.1z"/>
									</g>
									<g>
										<path class="st19" d="M2127,1793.1c-0.6,5.2-1.4,10.4-2.6,15.5c-2.8,11.8-7.2,23.5-13.4,34.7
											c-35.8,64.4-117,87.6-181.4,51.8c-51.3-28.5-76.4-85.8-66.5-140.5c2.6-14,7.4-27.8,14.7-40.9c7.9-14.2,18-26.4,29.7-36.4
											c5.1-4.4,10.6-8.4,16.3-11.9c3-1.9,6-3.6,9.2-5.2c16.8-8.7,35.2-13.8,54.1-14.8c0.2,0,0.3,0,0.5,0
											c1.2-0.1,2.3-0.1,3.5-0.1c2.3-0.1,4.6-0.1,6.9,0c15.7,0.4,31.4,3.6,46.6,9.7c5,2,9.9,4.4,14.8,7.1c1,0.6,2.1,1.2,3.1,1.8
											c0.6,0.4,1.2,0.7,1.8,1.1c7.2,4.4,13.8,9.3,19.8,14.8C2115.9,1708.4,2131.6,1751,2127,1793.1z"/>
									</g>
									<g>
										<path class="st20" d="M1941.2,1709.3c-2.7-5.6-3.8-11.2-4.2-15c3.8-0.4,7.4,1.2,8.9,4.2
											C1947.7,1702.3,1945.6,1706.9,1941.2,1709.3z"/>
									</g>
									<g>
										<path class="st20" d="M1929.6,1895.1c64.4,35.8,145.6,12.6,181.4-51.8c6.2-11.2,10.6-22.8,13.4-34.7
											c1.2-5.2,2.1-10.3,2.6-15.5c1-9.2,1-18.5,0.1-27.7c0,0.4-0.1,0.8-0.1,1.3c-0.6,5.2-1.4,10.4-2.6,15.5
											c-2.8,11.8-7.2,23.5-13.4,34.7c-35.8,64.4-117,87.6-181.4,51.8c-39.7-22.1-63.8-61.4-68-103.5
											C1856.5,1816.6,1881.6,1868.4,1929.6,1895.1z"/>
									</g>
									<g>
										<path class="st20" d="M2075.5,1793.1c-3.6,16.2,1.4,29.4,11.1,29.4c9.8,0,21.6-12.8,25.2-29.1s-2.2-29.8-12-29.8
											C2090.1,1763.7,2079.2,1776.9,2075.5,1793.1z"/>
									</g>
									<g>
										<path class="st3" d="M2068.3,1782.3c-3.6,8.4-4.1,17.2-2.4,25.7c0.9,4.2,2.4,8.3,4.6,11.9c2.3,3.5,5.3,6.7,9.5,8.2l0.1,0
											c0.5,0.2,0.7,0.7,0.6,1.2c-0.1,0.4-0.5,0.6-0.9,0.6c-5.2,0-10.1-3-13.4-7c-3.4-3.9-5.4-8.8-6.6-13.7
											c-1.1-4.9-1.2-10.1-0.2-15.1c1-4.9,3.2-9.7,6.7-13.3c0.4-0.5,1.2-0.5,1.6,0C2068.4,1781.4,2068.5,1781.9,2068.3,1782.3
											L2068.3,1782.3z"/>
									</g>
									<g>
										<path class="st20" d="M1933.4,1687.4c-7.3,0.3-13.1,5.6-12.9,11.8c0.2,6.2,6.3,11.1,13.6,10.8c7.3-0.3,13.1-5.6,12.9-11.8
											C1946.9,1692,1940.8,1687.2,1933.4,1687.4z"/>
									</g>
									<g>
										<path class="st19" d="M1933.3,1695.3c-5,2.2-7.6,7.2-5.7,11.3c1.9,4,7.5,5.5,12.6,3.3c5-2.2,7.6-7.2,5.7-11.3
											C1944,1694.6,1938.3,1693.1,1933.3,1695.3z"/>
									</g>
									<g>
										<path class="st3" d="M1934.2,1711.7c-5.8,1.2-13.2-1.4-16.2-8.1c-1.5-3.2-1.3-7.2,0.1-10.4c1.5-3.2,4.1-5.7,7.1-7.3
											c6-3.1,13.5-2.6,18.8,1.5c2.7,2,4.6,5,5.1,8.3c0.5,3.3-0.5,6.7-2.5,8.9c-0.3,0.4-0.9,0.4-1.3,0.1
											c-0.3-0.3-0.4-0.7-0.2-1.1c2.2-4.9,0-9.9-4-12.1c-3.9-2.3-9.1-2.3-13-0.2c-4,2.1-6.3,6.3-5,10.2c1.2,4,5.8,7.2,10.9,7.8
											c0.6,0.1,1.1,0.7,1,1.3C1935.1,1711.2,1934.7,1711.6,1934.2,1711.7z"/>
									</g>
									<g>
										<path class="st3" d="M1951.4,1690.4c4.2,4.2,5.3,11.7,2.3,17.5c-2.8,5.8-8.6,9.7-14.6,11c-6,1.3-12.6,0.5-17.8-2.9
											c-2.6-1.7-4.8-3.9-6.3-6.6c-1.4-2.7-2.2-5.8-1.8-8.7c0.1-0.5,0.5-0.9,1-0.8c0.4,0.1,0.7,0.4,0.8,0.8c1,5.1,4.6,8.9,8.8,11
											c4.3,2.1,9.3,2.5,13.9,1.3c4.5-1.1,8.8-3.8,11.2-7.6c2.4-3.8,2.9-8.9,0.6-13.6c-0.3-0.6,0-1.3,0.5-1.6
											C1950.5,1690,1951.1,1690.1,1951.4,1690.4z"/>
									</g>
									<g>
										<path class="st3" d="M1898,1728.8c4,0.2,7.9,1.8,11.5,4c3.4,2.3,6.3,5.5,8.5,9.1c4.2,7.3,5,16.2,3.1,24.2
											c-1.9,8.1-6.5,15.4-12.9,20.5c-6.3,5.2-14.5,8.2-22.5,7.3c-0.5-0.1-0.9-0.5-0.8-1c0.1-0.4,0.4-0.8,0.8-0.8
											c7.4-0.9,14.1-4.3,19.2-9.3c5-5,8.7-11.3,10.2-18.2c1.6-6.8,1.1-14-1.9-20.3c-1.4-3.1-3.6-6-6.2-8.2
											c-2.6-2.3-5.8-4.1-9.3-5.2c-0.6-0.2-0.9-0.8-0.8-1.4C1897,1729.1,1897.5,1728.8,1898,1728.8z"/>
									</g>
									<g>
										
											<ellipse transform="matrix(0.1745 -0.9847 0.9847 0.1745 -174.4325 3314.1589)" class="st20" cx="1889.3" cy="1761.1" rx="23" ry="19.1"/>
									</g>
									<g>
										<path class="st19" d="M1888.6,1780.9c6.8,0.1,13.7-4.5,17.2-12.3c4.7-10.3,1.7-22.3-6.7-26.8c-1.2-0.6-2.4-1.1-3.7-1.3
											c-5,2-9.4,6.3-12.2,12.2C1878.5,1763.2,1880.9,1775.2,1888.6,1780.9z"/>
									</g>
									<g>
										<path class="st3" d="M1870.5,1752.7c1.6-4.2,4.6-8,8.4-10.7c3.9-2.6,8.7-4.2,13.7-3.8c1.2,0.1,2.5,0.4,3.7,0.8
											c1.2,0.4,2.4,0.7,3.5,1.3c2.2,1.2,4.2,2.8,5.8,4.8c3.1,4,4.6,9.1,4.5,13.9c-0.2,9.8-6.2,19.1-15.2,22.9
											c-4.4,1.9-9.5,2.4-14.1,1c-4.6-1.5-8.4-4.9-10.3-9l0,0c-0.2-0.5,0-1,0.5-1.2c0.4-0.2,0.9,0,1.1,0.3
											c4.8,6.9,14,8.2,20.6,4.4c6.6-3.6,11.1-11,11.2-18.4c0-3.7-1-7.3-3.2-10.1c-1.1-1.4-2.4-2.6-3.9-3.5
											c-0.7-0.5-1.6-0.7-2.4-1c-0.8-0.3-1.6-0.7-2.6-0.8c-7.2-1.2-15.1,3.3-19.5,10.2c-0.3,0.5-1.1,0.7-1.6,0.4
											C1870.5,1753.8,1870.3,1753.2,1870.5,1752.7z"/>
									</g>
									<g>
										<path class="st3" d="M2047.5,1755c2,10.3-0.8,21.7-7.5,30.3c-6.7,8.7-17.3,14.1-28.1,15c-10.9,1-21.9-2.2-30.6-8.6
											c-4.3-3.2-8-7.1-11-11.5c-2.8-4.5-5-9.4-6-14.5c-0.1-0.5,0.2-1,0.7-1.1c0.4-0.1,0.9,0.2,1.1,0.6
											c3.5,9.3,10,17.2,18.1,22.3c8.1,5,17.8,7.6,27.1,6.6c9.3-0.9,18.3-5.3,24.5-12.3c3.2-3.5,5.6-7.7,7.1-12.2
											c1.7-4.5,2.4-9.4,2.3-14.3c0-0.6,0.5-1.2,1.1-1.2C2046.9,1754.1,2047.4,1754.5,2047.5,1755z"/>
									</g>
									<g>
										
											<ellipse transform="matrix(0.9626 -0.2709 0.2709 0.9626 -400.9798 608.9174)" class="st20" cx="2005.2" cy="1757" rx="29.3" ry="26.7"/>
									</g>
									<g>
										<path class="st19" d="M1981.2,1764.4c2.5,9.1,10.7,16.5,21.5,17.9c14.3,2,27.7-7.2,29.9-20.4c0.3-1.9,0.4-3.7,0.2-5.5
											c-4.4-5.8-11.2-10-19.4-11.2C1998.8,1743.3,1985.1,1751.7,1981.2,1764.4z"/>
									</g>
									<g>
										<path class="st3" d="M2008.4,1728.7c6,0.6,11.8,3.4,16.4,7.5c4.5,4.2,7.8,9.9,9,16.2c1.3,6.2,0.1,13-3.2,18.6
											c-3.3,5.6-8.6,10-14.7,12c-12.3,4.1-26.6-0.8-33.9-11.1c-3.7-5.1-5.9-11.3-5.7-17.5c0.2-6.2,2.5-12.3,6.7-16.6
											c0.3-0.4,0.9-0.4,1.3,0c0.3,0.3,0.4,0.8,0.1,1.2c-6.6,9.1-5.3,21.9,1.6,29.8c3.4,4,7.8,7.1,12.8,8.6
											c5,1.5,10.3,1.5,15.1-0.2c4.8-1.7,9-4.9,11.6-9.2c2.6-4.3,3.6-9.6,2.9-14.7c-1.3-10.3-9.7-19.5-20.5-22.3
											c-0.6-0.2-1-0.8-0.8-1.4C2007.3,1729,2007.8,1728.6,2008.4,1728.7z"/>
									</g>
									<g>
										<g>
											<path class="st19" d="M1929.6,1831.9c-6.3,3.3-11.2,8.1-13.9,14.3c-5,11.2-1.4,23.5,7.6,34.3c6,7.1,14.4,13.3,24.7,17.5
												c25.9,10.5,53.6,4.1,61.8-14.4c3.1-6.9,3-14.4,0.4-21.8c-4.4-12.4-19.7-16.1-36-22.7"/>
										</g>
										<g>
											<path class="st3" d="M1916.8,1846.7c-3.9,10.5,0.2,21.7,7,30.1c6.8,8.5,16.1,14.9,26.4,18.8c10.1,4.1,21.4,5.7,32.2,4.2
												c10.7-1.4,21.4-6.6,26.8-16.5c0.2-0.4,0.8-0.6,1.3-0.4c0.4,0.2,0.6,0.7,0.4,1.1c-2,5.6-6.1,10.4-11,14
												c-5,3.4-10.7,5.6-16.6,6.8c-11.8,2.4-24.1,0.6-35.3-3.5c-11-4.4-21.3-11.4-28.4-21.3c-3.4-4.9-6.2-10.4-7.4-16.5
												c-1.1-6-0.3-12.4,2.6-17.7c0.3-0.6,1-0.8,1.6-0.5C1916.7,1845.5,1917,1846.2,1916.8,1846.7z"/>
										</g>
										<g>
											
												<ellipse transform="matrix(0.2558 -0.9667 0.9667 0.2558 -342.0799 3285.3208)" class="st20" cx="1962.8" cy="1864.8" rx="28" ry="38.5"/>
										</g>
										<g>
											
												<ellipse transform="matrix(0.1763 -0.9843 0.9843 0.1763 -224.9927 3476.1128)" class="st19" cx="1964.5" cy="1872.5" rx="20.6" ry="32.6"/>
										</g>
										<g>
											<path class="st3" d="M1987.5,1888.9c2.9-1.8,5.5-4.1,7.4-6.8s2.9-5.9,3.2-9.1c0.6-6.5-2.3-12.9-6.6-18
												c-8.6-10.2-22.3-16.3-35.7-16.6c-6.7-0.1-13.5,1.2-18.9,4.7c-5.4,3.4-8.9,9.2-9,15.6c-0.2,6.4,3,12.8,7.4,18
												c4.4,5.3,10.2,9.4,16.6,12.5c0.5,0.2,0.7,0.8,0.4,1.2c-0.2,0.4-0.7,0.6-1.1,0.5c-6.9-2.4-13.4-6.3-18.7-11.6
												c-5.1-5.4-9.3-12.4-9.6-20.6c-0.5-8.1,4.2-16.2,10.9-20.5c6.7-4.5,14.6-6,22.2-6.1c7.7,0.1,15.2,2.1,22,5.3
												c6.8,3.3,13.2,7.8,17.8,14c4.6,6.1,7.8,13.9,6.6,21.9c-1.2,7.9-6.9,14.6-13.8,17.5c-0.6,0.3-1.3,0-1.5-0.6
												C1986.9,1889.8,1987.1,1889.2,1987.5,1888.9z"/>
										</g>
									</g>
									<g>
										<g>
											<path class="st19" d="M2045.2,1705.3c4.7-3.1,8.2-7.2,9.9-12.3c3.1-9.2-0.7-18.6-8.6-26.4c-5.2-5.1-12.4-9.4-20.8-11.8
												c-21.2-6.3-42.5,0.9-47.5,16.1c-1.9,5.6-1.2,11.6,1.4,17.2c4.4,9.4,14.7,17.2,28,21.1"/>
										</g>
										<g>
											<path class="st3" d="M2054,1692.6c2.1-8.5-2-16.7-8-22.7c-6-6-13.7-10.2-21.9-12.5c-8.2-2.4-17-2.8-25.3-1
												c-8.2,1.9-16.1,6.6-19.8,14.6c-0.2,0.5-0.8,0.7-1.2,0.5c-0.4-0.2-0.6-0.6-0.5-1.1c1.1-4.7,4-8.8,7.5-12.1
												c3.7-3.2,8.1-5.4,12.6-6.8c9.2-2.9,19.1-2.6,28.3-0.1c9.2,2.5,17.9,7.4,24.2,14.8c3.1,3.7,5.7,7.9,7.1,12.6
												c1.3,4.7,1.1,10-0.9,14.3c-0.2,0.6-0.9,0.9-1.5,0.6C2054.1,1693.7,2053.9,1693.2,2054,1692.6z"/>
										</g>
										<g>
											
												<ellipse transform="matrix(0.1606 -0.987 0.987 0.1606 32.4073 3402.4963)" class="st20" cx="2016.6" cy="1682.2" rx="22.1" ry="30.4"/>
										</g>
										<g>
											
												<ellipse transform="matrix(7.980087e-02 -0.9968 0.9968 7.980087e-02 183.0247 3550.4651)" class="st19" cx="2014.5" cy="1676.1" rx="16.2" ry="25.8"/>
										</g>
										<g>
											<path class="st3" d="M1995.4,1665.1c-4.3,3.3-7,8.2-6.8,13.2c0,5,2.8,9.7,6.5,13.2c7.4,7.2,18.5,10.9,28.8,10.1
												c5.2-0.4,10.3-1.9,14.2-4.9c3.9-3,6.1-7.6,5.8-12.5c-0.3-4.9-3.2-9.6-6.9-13.4c-3.8-3.8-8.6-6.6-13.8-8.7
												c-0.5-0.2-0.7-0.7-0.6-1.2c0.2-0.4,0.6-0.7,1.1-0.6c5.7,1.2,11.2,3.8,15.8,7.6c4.5,3.8,8.5,9.1,9.4,15.7
												c1.1,6.5-2.1,13.5-7.2,17.4c-5,4.2-11.2,6-17.3,6.6c-6.1,0.5-12.3-0.5-18-2.6c-5.7-2.1-11.1-5.2-15.3-9.8
												c-4.1-4.5-7.2-10.6-6.9-17.1c0.4-6.5,4.5-12.2,9.8-15l0,0c0.6-0.3,1.3-0.1,1.6,0.5
												C1996,1664.2,1995.9,1664.8,1995.4,1665.1z"/>
										</g>
									</g>
									<g>
										
											<ellipse transform="matrix(0.3213 -0.947 0.947 0.3213 -278.631 3195.3442)" class="st19" cx="2089.9" cy="1792.1" rx="25.9" ry="13.5"/>
									</g>
									<g>
										<path class="st3" d="M2110.2,1772.4c-1.4-2.1-3.1-3.8-5.1-4.8c-2-1-4.3-1.2-6.5-0.8c-4.4,0.7-8.5,3.8-11.6,7.4
											c-6.3,7.3-10.1,17.2-10.4,26.8c-0.2,4.8,0.6,9.7,3,13.3c2.3,3.7,6.4,5.4,10.7,4.5c4.4-0.9,8.6-3.9,11.9-7.5
											c3.5-3.6,6.1-8,8.3-12.7l0,0c0.2-0.5,0.8-0.7,1.2-0.4c0.4,0.2,0.6,0.7,0.5,1.1c-1.4,5.2-3.7,10.2-7.1,14.6
											c-3.3,4.3-7.8,8.2-13.6,9.9c-2.9,0.8-6.3,0.9-9.3-0.3c-3.1-1.1-5.6-3.3-7.3-5.9c-3.5-5.1-4.4-11.1-4.4-16.7
											c0.1-5.7,1.5-11.2,3.6-16.3c2.1-5.1,5-10,9-14.1c4-3.9,9-7.4,15.1-8c3-0.2,6.2,0.5,8.7,2.2c2.5,1.6,4.3,4.1,5.4,6.6
											c0.2,0.6,0,1.3-0.6,1.5C2111.1,1773,2110.5,1772.8,2110.2,1772.4z"/>
									</g>
									<g class="st21">
										<path class="st7" d="M2098.1,1730.4c-6,14.1,11.2,36,3,76c-3.5,17,17.1,5.5,18.4-28.8
											C2120.8,1745.8,2102.3,1720.5,2098.1,1730.4z"/>
									</g>
									<g class="st21">
										<path class="st7" d="M2073.1,1695.8c1.3,5.6,10.6,11.7,16.7,21.8c6.5,10.8,15.8,8.6,7.9-11.6
											C2089.2,1684.5,2070.7,1685.3,2073.1,1695.8z"/>
									</g>
									<g>
										<path class="st3" d="M1994.2,1915c-22.4,0-45.1-5.5-66.1-17.2c-51.2-28.4-78.5-86.2-68-143.8c2.7-14.7,7.7-28.8,15-41.9
											c11.2-20.2,27.5-37.3,47-49.5c3-1.9,6.2-3.7,9.4-5.3c17.1-8.8,36.2-14.1,55.4-15.2l0.6,0c1.1-0.1,2.3-0.1,3.5-0.1
											c2.3-0.1,4.7-0.1,7.1,0c16.4,0.4,32.4,3.8,47.7,9.9c5.1,2.1,10.2,4.5,15.1,7.2c1.1,0.6,2.1,1.2,3.2,1.8
											c0.6,0.3,1.2,0.7,1.9,1.1c44.8,27.4,70.1,78.9,64.4,131.3c-0.6,5.3-1.5,10.6-2.7,15.9c-2.9,12.4-7.5,24.3-13.7,35.5
											C2088.8,1889.7,2042.2,1915,1994.2,1915z M1994.5,1648.2c-1.2,0-2.3,0-3.5,0.1c-1.1,0-2.3,0.1-3.4,0.1l-0.5,0
											c-18.3,1-36.5,6-52.8,14.5c-3.1,1.6-6.1,3.3-8.9,5.1c-18.6,11.6-34.1,27.9-44.9,47.2c-7,12.5-11.8,26-14.3,40
											c-10,54.9,16.1,110.1,64.9,137.2c62.8,34.9,142.3,12.2,177.2-50.6c5.9-10.7,10.3-22.1,13.1-33.9c1.2-5,2-10.1,2.6-15.2
											l0,0c5.5-49.9-18.7-99.1-61.5-125.3c-0.6-0.4-1.2-0.7-1.8-1.1c-1-0.6-2-1.2-3-1.8c-4.7-2.6-9.5-4.9-14.4-6.9
											c-14.5-5.9-29.8-9.1-45.5-9.5C1996.7,1648.2,1995.6,1648.2,1994.5,1648.2z"/>
									</g>
								</g>
							</g>
						</g>
					</g>
					<g>
						<path class="st3" d="M1800.9,2436.5c-185.2,0-362.5-62.2-495.5-175.4c-141.8-120.8-224-288-237.8-483.5
							c-12.6-179.6,53.7-357.1,186.6-499.6c147.6-158.3,360.3-252.8,568.8-252.8c0,0,0,0,0.1,0c115.9,0,220.4,20.4,310.7,60.7
							l1.7,0.8l1.5,1.1c109.8,79.1,196.8,186.2,251.6,309.7c94.8,213.6,85.7,453.9-24.8,659.4l0,0
							c-61.3,113.9-151.7,210.7-261.4,279.9c-23.2,14.6-47.3,28.1-71.7,40.1c-11.1,5.5-23.2,11.1-36.9,17
							c-37.6,16.1-76.4,29.2-115.7,39l-2.8,0.5C1850.4,2435.4,1825.6,2436.5,1800.9,2436.5z M1823,1061.8
							c-198.6,0-401.2,90.1-542,241.2c-125.9,135-188.7,302.7-176.8,472c13,185.5,90.8,343.9,225,458.2
							c143,121.8,340.2,181.3,541.4,163.6c36.9-9.3,73.4-21.7,108.7-36.8c13.1-5.7,24.7-11,35.2-16.2c23.2-11.4,46.2-24.2,68.3-38.2
							c104.4-65.9,190.4-157.9,248.7-266.2c105.1-195.4,113.7-424,23.6-627.1c-51.9-117-134.1-218.5-237.9-293.7
							C2032,1080.9,1933.1,1061.8,1823,1061.8C1823.1,1061.8,1823,1061.8,1823,1061.8z M2347.6,2048L2347.6,2048L2347.6,2048z"/>
					</g>
					<g>
						<path class="st3" d="M1799.3,2360.9c-104.6,0-207.9-22.3-302.7-67.6c-206.3-98.5-334-288.4-350.3-520.8
							c-11.2-160.4,47.9-318.8,166.5-446c131.7-141.2,321.4-225.6,507.6-225.6c0,0,0,0,0.1,0c320.7,0,531.7,171.5,627.2,509.6
							l0.6,2.8c0.9,7.5,21.6,184.7-27.5,306.8c-48,119.3-113.7,225.4-116.4,229.8l-1.5,2.1l-53.4,63.7l-2,1.4
							C2111.2,2312.2,1954,2360.9,1799.3,2360.9z M1820.4,1137.6c-176.2,0-355.8,79.9-480.8,213.9
							c-111.6,119.7-167.3,268.3-156.8,418.4c15.3,218.9,135.4,397.6,329.5,490.3c222.5,106.2,495,78.7,711.9-71.8l49.4-58.9
							c7.1-11.5,68.7-113.1,112.9-223.1c43.4-108,27.1-270.8,25.3-287.4C2321.3,1299.6,2122.3,1137.7,1820.4,1137.6
							C1820.4,1137.6,1820.4,1137.6,1820.4,1137.6z M2236.8,2202.1L2236.8,2202.1L2236.8,2202.1z"/>
					</g>
					<g>
						<path class="st7" d="M831.9,1740.1c-7.6,145.6,73.2,272.6,180.5,283.5s200.5-98.2,208.1-243.8c0.1-0.9,0.1-1.9,0.1-2.8
							c6.5-144.4-74-269.9-180.6-280.8c-82.9-8.5-157.3,54.7-190.5,151C839.8,1675.7,833.6,1707,831.9,1740.1z"/>
					</g>
					<g class="st10">
						<path class="st3" d="M831.9,1740.1c-7.6,145.6,73.2,272.6,180.5,283.5s200.5-98.2,208.1-243.8c0.1-0.9,0.1-1.9,0.1-2.8
							c-12.6,13.7-31.7,26.6-56.3,19.1c-43.1-13.2-116.4-114.8-116.4-114.8s-85.9-15.3-198.3-34
							C839.8,1675.7,833.6,1707,831.9,1740.1z"/>
					</g>
					<g>
						<path class="st3" d="M1027.5,2049.8c-5.9,0-11.8-0.3-17.7-0.9c-120.4-12.3-211.6-151.4-203.3-310.1l25.4,1.3l-25.4-1.3
							c4.8-91.4,40.8-172.3,98.8-222c40.8-34.9,88.2-50.7,137.2-45.7c120.4,12.3,211.6,151.4,203.3,310.1
							c-4.8,91.4-40.8,172.3-98.8,222C1111.2,2033.9,1070.2,2049.8,1027.5,2049.8z M1025.1,1521c-30.6,0-60.3,11.8-86.8,34.4
							c-46.8,40.1-77.1,109.7-81.1,186.1c-6.9,132.1,63.8,247.3,157.7,256.9c34.8,3.6,69.1-8.1,99-33.8
							c46.8-40.1,77.1-109.7,81.1-186.1c6.9-132.1-63.8-247.3-157.7-256.9C1033.3,1521.2,1029.2,1521,1025.1,1521z"/>
					</g>
					<g>
						
							<ellipse transform="matrix(0.999 -4.370195e-02 4.370195e-02 0.999 -76.8001 43.7534)" class="st7" cx="962.3" cy="1778.4" rx="158.7" ry="209.9"/>
						<path class="st3" d="M966.2,1990.4c-18.3,0-36.7-4.2-54.6-12.7c-46.8-22.1-83.4-70.1-100.2-131.7
							c-30.3-110.5,12.7-230.8,95.8-268.1c34.5-15.5,71.2-15.1,106,1.3c46.8,22.1,83.4,70.1,100.2,131.7
							c30.3,110.5-12.7,230.8-95.8,268.1C1000.8,1986.6,983.5,1990.4,966.2,1990.4z M815,1845c16.6,60.5,52.3,107.6,98.2,129.2
							c33.8,15.9,69.3,16.4,102.8,1.3c81.4-36.6,123.4-154.8,93.7-263.6c-16.6-60.5-52.4-107.6-98.2-129.2
							c-33.8-15.9-69.3-16.4-102.8-1.3C827.2,1618,785.2,1736.3,815,1845L815,1845z"/>
					</g>
					<g class="st10">
						<path class="st3" d="M1107.4,1875.6c11.8-37.9,13.1-79.3,5.7-118.6c-34.4,84.2-115.5,114.9-187.9,67.9
							c-46.8-30.3-79.2-86.2-90.7-147c-2.2,5.3-4.2,10.9-6,16.6c-30.1,96.6,8,215.5,85,265.5
							C990.6,2010.1,1077.3,1972.2,1107.4,1875.6z"/>
					</g>
					<g>
						<path class="st3" d="M962.7,2014c-4.7,0-9.4-0.3-14.1-0.8c-95.5-10.5-165.3-123.7-158.8-257.6c3.8-77.8,34.2-148.3,81.3-188.6
							c31.1-26.5,67-38.4,103.8-34.3c95.5,10.5,165.3,123.7,158.8,257.6c-3.8,77.8-34.2,148.3-81.3,188.6
							C1025.4,2002,994.6,2014,962.7,2014z M815.2,1756.8l25.4,1.2c-5,103.6,47,197.4,113.6,204.7c28.5,3.2,51.3-10.5,65.3-22.5
							c36.7-31.3,60.4-88.3,63.5-152.4c5-103.6-47-197.4-113.6-204.7c-28.5-3.2-51.3,10.5-65.3,22.5
							c-36.7,31.3-60.4,88.3-63.5,152.4L815.2,1756.8z"/>
					</g>
					<g class="st22">
						<path class="st7" d="M1637.7,1261.9c0,0,330.1-4.5,512.5,182.9c0.2,0.2,0.4,0.4,0.6,0.6c38.4,39.5,65.3,113.7,78.2,166.8
							c17.2,70.2,18.6,121,18.1,165.8c-1.6,136.1-28.2,199.5-28.2,199.5c79.4-70.6,124.5-151.6,127-264.9c0.2-11.2,0-22.7-0.6-34.6
							c-0.1-2.7-0.3-5.4-0.5-8.2c0.1,0,0-0.1,0-0.2c-2.9-23.9-7.9-55.2-16.5-90c-25.9-105.1-84.6-242.5-216.8-308
							C1864.1,1149.2,1626.5,1247.5,1637.7,1261.9z"/>
					</g>
					<g class="st22">
						
							<ellipse transform="matrix(0.2816 -0.9595 0.9595 0.2816 -530.6467 2472.2908)" class="st7" cx="1385.8" cy="1590.5" rx="115.1" ry="100.2"/>
					</g>
					<g class="st22">
						
							<ellipse transform="matrix(0.3695 -0.9292 0.9292 0.3695 -827.2219 2364.1187)" class="st7" cx="1328.5" cy="1791.6" rx="47.6" ry="41.4"/>
					</g>
				</g>
				<g>
					<g>
						<path class="st1" d="M1346.2,2471.1c0,0,238.8-145.7,473.2-145.9c265.8-0.1,298.2,252.8,154.1,320.9
							c-135.2,63.9-452.3,25.9-452.3,25.9"/>
					</g>
					<g>
						<path class="st3" d="M1720.7,2708.7c-104.7,0-195.5-10.6-202.5-11.4c-13.9-1.7-23.9-14.3-22.2-28.2
							c1.7-13.9,14.3-23.9,28.2-22.2c3.1,0.4,311.4,36.3,438.4-23.7c53.4-25.2,80.3-82.6,66.8-142.6
							c-14.1-62.8-76.6-129.9-209.8-129.9c-0.1,0-0.1,0-0.2,0c-224.3,0.1-457.7,140.7-460,142.1c-12,7.3-27.6,3.5-34.9-8.5
							c-7.3-12-3.5-27.6,8.4-34.9c10-6.1,247.6-149.4,486.4-149.6c0.1,0,0.2,0,0.2,0c163.2,0,240.9,87.6,259.4,169.6
							c18.5,82.5-20.4,164.6-94.6,199.7C1918.3,2700.3,1813.9,2708.7,1720.7,2708.7z"/>
					</g>
				</g>
			</g>
			<g>
				<path class="st23" d="M878.4,3327.6H830c-28.3,0-51.2-22.9-51.2-51.2v-589.1c0-28.3,22.9-51.2,51.2-51.2h48.4
					c28.3,0,51.2,22.9,51.2,51.2v589.1C929.6,3304.7,906.7,3327.6,878.4,3327.6z"/>
			</g>
			<g class="st2">
				<path class="st3" d="M891.9,3325.8c-4.3,1.2-8.8,1.8-13.5,1.8H830c-28.2,0-51.2-22.9-51.2-51.2v-589.1
					c0-28.2,22.9-51.2,51.2-51.2h48.4c4.7,0,9.2,0.6,13.5,1.8c-21.7,5.9-37.7,25.8-37.7,49.4v589.1
					C854.2,3300.1,870.2,3319.9,891.9,3325.8z"/>
			</g>
			<g>
				<path class="st3" d="M878.4,3353H830c-42.2,0-76.6-34.4-76.6-76.6v-589.1c0-42.2,34.3-76.6,76.6-76.6h48.4
					c42.2,0,76.6,34.4,76.6,76.6v589.1C955,3318.7,920.6,3353,878.4,3353z M830,2661.6c-14.2,0-25.8,11.6-25.8,25.8v589.1
					c0,14.2,11.6,25.8,25.8,25.8h48.4c14.2,0,25.8-11.6,25.8-25.8v-589.1c0-14.2-11.6-25.8-25.8-25.8H830z"/>
			</g>
			<g>
				<g>
					<path class="st23" d="M1366.7,3327.6h-48.4c-28.3,0-51.2-22.9-51.2-51.2v-589.1c0-28.3,22.9-51.2,51.2-51.2h48.4
						c28.3,0,51.2,22.9,51.2,51.2v589.1C1417.9,3304.7,1395,3327.6,1366.7,3327.6z"/>
				</g>
				<g class="st2">
					<path class="st3" d="M1380.2,3325.8c-4.3,1.2-8.8,1.8-13.5,1.8h-48.4c-28.2,0-51.2-22.9-51.2-51.2v-589.1
						c0-28.2,22.9-51.2,51.2-51.2h48.4c4.7,0,9.2,0.6,13.5,1.8c-21.7,5.9-37.7,25.8-37.7,49.4v589.1
						C1342.5,3300.1,1358.5,3319.9,1380.2,3325.8z"/>
				</g>
				<g>
					<path class="st3" d="M1366.7,3353h-48.4c-42.2,0-76.6-34.4-76.6-76.6v-589.1c0-42.2,34.3-76.6,76.6-76.6h48.4
						c42.2,0,76.6,34.4,76.6,76.6v589.1C1443.3,3318.7,1408.9,3353,1366.7,3353z M1318.3,2661.6c-14.2,0-25.8,11.6-25.8,25.8v589.1
						c0,14.2,11.6,25.8,25.8,25.8h48.4c14.2,0,25.8-11.6,25.8-25.8v-589.1c0-14.2-11.6-25.8-25.8-25.8H1318.3z"/>
				</g>
			</g>
			<g>
				<g>
					<path class="st23" d="M2890.9,3327.6h-48.4c-28.3,0-51.2-22.9-51.2-51.2v-589.1c0-28.3,22.9-51.2,51.2-51.2h48.4
						c28.3,0,51.2,22.9,51.2,51.2v589.1C2942.1,3304.7,2919.2,3327.6,2890.9,3327.6z"/>
				</g>
				<g class="st2">
					<path class="st3" d="M2904.4,3325.8c-4.3,1.2-8.8,1.8-13.5,1.8h-48.4c-28.2,0-51.2-22.9-51.2-51.2v-589.1
						c0-28.2,22.9-51.2,51.2-51.2h48.4c4.7,0,9.2,0.6,13.5,1.8c-21.7,5.9-37.7,25.8-37.7,49.4v589.1
						C2866.7,3300.1,2882.7,3319.9,2904.4,3325.8z"/>
				</g>
				<g>
					<path class="st3" d="M2890.9,3353h-48.4c-42.2,0-76.6-34.4-76.6-76.6v-589.1c0-42.2,34.4-76.6,76.6-76.6h48.4
						c42.2,0,76.6,34.4,76.6,76.6v589.1C2967.5,3318.7,2933.1,3353,2890.9,3353z M2842.5,2661.6c-14.2,0-25.8,11.6-25.8,25.8v589.1
						c0,14.2,11.6,25.8,25.8,25.8h48.4c14.2,0,25.8-11.6,25.8-25.8v-589.1c0-14.2-11.6-25.8-25.8-25.8H2842.5z"/>
				</g>
			</g>
			<g>
				<g>
					<path class="st23" d="M3379.2,3327.6h-48.4c-28.3,0-51.2-22.9-51.2-51.2v-589.1c0-28.3,22.9-51.2,51.2-51.2h48.4
						c28.3,0,51.2,22.9,51.2,51.2v589.1C3430.4,3304.7,3407.5,3327.6,3379.2,3327.6z"/>
				</g>
				<g class="st2">
					<path class="st3" d="M3392.8,3325.8c-4.3,1.2-8.8,1.8-13.5,1.8h-48.4c-28.2,0-51.2-22.9-51.2-51.2v-589.1
						c0-28.2,22.9-51.2,51.2-51.2h48.4c4.7,0,9.2,0.6,13.5,1.8c-21.7,5.9-37.7,25.8-37.7,49.4v589.1
						C3355,3300.1,3371,3319.9,3392.8,3325.8z"/>
				</g>
				<g>
					<path class="st3" d="M3379.2,3353h-48.4c-42.2,0-76.6-34.4-76.6-76.6v-589.1c0-42.2,34.4-76.6,76.6-76.6h48.4
						c42.2,0,76.6,34.4,76.6,76.6v589.1C3455.8,3318.7,3421.4,3353,3379.2,3353z M3330.9,2661.6c-14.2,0-25.8,11.6-25.8,25.8v589.1
						c0,14.2,11.6,25.8,25.8,25.8h48.4c14.2,0,25.8-11.6,25.8-25.8v-589.1c0-14.2-11.6-25.8-25.8-25.8H3330.9z"/>
				</g>
			</g>
			<g>
				<path class="st23" d="M3482,2701.7H712.6c-20.6,0-37.3-16.7-37.3-37.3v-76c0-20.6,16.7-37.3,37.3-37.3H3482
					c20.6,0,37.3,16.7,37.3,37.3v76C3519.3,2684.9,3502.6,2701.7,3482,2701.7z"/>
			</g>
			<g class="st21">
				<path class="st7" d="M680.3,2633.8c0-20.6,16.7-37.3,37.3-37.3H3487c13.8,0,25.8,7.5,32.3,18.6v-26.8
					c0-20.6-16.7-37.3-37.3-37.3H712.6c-20.6,0-37.3,16.7-37.3,37.3v76c0,6.8,1.9,13.2,5.1,18.7L680.3,2633.8L680.3,2633.8z"/>
			</g>
			<g class="st2">
				<path class="st3" d="M3519.3,2589v75.3c0,20.6-16.7,37.4-37.3,37.4H712.6c-20.6,0-37.3-16.7-37.3-37.4V2589
					c0,20.6,16.7,37.4,37.3,37.4H3482C3502.6,2626.4,3519.3,2609.6,3519.3,2589z"/>
			</g>
			<g>
				<path class="st3" d="M3482,2727.1H712.6c-34.6,0-62.7-28.1-62.7-62.7v-76c0-34.6,28.1-62.7,62.7-62.7H3482
					c34.6,0,62.7,28.1,62.7,62.7v76C3544.7,2698.9,3516.6,2727.1,3482,2727.1z M712.6,2576.3c-6.6,0-11.9,5.4-11.9,11.9v76
					c0,6.6,5.4,11.9,11.9,11.9H3482c6.6,0,11.9-5.4,11.9-11.9v-76c0-6.6-5.4-11.9-11.9-11.9H712.6z"/>
			</g>
			<g>
				<path class="st3" d="M1467.3,2727.1H712.6c-34.6,0-62.7-28.1-62.7-62.7v-76c0-34.6,28.1-62.7,62.7-62.7h754.7
					c34.6,0,62.7,28.1,62.7,62.7v76C1530,2698.9,1501.9,2727.1,1467.3,2727.1z M712.6,2576.3c-6.6,0-11.9,5.4-11.9,11.9v76
					c0,6.6,5.4,11.9,11.9,11.9h754.7c6.6,0,11.9-5.4,11.9-11.9v-76c0-6.6-5.4-11.9-11.9-11.9H712.6z"/>
			</g>
			<g>
				<g>
					<g>
						<defs>
							<polygon id="SVGID_00000003812347982446937820000008611780534573180815_" points="1,1 2,1 1,2 							"/>
						</defs>
						<defs>
							<polygon id="SVGID_00000124872694156740937200000015153741125190758548_" points="-1,-1 -2,-1 -1,-2 							"/>
						</defs>
						<clipPath id="SVGID_00000154411401471058570690000011817751560924466307_">
							<use xlink:href="#SVGID_00000003812347982446937820000008611780534573180815_"  style="overflow:visible;"/>
						</clipPath>
						
							<clipPath id="SVGID_00000072281835910716265380000014453541175709325729_" style="clip-path:url(#SVGID_00000154411401471058570690000011817751560924466307_);">
							<use xlink:href="#SVGID_00000124872694156740937200000015153741125190758548_"  style="overflow:visible;"/>
						</clipPath>
						<defs>
							<filter id="Adobe_OpacityMaskFilter" filterUnits="userSpaceOnUse" x="538.8" y="309.6" width="2775.1" height="2241.4">
								<feColorMatrix  type="matrix" values="1 0 0 0 0  0 1 0 0 0  0 0 1 0 0  0 0 0 1 0"/>
							</filter>
						</defs>
						
							<mask maskUnits="userSpaceOnUse" x="538.8" y="309.6" width="2775.1" height="2241.4" id="SVGID_00000154419425134348204530000003800016118787791023_">
							<g class="st25">
								<g>
									<defs>
										<polygon id="SVGID_00000117660739149545865500000016832121712704835213_" points="1,1 2,1 1,2 										"/>
									</defs>
									<defs>
										<polygon id="SVGID_00000082327391410125471100000011048957547091247270_" points="-1,-1 -2,-1 -1,-2 										"/>
									</defs>
									
										<clipPath id="SVGID_00000000905053926628626170000002920957661952701325_" style="clip-path:url(#SVGID_00000072281835910716265380000014453541175709325729_);">
										<use xlink:href="#SVGID_00000117660739149545865500000016832121712704835213_"  style="overflow:visible;"/>
									</clipPath>
									
										<clipPath id="SVGID_00000054255245019044920620000003990872429257696138_" style="clip-path:url(#SVGID_00000000905053926628626170000002920957661952701325_);">
										<use xlink:href="#SVGID_00000082327391410125471100000011048957547091247270_"  style="overflow:visible;"/>
									</clipPath>
									
										<linearGradient id="SVGID_00000052087887937890144040000017207710713628315538_" gradientUnits="userSpaceOnUse" x1="3448.5293" y1="1832.0609" x2="1317.6689" y2="2509.1562" gradientTransform="matrix(1 0 0 -1 0 4000)">
										<stop  offset="5.586590e-03" style="stop-color:#FFFFFF"/>
										<stop  offset="1" style="stop-color:#000000"/>
									</linearGradient>
									
										<path style="clip-path:url(#SVGID_00000054255245019044920620000003990872429257696138_);fill:url(#SVGID_00000052087887937890144040000017207710713628315538_);" d="
										M3313.8,1717.2c10.6,9.3-1598.5-1407.7-1598.5-1407.7L538.8,2551l2593.2,0L3313.8,1717.2z"/>
								</g>
							</g>
						</mask>
						
							<linearGradient id="SVGID_00000129175725620580282570000010177574603875343753_" gradientUnits="userSpaceOnUse" x1="3448.5293" y1="1832.0609" x2="1317.6689" y2="2509.1562" gradientTransform="matrix(1 0 0 -1 0 4000)">
							<stop  offset="5.586590e-03" style="stop-color:#FFFFFF"/>
							<stop  offset="1" style="stop-color:#000000"/>
						</linearGradient>
						
							<path style="clip-path:url(#SVGID_00000072281835910716265380000014453541175709325729_);mask:url(#SVGID_00000154419425134348204530000003800016118787791023_);fill:url(#SVGID_00000129175725620580282570000010177574603875343753_);" d="
							M3313.8,1717.2c10.6,9.3-1598.5-1407.7-1598.5-1407.7L538.8,2551l2593.2,0L3313.8,1717.2z"/>
					</g>
				</g>
				<g>
					<path class="st4" d="M3248.6,1695.3h-786.2c-47.2,0-88.9,30.8-102.9,75.9l-181.6,588.5c-13.9,45.1,19.8,90.7,66.9,90.7h847.9
						c40.8,0,76.9-26.6,88.9-65.6l169.8-550.1C3372.9,1765.5,3321.1,1695.3,3248.6,1695.3z"/>
				</g>
				<g>
					<path class="st4" d="M3268.8,1742.7h-829.1c-47.2,0-88.9,30.8-102.9,75.9l-181.6,588.5c-13.9,45.1,19.8,90.7,66.9,90.7h847.9
						c40.8,0,76.9-26.6,88.9-65.6l182.4-591.1C3356.6,1792.3,3320,1742.7,3268.8,1742.7z"/>
				</g>
				<g class="st21">
					<path class="st7" d="M3351.5,1834.7l-169.8,550.1c-3.8,12.4-10.1,23.6-18.2,33l178-576.7c15.1-48.9-21.5-98.5-72.6-98.5h-829.1
						c-33.2,0-63.8,15.2-83.7,40.1l3.6-11.6c13.9-45.2,55.7-75.9,102.9-75.9h786.2C3321.1,1695.3,3372.9,1765.5,3351.5,1834.7z"/>
				</g>
				<g class="st2">
					<path class="st3" d="M3178.4,2393.9c-14.5,34.1-48.1,56.6-85.6,56.6h-847.9c-47.2,0-80.9-45.7-67-90.7l181.6-588.5
						c13.9-45.2,55.7-75.9,102.9-75.9h6.4c-3.3,6-6,12.6-8.1,19.3l-196,635.1c-6.8,21.9,9.6,44.1,32.6,44.1L3178.4,2393.9
						L3178.4,2393.9z"/>
				</g>
				<g>
					<path class="st4" d="M3131.9,2550.9H1673.6c-25.1,0-45.4-20.3-45.4-45.4v-9.6c0-25.1,20.3-45.4,45.4-45.4h1458.4
						c25.1,0,45.4,20.3,45.4,45.4v9.6C3177.4,2530.6,3157,2550.9,3131.9,2550.9z"/>
				</g>
				<g class="st2">
					<path class="st3" d="M3177.4,2495.9v9.6c0,25.1-20.3,45.4-45.4,45.4H1673.6c-25.1,0-45.4-20.3-45.4-45.4v-9.6
						c0-7.1,1.6-13.7,4.5-19.7c7.4,15.2,22.9,25.7,40.9,25.7H3132c18,0,33.6-10.5,40.9-25.7
						C3175.8,2482.1,3177.4,2488.8,3177.4,2495.9z"/>
				</g>
				<g>
					<path class="st3" d="M3131.9,2576.3H1673.6c-39.1,0-70.8-31.8-70.8-70.8v-9.6c0-39.1,31.8-70.8,70.8-70.8h1458.4
						c39.1,0,70.8,31.8,70.8,70.8v9.6C3202.8,2544.6,3171,2576.3,3131.9,2576.3z M1673.6,2475.9c-11.1,0-20,9-20,20v9.6
						c0,11,9,20,20,20h1458.4c11,0,20-9,20-20v-9.6c0-11-9-20-20-20H1673.6z"/>
				</g>
				<g>
					<path class="st3" d="M3092.8,2475.9h-847.9c-30.6,0-58.6-14.1-76.8-38.8c-18.2-24.6-23.4-55.6-14.4-84.8l181.6-588.6
						c17.3-56.1,68.4-93.8,127.1-93.8h786.2c42.7,0,81.7,19.7,107.1,54.1c25.4,34.3,32.7,77.4,20.1,118.2L3206,2392.3
						C3190.6,2442.3,3145.1,2475.9,3092.8,2475.9z M2462.4,1720.7c-36.3,0-67.9,23.3-78.6,58l-181.6,588.6
						c-4.2,13.7-1.8,28.1,6.7,39.7c8.5,11.5,21.6,18.1,35.9,18.1h847.9c29.9,0,55.9-19.2,64.7-47.7l169.8-550.1
						c7.8-25.2,3.3-51.9-12.4-73.1s-39.8-33.4-66.2-33.4L2462.4,1720.7L2462.4,1720.7z"/>
				</g>
				<g>
					<path class="st3" d="M2129.4,2576.3h-454.2c-39.1,0-70.8-31.8-70.8-70.8v-9.6c0-39.1,31.8-70.8,70.8-70.8h454.2
						c39.1,0,70.8,31.8,70.8,70.8v9.6C2200.2,2544.6,2168.4,2576.3,2129.4,2576.3z M1675.2,2475.9c-11,0-20,9-20,20v9.6
						c0,11,9,20,20,20h454.2c11,0,20-9,20-20v-9.6c0-11-9-20-20-20H1675.2z"/>
				</g>
				<g>
					<g>
						<path class="st7" d="M2785.2,2279.4c-12.2,0-21.5-9.6-22.2-22.7c-0.8-15.1-1.6-30.2-2.3-45.4l-0.5-9.9c-0.2,0-0.4,0-0.6,0
							c-9.8,0-15.7-5.9-19.7-11.1c-2.4-3.1-4.9-6.3-7.3-9.5c-2.1,1.6-4.3,3.2-6.4,4.8c-3.9,2.8-8.4,4.3-13,4.3
							c-4.1,0-8.1-1.2-11.9-3.4c-8.6-5.1-12.8-15.2-10-24.4c1.3-4.5,4.2-9.2,8-12.6c1.9-1.7,3.8-3.2,5.7-4.7
							c-1.2-1.6-2.4-3.1-3.5-4.6l-0.6-0.9c-0.2-0.3-0.4-0.6-0.6-0.8c-7.2-7.6-9.9-16.1-8.2-24.5l-50.9-16.5
							c-8.4-2.8-14.2-8.6-16.3-15.9c-2-7.3-0.1-15.2,5.5-21.8c13.2-15.9,31.5-36.1,55-50.9c21.4-13.4,42.2-20,63.6-20
							c1.6,0,3.1,0,4.7,0.1c9.6,0.5,17.9,2.2,25.6,5.2l3.4-3.3c7-6.7,14.2-13.5,22-19.8c26.2-21.1,57.2-32.9,94.7-36.2
							c6.2-0.5,12.5-0.8,18.8-0.8c19.4,0,39.3,2.6,59.2,7.7c2.9,0.7,5.6,1.8,8,2.8c1,0.4,2,0.8,3,1.2c2,0.7,3.7,1.9,5,3.6
							c0.6,0.7,2.5,3.3,2.9,3.8c1.1,1.4,1.9,3.1,2.2,4.9c2.5,12.8,1.1,24.8-0.2,36.5l-0.2,1.7c-3.7,32.9-13.7,62.6-29.8,88.4
							c-12.8,20.6-29.2,37.6-48.8,50.3c-4.3,2.8-8.7,5.5-13.1,8.2c-2.6,1.6-5.3,3.2-7.9,4.9c2.8,26.3-5.4,50.7-24.8,74.6
							c-13.1,16-30.2,29.6-52.1,41.5c-7.8,4.2-15.9,8.3-25,12.6C2792.8,2278.5,2789,2279.4,2785.2,2279.4L2785.2,2279.4z
							 M2806.6,2220.4c10.1-6.2,18.2-12.4,25.1-19.1c10.1-9.9,16.4-19.5,19.7-29.9l-46.4,18
							C2805.5,2199.5,2806.1,2209.9,2806.6,2220.4z M2818.2,2064.2c5.1,0,10,1.8,14,5.1c5.5,4.5,8.6,11,8.5,17.8
							c-0.1,7.1-3.6,13.7-9.6,18.2c-12.6,9.7-25.2,19.4-37.9,29.1c-7.9,6.1-15.9,12.1-23.8,18.2c44.1-13.5,77.1-27.1,106.5-43.7
							c14.5-8.2,25.6-16.1,35-24.9c11.3-10.8,20.6-24.3,28.2-41.3c-1.9-2.5-3.9-5-5.8-7.5l-3.7-4.8c-12.4-16.3-24.8-32.5-37.3-48.7
							c-10.4,1.5-20.6,4.2-30.7,8.2c-15.1,5.9-29.2,15.6-45.6,31.5c-15.2,14.6-28.9,30.4-40.7,47c-10.5,14.8-20.8,30.2-30.8,45.1
							l-1.7,2.5l20.1-15.4c13.6-10.4,27.1-20.8,40.8-31.2C2808.1,2065.9,2813.1,2064.2,2818.2,2064.2z M2715,2073.7
							c9.7-13.2,19.4-26.3,28.9-39.4c-3.2,0.3-6.3,0.8-9.3,1.6c-18.7,5.2-33.9,16.1-47.3,28.7L2715,2073.7z M2952.5,1992.9
							c0.4-3.3,0.8-6.6,1-9.8l-9.4-1.1L2952.5,1992.9z"/>
					</g>
					<g>
						<path class="st3" d="M2986.8,1995c1.3-11.5,2.8-23.1,0.6-34.8c-1-1.3-1.9-2.6-2.9-3.8c-3.3-1.2-6.6-2.8-10-3.6
							c-24.4-6.3-49.1-8.8-74.2-6.6c-32.7,2.8-62.8,12.9-88.6,33.7c-9.4,7.5-17.9,16-26.6,24.2c-2.3,2.2-4.1,3.2-7.4,1.7
							c-7.7-3.5-16.1-5.1-24.5-5.5c-22.7-1-42.9,6.3-61.8,18.2c-20.5,12.9-37,30.1-52.3,48.6c-6.5,7.8-4,16.5,5.7,19.8
							c6.1,2,12.3,4,18.4,6c14.7,4.8,29.4,9.5,44.1,14.2c0,0.5,0,0.7-0.1,0.9c-0.1,0.3-0.2,0.6-0.4,0.9c-6.1,7.9-4.6,15.2,1.8,22
							c0.7,0.8,1.3,1.7,1.9,2.5c3.4,4.4,6.8,8.9,10.4,13.6c-4.9,3.8-9.7,7-13.9,10.9c-2.1,1.9-4,4.8-4.9,7.6c-1.4,4.5,1,9.2,5,11.6
							c4.3,2.6,8.7,2.5,12.7-0.4c5.1-3.6,9.9-7.5,15-11.4c4.9,6.4,9.5,12.5,14.1,18.4c5.3,6.8,8.9,8,17.2,5.7c1.5-0.5,3-0.8,4.7-1.2
							c0.1,1.8,0.3,3.2,0.3,4.5c1.1,21.2,2,42.5,3.2,63.7c0.5,10,8.5,14.8,17.5,10.5c8.2-3.9,16.4-7.9,24.4-12.3
							c18.5-10.1,35.3-22.4,48.8-38.8c16.8-20.6,26.1-43.7,21.8-70.9c-0.2-1.1,0.7-2.9,1.6-3.5c8.2-5.3,16.7-10.3,25-15.6
							c18.7-12.2,33.7-28,45.4-46.9C2974.6,2053.1,2983.4,2024.9,2986.8,1995z M2719.2,2086.9c-17-5.5-34.6-11.3-52.7-17.2
							c18.7-19.9,38.5-37.2,65.2-44.6c11.5-3.2,24.8-2.9,32.7,0.3C2749.4,2045.8,2734.5,2066.1,2719.2,2086.9z M2862.2,2174.2
							c-4.3,13.8-12.6,25-22.7,35c-12.6,12.3-27.3,21.5-43.2,29.9c-1-19.5-1.9-38.6-2.9-57.3c24-9.4,47.5-18.5,71.1-27.6
							C2865.4,2160.6,2864.3,2167.5,2862.2,2174.2z M2950.9,2043.5c-7.7,18.2-17.9,34.9-32.3,48.6c-11.2,10.6-23.8,19-37.2,26.6
							c-36.2,20.4-74.9,34.5-114.5,46.4c-1.9,0.6-3.1,0.5-4.4-1.3c-2.8-3.9-5.9-7.7-8.8-11.6c-0.2-0.2-0.3-0.6-0.5-1.3
							c1-0.8,2.1-1.6,3.2-2.4c22.6-17.4,45.3-34.7,67.9-52.1c6.5-5,6.8-13.5,0.8-18.4c-4.2-3.5-9.8-3.4-14.7,0.3
							c-13.6,10.4-27.2,20.8-40.8,31.2c-10.1,7.7-20.2,15.4-30.7,23.5c-3.6-4.7-7.1-9-10.2-13.6c-0.5-0.8,0-2.9,0.7-3.9
							c12.1-18,24-36.1,36.6-53.7c12.4-17.6,26.5-33.8,42-48.6c14.6-14.1,30.3-26.5,49.4-33.9c12.2-4.8,24.8-8,37.9-9.4
							c1.2-0.2,2.9,1,3.7,2.1c13.2,17.1,26.3,34.3,39.4,51.5c3.9,5.1,7.8,10.3,11.9,15.4C2951.6,2040.3,2951.7,2041.7,2950.9,2043.5
							z M2958.8,2019.6c-13.1-17.1-25.9-33.8-38.7-50.6c0-0.4,0.1-0.8,0.2-1.2c14.9,1.8,29.8,3.6,44.9,5.4
							C2965,1989.4,2962.6,2004.3,2958.8,2019.6z"/>
					</g>
					<g>
						<path class="st7" d="M2950.4,2038.8c-4.1-5.1-7.9-10.3-11.9-15.4c-13.1-17.2-26.2-34.3-39.4-51.5c-0.8-1.1-2.6-2.3-3.7-2.1
							c-13,1.4-25.6,4.6-37.9,9.4c-19.1,7.4-34.8,19.8-49.4,33.9c-15.5,14.9-29.6,31.1-42,48.6c-12.6,17.7-24.5,35.8-36.6,53.7
							c-0.7,1-1.3,3.1-0.7,3.9c3.1,4.5,6.6,8.8,10.2,13.6c10.5-8.1,20.6-15.8,30.7-23.5c13.6-10.4,27.1-20.8,40.8-31.2
							c4.9-3.7,10.4-3.7,14.7-0.3c6.1,4.9,5.8,13.4-0.8,18.4c-22.6,17.4-45.3,34.7-67.9,52.1c-1.1,0.8-2.2,1.6-3.2,2.4
							c0.3,0.7,0.3,1.1,0.5,1.3c2.9,3.9,6,7.7,8.8,11.6c1.3,1.8,2.5,1.9,4.4,1.3c39.6-11.9,78.4-26,114.5-46.4
							c13.3-7.5,26-16,37.2-26.6c14.5-13.8,24.6-30.4,32.3-48.6C2951.7,2041.7,2951.6,2040.3,2950.4,2038.8z M2910.7,2065
							c-17.3,13-41.7,9.8-54.7-7.2c-13.1-17-9.8-41.5,7.4-54.7c16.8-12.9,41.3-9.6,54.4,7.4
							C2930.7,2027.5,2927.5,2052.3,2910.7,2065z"/>
					</g>
					<g>
						<path class="st30" d="M2958.8,2019.5c-13.1-17.1-25.9-33.8-38.7-50.6c0-0.4,0.1-0.8,0.2-1.2c14.9,1.8,29.8,3.6,44.9,5.4
							C2965,1989.4,2962.6,2004.3,2958.8,2019.5z"/>
					</g>
					<g>
						<path class="st30" d="M2764.4,2025.4c-14.9,20.3-29.9,40.7-45.1,61.5c-17-5.6-34.6-11.3-52.7-17.2
							c18.7-19.9,38.5-37.3,65.2-44.6C2743.2,2021.9,2756.5,2022.2,2764.4,2025.4z"/>
					</g>
					<g>
						<path class="st30" d="M2839.5,2209.2c-12.6,12.3-27.3,21.5-43.2,29.8c-1-19.5-1.9-38.6-2.9-57.3c24-9.3,47.5-18.4,71.2-27.7
							c0.9,6.5-0.2,13.4-2.3,20.1C2857.9,2188,2849.7,2199.2,2839.5,2209.2z"/>
					</g>
					<g>
						<path class="st3" d="M2917.7,2010.5c-13.1-17-37.6-20.4-54.4-7.4c-17.1,13.2-20.4,37.7-7.4,54.7c13,17.1,37.4,20.2,54.7,7.2
							C2927.5,2052.3,2930.7,2027.5,2917.7,2010.5z M2899,2050.6c-8.8,6.6-21.6,4.9-28.4-3.9c-7.1-9-5.1-22.3,4.2-29.2
							c8.8-6.6,21.9-4.7,28.4,4.1C2910.1,2030.8,2908.2,2043.7,2899,2050.6z"/>
					</g>
					<g>
						<path class="st5" d="M2899,2050.6c-8.8,6.6-21.6,4.9-28.5-3.9c-7-9-5.1-22.2,4.2-29.2c8.8-6.6,21.9-4.7,28.4,4.1
							C2910.1,2030.8,2908.2,2043.7,2899,2050.6z"/>
					</g>
				</g>
			</g>
		</g>
	</g>
</g>
</svg>
