<?xml version="1.0" encoding="utf-8"?>
<!-- Generator: Adobe Illustrator 27.1.0, SVG Export Plug-In . SVG Version: 6.00 Build 0)  -->
<svg version="1.1" id="Layer_1" xmlns="http://www.w3.org/2000/svg" xmlns:xlink="http://www.w3.org/1999/xlink" x="0px" y="0px"
	 viewBox="0 0 4000 4000" style="enable-background:new 0 0 4000 4000;" xml:space="preserve">
<style type="text/css">
	.st0{clip-path:url(#SVGID_00000075871552093649933930000013057630844214988466_);}
	.st1{filter:url(#Adobe_OpacityMaskFilter);}
	.st2{clip-path:url(#SVGID_00000075163106272834260330000008147659261757587841_);}
	.st3{clip-path:url(#SVGID_00000137129270710549332120000003696767555913206206_);}
	
		.st4{clip-path:url(#SVGID_00000056396308425473882930000005296874442292881831_);fill:url(#SVGID_00000150795038462315854130000007566741446982842247_);}
	
		.st5{clip-path:url(#SVGID_00000075163106272834260330000008147659261757587841_);mask:url(#SVGID_00000047038193080992174390000015184081512344179584_);fill:url(#SVGID_00000126320326123474342320000000121727273695083928_);}
	.st6{fill:#9DA9B9;}
	.st7{opacity:0.6;}
	.st8{fill:#FFFFFF;}
	.st9{opacity:0.3;}
	.st10{fill:#232333;}
	.st11{fill:#A5A2AA;}
	.st12{fill:#8C8993;}
	.st13{opacity:0.5;}
	.st14{opacity:0.25;}
	.st15{fill:#00046A;}
	.st16{fill:#FF0068;}
	.st17{opacity:0.2;}
	.st18{fill:#F29940;}
	.st19{fill:#C78CFF;}
	.st20{opacity:0.15;}
	.st21{fill:#371A45;}
	.st22{fill:#2B0051;}
	.st23{fill:#22A7F0;}
	.st24{opacity:0.7;}
	.st25{fill:#1C7AEA;}
	.st26{fill:#FFD95F;}
	.st27{fill:none;}
</style>
<g>
	<g>
		<g>
			<g>
				<g>
					<defs>
						<polygon id="SVGID_1_" points="1,1 2,1 1,2 						"/>
					</defs>
					<defs>
						<polygon id="SVGID_00000141456881443729109040000002436911534422337726_" points="-1,-1 -2,-1 -1,-2 						"/>
					</defs>
					<clipPath id="SVGID_00000170277680056446411030000005614458778661797257_">
						<use xlink:href="#SVGID_1_"  style="overflow:visible;"/>
					</clipPath>
					
						<clipPath id="SVGID_00000165920199099034550150000006056135952963258811_" style="clip-path:url(#SVGID_00000170277680056446411030000005614458778661797257_);">
						<use xlink:href="#SVGID_00000141456881443729109040000002436911534422337726_"  style="overflow:visible;"/>
					</clipPath>
					<defs>
						<filter id="Adobe_OpacityMaskFilter" filterUnits="userSpaceOnUse" x="729.6" y="633.1" width="2963.5" height="2249">
							<feColorMatrix  type="matrix" values="1 0 0 0 0  0 1 0 0 0  0 0 1 0 0  0 0 0 1 0"/>
						</filter>
					</defs>
					
						<mask maskUnits="userSpaceOnUse" x="729.6" y="633.1" width="2963.5" height="2249" id="SVGID_00000182509148484858632580000000478818546403849104_">
						<g class="st1">
							<g>
								<defs>
									<polygon id="SVGID_00000098193509614102705830000007329123099054400955_" points="1,1 2,1 1,2 									"/>
								</defs>
								<defs>
									<polygon id="SVGID_00000149347947932668893590000001192642773145118884_" points="-1,-1 -2,-1 -1,-2 									"/>
								</defs>
								
									<clipPath id="SVGID_00000082363053794584538120000013781994295330446509_" style="clip-path:url(#SVGID_00000165920199099034550150000006056135952963258811_);">
									<use xlink:href="#SVGID_00000098193509614102705830000007329123099054400955_"  style="overflow:visible;"/>
								</clipPath>
								
									<clipPath id="SVGID_00000004546798948336712910000012156011804525324439_" style="clip-path:url(#SVGID_00000082363053794584538120000013781994295330446509_);">
									<use xlink:href="#SVGID_00000149347947932668893590000001192642773145118884_"  style="overflow:visible;"/>
								</clipPath>
								
									<linearGradient id="SVGID_00000159451010554461377500000010377158887873482891_" gradientUnits="userSpaceOnUse" x1="3433.3157" y1="1838.1455" x2="1018.6661" y2="2202.1628" gradientTransform="matrix(1 0 0 -1 0 4000)">
									<stop  offset="0" style="stop-color:#FFFFFF"/>
									<stop  offset="1" style="stop-color:#000000"/>
								</linearGradient>
								
									<path style="clip-path:url(#SVGID_00000004546798948336712910000012156011804525324439_);fill:url(#SVGID_00000159451010554461377500000010377158887873482891_);" d="
									M2143.5,2555L729.6,2882c0,0,16.1-2242.6,40.3-2248.9c24.2-6.3,2923.1,557.1,2923.1,557.1L2143.5,2555z"/>
							</g>
						</g>
					</mask>
					
						<linearGradient id="SVGID_00000063605565043375268710000004781538087504944769_" gradientUnits="userSpaceOnUse" x1="3433.3157" y1="1838.1455" x2="1018.6661" y2="2202.1628" gradientTransform="matrix(1 0 0 -1 0 4000)">
						<stop  offset="0" style="stop-color:#FFFFFF"/>
						<stop  offset="1" style="stop-color:#000000"/>
					</linearGradient>
					
						<path style="clip-path:url(#SVGID_00000165920199099034550150000006056135952963258811_);mask:url(#SVGID_00000182509148484858632580000000478818546403849104_);fill:url(#SVGID_00000063605565043375268710000004781538087504944769_);" d="
						M2143.5,2555L729.6,2882c0,0,16.1-2242.6,40.3-2248.9c24.2-6.3,2923.1,557.1,2923.1,557.1L2143.5,2555z"/>
				</g>
			</g>
			<g>
				<g>
					<path class="st6" d="M3791.9,1293.3v1165.5c0,56.9-44.2,103.1-98.8,103.1H2242.3c-54.5,0-98.7-46.2-98.7-103.1V1293.3
						c0-56.9,44.2-103.1,98.7-103.1h1450.8C3747.6,1190.2,3791.9,1236.4,3791.9,1293.3z"/>
				</g>
				<g class="st7">
					<path class="st8" d="M3791.9,1293.3v1165.5c0,30.4-12.6,57.8-32.7,76.7c2.5-8,3.9-16.6,3.9-25.6V1299.1
						c0-44.5-34.5-80.5-77.1-80.5H2191.8c-7.1,0-13.9,1-20.4,2.8c17.9-19.3,43-31.3,70.8-31.3h1450.8
						C3747.6,1190.2,3791.9,1236.4,3791.9,1293.3z"/>
				</g>
				<g class="st9">
					<path class="st10" d="M3781.9,2504c-16.1,34.3-49.8,57.9-88.8,57.9H2242.3c-54.5,0-98.7-46.1-98.7-103.1V1293.3
						c0-35.4,17.1-66.7,43.2-85.3c-6.3,13.7-9.9,29-9.9,45.2v1165.5c0,56.9,44.2,103.1,98.8,103.1h476.4c25.6,0,46.4-21.7,46.4-48.5
						V2390c0-25.7-19.9-46.5-44.5-46.5h-301.2c-31.9,0-57.8-27-57.8-60.4v-682.5c0-14,4.5-26.9,12.2-37.1l3.1-3.9l64.1-78.9
						l-10.3,59.5h917.6c31.9,0,57.8,27,57.8,60.4v682.5c0,33.4-25.9,60.4-57.8,60.4h-477v178.3h821.9
						C3747,2521.8,3766.1,2515.2,3781.9,2504z"/>
				</g>
				<g>
					<path class="st10" d="M3693.1,2577.8H2242.3c-62.8,0-113.9-53.4-113.9-118.9V1293.3c0-65.6,51.1-118.9,113.9-118.9h1450.8
						c62.8,0,113.9,53.3,113.9,118.9v1165.5C3807,2524.4,3755.9,2577.8,3693.1,2577.8z M2242.3,1206c-46.1,0-83.6,39.2-83.6,87.3
						v1165.5c0,48.1,37.5,87.3,83.6,87.3h1450.8c46.1,0,83.6-39.2,83.6-87.3V1293.3c0-48.1-37.5-87.3-83.6-87.3L2242.3,1206
						L2242.3,1206z"/>
				</g>
				<g>
					<path class="st6" d="M3509.8,1534.8v682.5c0,33.4-25.9,60.4-57.8,60.4h-849.7c-31.9,0-57.8-27-57.8-60.4v-682.5
						c0-33.4,25.9-60.4,57.8-60.4H3452C3483.9,1474.4,3509.8,1501.4,3509.8,1534.8z"/>
				</g>
				<g class="st7">
					<path class="st8" d="M3509.8,1534.8v682.5c0,26.1-15.8,48.3-38,56.7c3.6-7.9,5.7-16.8,5.7-26.2v-682.5
						c0-33.4-25.9-60.4-57.8-60.4H2570c-7,0-13.6,1.3-19.8,3.7c9.3-20.2,29.1-34.2,52.1-34.2H3452
						C3483.9,1474.4,3509.8,1501.4,3509.8,1534.8z"/>
				</g>
				<g>
					<path class="st11" d="M2602.3,2277.7h-79.2c-31.9,0-57.8-27-57.8-60.4v-682.5c0-33.4,25.9-60.4,57.8-60.4h79.2
						c-31.9,0-57.8,27-57.8,60.4v682.5C2544.5,2250.7,2570.4,2277.7,2602.3,2277.7z"/>
				</g>
				<g>
					<path class="st10" d="M3452,2293.6h-849.7c-40.2,0-73-34.2-73-76.2v-682.5c0-42,32.7-76.2,73-76.2H3452c40.2,0,73,34.2,73,76.2
						v682.5C3525,2259.4,3492.2,2293.6,3452,2293.6z M2602.3,1490.2c-23.5,0-42.7,20-42.7,44.6v682.5c0,24.6,19.1,44.6,42.7,44.6
						H3452c23.5,0,42.7-20,42.7-44.6v-682.5c0-24.6-19.1-44.6-42.7-44.6L2602.3,1490.2L2602.3,1490.2z"/>
				</g>
				<g>
					<path class="st12" d="M2242.3,2561.9h-63.1c-54.5,0-98.8-46.2-98.8-103.1V1293.3c0-56.9,44.2-103.1,98.8-103.1h63.1
						c-54.5,0-98.7,46.2-98.7,103.1v1165.5C2143.5,2515.8,2187.7,2561.9,2242.3,2561.9z"/>
				</g>
				<g class="st9">
					<path class="st10" d="M2602.3,2277.7h-79.2c-31.9,0-57.8-27-57.8-60.4v-682.5c0-33.4,25.9-60.4,57.8-60.4h79.2
						c-31.9,0-57.8,27-57.8,60.4v682.5C2544.5,2250.7,2570.4,2277.7,2602.3,2277.7z"/>
				</g>
				<g class="st9">
					<path class="st10" d="M2242.3,2561.9h-63.1c-54.5,0-98.8-46.2-98.8-103.1V1293.3c0-56.9,44.2-103.1,98.8-103.1h63.1
						c-54.5,0-98.7,46.2-98.7,103.1v1165.5C2143.5,2515.8,2187.7,2561.9,2242.3,2561.9z"/>
				</g>
				<g>
					<path class="st10" d="M2602.3,2293.6h-79.2c-40.2,0-73-34.2-73-76.2v-682.5c0-42,32.7-76.2,73-76.2h79.2
						c8.4,0,15.1,7.1,15.1,15.8c0,8.7-6.8,15.8-15.1,15.8c-23.5,0-42.7,20-42.7,44.6v682.5c0,24.6,19.1,44.6,42.7,44.6
						c8.4,0,15.1,7.1,15.1,15.8C2617.5,2286.5,2610.7,2293.6,2602.3,2293.6z M2523.1,1490.2c-23.5,0-42.7,20-42.7,44.6v682.5
						c0,24.6,19.1,44.6,42.7,44.6h20.1c-8.7-12.6-13.8-27.9-13.8-44.6v-682.5c0-16.6,5.1-32.1,13.8-44.6L2523.1,1490.2
						L2523.1,1490.2z"/>
				</g>
				<g>
					<path class="st10" d="M2242.3,2577.8h-63.1c-62.8,0-113.9-53.4-113.9-118.9V1293.3c0-65.6,51.1-118.9,113.9-118.9h63.1
						c8.4,0,15.1,7.1,15.1,15.8c0,8.7-6.8,15.8-15.1,15.8c-46.1,0-83.6,39.2-83.6,87.3v1165.5c0,48.1,37.5,87.3,83.6,87.3
						c8.4,0,15.1,7.1,15.1,15.8S2250.6,2577.8,2242.3,2577.8z M2163.4,1207.6c-38.6,7.7-67.9,43.2-67.9,85.8v1165.5
						c0,42.5,29.3,78,67.9,85.7c-21.6-21.6-35-52.1-35-85.7V1293.3C2128.4,1259.7,2141.8,1229.2,2163.4,1207.6z"/>
				</g>
				<g>
					<g>
						<path class="st6" d="M3418.1,2989.8v46.6c0,14.2-11,25.7-24.6,25.7h-977.9c-13.6,0-24.6-11.5-24.6-25.7v-46.6
							c0-14.2,11-25.7,24.6-25.7h563.2v-982.8h130.3v982.8h284.4C3407.1,2964.1,3418.1,2975.6,3418.1,2989.8z"/>
					</g>
					<g class="st7">
						<path class="st8" d="M3418.1,2989.8v46.7c0,14.2-11,25.7-24.6,25.7h-7.2v-39.9c0-14.2-11-25.8-24.6-25.8h-259.9
							c-13.6,0-24.6-11.4-24.6-25.7v-957h-98.5v-32.4h130.3v982.8h284.4C3407.1,2964.1,3418.1,2975.6,3418.1,2989.8z"/>
					</g>
					<g>
						<path class="st10" d="M3393.5,3078h-977.9c-21.9,0-39.8-18.6-39.8-41.5v-46.6c0-22.9,17.8-41.5,39.8-41.5h548.1v-966.9
							c0-8.7,6.8-15.8,15.1-15.8h130.3c8.4,0,15.1,7.1,15.1,15.8v966.9h269.3c21.9,0,39.8,18.6,39.8,41.5v46.6
							C3433.3,3059.4,3415.4,3078,3393.5,3078z M2415.6,2979.9c-5.2,0-9.5,4.4-9.5,9.9v46.6c0,5.4,4.2,9.9,9.5,9.9h977.9
							c5.2,0,9.5-4.4,9.5-9.9v-46.6c0-5.4-4.2-9.9-9.5-9.9h-284.4c-8.4,0-15.1-7.1-15.1-15.8v-966.9h-100v966.9
							c0,8.7-6.8,15.8-15.1,15.8H2415.6z"/>
					</g>
					<g>
						<path class="st10" d="M2656.1,3078c-8.4,0-15.1-7.1-15.1-15.8v-98.1c0-8.7,6.8-15.8,15.1-15.8c8.4,0,15.1,7.1,15.1,15.8v98.1
							C2671.2,3070.9,2664.5,3078,2656.1,3078z"/>
					</g>
					<g>
						<rect x="2917.2" y="1981.4" class="st11" width="61.6" height="982.8"/>
					</g>
					<g>
						<path class="st10" d="M2978.8,2979.9h-61.6c-8.4,0-15.1-7.1-15.1-15.8v-982.8c0-8.7,6.8-15.8,15.1-15.8h61.6
							c8.4,0,15.1,7.1,15.1,15.8v982.8C2993.9,2972.9,2987.1,2979.9,2978.8,2979.9z M2932.3,2948.3h31.3v-951.1h-31.3V2948.3z"/>
					</g>
					<g class="st9">
						<rect x="2917.2" y="1981.4" class="st10" width="61.6" height="982.8"/>
					</g>
					<g>
						<ellipse class="st10" cx="3042.4" cy="2071" rx="12.9" ry="18.6"/>
					</g>
					<g>
						<ellipse class="st10" cx="3042.4" cy="2176.6" rx="12.9" ry="18.6"/>
					</g>
					<g class="st9">
						<rect x="2398.9" y="2971" class="st10" width="248.9" height="91.2"/>
					</g>
				</g>
				<g class="st7">
					<g>
						<g>
							<path class="st8" d="M2667.3,2169.3c-6.7,0-12.1-5.7-12.1-12.6v-139.2c0-7,5.4-12.7,12.1-12.7c6.7,0,12.1,5.7,12.1,12.7
								v139.2C2679.4,2163.7,2674,2169.3,2667.3,2169.3z"/>
						</g>
					</g>
					<g>
						<g>
							<path class="st8" d="M2717.8,2169.3c-6.7,0-12.1-5.7-12.1-12.6v-139.2c0-7,5.4-12.7,12.1-12.7s12.1,5.7,12.1,12.7v139.2
								C2729.9,2163.7,2724.5,2169.3,2717.8,2169.3z"/>
						</g>
					</g>
					<g>
						<g>
							<path class="st8" d="M2768.3,2169.3c-6.7,0-12.1-5.7-12.1-12.6v-139.2c0-7,5.4-12.7,12.1-12.7c6.7,0,12.1,5.7,12.1,12.7
								v139.2C2780.4,2163.7,2775,2169.3,2768.3,2169.3z"/>
						</g>
					</g>
				</g>
				<g class="st7">
					<g>
						<g>
							<path class="st8" d="M3265.2,2169.3c-6.7,0-12.1-5.7-12.1-12.6v-139.2c0-7,5.4-12.7,12.1-12.7s12.1,5.7,12.1,12.7v139.2
								C3277.4,2163.7,3271.9,2169.3,3265.2,2169.3z"/>
						</g>
					</g>
					<g>
						<g>
							<path class="st8" d="M3315.8,2169.3c-6.7,0-12.1-5.7-12.1-12.6v-139.2c0-7,5.4-12.7,12.1-12.7c6.7,0,12.1,5.7,12.1,12.7
								v139.2C3327.9,2163.7,3322.4,2169.3,3315.8,2169.3z"/>
						</g>
					</g>
					<g>
						<g>
							<path class="st8" d="M3366.2,2169.3c-6.7,0-12.1-5.7-12.1-12.6v-139.2c0-7,5.4-12.7,12.1-12.7s12.1,5.7,12.1,12.7v139.2
								C3378.4,2163.7,3372.9,2169.3,3366.2,2169.3z"/>
						</g>
					</g>
				</g>
				<g>
					<g>
						<g>
							<path class="st10" d="M2673.8,2165c-6.7,0-12.1-5.7-12.1-12.6v-139.2c0-7,5.4-12.7,12.1-12.7c6.7,0,12.1,5.7,12.1,12.7v139.2
								C2685.9,2159.3,2680.5,2165,2673.8,2165z"/>
						</g>
					</g>
					<g>
						<g>
							<path class="st10" d="M2724.3,2165c-6.7,0-12.1-5.7-12.1-12.6v-139.2c0-7,5.4-12.7,12.1-12.7s12.1,5.7,12.1,12.7v139.2
								C2736.4,2159.3,2731,2165,2724.3,2165z"/>
						</g>
					</g>
					<g>
						<g>
							<path class="st10" d="M2774.8,2165c-6.7,0-12.1-5.7-12.1-12.6v-139.2c0-7,5.4-12.7,12.1-12.7c6.7,0,12.1,5.7,12.1,12.7v139.2
								C2786.9,2159.3,2781.5,2165,2774.8,2165z"/>
						</g>
					</g>
				</g>
				<g>
					<g>
						<g>
							<path class="st10" d="M3271.7,2165c-6.7,0-12.1-5.7-12.1-12.6v-139.2c0-7,5.4-12.7,12.1-12.7c6.7,0,12.1,5.7,12.1,12.7v139.2
								C3283.8,2159.3,3278.4,2165,3271.7,2165z"/>
						</g>
					</g>
					<g>
						<g>
							<path class="st10" d="M3322.2,2165c-6.7,0-12.1-5.7-12.1-12.6v-139.2c0-7,5.4-12.7,12.1-12.7s12.1,5.7,12.1,12.7v139.2
								C3334.3,2159.3,3328.9,2165,3322.2,2165z"/>
						</g>
					</g>
					<g>
						<g>
							<path class="st10" d="M3372.7,2165c-6.7,0-12.1-5.7-12.1-12.6v-139.2c0-7,5.4-12.7,12.1-12.7c6.7,0,12.1,5.7,12.1,12.7v139.2
								C3384.8,2159.3,3379.4,2165,3372.7,2165z"/>
						</g>
					</g>
				</g>
				<g>
					<ellipse class="st10" cx="2615.2" cy="1558.8" rx="12.9" ry="18.6"/>
				</g>
				<g>
					<ellipse class="st10" cx="3444.4" cy="1558.8" rx="12.9" ry="18.6"/>
				</g>
				<g>
					<ellipse class="st10" cx="3724.2" cy="1268.8" rx="12.9" ry="18.6"/>
				</g>
				<g>
					<ellipse class="st10" cx="2229.4" cy="1268.8" rx="12.9" ry="18.6"/>
				</g>
				<g>
					<ellipse class="st10" cx="3724.2" cy="2472.8" rx="12.9" ry="18.6"/>
				</g>
				<g>
					<ellipse class="st10" cx="2229.4" cy="2472.8" rx="12.9" ry="18.6"/>
				</g>
				<g>
					<ellipse class="st10" cx="2615.2" cy="2195.2" rx="12.9" ry="18.6"/>
				</g>
				<g>
					<ellipse class="st10" cx="3444.4" cy="2195.2" rx="12.9" ry="18.6"/>
				</g>
			</g>
		</g>
		<g>
			<g>
				<path class="st8" d="M1351,1192.8c-19.3-34.4-28.3-75.5-23.3-118.1c12.2-103.5,102.4-177,201.6-164.3
					c99.1,12.7,169.6,106.9,157.4,210.4s-102.4,177-201.6,164.3c-27.6-3.5-52.9-13.4-74.9-28l-84,17.8L1351,1192.8z"/>
			</g>
			<g class="st13">
				<g>
					<path class="st8" d="M1488.8,946.3c-92.7,11.5-160.6,94.1-159.6,189.4c-1.4-6.5-2.6-13.1-3.3-19.9
						c-11.8-103.5,59.1-197.4,158.3-209.7s189.1,61.7,200.8,165.3c0.8,6.8,1.2,13.5,1.2,20.2
						C1666.1,998.8,1581.5,934.9,1488.8,946.3z"/>
				</g>
			</g>
			<g>
				<path class="st10" d="M1507.6,1302.4c-8.1,0-16.2-0.5-24.3-1.6c-27.1-3.5-52.6-12.5-75.9-26.9l-78.2,16.6
					c-5.3,1.1-10.7-0.8-14.3-4.9c-3.6-4.2-4.8-10-3.2-15.3l22.8-75.6c-19.3-37.4-26.9-79.4-21.9-121.8
					c6.4-54.2,32.6-102.6,73.9-136.3c41.3-33.6,92.6-48.5,144.6-41.8c52,6.7,98.3,34.1,130.5,77.1c32.2,43.1,46.4,96.6,40.1,150.9
					c-6.4,54.2-32.6,102.6-73.9,136.3C1593,1287.3,1551.1,1302.3,1507.6,1302.4z M1410.2,1241.3c2.9,0,5.7,0.8,8.1,2.5
					c20.8,13.8,43.9,22.5,68.6,25.6c43.9,5.6,87.3-6.9,122.2-35.3c34.9-28.4,57.1-69.3,62.5-115.2c5.4-45.8-6.6-91.2-33.9-127.6
					c-27.2-36.4-66.4-59.6-110.4-65.2c-90.7-11.6-173.5,55.9-184.7,150.6c-4.5,37.9,2.9,75.3,21.3,108.2c2.2,3.8,2.7,8.5,1.4,12.7
					l-17.1,56.5l58.8-12.5C1408.2,1241.4,1409.2,1241.3,1410.2,1241.3z"/>
			</g>
			<g class="st14">
				<path class="st15" d="M1350,1191c48.7,44.8,116.5,65.3,184.6,49.2c75.5-17.9,132-76.5,153.3-148.6c0.3,9.6-0.1,19.4-1.3,29.2
					c-12.2,103.5-102.4,177-201.6,164.3c-27.6-3.5-52.9-13.4-74.9-28l-84,17.8l24.8-82.1C1350.7,1192.2,1350.3,1191.6,1350,1191z"/>
			</g>
			<g>
				<path class="st16" d="M1448.8,1044.7L1448.8,1044.7c15.7-16.3,41-13.4,56.7,2.9l2.4,2.5l2.4-2.5c15.7-16.3,41-19.3,56.7-2.9l0,0
					c15.7,16.3,15.7,42.8,0,59.2l-2.4,2.5l-49.2,51.4c-4.1,4.3-10.8,4.3-14.9,0l-49.2-51.4l-2.4-2.5
					C1433.2,1087.6,1433.2,1061.1,1448.8,1044.7z"/>
			</g>
		</g>
	</g>
</g>
<g>
	<g class="st17">
		<ellipse class="st10" cx="1285.1" cy="2854.7" rx="892.9" ry="190"/>
	</g>
	<g>
		<path class="st18" d="M1163.2,2398.1c-128.6,171.1-327.5,278.9-529,279.8c-6.9,30.1-16.5,52.7-31.8,70.4
			c-15.3,17.7-37.7,29.9-59.5,25.6c-21.6-4.2-38.9-24.3-45.5-47.3c-6.6-23-3.8-48.3,3.8-71c-128.2-62.7-214-211.8-222.4-367.4
			c-1.4-24.6-0.8-49.4,1.9-74c-10.5-16.9-27.9-27.2-42.6-41.2c-14.7-14.1-26.8-32.5-30.3-53.6c-3.8-22.4,3-45.5,15.9-63.6
			c6.9-9.6,15.5-17.9,25.1-23.8c27.8-17.1,62.2-17.3,92.6-7.1c164.1-193.3,405.2-296.8,644.1-286.7
			c35.4,168.5,80.4,339.1,131.2,508.8c2.3,7.9,4.7,15.7,7.1,23.5C1136.5,2313.1,1149.7,2355.7,1163.2,2398.1z"/>
	</g>
	<g>
		<path class="st19" d="M301.1,2409c-12.5-38.8-20.1-79.5-22.4-120.7c-0.8-13.8-0.9-27.6-0.4-41.4c5.9,5.4,11.3,11.2,15.6,18.1
			c-2.7,24.6-3.3,49.4-1.9,74C293.3,2362.6,296.4,2386,301.1,2409z"/>
	</g>
	<g class="st7">
		<path class="st8" d="M996.4,1788.8c-238-9.4-478.1,94.1-641.7,286.8c-30.4-10.2-64.9-9.9-92.6,7.1c-9.7,5.9-18.3,14.1-25.1,23.8
			c-9.3,13-15.4,28.7-16.7,44.9c-6.1-9.7-10.6-20.4-12.5-32c-3.8-22.4,3-45.5,15.9-63.6c6.9-9.6,15.5-17.9,25.1-23.8
			c27.8-17.1,62.2-17.3,92.6-7.1c164.1-193.3,405.2-296.8,644-286.7C989,1755.1,992.6,1771.9,996.4,1788.8z"/>
	</g>
	<g class="st20">
		<path class="st21" d="M1123.7,2270.5c-2.4-7.9-4.7-15.7-7.1-23.5c-124.3,135.6-299.4,212.2-475.8,209.3c-9.9,25.8-25.6,55-51,56
			c-22,0.9-38.7-20.1-56.5-34.4c-17.4-14-38.4-21.8-56.6-34.4c-62.2-42.8-91.6-85.8-113.4-164.6c-10.3-37.2-14.4-76.4-18-115.5
			c-1.8-19.4-15.3-35-32.8-37.7c-27-4.2-52.7-18.6-71-40.9c-7.2-8.7-13.1-18.6-17.8-29.1c-12.9,18.1-19.7,41.2-15.9,63.6
			c3.6,21.1,15.6,39.5,30.3,53.6c14.7,14.1,32.1,24.3,42.6,41.2c-2.7,24.6-3.3,49.4-1.9,74c8.4,155.5,94.2,304.6,222.5,367.4
			c-7.6,22.7-10.4,48-3.8,71c6.6,23,23.9,43,45.5,47.3c21.8,4.3,44.2-7.9,59.5-25.6c15.3-17.7,24.9-40.4,31.8-70.4
			c201.5-0.8,400.3-108.7,529-279.8C1149.7,2355.7,1136.5,2313.1,1123.7,2270.5z M595,2671.9c-9,31.4-33.8,50.7-55.3,43.2
			c-21.5-7.5-31.7-39-22.7-70.3c9-31.4,33.8-50.7,55.3-43.2C593.8,2609,604,2640.5,595,2671.9z"/>
	</g>
	<g>
		<path class="st21" d="M552,2794.9c-3.8,0-7.7-0.4-11.4-1.1c-25.5-5-47.6-27.6-56.2-57.6c-7-24.4-4.6-48.5,0.1-67.5
			c-69.4-37.3-128.9-101.2-168.6-181.2c-40.4-81.6-57.9-175.1-49.5-264c-5.7-7.4-13.4-13.8-21.6-20.5c-5.2-4.3-10.5-8.7-15.7-13.6
			c-13.2-12.7-30.1-33.8-34.8-62.3c-6.5-38.9,13.6-82.4,47.9-103.5c26.6-16.3,60.8-20.2,95-10.9
			c163.8-188.8,405.7-295.1,648.9-284.8c6.2,0.3,11.5,5.1,12.9,11.8c41.6,198.2,99.6,413.6,177.4,658.4c1.6,5,0.7,10.6-2.4,14.8
			c-64.8,86.1-148.4,157.9-241.8,207.7c-91.2,48.6-190.3,75.3-287.2,77.4c-7.6,28.4-17.8,49-32.3,65.9
			C595.1,2783.8,573.2,2794.9,552,2794.9z M300.8,2038.1c-16.7,0-32.3,4.1-45.3,12.1c-24.2,14.9-38.6,44.9-34.2,71.3
			c3.4,19.9,15.9,35.4,25.8,44.9c4.4,4.2,9.2,8.1,14.2,12.2c11,9.1,22.4,18.4,30.8,31.9c1.9,3,2.7,6.8,2.3,10.4
			c-19.3,177,70.1,356,212.5,425.7c6.6,3.2,9.8,11.6,7.3,19.2c-5.2,15.5-10,38.7-3.6,61.1c5.5,19.1,19.5,33.9,34.8,36.9
			c18.2,3.6,36.3-8.6,47.2-21.1c13-15,21.7-34.6,28.4-63.7c1.5-6.7,7-11.4,13.3-11.4c193.6-0.8,384.9-100.8,513.5-267.8
			c-75.3-237.8-132-448.1-173.2-642c-234.7-6.7-466.9,98.4-623,282.3c-3.6,4.2-9,5.8-14,4.1C325,2040.2,312.6,2038.1,300.8,2038.1z"
			/>
	</g>
	<g>
		<path class="st8" d="M2052.9,2910.2c-47.9,38.2-115.3,35.4-168.9,8c-53.6-27.4-95.8-75.8-133.8-125.7
			c-14.6,15.4-42.1,31.8-70.1,38.2c-28.1,6.4-57.1,3.9-85.7,1.5c-1.8,1.1-3.7,2.1-5.5,3.2c-0.2,0.1-0.4,0.2-0.6,0.3
			c-132.8,77-289.3,122.8-441.3,95.2c-154.3-28-301.2-143.1-346.3-308c-62.2-27.8-151.3-47.1-203.6-117.8
			c-23.2-31.4-36.5-70.7-39.8-111.1c-1.1-13-1.1-26.2-0.1-39.3c0.1-2.1,0.3-4.2,0.5-6.4c5.7-55.4,29.3-107.6,62.8-149.2
			c30.1-3.3,87.2-5.8,158.4-8.4c0.9,0,1.8-0.1,2.7-0.1c218.7-7.9,568.5-16.4,684.1-50.9c-20.5-31.8-46.4-54.1-71.4-76.6
			c-25.1-22.5-50.2-46.2-66.2-77.2c-15.9-31-21-71-5-101.9c8.3-15.9,20.7-27.3,35.3-35.1c23.9-12.7,53.7-15.9,80.8-13.5
			c39.1,3.5,77.3,15.7,112.4,34.8c0.1,0.1,0.3,0.2,0.4,0.2c62.2,34.1,114.7,90.2,145.5,158.8c1.8,3.9,3.5,7.9,5.1,11.9
			c0,0,0,0.1,0.1,0.2c0.2,0.4,0.3,0.8,0.5,1.1c29.2-1.8,55.3-18.1,78.9-15.1c0.7,0.1,1.3,0.2,2,0.3c26.9,4.1,49.7,28.7,65,48
			c0.7,0.8,1.3,1.7,1.9,2.5s1.2,1.7,1.7,2.6c0.3,0.4,0.5,0.8,0.8,1.2c0.3,0.6,0.7,1.2,1,1.8c0.2,0.4,0.4,0.8,0.6,1.2
			c0.4,0.8,0.8,1.6,1.2,2.4c0.1,0.1,0.1,0.1,0.1,0.2c0.1,0.2,0.2,0.4,0.3,0.6c0.4,0.8,0.7,1.6,1.1,2.5c0.4,0.9,0.8,1.9,1.1,2.9
			c0.1,0.2,0.1,0.4,0.2,0.6c0.3,0.9,0.7,1.9,1,2.9c0.3,1.1,0.7,2.2,1,3.2c0.4,1.4,0.8,2.8,1.1,4.2c0.2,0.8,0.4,1.7,0.6,2.5
			c0.5,2.2,0.9,4.6,1.2,6.9c0.2,1.1,0.3,2.1,0.5,3.1c0,0.2,0.1,0.4,0.1,0.7c0.6,4.6,1,9.2,1.4,13.8c0.1,1.2,0.2,2.4,0.2,3.5
			c0.2,2.4,0.3,4.7,0.4,7c2.6,45.5,5.2,91.4-1.5,136.4c-5.4,36.1-17.5,71.9-38,100.4c-5,7-10.5,13.5-16.6,19.4c8.1-2,16-3,23.7-3
			c37.1,0.1,67.9,22.6,85.1,51.8c20.7,35.3,26.8,78.2,34.7,119.2c7.9,41.1,19.3,83.9,47.2,112.5c22,22.6,52.4,34.1,73.5,57.5
			c0.9,0.9,1.7,1.9,2.6,2.9C2117.1,2787.4,2100.8,2872,2052.9,2910.2z"/>
	</g>
	<g class="st20">
		<path class="st21" d="M1610.8,2251.1c-11.2,26.5-35.7,43.3-60.5,53.5c-26.6,11-55.6,16.2-83.4,10.3c-27.8-5.9-54.2-24-67.8-51.3
			c-104,99.5-252.4,131.7-388.1,105.6c-64.5-12.4-129.1-38.3-175.8-88.8c-23.5-25.4-41.4-56.3-53.6-89.8
			c218.7-7.9,568.5-16.4,684.1-50.9c-20.5-31.8-46.4-54.1-71.4-76.6c-25.1-22.5-50.2-46.2-66.2-77.2c-15.9-31-21-71-5-101.9
			c8.3-15.9,20.7-27.3,35.3-35.1c0.1,2.5,0.3,5,0.5,7.4c3.4,33.2,19.4,65.2,38.3,90.7c29,39.1,67.5,67.9,104.5,97.6
			s73.9,62,97.3,105.4c1.6,2.9,3.1,5.9,4.5,8.9C1617,2187.9,1623.1,2222.2,1610.8,2251.1z"/>
	</g>
	<g class="st17">
		<path class="st22" d="M887.6,2338.1c-87.6-16.7-178.3-13.9-265,8c-21.5,5.5-44.2,12-65.5,8.6c0.1-2.1,0.3-4.2,0.5-6.4
			c5.7-55.4,29.3-107.6,62.8-149.2c30.1-3.3,87.2-5.8,158.4-8.4c8.5,11.2,16.7,22.8,24.7,34.4
			C830.3,2263.9,855.8,2304.2,887.6,2338.1z"/>
	</g>
	<g>
		<g>
			<path class="st8" d="M1210.9,2413.7l-0.7,83.1c-0.2,19.7,7.4,38.6,20.8,51.7l107.4,105.4c16.6,16.3,40.4,20,60.4,9.5l241-125.9
				c13.9-7.3,24.6-20.4,29.7-36.3l19.6-100.5l-153.9-134.8L1210.9,2413.7z"/>
		</g>
		<g class="st20">
			<path class="st21" d="M1210.9,2413.7l-0.7,83.1c-0.2,19.7,7.4,38.6,20.8,51.7l107.4,105.4c16.6,16.3,40.4,20,60.4,9.5l241-125.9
				c13.9-7.3,24.6-20.4,29.7-36.3l19.6-100.5l-153.9-134.8L1210.9,2413.7z"/>
		</g>
		<g>
			<path class="st21" d="M1375.2,2684.5c-16.6,0-32.9-6.6-45.8-19.3l-107.4-105.4c-16.4-16.1-25.6-39.1-25.4-63.2l0.7-83.1
				c0.1-6.1,3.4-11.6,8.5-13.9l324.3-147.8c4.6-2.1,9.9-1.3,13.8,2.1l153.9,134.8c4.1,3.6,6,9.5,4.9,15.1l-19.6,100.5
				c-0.1,0.6-0.3,1.2-0.5,1.8c-6.2,19.7-19.7,36.1-36.8,45.1l-241,125.9C1395.3,2682.1,1385.2,2684.5,1375.2,2684.5z M1224.5,2423.9
				l-0.6,73c-0.1,15.3,5.8,30,16.2,40.2l107.4,105.4c12.5,12.3,30.3,15.1,45.4,7.2l241-125.9c10.3-5.4,18.3-15.1,22.3-26.8
				l17.6-90.3L1533,2283.4L1224.5,2423.9z"/>
		</g>
		<g>
			<path class="st8" d="M1681.7,2362l-112.1-101.5c-21.1-19.1-50.1-23.5-75-11.5l-267.1,128.5c-20.1,9.7-23.8,39.4-6.7,54.7
				l124.1,111.2c18.6,16.7,44.2,20.4,66.1,9.6l263.5-130.3C1696.6,2411.6,1700.5,2378.9,1681.7,2362z"/>
		</g>
		<g>
			<path class="st21" d="M1384.8,2574.3c-17.4,0-34.5-6.5-48.6-19.1L1212.1,2444c-11.8-10.5-17.6-26.7-15.5-43.2
				c2-16.6,11.5-30.5,25.4-37.2l267.1-128.5c29.9-14.4,64.1-9.1,89.2,13.7l112.1,101.5c12.5,11.3,18.8,28.6,16.6,46.2
				c-2.1,17.7-12.2,32.6-27,40l-263.5,130.3C1406.4,2571.8,1395.6,2574.3,1384.8,2574.3z M1523.7,2257.5c-8,0-16,1.8-23.6,5.5
				L1233,2391.4c-5.1,2.4-8.4,7.3-9.2,13.4c-0.7,6,1.3,11.7,5.6,15.5l124.1,111.2c14.7,13.2,34.6,16,51.8,7.5l263.5-130.3
				c6.1-3,10.1-8.9,10.9-16.2c0.9-7.2-1.6-14.1-6.8-18.7c0,0,0,0,0,0l-112.1-101.5C1550.2,2262.6,1537,2257.5,1523.7,2257.5z"/>
		</g>
	</g>
	<g>
		<path class="st21" d="M1501.4,2349.3c-3.2,0-6.4-1.2-9-3.7l-61.3-58.8c-5.7-5.5-6.4-15.1-1.4-21.4c5-6.4,13.7-7,19.4-1.5
			l61.3,58.8c5.7,5.5,6.4,15.1,1.4,21.4C1509.1,2347.5,1505.2,2349.3,1501.4,2349.3z"/>
	</g>
	<g>
		<g>
			<path class="st23" d="M1359.4,2467.4c22.4,20.4,52.6,20.6,67.6,0.5l25.3-33.9l-81-73.8l-25.3,33.9
				C1331.1,2414.2,1337.1,2447,1359.4,2467.4z"/>
		</g>
		<g class="st24">
			<path class="st8" d="M1347,2452.2c-3-13.9-1-27.9,6.9-38.5l25.3-33.9l67.6,61.6l5.5-7.4l-81-73.8l-25.3,34
				C1334.4,2409.7,1335.4,2433.1,1347,2452.2z"/>
		</g>
		<g>
			<path class="st25" d="M1359.4,2467.4c22.4,20.4,52.6,20.6,67.6,0.5l25.3-34l-81-73.8l-13.6,18.3l39.7,36.2l-25.3,33.9
				c-4.8,6.4-11.2,10.8-18.4,13.1C1355.5,2463.6,1357.4,2465.5,1359.4,2467.4z"/>
		</g>
		<g>
			<path class="st21" d="M1396.4,2494.5c-0.2,0-0.3,0-0.4,0c-15.2-0.1-30.5-6.6-43.2-18.1c-12.7-11.6-21.3-27-24.3-43.4
				c-3.2-17.3,0.2-33.8,9.5-46.2l25.3-33.9c1.8-2.4,4.3-3.9,7.1-4.2c2.8-0.3,5.6,0.6,7.7,2.6l81,73.8c2.2,2,3.5,4.8,3.8,7.9
				s-0.6,6.1-2.3,8.5l-25.3,33.9C1425.9,2487.7,1412.2,2494.5,1396.4,2494.5z M1372.8,2376.5l-18.6,25c-5.2,7-7,16.5-5.1,26.8
				c2.1,11.2,8.1,21.9,17.1,30.1l0,0c9,8.2,19.6,12.7,30,12.8c0.1,0,0.2,0,0.3,0c9.4,0,17.4-3.8,22.6-10.7l18.6-25L1372.8,2376.5z"
				/>
		</g>
		<g>
			
				<ellipse transform="matrix(0.803 -0.5959 0.5959 0.803 -1150.4254 1313.4044)" class="st23" cx="1411.7" cy="2397.1" rx="44.6" ry="55.3"/>
		</g>
		<g class="st24">
			<path class="st8" d="M1384.8,2433.4c2.4,2.2,5,4.2,7.6,6c-16.7-20.3-20-48.2-6.7-66.1c13.3-17.9,38.8-19.6,59.9-5.4
				c-2.1-2.5-4.3-4.9-6.7-7.1c-22.3-20.4-52.6-20.6-67.5-0.6C1356.4,2380.2,1362.4,2413,1384.8,2433.4z"/>
		</g>
		<g>
			<path class="st25" d="M1384.8,2433.4c22.4,20.4,52.6,20.7,67.6,0.6c14.9-20.1,8.9-52.8-13.5-73.2c-1.4-1.2-2.8-2.4-4.2-3.4
				c8.7,17.9,8.6,38.4-1.9,52.6c-14.1,18.9-41.6,19.8-63.4,2.9C1373,2420.3,1378.2,2427.4,1384.8,2433.4z"/>
		</g>
		<g>
			<path class="st21" d="M1421.7,2460.5c-0.2,0-0.3,0-0.5,0c-15.2-0.1-30.5-6.6-43.2-18.1l0,0l0,0c-12.7-11.6-21.3-27-24.3-43.4
				c-3.2-17.3,0.2-33.8,9.5-46.2c9.2-12.3,22.9-19.1,38.7-19.1c0.2,0,0.3,0,0.5,0c15.2,0.1,30.5,6.6,43.2,18.1
				c12.7,11.6,21.3,27,24.3,43.4c3.2,17.3-0.2,33.8-9.5,46.2C1451.3,2453.7,1437.5,2460.5,1421.7,2460.5z M1402,2356.9
				c-9.4,0-17.4,3.8-22.5,10.6c-5.2,6.9-7,16.5-5.1,26.8c2.1,11.2,8.1,21.9,17.1,30.1l0,0c9,8.2,19.6,12.7,30,12.8
				c9.4,0,17.6-3.7,22.8-10.6s7-16.5,5.1-26.8c-2.1-11.2-8.1-21.9-17.1-30.1c-9-8.2-19.6-12.7-30-12.8
				C1402.2,2356.9,1402.1,2356.9,1402,2356.9z"/>
		</g>
	</g>
	<g>
		<path class="st21" d="M1239.2,2954.3c-30.9,0-62.4-2.6-94.4-8.4c-79.4-14.4-157.7-52-220.3-105.7c-65.3-56-111.9-127.1-135-205.9
			c-11.9-5.1-24.8-10-38.3-15.1c-57-21.7-121.7-46.2-164.8-104.4c-33.3-45-48.8-106.3-42.4-168.1c5.7-55.6,29.2-111.6,66.2-157.6
			c2.3-2.9,5.5-4.6,8.9-5c40.2-4.4,124.6-7.3,231.4-11c201.8-6.9,473.6-16.2,590.8-42.6c-15.8-19.7-33.9-35.9-51.6-51.7l-4.2-3.8
			c-26.9-24.2-52.6-48.6-69.4-81.5c-20.2-39.3-22.1-84.1-4.9-117c21-40.5,69.3-61.5,129.1-56.1c113.9,10.2,221.8,92.5,271.3,206
			c8.8-1.5,17.5-4.1,26-6.7c15.9-4.8,32.3-9.8,48.7-6.9c23.8,3.6,47.8,21,73.2,53c17.6,22.3,19.4,53,20.8,75.4
			c2.6,45.8,5.3,93-1.6,139.8c-5.7,38.3-18,72.5-35.6,99.7c35.2,3.1,67.5,23.9,87.7,58.2c19.6,33.4,26.8,72.1,33.8,109.5
			c0.9,5,1.8,9.9,2.8,14.9c7.5,39,18,78.7,43.1,104.5c9.5,9.8,21.1,17.4,33.3,25.5c15.1,10.1,30.8,20.4,43.5,35.7
			c19.7,23.6,28.8,56.1,25.5,91.5c-3.7,40.8-23.1,78.9-51.9,101.9c-47.8,38.1-119.5,41.8-182.7,9.4c-52.8-27-95-73.8-129.7-118.2
			c-18,14.5-42.7,26.7-65.7,31.9c-28.7,6.5-57.6,4.5-85.6,2.1l-1.8,1c-0.1,0.1-0.2,0.1-0.4,0.2c-0.1,0.1-0.3,0.2-0.4,0.3
			C1507,2900.1,1380.3,2954.3,1239.2,2954.3z M627.3,2213.7c-31.2,40.5-51,88.7-55.9,136.4c-5.5,53.7,7.8,106.7,36.4,145.4
			c38.1,51.5,98.8,74.6,152.4,94.9c16.2,6.1,31.5,12,45.7,18.3c3.8,1.7,6.8,5.3,8,9.7c40.8,148.9,175.6,268.4,335.4,297.4
			c170.5,30.9,329.3-33.8,432.6-93.6c0.1-0.1,0.2-0.1,0.2-0.1c0.2-0.1,0.3-0.2,0.5-0.3l5.5-3.2c2.3-1.3,4.9-1.9,7.4-1.7
			c27.3,2.3,55.6,4.7,81.9-1.2c27.1-6.1,51.8-22.1,63.4-34.3c2.7-2.9,6.4-4.4,10.2-4.2c3.8,0.2,7.3,2.2,9.8,5.4
			c36.1,47.4,76.7,94.9,129.1,121.7c54.3,27.8,115.2,25.3,155.1-6.5l0,0c22.1-17.7,37.7-48.4,40.6-80.2c2.4-26.6-4.1-50.7-18.4-67.9
			c-10.1-12.1-23.4-20.9-37.5-30.3c-12.9-8.6-26.2-17.4-37.8-29.3c-30.8-31.6-42.8-76.6-51.3-120.5c-1-5-1.9-10-2.8-15.1
			c-6.5-34.6-13.1-70.5-29.9-99.1c-15.6-26.4-49.6-53.4-94.2-42.3c-6.1,1.5-12.4-1.7-15.3-7.9s-1.6-13.7,3.1-18.3
			c5.4-5.2,10.4-11.1,15-17.5c17.5-24.3,29.7-56.6,35.2-93.4c6.5-43.4,3.9-88.9,1.3-132.9c-1.4-23.4-3.4-43.9-14-57.4
			c-20.8-26.3-39.3-40.3-56.6-42.9c-10.8-1.9-23.2,1.8-37.5,6.1c-12.2,3.7-26.1,7.9-40.8,8.8c-5.9,0.3-11.2-3.4-13.4-9.4l-0.2-0.4
			c-0.1-0.2-0.2-0.4-0.2-0.6c-43.7-108.2-145-187.2-252.1-196.8c-18.3-1.6-79.9-3.6-103.1,40.9c-12.1,23.2-10.2,57.3,5,86.8
			c14.5,28.3,38,50.6,62.9,72.9l4.2,3.8c24.3,21.7,49.4,44.2,69.8,75.8c2.6,4.1,3.3,9.3,1.8,13.9s-5,8.3-9.4,9.6
			c-105.6,31.5-401.7,41.6-617.8,49C753.7,2206.8,668.8,2209.6,627.3,2213.7z"/>
	</g>
	<g>
		<path class="st8" d="M1865.1,2278.6c-5.4,36.1-17.5,71.9-38,100.4c-1.4,0.6-2.8,1.1-4.2,1.6c-43.2,38.1-87.8,69.6-128.2,103.1
			c-27.2,55.2-32,119.8-40.7,181.8c-8.8,61.9-23.9,126.8-65,169.9c-0.1,0.1-0.2,0.3-0.3,0.4c-0.1,0-0.1,0-0.2,0
			c-52.7-12.9-98.9-32.9-138.7-59c-51.5-33.7-92.2-77.6-122.2-129.4c35.8-86.6,54.3-191,112.3-270.1
			c49.4-67.2,110.2-118.9,180.4-157.9c4.5-46.8,32.4-86.6,52.2-135.6c4.7-11.5,9.6-23.1,17.5-32.2c3.7-4.2,8.1-7.8,12.9-10.3
			c0,0,0,0.1,0.1,0.2c0.1,0.5,0.1,1.3,0.5,1.1c31.3-16,55.4-18.9,78.9-15.1c0.7,0.1,1.3,0.2,2,0.3c26.9,4.1,49.7,28.7,65,48
			c0.7,0.8,1.3,1.7,1.9,2.5s1.2,1.7,1.7,2.6c0.3,0.4,0.5,0.8,0.8,1.2c0.3,0.6,0.7,1.2,1,1.8c0.2,0.4,0.4,0.8,0.6,1.2
			c0.4,0.8,0.8,1.6,1.2,2.4c0.1,0.1,0.1,0.1,0.1,0.2c0.1,0.2,0.2,0.4,0.3,0.6c0.4,0.8,0.7,1.6,1.1,2.5c0.4,0.9,0.8,1.9,1.1,2.9
			c0.1,0.2,0.1,0.4,0.2,0.6c0.3,0.9,0.7,1.9,1,2.9c0.3,1.1,0.7,2.2,1,3.2c0.4,1.4,0.8,2.8,1.1,4.2c0.2,0.8,0.4,1.7,0.6,2.5
			c0.5,2.3,0.9,4.6,1.2,6.9c0.2,1.1,0.3,2.1,0.5,3.1c0,0.2,0.1,0.4,0.1,0.7c0.6,4.6,1.1,9.2,1.4,13.8c0.1,1.2,0.2,2.4,0.2,3.5
			c0.2,2.4,0.3,4.7,0.4,7C1869.2,2187.8,1871.8,2233.7,1865.1,2278.6z"/>
	</g>
	<g class="st20">
		<path class="st21" d="M2052.9,2910.2c-47.9,38.2-115.3,35.4-168.9,8c-53.6-27.4-95.8-75.8-133.8-125.7
			c-14.6,15.4-42.1,31.8-70.1,38.2c-28.1,6.4-57.1,3.9-85.7,1.5c-1.8,1.1-3.7,2.1-5.5,3.2c-0.2,0.1-0.4,0.2-0.6,0.3
			c-132.8,77-289.3,122.8-441.3,95.2c-154.3-28-301.2-143.1-346.3-308c-62.2-27.8-151.3-47.1-203.6-117.8
			c-23.2-31.4-36.5-70.7-39.8-111.1c26.9,31.7,59.7,57.3,96,74.2c62.3,29.1,136.1,36.2,200.4,12.9
			c48.3,130.3,146.6,237.2,265.5,288.8c104.8,45.3,224.2,47.3,330.5,6.8c14.5-5.5,28.7-11.8,42.6-18.9
			c37.8-19.3,75.3-46.4,92.8-88.1c33.1-78.9,21.6-162.7,65.2-235.1c34.6-57.4,84.1-49.5,135-89.5c70.9-55.6,68.6-221.8,71.3-257.2
			c0.1,0.2,0.2,0.4,0.3,0.6c0.4,0.8,0.7,1.6,1.1,2.5c0.4,0.9,0.8,1.9,1.1,2.9c0.1,0.2,0.1,0.4,0.2,0.6c0.3,0.9,0.7,1.9,1,2.9
			c0.3,1.1,0.7,2.2,1,3.2c0.4,1.4,0.8,2.8,1.1,4.2c0.2,0.8,0.4,1.7,0.6,2.5c0.5,2.3,0.9,4.6,1.2,6.9c0.2,1.1,0.3,2.1,0.5,3.1
			c0,0.2,0.1,0.4,0.1,0.7c0.6,4.6,1.1,9.2,1.4,13.8c0.1,1.2,0.2,2.4,0.2,3.5c0.2,2.4,0.3,4.7,0.4,7c2.6,45.5,5.2,91.4-1.5,136.4
			c-5.4,36.1-17.5,71.9-38,100.4c-5,7-10.5,13.5-16.6,19.4c8.1-2,16-3,23.7-3c-14.2,18.4-27.6,37.3-36.4,59.3
			c-24.3,60.3-9.9,130.3,7.5,193.4c11.4,41.5,24.3,83.3,46.7,119c22.4,35.7,55.7,65.2,94.7,72c51.2,9,106-26.8,123.2-80.7
			c2.3-7.2,3.9-14.6,4.8-22.1c0.9,0.9,1.7,1.9,2.6,2.9C2117.1,2787.4,2100.8,2872,2052.9,2910.2z"/>
	</g>
	<g>
		<path class="st21" d="M1746.1,2810.8c-11.4-23.7-21.2-48.9-27.8-74.8c-6.7-25.9-10.3-52.4-11.8-78.8c-0.1-2.5,1.6-4.7,3.9-4.9
			c2.1-0.1,3.9,1.5,4.3,3.7l0,0c4.6,25.4,11.2,50.1,20.4,73.3c9.2,23.3,20.9,44.9,34.3,65.5c4.4,6.8,3,16.4-3.2,21.3
			c-6.2,4.9-14.8,3.4-19.2-3.5c-0.3-0.5-0.7-1.1-0.9-1.7L1746.1,2810.8z"/>
	</g>
	<g>
		<path class="st21" d="M1855,2413.4c-16.7-2.3-33.8-0.9-49.9,4.8c-16.1,5.7-31,15.6-43.3,29c-12.4,13.3-22.2,29.9-29.1,48.1
			c-7,18.2-11.2,37.8-13.4,57.9l0,0.1c-0.3,3-2.8,5.1-5.5,4.8c-2.6-0.4-4.4-2.9-4.3-5.7c0.8-21.1,3.8-42.2,9.9-62.7
			c6.1-20.4,15.6-40,28.8-56.7c13.1-16.7,30-30.2,49-38.8c18.9-8.6,39.7-12.2,60.1-11.1l0.1,0c7.6,0.4,13.4,7.5,13.1,15.9
			s-6.8,14.9-14.4,14.5C1855.7,2413.4,1855.3,2413.4,1855,2413.4z"/>
	</g>
	<g>
		<path class="st21" d="M1658.6,2617.6c-4.9,0-9.7-2.9-12.2-8.1c-45-93.7-138.4-151.6-238.2-147.5c-7.7,0.2-14-6.2-14.2-14.6
			c-0.3-8.4,5.6-15.4,13.2-15.8c110.2-4.6,213.6,59.7,263.5,163.6c3.6,7.4,1,16.6-5.7,20.6C1662.9,2617,1660.7,2617.6,1658.6,2617.6
			z"/>
	</g>
	<g>
		<path class="st22" d="M1465.1,2112.4l55.4,76.1c2,2.7,1.6,6.6-0.8,8.8c-2.2,1.9-5.2,1.8-7.2-0.1l-67.1-63.6
			c-5.8-5.5-6.5-15.1-1.5-21.5s13.7-7.1,19.5-1.7C1463.9,2110.9,1464.6,2111.7,1465.1,2112.4z"/>
	</g>
	<g>
		<path class="st22" d="M1469.2,2137.1c-7.1,0-13.1-6.1-13.7-14c-0.6-8.4,5.1-15.7,12.7-16.3c78.4-6.6,149.2-62.3,180.2-141.8
			c3-7.7,11.1-11.2,18.1-7.9c7,3.3,10.2,12.3,7.2,20c-35,89.8-114.8,152.6-203.3,160.1C1469.9,2137.1,1469.5,2137.1,1469.2,2137.1z"
			/>
	</g>
	<g>
		<path class="st22" d="M1247.5,2096.3c-1.6,0-3.2-0.1-4.8-0.4c-14.1-2.2-24.8-13.7-27.2-29.2l-6.6-43c-0.3-2.1-1.8-3.8-3.8-4.2
			l-39.1-8.1c-13.8-2.8-24-14.6-26-30c-2-15.3,4.9-29.7,17.4-36.7l33.2-18.4c1.8-1,2.9-3.2,2.5-5.4l-6.2-40.1
			c-2.4-15.7,4.3-30.4,17.2-37.6c12.9-7.2,27.7-4.5,37.8,7l25.6,29.3c1.4,1.6,3.7,2.1,5.6,1l33.2-18.4c12.6-7,27.2-4.4,37.2,6.5
			c9.9,10.9,12.4,26.9,6.3,40.8l-17.4,39.5c-0.8,1.9-0.5,4.2,0.8,5.8l27.5,31.4c9.9,11.3,12,27.6,5.2,41.5
			c-6.8,13.9-20.2,21.1-34.3,18.2l-34.8-7.2c-2.1-0.4-4.2,0.7-5.2,2.8l-15.4,35.1C1270.7,2088.8,1259.8,2096.3,1247.5,2096.3z
			 M1218.8,1869.6c-0.9,0-1.7,0.3-2.3,0.7c-1.4,0.8-3,2.4-2.5,5.4l6.2,40.1c2.4,15.5-4.6,30.6-17.3,37.7l-33.2,18.4
			c-2.5,1.4-2.8,3.6-2.5,5.3c0.2,1.7,1.1,3.8,3.8,4.3l39.1,8.1c13.2,2.7,23.6,14.4,25.9,29l6.6,43c0.5,3.1,2.4,4,4,4.2
			c1.6,0.2,3.7,0,5-2.9l15.4-35.1c6.3-14.4,20.7-22.3,34.9-19.4l34.8,7.2c2.8,0.6,4.3-1.1,5.1-2.7c0.7-1.5,1.2-3.7-0.8-5.9
			l-27.5-31.4c-9.4-10.7-11.7-26.8-5.8-40.2l17.4-39.5c1.2-2.7,0.2-4.7-0.9-5.8c-0.9-1-2.8-2.4-5.5-1l-33.2,18.4
			c-12.7,7-27.8,4.2-37.7-7.1l-25.6-29.3l0,0C1221,1870,1219.8,1869.6,1218.8,1869.6z"/>
	</g>
	<g>
		<path class="st21" d="M658.3,2339.4c29.3-5.4,58.9-9.8,88.7-12.5c29.8-2.7,59.7-3.6,89.6-3c59.8,1.3,119.2,8.6,178.1,17.1
			c7.5,1.1,12.8,8.7,11.8,17c-1,8.3-7.9,14.2-15.4,13.1c-0.2,0-0.3-0.1-0.5-0.1l-0.1,0c-58.1-11.1-116.2-21.1-174.7-25.1
			c-29.2-2-58.5-2.4-87.8-1.2c-29.3,1.2-58.6,4.2-87.8,8.2c-3.4,0.5-6.5-2.2-7-6C652.7,2343.4,655,2340,658.3,2339.4z"/>
	</g>
	<g>
		<path class="st21" d="M1575.2,2858.2c-4.6,0-9-2.5-11.7-7.1c-4-7.1-2.1-16.5,4.3-20.9c49-34,67-128.1,72.5-166.9
			c1.3-9.6,2.6-19.2,3.9-28.8c7-53.5,14.2-108.9,38.4-157.9c0.9-1.9,2.2-3.6,3.8-4.9c16.5-13.7,33.3-26.7,51.1-40.5
			c25.3-19.6,51.4-39.9,76.8-62.3c1.3-1.1,2.8-2,4.3-2.6c16.2-23.8,27.6-54.8,32.8-90c6.5-43.4,3.9-88.9,1.3-132.9
			c-1.3-21.7-6.6-41.9-15.7-60c-10.1-20.1-33.2-37-54.9-40.3c-23-4.1-72.8,0.9-98.1,48.6c-28.9,54.5-40.6,85.8-56.2,130.7
			c-1,2.9-2.8,5.4-5.2,7.2c-1.2,0.9-124.9,92.8-172.4,157.5c-54.1,73.8-76.6,155.5-99.2,280.5c-1.5,8.2-8.7,13.6-16.2,11.9
			c-7.4-1.6-12.3-9.6-10.8-17.9c23.4-129.8,47-215,104.8-293.7c46-62.6,153.3-144.7,174.8-160.9c15.4-44,27.6-76,56.6-130.7
			c32.8-61.8,96.6-68.4,125.8-63.3c30.2,4.6,60.4,27,74.9,55.6c11.1,22.1,17.6,46.6,19.1,72.8c2.6,45.7,5.4,93-1.6,139.8
			c-6.3,42-20.4,79.1-40.8,107.4c-1.5,2.1-3.5,3.7-5.7,4.6c-0.9,0.4-1.7,0.7-2.6,1.1c-25.4,22.3-51.2,42.3-76.2,61.7
			c-16.7,13-32.6,25.3-48,38c-20.7,43.6-27.4,95.1-33.9,144.9c-1.3,9.8-2.6,19.5-3.9,29.1c-7.6,53.4-28.6,148.8-85.1,188
			C1580.2,2857.4,1577.7,2858.2,1575.2,2858.2z"/>
	</g>
	<g>
		<path class="st8" d="M1260.8,2912c-178.1,74.1-385.7,56.9-547.1-45.1c24-64.6,25.1-138.8,4.3-204.6
			c-23.3-73.8-42.2-172.1-21.1-210.7c0.9-1.6,1.8-3.1,2.8-4.5c182.2-55.1,380.4-43.8,563,43.1c0,0.7-0.1,1.5-0.1,2.2
			c-1.7,27.9-3.4,55.8-8.1,87.2C1312.2,2675.3,1314.3,2808.1,1260.8,2912"/>
	</g>
	<g>
		<path class="st8" d="M1260.8,2912c-178.1,74.1-385.7,56.9-547.1-45.1c24-64.6,25.1-138.8,4.3-204.6
			c-23.3-73.8-42.2-172.1-21.1-210.7c0.9-1.6,1.8-3.1,2.8-4.5c182.2-55.1,380.4-43.8,563,43.1c0,0.7-0.1,1.5-0.1,2.2
			c-1.7,27.9-3.4,55.8-8.1,87.2C1312.2,2675.3,1314.3,2808.1,1260.8,2912"/>
	</g>
	<g>
		<path class="st22" d="M1030.8,2972.8c-16.9,0-33.9-0.7-50.8-2.1c-97.7-8.1-192.1-39.4-273.1-90.5c-6-3.8-8.5-11.9-5.9-19
			c22.4-60.3,23.9-130.9,4-193.9c-8.7-27.5-50.5-167.6-19.9-223.6c1-1.9,2.3-3.9,3.8-6c1.8-2.6,4.3-4.4,7.2-5.3
			c189.3-57.3,392.5-41.7,572,43.8c5.3,2.5,8.6,8.5,8.3,14.9l-0.1,2.1c-1.6,26.1-3.2,52.9-7.4,83c57.3,99.2,59,236.3,3.9,343.3
			c-1.6,3.1-4.1,5.4-7.1,6.7C1191.9,2956.9,1111.6,2972.8,1030.8,2972.8z M730.8,2860.1c154.3,92.7,352.1,107.9,520.5,39.6
			c48.5-98.4,45.4-222.9-8.3-311.6c-1.9-3.2-2.7-7.1-2.1-10.9c4.1-27.7,5.9-52.9,7.4-77.2c-170.1-78.4-361.3-92.5-540.1-39.7
			c-14.3,28.4-5,108.9,22.8,197C751.6,2722.8,751.4,2795.9,730.8,2860.1z M1260.8,2912L1260.8,2912L1260.8,2912z"/>
	</g>
	<g>
		<g>
			<path class="st19" d="M1262.7,2490.2c0,0.7-0.1,1.5-0.1,2.2c-88.5,31.3-182.4,47.5-275.6,43c-100.7-4.9-200.3-33.7-290.1-83.9
				c0.9-1.6,1.8-3.1,2.8-4.5C881.9,2392,1080.1,2403.3,1262.7,2490.2z"/>
		</g>
		<g>
			<path class="st21" d="M1018,2551.4c-10.6,0-21.1-0.2-31.6-0.8c-102.2-4.9-204.5-34.5-295.7-85.5c-3.4-1.9-5.9-5.3-7-9.3
				s-0.5-8.4,1.4-12c1.1-2,2.3-4,3.8-6.1c1.8-2.6,4.3-4.4,7.2-5.3c189.3-57.3,392.5-41.7,572,43.8c5.3,2.5,8.6,8.5,8.3,14.9
				l-0.1,2.1c-0.3,6.3-4.1,11.7-9.5,13.7C1183.2,2536.4,1099.7,2551.4,1018,2551.4z M732.6,2453.5c80.1,39.5,167.5,62.5,255,66.7
				c77.3,3.7,156.7-6.7,236.4-31C1067.8,2423.7,895.7,2411.1,732.6,2453.5z"/>
		</g>
	</g>
	<g>
		<g>
			<path class="st26" d="M921.4,2427.1l14.7,37.3c3.2,8.2,10.9,13.1,19,12.1l37-4.4c17.6-2.1,27.5,21.5,14.8,35l-28.8,30.2
				c-5.6,5.9-7.3,15-4.2,22.8l15.8,40.1c7.2,18.2-11.1,35.7-26.5,25.5l-30.3-20.2c-7.1-4.8-16.3-3.6-22.3,2.7l-25.6,26.9
				c-13,13.7-34.3,0.9-30.9-18.6l7.5-42.9c1.5-8.4-2-16.9-8.6-21.3l-34.1-22.7c-15.1-10.1-10-35.5,7.6-37.6l37-4.4
				c8.1-1,14.6-7.6,16.1-16.4l7-39.9C889.8,2411.7,914.2,2408.8,921.4,2427.1z"/>
		</g>
		<g>
			<path class="st21" d="M872.1,2656c-5.3,0-10.7-1.5-15.7-4.5c-12.5-7.6-18.8-22.5-16.1-37.9l7.5-42.9c0.4-2.1-0.5-4.2-2.2-5.4
				l-34.1-22.7c-12-8-17.8-22.9-14.8-38.1c3-15.1,14-26,28-27.7l37-4.4c2.1-0.2,3.8-1.9,4.1-4.1l7-39.9
				c2.8-15.6,13.8-26.8,28.1-28.6c14.4-1.7,27.3,6.6,33.1,21.2l14.7,37.3c0.8,2.1,2.8,3.3,4.9,3.1l37-4.4c14-1.7,26.8,6.3,32.7,20.4
				c5.9,14,3.1,30-7,40.7l-28.8,30.2c-1.4,1.5-1.8,3.8-1.1,5.7l15.8,40.1c5.7,14.4,2.4,30.5-8.3,40.8c-10.8,10.4-25.6,11.9-37.9,3.7
				l-30.3-20.2c-1.8-1.2-4.2-0.9-5.8,0.7l-25.6,26.9C887.9,2652.7,880,2656,872.1,2656z M904.6,2430.1c-0.2,0-0.5,0-0.7,0
				c-1.6,0.2-3.6,1.1-4.1,4.1l-7,39.9c-2.7,15.4-14,26.9-28.2,28.6l-37,4.4c-2.8,0.3-3.8,2.4-4.1,4c-0.3,1.6-0.2,3.9,2.2,5.5
				l34.1,22.7c11.5,7.7,17.5,22.6,15,37.2l-7.5,42.9c-0.5,3,1,4.6,2.3,5.4c1.1,0.7,3.4,1.5,5.6-0.8l25.6-26.9
				c10.5-11,26.5-12.9,38.8-4.7l30.3,20.2c2.6,1.7,4.7,0.4,5.6-0.6c1.2-1.1,2.3-3.1,1.2-5.9l-15.8-40.1c-5.4-13.6-2.4-29.7,7.3-39.9
				l28.8-30.2c2-2.1,1.7-4.3,1-5.8c-0.7-1.6-2-3.3-4.8-3l-37,4.4c-14.1,1.7-27.4-6.8-33.1-21.2l-14.7-37.3l0,0
				C907.8,2430.7,906.1,2430.1,904.6,2430.1z"/>
		</g>
	</g>
	<g>
		<g>
			<path class="st26" d="M1164.5,2395.9l-5.1,40.3c-1.1,8.8,3.1,17.4,10.5,21.2l33.7,17.3c16,8.2,13.4,34.1-3.9,38.3l-38.9,9.4
				c-7.6,1.8-13.3,8.6-14.4,17.1l-5.4,43.2c-2.5,19.6-26.4,24.2-34.7,6.6l-16.4-34.6c-3.9-8.1-12.2-12.4-20.3-10.5l-34.6,8.3
				c-17.6,4.2-29.7-18.9-17.6-33.6l26.7-32.3c5.2-6.3,6.3-15.5,2.7-23.1l-18.4-38.9c-8.2-17.2,8.2-36.1,24.2-27.9l33.7,17.3
				c7.3,3.8,16.1,1.9,21.5-4.8l24.8-30.1C1144.7,2364.6,1167,2376,1164.5,2395.9z"/>
		</g>
		<g>
			<path class="st21" d="M1122.4,2615.4c-11.9,0-22.6-7.1-28.3-19.1l-16.4-34.6c-1-2.1-3.2-3.2-5.2-2.7l-34.6,8.3
				c-14,3.4-27.7-3.3-34.8-17c-7.1-13.6-5.5-30,4.1-41.6l26.7-32.3c1.3-1.6,1.6-3.9,0.7-5.8l-18.4-38.9c-6.5-13.7-4.5-29.8,5.2-41
				c9.7-11.3,24.2-14.3,37-7.7l33.7,17.3c1.9,1,4.2,0.5,5.6-1.2l24.8-30.1c9.7-11.8,24.5-15,37.6-8.2c13,6.8,20.2,21.3,18.2,37.1
				l0,0l-5.1,40.3c-0.3,2.2,0.8,4.4,2.7,5.4l33.7,17.3c12.7,6.6,19.9,20.7,18.4,36.1c-1.6,15.4-11.4,27.5-25.2,30.8l-38.9,9.4
				c-1.9,0.5-3.4,2.2-3.7,4.3l-5.4,43.2c-2,15.6-12.3,27.4-26.4,30.1C1126.3,2615.3,1124.4,2615.4,1122.4,2615.4z M1073.5,2528.6
				c11.8,0,23,7.2,28.6,19.1l16.4,34.6c1.3,2.8,3.5,3,5,2.7c1.6-0.3,3.5-1.3,3.9-4.4l5.4-43.2c1.8-14.7,11.9-26.7,25.1-29.8
				l38.9-9.4c2.7-0.7,3.5-2.8,3.7-4.5c0.2-1.7-0.2-3.9-2.7-5.2l-33.7-17.3c-12.9-6.6-20.2-21.6-18.3-37.1l5.1-40.3
				c0.4-3.1-1.2-4.6-2.7-5.3c-1.5-0.8-3.6-1.2-5.6,1.2l-24.8,30.1c-9.6,11.6-24.6,14.9-37.5,8.3l-33.7-17.3
				c-2.7-1.4-4.6,0.1-5.5,1.1c-1,1.2-2,3.2-0.8,5.9l18.4,38.9c6.2,13.2,4.3,29.4-4.7,40.4l-26.7,32.3c-1.9,2.3-1.3,4.5-0.6,6
				c0.8,1.5,2.3,3.2,5.2,2.5l34.6-8.3C1069,2528.9,1071.2,2528.6,1073.5,2528.6z M1164.5,2395.9L1164.5,2395.9L1164.5,2395.9z"/>
		</g>
	</g>
	<g>
		<path class="st19" d="M1260.4,2914c-177.7,73.7-384.5,56.7-545.7-44.6c-0.6-0.4-0.8-1.1-0.6-1.8c23.6-64.3,24.5-138,3.8-203.5
			c-23-73-41.8-170.1-21.7-209.6c0.3-0.7,1.1-0.9,1.7-0.6c89.5,49.8,188.8,78.4,289,83.2c93.1,4.4,187.1-11.7,275.6-43
			c-1.7,27.7-3.4,55.5-8,86.6c-0.1,0.4,0,0.8,0.2,1.1c57.4,95.5,59.6,227.7,6.3,331.4C1260.9,2913.7,1260.7,2913.9,1260.4,2914z"/>
	</g>
	<g>
		<path class="st21" d="M1204.8,2547.1c-147.2,51.4-317.6,42.4-453.8-25.8c-16.8-8.4-35.6,7-32.8,27.1
			c6.5,47.2,28.5,91.5,40.5,136.8c10.2,38.4,13.2,79.1,8.9,118.9c-2.5,23.3,9.2,45.5,28.4,55.6c64.8,34,134.6,47.6,203.4,49.1
			c70.6,1.6,140.9-8.9,210.8-20.8c19.7-3.4,36-19.3,40.6-40.7c18.6-85,8-184-34.9-262.9l4.9-20.5
			C1223.2,2553.4,1214.2,2543.8,1204.8,2547.1z"/>
	</g>
	<g>
		<path class="st8" d="M1010.7,2672.1c0,1.5-1,2.8-2.1,2.8s-2.1-1.2-2.1-2.8s1-2.8,2.1-2.8
			C1009.7,2669.3,1010.7,2670.5,1010.7,2672.1z"/>
	</g>
	<g>
		<path class="st8" d="M1037.4,2674.9c0,1.5-0.9,2.8-2.1,2.8s-2.1-1.2-2.1-2.8s0.9-2.8,2.1-2.8
			C1036.4,2672.1,1037.4,2673.3,1037.4,2674.9z"/>
	</g>
	<g>
		<ellipse class="st8" cx="1071.2" cy="2617" rx="2.1" ry="2.8"/>
	</g>
	<g>
		<ellipse class="st8" cx="1108.9" cy="2714" rx="2.1" ry="2.8"/>
	</g>
	<g>
		<path class="st8" d="M1132.5,2851.9c0,1.5-0.9,2.8-2.1,2.8s-2.1-1.2-2.1-2.8s0.9-2.8,2.1-2.8S1132.5,2850.4,1132.5,2851.9z"/>
	</g>
	<g>
		<path class="st8" d="M1026.3,2814.4c0,1.5-0.9,2.8-2.1,2.8c-1.2,0-2.1-1.2-2.1-2.8s1-2.8,2.1-2.8
			C1025.4,2811.6,1026.3,2812.9,1026.3,2814.4z"/>
	</g>
	<g>
		<path class="st8" d="M930.4,2849.1c0,1.5-1,2.8-2.1,2.8s-2.1-1.2-2.1-2.8s1-2.8,2.1-2.8C929.5,2846.4,930.4,2847.6,930.4,2849.1z"
			/>
	</g>
	<g>
		<path class="st8" d="M954.8,2849.1c0,1.5-1,2.8-2.1,2.8s-2.1-1.2-2.1-2.8s1-2.8,2.1-2.8C953.9,2846.4,954.8,2847.6,954.8,2849.1z"
			/>
	</g>
	<g>
		<path class="st8" d="M921.1,2796.8c0,1.5-1,2.8-2.1,2.8s-2.1-1.2-2.1-2.8s1-2.8,2.1-2.8S921.1,2795.2,921.1,2796.8z"/>
	</g>
	<g>
		<path class="st8" d="M1182.9,2779.7c0,1.5-0.9,2.8-2.1,2.8s-2.1-1.2-2.1-2.8s0.9-2.8,2.1-2.8
			C1182,2776.9,1182.9,2778.2,1182.9,2779.7z"/>
	</g>
	<g>
		<path class="st8" d="M1195.6,2685.5c0,1.5-0.9,2.8-2.1,2.8s-2.1-1.2-2.1-2.8s0.9-2.8,2.1-2.8S1195.6,2684,1195.6,2685.5z"/>
	</g>
	<g>
		<path class="st8" d="M859.2,2656.6c0,1.5-1,2.8-2.1,2.8s-2.1-1.2-2.1-2.8s1-2.8,2.1-2.8S859.2,2655.1,859.2,2656.6z"/>
	</g>
	<g>
		<path class="st8" d="M818.7,2736.1c0,1.5-1,2.8-2.1,2.8s-2.1-1.2-2.1-2.8s1-2.8,2.1-2.8S818.7,2734.5,818.7,2736.1z"/>
	</g>
	<g>
		<path class="st8" d="M835.4,2716.8c0,1.5-1,2.8-2.1,2.8s-2.1-1.2-2.1-2.8s1-2.8,2.1-2.8C834.4,2714,835.4,2715.2,835.4,2716.8z"/>
	</g>
	<g>
		<ellipse class="st8" cx="770.6" cy="2576.4" rx="2.1" ry="2.8"/>
	</g>
	<g>
		<path class="st8" d="M876.3,2758.4c0,1.5-1,2.8-2.1,2.8s-2.1-1.2-2.1-2.8s1-2.8,2.1-2.8S876.3,2756.8,876.3,2758.4z"/>
	</g>
	<g>
		<ellipse class="st8" cx="958.3" cy="2722.9" rx="5.6" ry="6.2"/>
	</g>
	<g>
		<ellipse class="st8" cx="1175.2" cy="2610.8" rx="5.6" ry="6.2"/>
	</g>
	<g>
		<ellipse class="st8" cx="1178.7" cy="2840.2" rx="5.6" ry="6.2"/>
	</g>
	<g>
		<path class="st8" d="M841.6,2641.8c-4.2-1.6-8.3-2.4-12.5-3c-3-0.4-6.1-0.6-9.2-0.7c-0.1-3.4-0.3-6.7-0.7-10.1
			c-0.5-4.6-1.3-9.2-2.7-13.8c-1.4,4.6-2.2,9.2-2.7,13.8c-0.4,3.4-0.5,6.7-0.7,10.1c-3,0.1-6.1,0.3-9.2,0.7c-4.2,0.6-8.3,1.4-12.5,3
			c4.2,1.6,8.3,2.4,12.5,3c3,0.4,6.1,0.6,9.2,0.7c0.1,3.4,0.3,6.7,0.6,10.1c0.5,4.6,1.3,9.2,2.7,13.8c1.4-4.6,2.2-9.2,2.7-13.8
			c0.4-3.4,0.5-6.7,0.6-10.1c3-0.1,6.1-0.3,9.2-0.7C833.2,2644.1,837.4,2643.3,841.6,2641.8z"/>
	</g>
	<g>
		<path class="st8" d="M1155.4,2782.9c-4.2-1.6-8.3-2.4-12.5-3c-3.1-0.4-6.1-0.6-9.2-0.7c-0.1-3.4-0.3-6.7-0.7-10.1
			c-0.6-4.6-1.3-9.2-2.7-13.8c-1.4,4.6-2.2,9.2-2.7,13.8c-0.4,3.4-0.6,6.7-0.7,10.1c-3.1,0.1-6.1,0.3-9.2,0.7
			c-4.2,0.6-8.3,1.4-12.5,3c4.2,1.6,8.3,2.4,12.5,3c3.1,0.4,6.1,0.6,9.2,0.7c0.1,3.4,0.3,6.7,0.6,10.1c0.6,4.6,1.3,9.2,2.7,13.8
			c1.4-4.6,2.2-9.2,2.7-13.8c0.4-3.4,0.6-6.7,0.6-10.1c3.1-0.1,6.1-0.3,9.2-0.7C1147,2785.3,1151.2,2784.5,1155.4,2782.9z"/>
	</g>
	<g>
		<path class="st21" d="M1030.8,2974.6c-16.9,0-33.9-0.7-50.8-2.1c-97.7-8.1-192.1-39.4-273.1-90.5c-6-3.8-8.5-11.9-5.9-19
			c22.4-60.3,23.8-130.9,4-193.9c-8.7-27.5-50.5-167.6-19.9-223.6c3.7-6.8,11.5-9.3,18-5.7c87.8,49.1,186.2,77.5,284.5,82.2
			c88.4,4.2,179.6-10,270.8-42.3c4.3-1.5,9.1-0.6,12.7,2.5c3.6,3.1,5.6,8,5.2,13c-1.6,26-3.2,52.8-7.4,82.8
			c57.3,99.2,59,236.3,3.9,343.3c-1.6,3.1-4.1,5.4-7.1,6.7C1191.9,2958.7,1111.6,2974.6,1030.8,2974.6z M730.8,2861.9
			c154.3,92.7,352.1,107.9,520.5,39.6c48.5-98.3,45.4-222.9-8.3-311.6c-1.9-3.2-2.7-7.1-2.1-10.9c3.4-22.6,5.2-43.6,6.6-63.7
			c-87.9,28.7-175.6,41.2-261.1,37.2c-97.2-4.7-194.5-31.7-282.3-78.2c-7.8,35.3,2.3,107.1,26.9,184.9
			C751.6,2724.6,751.4,2797.7,730.8,2861.9z M1260.8,2913.8L1260.8,2913.8L1260.8,2913.8z"/>
	</g>
	<g>
		<path class="st8" d="M1527.3,1815.9c0,3.5,0,7-0.1,10.4c-5.3,293.5-233.7,529.8-514.7,529.8c-169,0-318.9-85.4-412.8-217.4
			c-17.5-24.6-33-50.8-46.3-78.4c-35.6-73.4-55.6-156.5-55.6-244.5c0-298.3,230.5-540.2,514.8-540.2c25.7,0,51,2,75.7,5.8
			C1336.7,1319.8,1527.3,1544.5,1527.3,1815.9"/>
	</g>
	<g>
		<path class="st21" d="M1012.5,2371.3c-84.7,0-165.7-20.4-240.6-60.7c-71.5-38.5-134.8-94.6-183-162.4
			c-18.1-25.4-34.1-52.5-47.7-80.6c-38-78.3-57.3-163-57.3-251.7c0-306.3,237.1-555.4,528.5-555.4c26,0,52.2,2,77.6,5.9
			c124.1,19.2,238.1,84.8,321,184.6c83.8,101.1,130,230.6,130,364.8c0,3.6,0,7.2-0.1,10.7c-2.6,146.2-58.9,283.3-158.3,385.8
			C1283.2,2314.9,1151.8,2371.3,1012.5,2371.3z M1012.5,1290.8c-276.3,0-501.1,235.5-501.1,525c0,83.6,18.2,163.4,54,237.3
			c12.8,26.5,28,52.1,45,76.1c95.6,134.4,242.2,211.6,402,211.6c271.1,0,495.8-231,501-514.9c0.1-3.3,0.1-6.7,0.1-10.1
			c0-258.4-183.7-481.7-427.3-519.4C1062.1,1292.8,1037.3,1290.8,1012.5,1290.8z"/>
	</g>
	<g>
		<path class="st21" d="M1527.3,1815.4c0,3.5,0,6.9-0.1,10.3c-12,54.7-34.1,106.6-66.4,150.5c-67,91.4-188.9,162.4-290.3,198.9
			c-226.9,81.7-459.2,25.7-563.8-39.4c-10.7-6.7-20.1-13.4-28-20.1c-7.2-18.8-13.3-38.1-18-57.6c-32.8-133.4-36.7-284.3,19-409.5
			c56.2-126.3,152.1-253.8,265.2-319.2c69.5-40.3,152.6-49.9,246.6-44.2C1340.1,1300.2,1527.3,1546.1,1527.3,1815.4"/>
	</g>
	<g>
		<path class="st21" d="M944.9,2296c-103.5,0-209.8-25.1-309.9-74.1c-6.9-3.4-10.1-12.4-7-20.1c3.1-7.7,11.2-11.1,18.1-7.7
			c142.4,69.8,297.8,89.3,437.5,55.1c298.2-73.1,404-281.6,415.1-305.1c3.6-7.5,10.4-9.5,15.6-8.1l-6.6,29.5l3.3-14.8l12.1,7.2
			c-11.8,25-123.3,244.9-433.6,320.9C1042.7,2290.3,994.2,2296,944.9,2296z"/>
	</g>
	<g>
		<g>
			<path class="st8" d="M522.5,2202.8c-43.2-76.4-34.4-168.4,19.6-205.5c54.1-37.1,133-5.2,176.2,71.2
				c43.2,76.4,34.4,168.4-19.6,205.5C644.6,2311.1,565.7,2279.2,522.5,2202.8"/>
		</g>
		<g class="st20">
			<path class="st21" d="M698.7,2274c-54.1,37.1-133,5.2-176.2-71.2c-34.8-61.4-35.9-133-6.8-177.9c1.9,29.3,10.8,60.1,27,88.7
				c43.2,76.4,122.1,108.3,176.2,71.2c10.6-7.2,19.4-16.6,26.5-27.6C748.7,2206.1,732.5,2250.8,698.7,2274z"/>
		</g>
		<g>
			<path class="st21" d="M648.5,2304.6c-50.1,0-104.1-34.4-137.6-93.7l0,0c-26.2-46.3-35.6-99.7-25.8-146.5
				c7.3-34.5,25-62.9,49.8-80c60.4-41.4,147.9-7.3,195.1,76.1c26.2,46.3,35.6,99.7,25.8,146.5c-7.3,34.5-25,62.9-49.8,80
				C688.5,2298.9,668.8,2304.6,648.5,2304.6z M534.2,2194.7c39.2,69.2,109.7,99,157.3,66.4c18.9-12.9,31.8-34.1,37.5-61
				c8.2-39,0.1-84-22.3-123.5c-39.2-69.2-109.7-99-157.3-66.4c-18.9,12.9-31.8,34.1-37.5,61C503.7,2110.2,511.8,2155.2,534.2,2194.7
				L534.2,2194.7z"/>
		</g>
		<g>
			<path class="st21" d="M628.4,2292.5c-42.1,0-89.2-31.5-119.4-84.9c-23.8-42.1-33-91-24.6-131.1c5.7-27,18.7-48.1,37.6-61.1
				c48.3-33.1,121.1-0.9,162.2,71.8c23.8,42.1,33,91,24.5,131.1c-5.7,27-18.7,48.1-37.6,61.1
				C658.4,2288.3,643.7,2292.5,628.4,2292.5z M565.8,2032.5c-10.5,0-20.5,2.8-29.2,8.8c-12.6,8.6-21.3,23.2-25.3,42.1
				c-6.8,32.3,1.1,72.7,21.1,108.1c33.1,58.6,89,86.4,124.5,62.1c12.6-8.6,21.3-23.2,25.3-42.1c6.8-32.3-1.1-72.7-21.1-108.1
				C636,2059.2,598.1,2032.5,565.8,2032.5z"/>
		</g>
	</g>
	<g class="st13">
		<path class="st8" d="M602.1,1835.7c0-47.1,25.6-85.3,57.1-85.3c31.5,0,57.1,38.2,57.1,85.3c0,47.1-25.6,85.3-57.1,85.3
			C627.7,1921,602.1,1882.8,602.1,1835.7"/>
	</g>
	<g class="st13">
		<path class="st8" d="M766.1,1944.3c21.4-20.4,50.6-21.8,65.3-3.2c14.7,18.7,9.3,50.3-12.1,70.8c-21.4,20.4-50.6,21.8-65.3,3.2
			C739.4,1996.4,744.8,1964.7,766.1,1944.3"/>
	</g>
	<g class="st13">
		<path class="st8" d="M1289.5,1515.9c27,9.7,37.8-36.9,12.9-56.2c-84-65.4-179.7-100.3-270.5-95.5c-93,4.9-179.3,51.3-245.2,129.5
			c-18,21.3,4.9,63.7,27.7,51.3C955.8,1468.1,1124.2,1456.7,1289.5,1515.9"/>
	</g>
	<g>
		<path class="st27" d="M617,2567.3c4.1,5.2,6.3,11.4,7,18.1C620.8,2579.8,618.5,2573.8,617,2567.3z"/>
	</g>
	<g>
		<g>
			<g>
				<path class="st26" d="M1367.5,1915.9l-17.1,36.1c-3.7,7.9-2.1,17.7,4.1,24l28.4,29.2c13.5,13.9,3.2,37.4-15.3,34.7l-41.6-6
					c-8.1-1.2-15.8,3.1-19.4,10.7l-18.3,38.8c-8.3,17.6-33.5,12.8-36.6-7l-6-38.9c-1.4-9.2-8.4-16.4-17.2-17.6l-37-5.3
					c-18.8-2.7-24-29.2-7.6-38.4l36.2-20.4c7.1-4,10.9-12.3,9.6-20.8l-6.8-43.7c-3-19.4,18.9-31,32.4-17.1l28.4,29.2
					c6.2,6.4,15.5,7.9,22.9,3.7l33.7-19C1357.1,1878.8,1375.9,1898.2,1367.5,1915.9z"/>
			</g>
			<g>
				<path class="st21" d="M1271.8,2102c-1.4,0-2.9-0.1-4.4-0.4c-11.7-2-20.4-11.4-22.4-23.8l-6-38.9c-0.9-5.9-5.5-10.5-11.3-11.4
					l-37-5.3c-11.8-1.7-21.1-11.3-23.1-23.9c-1.9-11.9,3.3-23.3,13.2-28.8l36.2-20.4c4.4-2.5,6.7-7.5,5.9-12.7l-6.8-43.7
					c-1.8-11.7,3.1-22.8,12.6-28.5c10.3-6.2,22.6-4.4,31.3,4.6l28.4,29.2c4.1,4.2,10.2,5.2,15.1,2.5l33.7-19
					c10.5-5.9,23.1-3.6,31.5,5.8c7.9,8.9,9.8,21.5,4.7,32.2l-17,36.1c-2.3,4.9-1.2,10.9,2.7,14.9l28.4,29.2
					c8.3,8.5,10.7,21.2,6,32.1c-4.8,11.2-15.3,17.4-26.9,15.7l-41.6-6c-5.2-0.7-10.2,1.9-12.4,6.6l-18.3,38.8
					C1290.1,2096.4,1281.5,2102,1271.8,2102z M1241.8,1875.8c-2.4,0-4.6,0.7-6.3,1.7c-1.6,1-6.8,4.7-5.6,12.5l6.8,43.7
					c1.8,11.8-3.5,23.4-13.2,28.9l-36.2,20.4c-6.7,3.8-6.2,10.7-5.9,12.7c0.7,4.6,4.1,10.4,11.3,11.4l37,5.3
					c11.7,1.7,21.1,11.5,23.1,23.9l6,38.9c1.1,7.1,6.4,10.5,10.9,11.3c4.3,0.7,9.9-0.6,12.8-6.6l18.3-38.8
					c4.9-10.3,15.5-16.2,26.4-14.7l41.6,6c6.7,0.9,10.9-3,12.6-7.1c2.1-5,1-10.4-2.9-14.5l-28.4-29.2c-8.5-8.8-10.8-22.1-5.5-33.2
					l17-36.1c3.4-7.2-0.9-12.9-2.3-14.5c-3.2-3.6-9.2-6.5-15.5-2.9l-33.7,19c-10,5.6-22.3,3.7-30.7-4.9l-28.4-29.2
					C1247.9,1876.9,1244.7,1875.8,1241.8,1875.8z"/>
			</g>
		</g>
		<g>
			<path class="st8" d="M1702.1,2027.8c-19.8,5.2-37.3,34.7-43.8,48.8c-14.3,31.2-30.7,62.6-54.8,82.5c-8.6,7.1-18.2,12.6-28.9,16.2
				c-30.1,9.9-40.9-3.8-69.1-19.1c-16.2-8.9-31.3-19.3-45.6-30.5c0,0,0,0,0,0c-17.9-22.8-38.6-40.8-58.7-58.8
				c-25.1-22.5-50.2-46.2-66.2-77.2s-21-71-5-101.9c7-13.5,17.1-23.8,28.9-31.3c24.8-15.8,57.6-19.9,87.1-17.2
				C1553,1848.8,1652.9,1923.1,1702.1,2027.8z"/>
		</g>
		<g class="st17">
			<path class="st22" d="M1603.5,2159.1c-8.6,7.1-18.2,12.6-28.9,16.2c-30.1,9.9-40.9-3.8-69.1-19.1c-16.2-8.9-31.3-19.3-45.6-30.5
				c0,0,0,0,0,0c-17.9-22.8-38.6-40.8-58.7-58.8c-25.1-22.5-50.2-46.2-66.2-77.2s-21-71-5-101.9c7-13.5,17.1-23.8,28.9-31.3
				c3.4,33.2,19.4,65.2,38.3,90.7c29,39.1,67.5,67.9,104.5,97.6s73.9,62,97.3,105.4C1600.6,2153.1,1602.1,2156.1,1603.5,2159.1z"/>
		</g>
		<g>
			<path class="st21" d="M1472,2116l55.4,76.1c2,2.7,1.6,6.6-0.8,8.8c-2.2,1.9-5.2,1.8-7.2-0.1l-67.1-63.6
				c-5.8-5.5-6.5-15.1-1.5-21.5s13.7-7.1,19.5-1.7C1470.8,2114.6,1471.5,2115.3,1472,2116z"/>
		</g>
		<g>
			<path class="st21" d="M1476.1,2140.7c-7.1,0-13.1-6.1-13.7-14c-0.6-8.4,5.1-15.7,12.7-16.3c78.4-6.6,149.2-62.3,180.2-141.8
				c3-7.7,11.1-11.2,18.1-7.9c7,3.3,10.2,12.3,7.2,20c-35,89.8-114.8,152.6-203.3,160.1C1476.8,2140.7,1476.4,2140.7,1476.1,2140.7z
				"/>
		</g>
		<g>
			<path class="st21" d="M1459.8,2140.8c-4.1,0-7.9-2-10.4-5.3l0,0c-16-20.3-34.8-37.1-53.1-53.4l-3.9-3.5
				c-26.9-24.1-52.5-48.5-69.4-81.5c-20.2-39.3-22.1-84.1-4.9-117c21-40.5,69.3-61.5,129.1-56.1c110.8,9.9,215.6,87.1,267.1,196.7
				c3.5,7.4,0.9,16.6-5.9,20.5c-6.7,3.9-15,1-18.5-6.5c-47.2-100.5-143.3-171.3-244.9-180.4c-18.3-1.6-79.9-3.5-103,40.9
				c-12.1,23.2-10.2,57.3,5,86.8c14.6,28.4,38.1,50.7,62.8,72.9l3.9,3.5c19.1,17.1,38.8,34.7,56.3,56.9c2.2,2.7,3.6,6.3,3.6,10.2
				C1473.6,2134,1467.4,2140.8,1459.8,2140.8z"/>
		</g>
	</g>
	<g>
		<path class="st26" d="M1080.3,2632.6l8,17.9l17.9,2.9c3.1,0.5,4.3,4.6,2.1,7l-13,13.9l3.1,19.6c0.5,3.4-2.7,5.9-5.4,4.3l-16-9.3
			l-16,9.3c-2.7,1.6-5.9-1-5.4-4.3l3.1-19.6l-13-13.9c-2.2-2.4-1-6.5,2.1-7l17.9-2.9l8-17.9C1075,2629.5,1079,2629.5,1080.3,2632.6z
			"/>
	</g>
	<g>
		<path class="st26" d="M834,2720.3l31.9,19l32.3-18.1c5.5-3.1,11.8,2.1,10.7,8.8l-6.6,39.2l25.6,28.2c4.4,4.8,1.8,13.1-4.3,13.9
			l-35.9,5.3l-16.4,35.6c-2.8,6.1-10.7,6-13.4-0.2l-15.6-36l-35.8-6.2c-6.1-1.1-8.5-9.4-4-14.1l26.2-27.5l-5.7-39.4
			C822.2,2722.1,828.6,2717.1,834,2720.3z"/>
	</g>
	<g>
		<path class="st26" d="M1091.3,2055.9c-0.2-1-0.6-1.9-1.2-2.6c-0.5-0.8-1.1-1.5-1.9-1.9c-0.6-0.2-1.1-0.5-1.7-0.8
			c-1.2-0.4-2.4-0.4-3.7,0c-0.6,0.2-1.1,0.5-1.7,0.8c-1,0.7-1.9,1.6-2.5,2.7c-0.2,0.5-0.5,1.1-0.7,1.6c-0.5,0.9-0.8,1.8-0.8,2.8
			c-0.2,1-0.2,2,0.1,3c0.2,1,0.6,1.9,1.2,2.6c0.5,0.8,1.1,1.5,1.9,1.9c0.6,0.2,1.1,0.5,1.7,0.8c1.2,0.4,2.4,0.4,3.7,0
			c0.6-0.2,1.1-0.5,1.7-0.8c1-0.7,1.9-1.6,2.5-2.7c0.2-0.5,0.5-1.1,0.7-1.6c0.5-0.9,0.8-1.8,0.8-2.8
			C1091.7,2058,1091.6,2056.9,1091.3,2055.9z"/>
	</g>
	<g>
		<path class="st26" d="M1129.6,1962.6c-8.9,0-8.9,15.2,0,15.2C1138.5,1977.8,1138.5,1962.6,1129.6,1962.6z"/>
	</g>
	<g>
		<path class="st26" d="M1141.4,2019.5c-8.9,0-8.9,15.2,0,15.2C1150.3,2034.6,1150.3,2019.5,1141.4,2019.5z"/>
	</g>
	<g>
		<path class="st26" d="M1081.9,2014.2c-0.1-0.5-0.4-0.9-0.7-1.2c-0.3-0.4-0.7-0.6-1.1-0.8c-0.4-0.2-0.8-0.3-1.3-0.3l-0.9,0.1
			c-0.6,0.2-1.1,0.5-1.5,1c-0.2,0.3-0.4,0.5-0.5,0.8c-0.3,0.6-0.5,1.2-0.5,1.9v0.8c0,0.5,0.1,1,0.3,1.5c0.1,0.5,0.4,0.9,0.7,1.2
			c0.3,0.4,0.7,0.6,1.1,0.8c0.4,0.2,0.8,0.3,1.3,0.3c0.3-0.1,0.6-0.1,0.9-0.1c0.6-0.2,1.1-0.5,1.5-1c0.2-0.3,0.4-0.5,0.5-0.8
			c0.3-0.6,0.5-1.2,0.5-1.9v-0.8C1082.2,2015.2,1082.1,2014.7,1081.9,2014.2z"/>
	</g>
	<g>
		<path class="st26" d="M996.4,2090.2c-0.2-0.6-0.5-1.2-0.9-1.7c-0.2-0.2-0.5-0.4-0.7-0.6c-0.5-0.3-1.1-0.5-1.7-0.5h-1.5
			c-0.5,0-0.9,0.1-1.3,0.3c-0.4,0.1-0.8,0.4-1.1,0.8c-0.3,0.3-0.6,0.8-0.7,1.2c-0.2,0.4-0.3,0.9-0.3,1.5l0.1,1
			c0.2,0.6,0.5,1.2,0.9,1.7c0.2,0.2,0.5,0.4,0.7,0.6c0.5,0.3,1.1,0.5,1.7,0.5h1.5c0.5,0,0.9-0.1,1.3-0.3c0.4-0.1,0.8-0.4,1.1-0.8
			c0.3-0.3,0.6-0.8,0.7-1.2c0.2-0.4,0.3-0.9,0.3-1.5C996.5,2090.9,996.5,2090.6,996.4,2090.2z"/>
	</g>
	<g>
		<path class="st26" d="M1371.3,1816.4c-0.2-0.6-0.5-1.2-0.9-1.7c-0.2-0.2-0.5-0.4-0.7-0.6c-0.5-0.3-1.1-0.5-1.7-0.5h-1.5
			c-0.5,0-0.9,0.1-1.3,0.3c-0.4,0.2-0.8,0.4-1.1,0.8c-0.3,0.3-0.6,0.8-0.7,1.2c-0.2,0.4-0.3,0.9-0.3,1.5c0,0.3,0.1,0.7,0.1,1
			c0.2,0.6,0.5,1.2,0.9,1.7c0.2,0.2,0.5,0.4,0.7,0.6c0.5,0.3,1.1,0.5,1.7,0.5h1.5c0.5,0,0.9-0.1,1.3-0.3c0.4-0.2,0.8-0.4,1.1-0.8
			c0.3-0.3,0.6-0.8,0.7-1.2c0.2-0.4,0.3-0.9,0.3-1.5C1371.4,1817.1,1371.3,1816.8,1371.3,1816.4z"/>
	</g>
	<g>
		<path class="st26" d="M1407.1,1784.4c-4.4,0-4.4,7.6,0,7.6C1411.5,1792,1411.5,1784.4,1407.1,1784.4z"/>
	</g>
	<g>
		<path class="st26" d="M1361,1771.8c-0.2-0.6-0.5-1.2-0.9-1.7c-0.2-0.2-0.5-0.4-0.7-0.6c-0.5-0.3-1.1-0.5-1.7-0.5h-0.7
			c-0.5,0-0.9,0.1-1.3,0.3c-0.4,0.2-0.8,0.4-1.1,0.8c-0.3,0.3-0.6,0.8-0.7,1.2c-0.2,0.4-0.3,0.9-0.3,1.5l0.1,1
			c0.2,0.6,0.5,1.2,0.9,1.7c0.2,0.2,0.5,0.4,0.7,0.6c0.5,0.3,1.1,0.5,1.7,0.5h0.7c0.5,0,0.9-0.1,1.3-0.3c0.4-0.2,0.8-0.4,1.1-0.8
			c0.3-0.3,0.6-0.8,0.7-1.2c0.2-0.4,0.3-0.9,0.3-1.5C1361,1772.4,1361,1772.1,1361,1771.8z"/>
	</g>
	<g>
		<path class="st26" d="M1437.3,1782.8c-4.4,0-4.4,7.6,0,7.6C1441.8,1790.4,1441.8,1782.8,1437.3,1782.8z"/>
	</g>
	<g>
		<path class="st26" d="M1340.7,1839.7c-4.4,0-4.4,7.6,0,7.6S1345.1,1839.7,1340.7,1839.7z"/>
	</g>
	<g>
		<path class="st26" d="M1223.5,2092.2c-0.1-0.5-0.4-0.9-0.7-1.2c-0.3-0.4-0.7-0.6-1.1-0.8c-0.4-0.2-0.8-0.4-1.3-0.3
			c-0.3,0-0.6,0.1-0.9,0.1c-0.6,0.2-1.1,0.5-1.5,1c-0.2,0.3-0.4,0.5-0.5,0.8c-0.3,0.6-0.5,1.2-0.5,1.9v1.6c0,0.5,0.1,1,0.3,1.5
			c0.1,0.5,0.4,0.9,0.7,1.2c0.3,0.4,0.7,0.6,1.1,0.8c0.4,0.2,0.8,0.4,1.3,0.3c0.3-0.1,0.6-0.1,0.9-0.1c0.6-0.2,1.1-0.5,1.5-1
			c0.2-0.3,0.4-0.5,0.5-0.8c0.3-0.6,0.5-1.2,0.5-1.9v-1.6C1223.8,2093.1,1223.8,2092.6,1223.5,2092.2z"/>
	</g>
	<g>
		<path class="st26" d="M841.5,2123.5c-0.2-0.6-0.5-1.2-0.9-1.7c-0.2-0.2-0.5-0.4-0.7-0.6c-0.5-0.3-1.1-0.5-1.7-0.5h-3
			c-0.5,0-0.9,0.1-1.3,0.3c-0.4,0.1-0.8,0.4-1.1,0.8c-0.3,0.3-0.6,0.8-0.7,1.2c-0.2,0.4-0.3,0.9-0.3,1.5c0,0.3,0.1,0.7,0.1,1
			c0.2,0.6,0.5,1.2,0.9,1.7c0.2,0.2,0.5,0.4,0.7,0.6c0.5,0.3,1.1,0.5,1.7,0.5h3c0.5,0,0.9-0.1,1.3-0.3c0.4-0.1,0.8-0.4,1.1-0.8
			c0.3-0.3,0.6-0.8,0.7-1.2c0.2-0.4,0.3-0.9,0.3-1.5L841.5,2123.5z"/>
	</g>
	<g>
		<path class="st26" d="M1046.2,2166.2c-4.4,0-4.4,7.6,0,7.6C1050.7,2173.8,1050.7,2166.2,1046.2,2166.2z"/>
	</g>
	<g>
		<path class="st26" d="M1063.9,1855.9c-4.4,0-4.4,7.6,0,7.6C1068.4,1863.5,1068.4,1855.9,1063.9,1855.9z"/>
	</g>
	<g>
		<path class="st26" d="M1503.7,1808.8c-4.4,0-4.4,7.6,0,7.6C1508.2,1816.4,1508.2,1808.8,1503.7,1808.8z"/>
	</g>
	<g>
		<path class="st26" d="M1480.1,1696.7c-4.4,0-4.4,7.6,0,7.6C1484.6,1704.3,1484.6,1696.7,1480.1,1696.7z"/>
	</g>
</g>
</svg>
