<?xml version="1.0" encoding="utf-8"?>
<!-- Generator: Adobe Illustrator 27.1.0, SVG Export Plug-In . SVG Version: 6.00 Build 0)  -->
<svg version="1.1" id="Layer_1" xmlns="http://www.w3.org/2000/svg" xmlns:xlink="http://www.w3.org/1999/xlink" x="0px" y="0px"
	 viewBox="0 0 4000 4000" style="enable-background:new 0 0 4000 4000;" xml:space="preserve">
<style type="text/css">
	.st0{opacity:0.2;}
	.st1{fill:#371A45;}
	.st2{fill:#00B1FF;}
	.st3{fill:#2784D8;}
	.st4{fill:#BFBFBF;}
	.st5{opacity:0.5;}
	.st6{fill:#FFFFFF;}
	.st7{opacity:0.25;}
	.st8{fill:#B2B2B2;}
	.st9{opacity:0.35;}
	.st10{fill:none;stroke:#293856;stroke-width:36.8319;stroke-linecap:round;stroke-miterlimit:10;}
	.st11{fill:#32B1D1;}
	.st12{opacity:0.26;}
	.st13{fill:#22A7F0;}
	.st14{opacity:0.7;}
	.st15{fill:#220F2D;}
	.st16{opacity:0.4;}
	.st17{fill:#D1D1D1;}
</style>
<g>
	<g>
		<g>
			<g class="st0">
				<g>
					<ellipse class="st1" cx="1965.62" cy="3584.08" rx="874.92" ry="88.5"/>
				</g>
			</g>
			<g>
				<g>
					<path class="st2" d="M1510.35,974.73c0,0,68.74-258.5,145.84-356.88c106.11-135.38,642.37-104.88,372.94-59.11
						c-69.01,20.67-150.18,39.12-201.86,94.3c-73.83,78.82-172.67,358.78-172.67,358.78L1510.35,974.73z"/>
				</g>
			</g>
			<g>
				<g>
					<path class="st3" d="M1654.59,1011.82c0,0,98.85-279.96,172.67-358.78c51.68-55.18,132.85-73.63,201.86-94.3
						c10.65-1.81,20.04-3.6,28.25-5.35c-111.69-2.25-308.91,21.29-368.85,97.77c-63.03,80.42-120.46,267.81-139.33,333.56
						L1654.59,1011.82z"/>
				</g>
			</g>
			<g>
				<g>
					<path class="st1" d="M1654.6,1030.23c-1.52,0-3.06-0.19-4.59-0.58l-144.24-37.09c-4.76-1.22-8.83-4.29-11.31-8.53
						c-2.48-4.24-3.16-9.29-1.9-14.04c2.85-10.71,70.61-263.31,149.15-363.51c86.46-110.32,409.98-116.31,462.56-94.88
						c17.98,7.33,18.6,20.18,18.03,25.37c-1.82,16.56-16.11,27.27-88.96,39.73c-7.47,2.23-15.07,4.44-22.76,6.67
						c-62.66,18.18-127.45,36.97-169.86,82.26c-70.35,75.1-167.78,349.56-168.75,352.32
						C1669.3,1025.45,1662.24,1030.23,1654.6,1030.23z M1533.13,961.57l109.82,28.24c22.41-61.33,104.79-278.8,170.87-349.36
						c49.33-52.66,122.19-73.8,186.48-92.45c7.96-2.31,15.83-4.59,23.54-6.9c0.72-0.22,1.45-0.39,2.2-0.52
						c3.43-0.58,6.67-1.15,9.75-1.71c-35.95-1.32-85.77,0.03-140.11,6.8c-112.33,13.98-194.34,44.43-225,83.54
						C1608.31,708.79,1550.14,901.85,1533.13,961.57z"/>
				</g>
			</g>
			<g>
				<g>
					
						<ellipse transform="matrix(0.2607 -0.9654 0.9654 0.2607 -5.5574 2388.0803)" class="st4" cx="1556.54" cy="1197.67" rx="296.89" ry="232.67"/>
				</g>
			</g>
			<g class="st5">
				<g>
					<path class="st6" d="M1353.93,1162.01c42.75-158.3,177.98-259.46,302.03-225.95c32.02,8.65,60.13,25.48,83.54,48.33
						c-26.88-35.7-62.75-61.79-105.54-73.34c-124.06-33.5-259.28,67.66-302.03,225.96c-31.72,117.43-3.59,233.27,63.67,298.95
						C1344.55,1368.17,1325.92,1265.7,1353.93,1162.01z"/>
				</g>
			</g>
			<g class="st7">
				<g>
					<path class="st1" d="M1781.15,1258.34c-42.76,158.3-177.95,259.46-302.02,225.95c-123.14-33.26-188.99-186.68-148.13-343.74
						c19.04,26.43,43.73,45.07,73.04,52.97c99.42,26.84,214.65-79.71,257.41-238.01c2.82-10.42,5.24-20.84,7.29-31.16
						C1769.91,975.11,1819.7,1115.6,1781.15,1258.34z"/>
				</g>
			</g>
			<g>
				<g>
					<path class="st1" d="M1527.18,1509.07c-17.66,0-35.36-2.27-52.85-7c-133.66-36.1-205.52-202.02-160.19-369.87
						c45.33-167.85,190.96-275.05,324.61-238.93c133.66,36.1,205.52,202.02,160.19,369.87l-17.78-4.8l17.78,4.8
						C1759.54,1409.01,1644.39,1509.07,1527.18,1509.07z M1585.49,923.05c-100.77,0-200.83,89.27-235.8,218.75
						c-40.04,148.24,20.18,293.9,134.23,324.71c14.43,3.9,29.06,5.77,43.66,5.77c100.77,0.01,200.83-89.27,235.8-218.75
						c40.04-148.24-20.18-293.9-134.23-324.71C1614.72,924.93,1600.09,923.05,1585.49,923.05z"/>
				</g>
			</g>
			<g>
				<g>
					<path class="st6" d="M2021.72,1464.63l-34.29,160.4L1921.12,1935l-17.55,82.07c-2.67,3.49-5.39,6.93-8.16,10.32
						c-84.85,105.58-191.61,171.03-305.25,205.11c-265.83,79.82-569.23-11.91-717.83-163.17
						c-114.36-116.41-69.96-294.78,37.62-362.22c47.99-30.13,108.56-38.19,173.28-8.78c132.84,60.36,295.8,224.77,510.92,133.86
						c38.75-16.37,79.25-41.06,121.54-76.17c34.54-28.64,70.27-64.26,107.33-107.94c6.83-8.01,13.4-15.71,19.81-23.05
						C1969.27,1480.44,2021.72,1464.63,2021.72,1464.63z"/>
				</g>
			</g>
			<g class="st7">
				<g>
					<path class="st1" d="M1921.12,1935l-17.55,82.07c-2.67,3.49-5.39,6.93-8.16,10.32c-84.85,105.58-191.61,171.03-305.25,205.11
						c-265.83,79.82-569.23-11.91-717.83-163.17c-114.36-116.41-69.96-294.78,37.62-362.22c70.37,43.63,234.72,147.57,234.72,147.57
						s-43.32,161.38,44.71,248.99c99.01,98.6,377.78,49.79,467.19-163.94L1921.12,1935z"/>
				</g>
			</g>
			<g>
				<g>
					<path class="st1" d="M1383.29,2280.69c-215.24,0-416.2-88.62-524.1-198.46c-97.34-99.1-86.19-239.69-24.86-327.35
						c61.25-87.53,161.93-116.32,256.53-73.32c31.58,14.35,64.22,34.05,98.78,54.9c112.7,68,240.45,145.07,397.35,78.77
						c38.58-16.3,77.93-40.99,116.95-73.38c34.41-28.53,69.75-64.09,105.05-105.69c6.9-8.1,13.53-15.85,19.99-23.25
						c126.26-144.41,181.54-164.14,187.43-165.91l29.83-8.99l-125.54,586.96l-2.5,3.29c-2.79,3.66-5.64,7.26-8.54,10.81
						c-82.06,102.11-187.81,173.17-314.21,211.08C1525.05,2271.27,1453.39,2280.69,1383.29,2280.69z M1002.73,1698.33
						c-60.49,0-108.96,35.84-138.22,77.67c-52.61,75.19-62.3,195.66,20.96,280.42c135.49,137.93,426.67,240.33,699.39,158.44
						c119.14-35.73,218.78-102.69,296.19-199.01c1.86-2.27,3.64-4.49,5.38-6.72l108.39-506.75
						c-27.29,20.23-72.42,59.64-138.12,134.77c-6.36,7.28-12.89,14.92-19.66,22.87c-36.66,43.21-73.54,80.29-109.59,110.18
						c-41.78,34.68-84.22,61.25-126.13,78.95c-47.31,20-92.29,28.23-134.97,28.23c-114.45,0.01-212.5-59.16-295.74-109.38
						c-33.62-20.28-65.37-39.44-95-52.91C1049.88,1703.39,1025.45,1698.33,1002.73,1698.33z"/>
				</g>
			</g>
			<g>
				<g>
					<g>
						<path class="st6" d="M939.1,2830.41c10.9,248.05,412.68,376.98,502.17,289.83c97.66-95.06,91.85-263.44,155.06-278.7
							c111.41-26.92,379.69,88.68,527.88-178.89c11.57-20.84,22.35-44.03,32.32-69.78l-304.4-21.63
							c-123.27-82.56-330.8-191.94-515.8-91.34c-103.12,56.05-154.7,232.62-157.87,328.99c-0.49,15.08,0.17,28.15,2.04,38.55
							C1180.5,2847.44,930.25,2629.2,939.1,2830.41z"/>
					</g>
				</g>
				<g class="st7">
					<g>
						<path class="st1" d="M939.1,2830.41c10.9,248.05,412.68,376.98,502.17,289.83c97.66-95.06,91.85-263.44,155.06-278.7
							c111.41-26.92,379.69,88.68,527.88-178.89c-48.66,50.57-143.76,121.49-289.21,112.34c-171.03-10.77-271.64-74.38-332.23-13.91
							c-50.18,50.03-37.8,198.33-116.51,222.51c-71.54,21.98-183.81-138.82-207.8-174.71c-0.49,15.08,0.17,28.15,2.04,38.55
							C1180.5,2847.44,930.25,2629.2,939.1,2830.41z"/>
					</g>
				</g>
				<g>
					<g>
						<path class="st1" d="M1847.02,2578.88c-34.07-21.11-68.68-41.19-104.57-58.39c-35.75-17.39-72.51-32.54-110.26-43.62
							c-37.76-10.81-76.3-18.69-114.98-19.97c-38.6-1.48-77.18,2.91-113.45,14.63c-18.15,5.73-35.88,12.82-52.66,21.88
							c-2.09,1.1-4.29,2.16-6.3,3.28l-5.73,3.48c-3.9,2.15-7.44,5.03-11.15,7.57c-3.67,2.63-7.07,5.73-10.63,8.55
							c-3.34,3.15-6.76,6.22-10.03,9.49c-26.09,26.44-45.92,59.97-62.16,94.98c-16.11,35.21-28.21,72.65-36.63,110.71
							c-4.3,19.01-7.57,38.24-9.58,57.38c-0.98,9.56-1.65,19.12-1.72,28.46c-0.15,9.31,0.13,18.64,1.46,26.86l8.38,51.85
							l-38.61-34.72l-0.01-0.01c-15.01-12.82-31.35-25.49-47.71-37.25c-16.45-11.79-33.34-22.88-50.65-32.71
							c-17.28-9.74-35.15-18.36-52.87-23.59c-8.81-2.53-17.58-4.15-25.39-4.11c-7.79,0.14-14.2,1.76-18.7,5.17
							c-4.59,3.31-8.32,8.86-10.96,16.33c-2.55,7.5-3.96,16.34-4.48,25.54c-0.97,18.63,0.79,38.18,5.03,56.72
							c8.43,37.36,27,72.37,51.93,102.63c24.88,30.37,55.5,56.45,88.93,78.31c33.43,21.94,69.78,39.74,107.47,53.49
							c37.69,13.61,77.04,23.25,116.27,26.36c19.54,1.41,39.14,1.22,57.45-2.03c9.12-1.63,17.87-4.07,25.67-7.49
							c3.97-1.63,7.49-3.7,10.85-5.82c1.58-1.14,3.19-2.25,4.62-3.47c1.37-1.25,2.73-2.33,4.49-4.25
							c27.09-27,46.56-61.76,61.76-98.83c7.66-18.57,14.36-37.76,20.9-57.35c6.63-19.58,12.89-39.54,21.1-59.84
							c4.18-10.15,8.8-20.42,15.13-30.69c6.39-10.08,14.5-20.94,27.63-28.61c3.37-1.74,6.67-3.6,10.41-4.65
							c1.76-0.56,3.82-1.28,5.35-1.61l4.36-0.85l8.71-1.64l8.51-0.95c11.35-1.23,22.29-1.37,33.14-1.36
							c21.62,0.2,42.55,1.71,63.29,3.05c20.72,1.38,41.22,2.69,61.6,3.41c40.67,1.29,81.06,0.04,119.9-7.64
							c38.86-7.42,75.82-21.74,108.48-43.01c32.37-21.67,60.58-49.66,83.3-82.14c22.77-32.47,40.78-68.59,55.48-106.15l0.05-0.14
							c3.71-9.47,14.39-14.14,23.86-10.44c9.47,3.71,14.14,14.39,10.44,23.86c-15.55,39.74-34.79,78.52-59.75,114.11
							c-24.88,35.58-56.48,67.21-93.18,91.69c-36.96,24.13-78.91,40.22-121.61,48.36c-42.75,8.43-85.96,9.63-128.21,8.3
							c-21.13-0.75-42.08-2.1-62.8-3.47c-20.7-1.35-41.22-2.8-61.14-2.97c-9.91-0.01-19.77,0.14-29.07,1.17l-6.97,0.75l-6.59,1.26
							l-3.29,0.61c-1,0.22-1.36,0.49-2.08,0.68c-1.33,0.23-2.5,1.11-3.78,1.66c-5,2.77-10.19,8.78-14.75,16.15
							c-4.58,7.41-8.6,16.11-12.3,25.15c-7.39,18.2-13.62,37.89-20.29,57.65c-6.62,19.8-13.59,39.85-21.77,59.68
							c-16.25,39.53-37.84,78.95-69.79,110.84c-1.75,1.92-4.34,4.22-6.85,6.41c-2.52,2.13-5.17,4.02-7.82,5.87
							c-5.37,3.47-10.9,6.58-16.53,8.93c-11.24,4.91-22.66,7.97-33.96,10.01c-22.64,3.99-44.9,4.06-66.73,2.51
							c-43.63-3.49-85.67-13.92-126.04-28.46c-40.31-14.71-79.07-33.67-115.1-57.31c-36.01-23.57-69.45-51.89-97.27-85.82
							c-27.81-33.75-49.46-73.99-59.33-117.81c-4.95-21.95-7.04-44.15-5.87-66.99c0.69-11.49,2.34-23.39,6.49-35.57
							c2.27-6.09,4.91-12.24,8.95-18.13c3.98-5.86,9.07-11.41,15.15-15.84c6.05-4.47,13.01-7.62,19.87-9.48
							c6.88-1.89,13.68-2.63,20.19-2.71c13-0.02,24.81,2.41,35.94,5.58c22.15,6.59,41.86,16.32,60.73,26.91
							c18.81,10.68,36.67,22.44,53.97,34.84c17.35,12.49,33.88,25.27,50.45,39.42l0.02,0.02l-30.23,17.12
							c-2.18-11.67-2.7-22.59-2.85-33.43c-0.09-10.83,0.51-21.43,1.42-31.95c1.88-21.02,5.1-41.69,9.39-62.1
							c8.93-40.72,21.69-80.53,39.07-118.75c8.68-19.11,18.71-37.74,30.41-55.52c11.68-17.79,24.98-34.81,40.52-50.18
							c3.9-3.82,8.03-7.46,12.09-11.15c4.36-3.42,8.51-7.05,13.06-10.26c4.62-3.13,9.02-6.53,13.98-9.25l7.27-4.27
							c2.4-1.31,4.77-2.42,7.15-3.64c18.89-9.81,38.81-17.75,59.28-23.64c40.93-12.06,83.87-15.76,125.78-13.05
							c42.01,2.57,83.03,11.78,122.23,24.95c39.22,13.24,76.74,30.36,112.75,49.81c35.88,19.71,70.34,41.62,103.34,65.35
							c4.13,2.97,5.07,8.73,2.1,12.86C1856.52,2580.39,1851.09,2581.4,1847.02,2578.88z"/>
					</g>
				</g>
				<g>
					<g>
						<path class="st6" d="M959.14,2715.26c0,0,50.3-108.27,175.62-74.28c116.17,31.5,139.76,167.51,164.26,208.13L959.14,2715.26z"
							/>
					</g>
				</g>
				<g>
					<g>
						<path class="st1" d="M942.44,2707.5c1.61-3.47,2.77-5.64,4.22-8.29c1.39-2.51,2.84-4.95,4.33-7.35
							c2.99-4.79,6.29-9.34,9.72-13.79c6.89-8.87,14.58-17.16,23.14-24.65c17.05-14.96,37.71-26.66,60.03-32.85
							c22.28-6.45,45.73-7.21,67.84-4.09c11.12,1.59,21.83,3.86,32.48,7.25c10.75,3.17,21.1,7.76,31.09,12.86
							c9.97,5.2,19.34,11.46,28.1,18.36c8.75,6.93,16.66,14.72,24.03,22.82c7.42,8.09,13.88,16.86,19.84,25.8
							c5.97,8.95,11.35,18.17,16.14,27.58c9.63,18.82,17.27,38.2,23.92,57.53c3.36,9.65,6.35,19.34,9.5,28.79
							c3.16,9.41,6.32,18.8,10.09,26.86l0.2,0.42c2.16,4.61,0.17,10.1-4.44,12.25c-4.16,1.94-9.02,0.52-11.52-3.16
							c-6.38-9.38-10.81-18.74-15.19-28l-12.78-27.41c-8.4-18.05-17.11-35.6-27.19-51.96c-19.79-32.82-45.54-60.9-77.75-76.42
							c-8.07-3.78-16.32-7.19-25-9.43c-4.21-1.36-8.82-2.12-13.22-3.24c-4.45-0.76-8.91-1.71-13.35-2.15
							c-17.78-2.09-35.46-1.26-51.97,3.5c-16.51,4.71-31.92,13.02-45.41,24.32c-6.8,5.57-13.07,11.93-18.76,18.81
							c-2.84,3.43-5.53,7.01-8.07,10.65c-1.26,1.82-2.49,3.65-3.65,5.48c-1.09,1.71-2.37,3.95-2.96,5.01l-0.67,1.19
							c-4.96,8.86-16.17,12.03-25.03,7.06C941.72,2726.56,938.47,2716.13,942.44,2707.5z"/>
					</g>
				</g>
				<g>
					<g>
						<path class="st8" d="M1441.28,3120.26c-19.31,24.15-39.29,41.13-59.25,45.36c-101.15,21.31-330.04-77.36-417.91-256.31
							c-37.66-76.75-32.73-144.4-4.98-194.04c60.64-41.8,159.41-30.39,224.77,106.21
							C1271.43,3004.42,1338.84,3087.83,1441.28,3120.26z"/>
					</g>
				</g>
				<g class="st9">
					<g>
						<path class="st1" d="M1441.28,3120.26c-19.31,24.15-39.29,41.13-59.25,45.36c-101.15,21.31-330.04-77.36-417.91-256.31
							c-17.15-34.98-25.46-68.04-26.82-98.39c29.6,113.69,126.11,189.49,214.85,195.03c60.97,3.81,97.57-20.92,95.18-63.96
							C1307.79,3043.37,1364.75,3096.02,1441.28,3120.26z"/>
					</g>
				</g>
				<g>
					<g>
						<path class="st1" d="M1352.36,3186.81c-118.84,0-322.15-101.13-404.78-269.4c-36.95-75.29-38.55-150.28-4.53-211.14l2.09-3.74
							l3.53-2.43c34.07-23.48,74.84-30.54,114.83-19.89c38.29,10.21,93.13,41.62,137,133.31
							c87.92,183.77,152.38,259.45,246.32,289.17l25.59,8.1l-16.76,20.96c-24.03,30.05-46.87,47.02-69.82,51.88
							C1375.71,3185.76,1364.46,3186.81,1352.36,3186.81z M973.14,2728.08c-25.77,49.35-23.15,110.62,7.51,173.11
							c86.34,175.82,309.53,265,397.58,246.4c6.96-1.47,17.38-6.25,31.15-19.43c-91.06-38.32-157.07-121.01-242.09-298.74
							c-37.81-79.03-82.47-105.41-113.27-113.62C1026,2708.33,997.45,2712.7,973.14,2728.08z"/>
					</g>
				</g>
				<g>
					<g>
						<path class="st1" d="M1596.35,2859.96c-10.09,0-18.32-8.14-18.41-18.25c-0.02-2.42-3.33-243.34-101.13-332.74
							c-26.4-24.13-56.57-34.44-92.36-31.57c-10.12,0.88-19.02-6.74-19.83-16.88c-0.82-10.14,6.73-19.02,16.88-19.83
							c45.86-3.7,86.32,10.14,120.2,41.13c109.6,100.25,112.98,349.03,113.07,359.58c0.09,10.17-8.08,18.48-18.25,18.57
							C1596.46,2859.96,1596.41,2859.96,1596.35,2859.96z"/>
					</g>
				</g>
				<g>
					<g>
						<path class="st1" d="M1236.28,3117.06c-42.02,0-92.74-8.76-149.32-35.83c-9.17-4.39-13.05-15.39-8.66-24.56
							c4.38-9.17,15.38-13.06,24.56-8.66c139.52,66.76,238.28,8.52,239.26,7.93c8.7-5.29,20.02-2.52,25.3,6.18
							c5.28,8.69,2.51,20.02-6.18,25.3C1358.23,3089.24,1311.1,3117.06,1236.28,3117.06z"/>
					</g>
				</g>
				<g>
					<g>
						<path class="st1" d="M1154.52,2996.69c-59.63,0-131.08-8.54-183.7-41.72c-8.6-5.42-11.18-16.8-5.75-25.4
							c5.42-8.6,16.79-11.18,25.4-5.75c93.86,59.2,268.53,27.43,270.28,27.1c10-1.88,19.62,4.72,21.49,14.71
							c1.88,10-4.7,19.61-14.7,21.49C1263.64,2987.85,1215.2,2996.69,1154.52,2996.69z"/>
					</g>
				</g>
				<g>
					<g>
						<path class="st1" d="M1061.28,2853.37c-43.35,0-91.95-10.89-135.55-46.29c-7.9-6.41-9.1-18.01-2.69-25.9
							c6.41-7.9,18.01-9.1,25.9-2.69c93,75.49,220.13,14.5,221.4,13.88c9.14-4.48,20.16-0.71,24.65,8.42
							c4.48,9.13,0.71,20.17-8.42,24.65C1182.89,2827.24,1128.39,2853.37,1061.28,2853.37z"/>
					</g>
				</g>
			</g>
			<g>
				<g>
					<g>
						<path class="st6" d="M2643.17,1984.07c83.28,105.71,79.69,502.47-3.4,717.41c-83.08,214.94-478.79,127.26-700.66,60.46
							c-221.86-66.8-86.27-572.57-47.23-707.32C1952.87,1844.18,2519.77,1827.42,2643.17,1984.07z"/>
					</g>
				</g>
				<g class="st7">
					<g>
						<path class="st1" d="M1939.12,2761.93c221.86,66.81,617.56,154.46,700.69-60.47c10.86-28.16,20.39-59.39,28.49-92.72
							c-74.74,32.12-149.33-34.06-143.89-96.23c17.5-199.85-0.97-343.66-30.21-444.89c-33.84-117.16-146.07-195.09-267.57-184.6
							c-158.25,13.67-305.33,70.09-334.71,171.6C1852.83,2189.36,1717.25,2695.13,1939.12,2761.93z"/>
					</g>
				</g>
				<g>
					<g>
						<path class="st1" d="M2361.08,2856.28c-132.82,0-288.59-34.96-427.27-76.72c-103.76-31.24-149.02-148.04-134.52-347.15
							c10-137.36,46.26-284.06,74.91-382.93c24.02-82.89,117.75-144.24,263.92-172.75c185.08-36.09,436.32-9.68,519.52,95.94l0,0
							c59.73,75.82,65.1,255.51,64.63,329.25c-0.95,150.98-25.37,302.82-65.32,406.19
							C2614.58,2817.75,2500.47,2856.28,2361.08,2856.28z M2304,1897.87c-52.43,0-106.5,4.81-158.83,15.01
							c-130.03,25.36-215.9,78.88-235.59,146.85c-42.14,145.44-164.18,624.63,34.84,684.57c220.47,66.39,601.75,148.22,678.17-49.47
							c80.54-208.36,83.97-600.53,6.11-699.37C2580.66,1934.47,2448.6,1897.87,2304,1897.87z"/>
					</g>
				</g>
				<g>
					<g>
						<path class="st6" d="M2522.24,2349.62l109.86-13.13c24.83-2.97,46.71,16.47,46.54,41.48
							c-0.58,86.04-12.9,261.41-102.98,273.98c-109.17,15.23-113.79-107.25-89.6-267.39
							C2488.85,2366.11,2503.71,2351.84,2522.24,2349.62z"/>
					</g>
				</g>
				<g class="st7">
					<g>
						<path class="st1" d="M2486.33,2384.37c-24.58,160.08-20.23,282.61,88.98,267.59c44.84-6.11,70.52-52.68,85.05-108.49
							c-12.43,13.77-27.46,22.99-45.71,25.47c-97.76,13.4-111.52-83.41-95.59-218.78
							C2502.14,2353.48,2488.92,2367.11,2486.33,2384.37z"/>
					</g>
				</g>
				<g>
					<g>
						<path class="st1" d="M2558.02,2671.62c-27.05,0-49.17-8.58-65.96-25.64c-39.13-39.76-46.3-118.83-23.96-264.4
							c4.06-26.51,25.58-47.22,52.32-50.36l109.89-12.88c17.13-2.01,34.31,3.45,47.12,14.96c12.79,11.48,20.03,27.91,19.88,45.08
							c-0.93,102.99-17.69,277.85-119.51,291.83C2570.94,2671.15,2564.35,2671.62,2558.02,2671.62z M2524.7,2367.81
							c-10.33,1.21-18.64,9.17-20.2,19.36c-7.19,46.86-29.06,189.42,13.81,232.98c12.28,12.48,30.11,16.94,54.48,13.58
							c53.53-7.34,86.31-102.92,87.69-255.67c0.06-6.69-2.66-12.85-7.66-17.34c-5.03-4.52-11.5-6.58-18.23-5.79L2524.7,2367.81z"/>
					</g>
				</g>
				<g>
					<g>
						<path class="st1" d="M2660.52,2038.69c-12.75-0.44-25.91-0.63-38.9-0.7c-13.03-0.05-26.06,0.06-39.09,0.34
							c-26.04,0.6-52.06,1.9-77.81,4.69l-0.08,0.01c-5.06,0.55-9.61-3.11-10.16-8.17c-0.51-4.7,2.61-8.96,7.11-9.98
							c26.08-5.96,52.36-10.37,78.7-14.07c13.17-1.83,26.36-3.49,39.57-4.98c13.26-1.49,26.35-2.83,39.88-3.95
							c10.15-0.84,19.06,6.72,19.9,16.87s-6.72,19.07-16.87,19.9c-0.69,0.06-1.37,0.07-2.05,0.06L2660.52,2038.69z"/>
					</g>
				</g>
			</g>
			<g>
				<g>
					<path class="st10" d="M1826.62,2876.78"/>
				</g>
			</g>
			<g>
				<g>
					<path class="st11" d="M1577.63,2170.8"/>
				</g>
			</g>
			<g class="st12">
				<g>
					<path class="st1" d="M1627.23,2686.42c80.46,117.42,212.86,147.83,309.11,160.27c98.49,12.74,423.13-16.85,491.87-229.72
						c-133.36,160.62-422.78,183.82-520.76,171.18C1823.28,2777.29,1715.51,2754.6,1627.23,2686.42z"/>
				</g>
			</g>
			<g>
				<g>
					<path class="st6" d="M2444.41,2495.56c-0.1,24.79-1.95,50.04-5.9,76.27c-0.41,2.72-0.87,5.49-1.33,8.26
						c-41.27,246.32-396.92,280.05-500.86,266.6c-103.94-13.45-249.1-48.25-327.22-189.91c-11.24-20.43-19.92-45.48-26.18-74.63
						c-9.34-43.73-13.14-96.65-11.65-156.65c1.44-58.21,7.8-123.14,18.89-192.99c11.5-72.68,28.08-150.65,49.43-231.85
						c8.32-31.62,17.96-64.83,28.08-97.93c15.81-51.48,32.85-102.61,48.04-146.7c26.18-75.97,47.07-130.99,47.07-130.99h554.91
						c-1.44,52.05-0.97,100.55,1.03,145.98c4.16,94.39,14.94,175.44,28.54,247.3c18.73,99.22,42.86,180.93,62.36,255.87
						c1.85,7.03,3.64,14.01,5.39,20.94c10.83,43.17,19.81,84.38,24.89,125.81C2442.97,2445.56,2444.62,2470.3,2444.41,2495.56z"/>
				</g>
			</g>
			<g class="st7">
				<g>
					<path class="st1" d="M2443.03,2531.59c-1.18,15.86-3.08,31.98-5.85,48.51c-41.27,246.32-396.92,280.05-500.86,266.6
						c-103.94-13.45-249.1-48.25-327.22-189.91c-13.14-23.87-22.84-54.15-29.15-89.88c95.42,103.84,229.44,134.02,330.35,147.06
						C2011,2726.99,2420.03,2759.46,2443.03,2531.59z"/>
				</g>
			</g>
			<g>
				<g>
					<path class="st1" d="M2326.87,1625.28c1.49,14.11,2.42,28.18,3.28,42.22c0.83,14.05,2.07,28.06,2.68,42.07l5.34,83.86
						c3.68,55.82,9.3,111.47,18.29,166.64c8.84,55.19,20.32,109.92,34.04,164.31c6.76,27.22,14.04,54.36,21.44,81.6
						c7.26,27.27,14.72,54.58,21.67,82.23c13.87,55.21,26.02,111.99,29.55,170.42c1.69,29.17,1.14,58.6-1.79,87.75l-1.06,10.94
						l-1.56,10.87c-1.15,7.28-1.82,14.39-3.63,21.9l-2.38,11.13c-0.75,3.72-1.58,7.42-2.81,11.04l-3.36,10.91
						c-1.15,3.63-2.13,7.31-3.69,10.8c-10.6,28.59-26.37,55.26-45.78,78.48c-19.39,23.29-42.24,43.21-66.74,60.04
						c-49.2,33.65-104.37,55.51-160.39,70.51c-56.22,14.79-113.68,23.06-171.81,24.69c-14.55,0.4-29.18,0.17-43.98-0.68
						c-7.33-0.43-15.07-1.19-22.37-2.15c-7.13-1.04-14.27-1.94-21.4-3.11c-28.53-4.49-57.05-10.45-85.1-18.72
						c-55.93-16.58-110.65-42.68-155.87-82c-22.4-19.75-42.46-42.18-59.44-66.75c-4.19-6.17-7.89-12.64-11.84-18.96l-5.82-9.56
						l-5.32-10.34c-6.67-13.91-11.84-28.18-16.17-42.52c-8.27-28.75-13.23-57.82-15.92-86.81c-2.78-28.99-3.7-57.92-3.43-86.73
						c0.46-57.63,6.11-114.72,14.19-171.24c8.1-56.53,18.54-112.61,32-167.92c6.72-27.67,14.28-55.06,22.5-82.33l6.32-20.44
						l6.86-20.13c4.58-13.41,9.38-26.76,14.33-40.06c1.78-4.78,7.1-7.22,11.88-5.44c4.29,1.59,6.69,6.04,5.86,10.39
						c-2.64,13.91-5.43,27.78-8.43,41.58l-4.51,20.7l-4.25,20.6c-5.63,27.51-11.35,55.05-16.69,82.59
						c-10.76,55.07-20.98,110.19-28.17,165.64c-7.21,55.42-11.98,111.09-12.78,166.5c-0.3,27.69,0.56,55.32,3.13,82.58
						c2.54,27.26,6.87,54.17,14.07,79.79c3.74,12.72,8.16,25.11,13.61,36.73l4.3,8.53l5.16,8.57c3.51,5.67,6.75,11.53,10.45,17.07
						c14.99,22.07,32.78,42.04,52.66,59.76c40.19,35.16,89.53,59.37,141.71,74.84c26.19,7.62,53.11,13.18,80.4,17.39
						c6.81,1.09,13.7,1.93,20.55,2.92c6.7,0.85,13.03,1.45,19.8,1.84c13.4,0.72,27.04,0.91,40.74,0.49
						c54.81-1.7,109.94-9.8,162.94-23.96c52.89-14.31,104.21-35.1,148.34-65.54c21.99-15.21,42.03-32.89,58.75-53.1
						c16.74-20.18,30.04-42.9,39.02-67.33c1.35-2.96,2.14-6.14,3.11-9.25l2.85-9.35c1.07-3.08,1.76-6.27,2.38-9.49l2.02-9.6
						c1.55-6.23,2.2-13.23,3.23-19.9l1.44-10.1l0.96-10.15c2.7-27.06,3.2-54.31,1.6-81.55c-3.33-54.53-14.86-108.81-28.56-163.08
						c-13.86-54.28-29.43-108.8-42.67-164.17c-13.55-55.28-24.92-111.34-33.57-167.81c-8.68-56.47-14.46-113.39-17.25-170.39
						c-1.31-28.5-1.57-57.05-0.5-85.54c0.27-7.12,0.59-14.24,1.04-21.36c0.5-7.11,0.63-14.23,1.42-21.33
						c1.34-14.2,2.75-28.39,4.72-42.52c0.7-5.07,5.38-8.6,10.45-7.9c4.3,0.6,7.5,4.06,7.94,8.2L2326.87,1625.28z"/>
				</g>
			</g>
			<g>
				<g>
					
						<ellipse transform="matrix(0.7071 -0.7071 0.7071 0.7071 -1199.2384 1789.5389)" class="st6" cx="1560.55" cy="2342.38" rx="70.88" ry="70.88"/>
				</g>
			</g>
			<g class="st7">
				<g>
					<path class="st1" d="M1490.28,2333.22c-5.05,38.82,22.29,74.41,61.11,79.46c38.82,5.05,74.42-22.35,79.47-61.16
						c1.4-10.72,0.32-21.26-2.85-30.93c-14.37,22.27-40.76,35.59-68.79,31.94c-28.04-3.65-50.13-23.28-58.27-48.48
						C1495.41,2312.59,1491.67,2322.5,1490.28,2333.22z"/>
				</g>
			</g>
			<g>
				<g>
					<path class="st1" d="M1560.73,2431.68c-3.89,0-7.8-0.25-11.71-0.76c-23.65-3.08-44.69-15.19-59.24-34.08
						c-14.55-18.9-20.86-42.34-17.78-65.99l0,0c6.36-48.83,51.26-83.38,100.07-77.02c23.65,3.08,44.69,15.19,59.24,34.08
						c14.55,18.9,20.86,42.34,17.78,65.99c-3.08,23.65-15.19,44.69-34.09,59.23C1599.23,2425.28,1580.3,2431.68,1560.73,2431.68z
						 M1508.52,2335.6c-1.81,13.9,1.9,27.66,10.45,38.77c8.54,11.1,20.91,18.21,34.8,20.02c13.91,1.8,27.66-1.9,38.77-10.45
						c11.1-8.54,18.21-20.9,20.02-34.8c1.81-13.9-1.9-27.66-10.45-38.77c-8.54-11.1-20.91-18.21-34.8-20.02
						c-13.88-1.79-27.67,1.9-38.76,10.45C1517.44,2309.35,1510.33,2321.71,1508.52,2335.6L1508.52,2335.6z"/>
				</g>
			</g>
			<g class="st9">
				<g>
					<path class="st1" d="M1536.55,2392.81c18.66-86.25,26.2-166.82,27-238.91c-4.36,41.39-11.01,84.7-20.75,129.61
						c-11.37,52.68-17.3,108.04-15.76,162.87C1529.55,2428.34,1532.76,2410.42,1536.55,2392.81z"/>
				</g>
			</g>
			<g>
				<g>
					<path class="st6" d="M1601.86,2547.65l403.72,46.03c47.78,5.46,91.37-29.18,96.84-77.03l24.48-214.84
						c4.78-41.89-21.21-80.48-59.86-93.1c-5.47-1.83-11.21-3.05-17.17-3.74l-403.66-46.02c-47.84-5.47-91.44,29.18-96.84,77.03
						l-19.43,170.16l-5.11,44.68C1519.37,2498.65,1554.08,2542.19,1601.86,2547.65z"/>
				</g>
			</g>
			<g>
				<g>
					<path class="st6" d="M2443.7,2350.27c0,0,46.19,19.5,41.07,81.38c-4.01,48.49-27.74,67.27-27.74,67.27
						s-167.42,45.22-374.75-23.18c0,0-38.51-19.82-37.88-77.8c0.24-22.15,15.66-54.91,47.04-60.29
						C2091.44,2337.64,2280.8,2387.61,2443.7,2350.27z"/>
				</g>
			</g>
			<g>
				<g>
					<path class="st6" d="M1601.86,2547.65l403.72,46.03c47.78,5.46,91.37-29.18,96.84-77.03l24.48-214.84
						c4.78-41.89-21.21-80.48-59.86-93.1c-5.47-1.83-11.21-3.05-17.17-3.74l-403.66-46.02c-47.84-5.47-91.44,29.18-96.84,77.03
						l-19.43,170.16l-5.11,44.68C1519.37,2498.65,1554.08,2542.19,1601.86,2547.65z"/>
				</g>
			</g>
			<g>
				<g>
					<path class="st6" d="M2443.7,2350.27c0,0,46.19,19.5,41.07,81.38c-4.01,48.49-27.74,67.27-27.74,67.27
						s-167.42,45.22-374.75-23.18c0,0-38.51-19.82-37.88-77.8c0.24-22.15,15.66-54.91,47.04-60.29
						C2091.44,2337.64,2280.8,2387.61,2443.7,2350.27z"/>
				</g>
			</g>
			<g>
				<g>
					<path class="st6" d="M1601.86,2547.65l403.72,46.03c47.78,5.46,91.37-29.18,96.84-77.03l24.48-214.84
						c4.78-41.89-21.21-80.48-59.86-93.1c-5.47-1.83-11.21-3.05-17.17-3.74l-403.66-46.02c-47.84-5.47-91.44,29.18-96.84,77.03
						l-19.43,170.16l-5.11,44.68C1519.37,2498.65,1554.08,2542.19,1601.86,2547.65z"/>
				</g>
			</g>
			<g class="st7">
				<g>
					<path class="st1" d="M2438.51,2571.83c-61.85,7.49-170.46,11.39-296.01-25.41l-3.8,33.47c-5.44,47.84-49.07,82.48-96.8,77.04
						l-403.75-46.04c-22.12-2.57-41.42-13.24-55.23-28.74c-9.34-43.73-13.14-96.65-11.65-156.65l14.42-126.27
						c5.39-47.89,48.97-82.54,96.81-77.04l403.7,46.04c5.95,0.67,11.7,1.9,17.14,3.75c38.65,12.57,64.62,51.17,59.85,93.06
						l-4.88,42.76c53.64,10.93,169.69,29.41,281.59,13.14C2445.95,2469.74,2446.52,2518.86,2438.51,2571.83z"/>
				</g>
			</g>
			<g>
				<g>
					<path class="st6" d="M1601.86,2547.65l403.72,46.03c47.78,5.46,91.37-29.18,96.84-77.03l24.48-214.84
						c4.78-41.89-21.21-80.48-59.86-93.1c-5.47-1.83-11.21-3.05-17.17-3.74l-403.66-46.02c-47.84-5.47-91.44,29.18-96.84,77.03
						l-19.43,170.16l-5.11,44.68C1519.37,2498.65,1554.08,2542.19,1601.86,2547.65z"/>
				</g>
			</g>
			<g class="st7">
				<g>
					<path class="st1" d="M1601.85,2547.65l403.72,46.03c47.78,5.46,91.38-29.18,96.84-77.03l24.48-214.84
						c4.78-41.89-21.21-80.48-59.86-93.1c-24.66,12.61-40.33,20.69-40.33,20.69c-39.32,170.21-98.23,250.61-312.77,229.69
						c-92.61-9.05-149.35-29.8-184-52.97l-5.11,44.68C1519.36,2498.65,1554.07,2542.19,1601.85,2547.65z"/>
				</g>
			</g>
			<g>
				<g>
					<path class="st1" d="M2028.88,2614.3c-3.45,0-6.91-0.2-10.39-0.6l-433.74-49.46c-24.02-2.73-45.58-14.72-60.71-33.75
						c-15.13-19.02-21.95-42.73-19.21-66.74l27.93-244.92c2.74-24.02,14.72-45.58,33.75-60.71c19.02-15.13,42.71-21.96,66.74-19.21
						l433.74,49.46c49.74,5.67,85.59,50.75,79.92,100.49l-27.93,244.92c-2.73,24.02-14.72,45.58-33.75,60.7
						C2068.96,2607.43,2049.26,2614.29,2028.88,2614.3z M1622.92,2175.16c-27.04,0-50.43,20.36-53.57,47.85l-27.93,244.92
						c-1.62,14.24,2.45,28.32,11.45,39.65c9.01,11.32,21.81,18.45,36.05,20.08l433.74,49.46c14.26,1.63,28.33-2.45,39.65-11.45
						c11.32-9.01,18.45-21.81,20.08-36.05l27.93-244.92c3.37-29.57-17.94-56.36-47.5-59.73l-433.74-49.46
						C1627.01,2175.27,1624.95,2175.16,1622.92,2175.16z"/>
				</g>
			</g>
			<g>
				<g>
					<path class="st6" d="M1585.83,2544.21c5.11,1.68,10.43,2.83,16.02,3.44l403.72,46.03c35.02,3.98,67.77-13.52,84.92-42.07
						c6.25-10.37,10.44-22.19,11.86-34.96l10.92-95.44l3.6-31.49l10.02-87.91c5.47-47.84-29.24-91.38-77.03-96.84l-87.24-9.92
						c39.35,12.16,65.92,51.1,61.12,93.41l-13.2,116.05l-11.29,98.85c-5.46,47.78-49.06,82.49-96.84,77.03L1585.83,2544.21z"/>
				</g>
			</g>
			<g class="st7">
				<g>
					<path class="st1" d="M1585.83,2544.21c5.11,1.68,10.43,2.83,16.02,3.44l403.72,46.03c47.78,5.46,91.38-29.18,96.78-77.03
						l14.52-126.93c-12.71,21.27-34.09,46.72-63.61,46.28c-16.2-0.2-30.65-13.53-42.7-31.49l-11.29,98.85
						c-5.46,47.78-49.06,82.49-96.84,77.03L1585.83,2544.21z"/>
				</g>
			</g>
			<g>
				<g>
					<path class="st1" d="M2015.63,2612.68c-4.03,0-8.09-0.23-12.14-0.7l-403.72-46.04c-6.59-0.71-13.22-2.12-19.6-4.18l7.73-35.83
						l316.64,36.13c18.19,2.08,36.22-3.12,50.72-14.64c14.5-11.53,23.63-27.93,25.69-46.16l24.5-214.88
						c3.75-32.92-16.53-63.96-48.24-73.79l7.54-35.88l87.2,9.93c28.03,3.21,53.17,17.2,70.82,39.38
						c17.66,22.2,25.62,49.86,22.41,77.87l-24.5,214.86c-3.18,28.02-17.16,53.17-39.37,70.83
						C2062.33,2604.68,2039.38,2612.68,2015.63,2612.68z M1982.62,2572.54l25.04,2.86c18.23,2.09,36.23-3.11,50.73-14.64
						c14.5-11.53,23.63-27.93,25.69-46.16l0-0.01l24.5-214.87c2.09-18.24-3.11-36.26-14.64-50.76
						c-11.53-14.5-27.93-23.63-46.18-25.72l-22.31-2.54c13.13,20.09,19.47,44.61,16.59,69.86l-24.5,214.87
						C2014.59,2531.53,2002.25,2555.15,1982.62,2572.54z"/>
				</g>
			</g>
			<g>
				<g>
					<path class="st13" d="M1852.13,2379.5c-0.86,7.95,3.37,73.34,3.37,73.34s20.33,2.2,45.29,4.9
						c31.19,3.38,59.97-26.18,64.28-66.02s-17.48-74.86-48.67-78.24c-21.05-2.28-45.29-4.9-45.29-4.9
						S1853.53,2366.55,1852.13,2379.5z"/>
				</g>
			</g>
			<g class="st9">
				<g>
					<path class="st1" d="M1852.13,2379.5c-0.86,7.95,3.37,73.34,3.37,73.34s20.33,2.2,45.29,4.9
						c31.19,3.38,59.97-26.18,64.28-66.02s-17.48-74.86-48.67-78.24c-21.05-2.28-45.29-4.9-45.29-4.9
						S1853.53,2366.55,1852.13,2379.5z"/>
				</g>
			</g>
			<g>
				<g>
					<path class="st1" d="M1905.59,2471.81c-2.08,0-4.17-0.11-6.27-0.34l-31.46-3.4c-14.76-1.59-26.11-13.49-27-28.29
						c-3.28-54.12-2.68-59.67-2.45-61.76v0c0.84-7.74,6.06-27.96,15.52-60.1c4.15-14.08,17.74-23.21,32.34-21.58l31.63,3.42
						c19.4,2.09,36.41,13.42,47.89,31.88c10.82,17.39,15.44,39.25,13.02,61.57C1973.96,2437.98,1941.8,2471.81,1905.59,2471.81z
						 M1865.86,2380.94c-0.23,3.08,0.3,19.87,2.56,57.18c0.08,1.3,1.08,2.35,2.39,2.49l31.46,3.4
						c23.58,2.54,45.58-21.57,49.06-53.77c1.75-16.21-1.45-31.84-9.02-44.01c-6.9-11.09-16.64-17.84-27.4-19.01l-31.63-3.42
						c-1.3-0.14-2.5,0.66-2.87,1.92C1870.46,2359.54,1866.38,2376.4,1865.86,2380.94z"/>
				</g>
			</g>
			<g>
				<g>
					
						<ellipse transform="matrix(0.1076 -0.9942 0.9942 0.1076 -704.0416 3977.0847)" class="st13" cx="1863.31" cy="2380.71" rx="72.55" ry="56.8"/>
				</g>
			</g>
			<g class="st14">
				<g>
					<path class="st6" d="M1806.45,2389.55c8.91-32.17,34.25-54.28,61.44-51.33c27.3,2.96,47.35,30.07,49.09,63.49
						c1.33-4.75,2.27-9.73,2.83-14.89c4.26-39.84-17.53-74.87-48.71-78.23c-31.19-3.37-59.95,26.15-64.27,65.99
						C1806.27,2379.69,1806.16,2384.7,1806.45,2389.55z"/>
				</g>
			</g>
			<g class="st9">
				<g>
					<path class="st1" d="M1855.48,2452.82c31.18,3.42,60-26.15,64.32-65.99c0.97-9.16,0.59-18.02-0.97-26.37
						c-11.05,26.2-33.72,43.16-57.75,40.53c-24.03-2.63-42.48-23.95-47.69-51.86c-3.32,7.74-5.61,16.35-6.57,25.46
						C1802.51,2414.43,1824.3,2449.45,1855.48,2452.82z"/>
				</g>
			</g>
			<g>
				<g>
					<path class="st1" d="M1860.29,2466.91c-2.08,0-4.17-0.11-6.27-0.34c-19.4-2.09-36.41-13.42-47.89-31.88
						c-10.82-17.39-15.44-39.25-13.02-61.57c5.12-47.34,40.82-82.5,79.49-78.26c38.71,4.18,66.04,46.11,60.91,93.45
						C1928.67,2433.08,1896.51,2466.91,1860.29,2466.91z M1866.2,2322.13c-22.24,0-42.32,23.33-45.63,53.96
						c-1.75,16.22,1.45,31.84,9.02,44.01c6.9,11.09,16.63,17.84,27.4,19.01c23.63,2.53,45.58-21.57,49.06-53.77
						c3.48-32.2-12.86-60.47-36.42-63.02C1868.48,2322.19,1867.34,2322.13,1866.2,2322.13z"/>
				</g>
			</g>
			<g>
				<g>
					<path class="st1" d="M1727.55,2574.22c-0.42,0-0.83-0.02-1.26-0.06c-7.6-0.68-13.2-7.4-12.51-15l9.82-108.97
						c1.87-20.69-6.71-40.8-22.93-53.78c-24.05-19.24-36.39-49-33.01-79.62l16.94-153.3c0.84-7.58,7.56-13,15.25-12.21
						c7.58,0.84,13.05,7.67,12.21,15.25l-16.94,153.29c-2.34,21.16,6.19,41.73,22.81,55.02c23.48,18.79,35.88,47.88,33.18,77.83
						l-9.82,108.97C1740.65,2568.82,1734.62,2574.22,1727.55,2574.22z"/>
				</g>
			</g>
			<g>
				<g>
					<path class="st6" d="M2277.65,3554.2c-227.74-50.61-131.86-265.88-128.58-272.96v-0.05c0.05-0.1,0.05-0.15,0.05-0.15
						c-269.22-162.92-250.64-441.58-186.99-589.76l464.67-72.63c-20.33,49.22-33.06,92.75-39.83,131.61
						c-40.34,230.31,126.68,297.4,155.63,410.27C2585.51,3327.43,2557.74,3616.41,2277.65,3554.2z"/>
				</g>
			</g>
			<g class="st7">
				<g>
					<path class="st1" d="M2277.65,3554.2c-227.74-50.61-131.86-265.88-128.58-272.96c51.59,18.94,137.61,40.5,217.68,13.96
						c-3.95,1.49-145.72,56.31-113.69,122.16c49.84,102.35,225.74,35.31,250.12-58.87c24.33-94.19,8.62-217.38-58.67-286.21
						c-59.59-60.98-102.09-212.34-57.54-322.03c-40.34,230.31,126.68,297.4,155.63,410.27
						C2585.51,3327.43,2557.74,3616.41,2277.65,3554.2z"/>
				</g>
			</g>
			<g>
				<g>
					<path class="st1" d="M1970.61,2694.91c-14.8,53.65-25.2,107.45-28.18,161.89c-1.39,27.18-0.94,54.39,1.71,81.36
						c2.85,26.94,7.77,53.64,15.28,79.6c7.5,25.97,17.71,51.11,30.3,75.01c12.66,23.87,27.93,46.33,45.14,67.2
						c17.24,20.86,36.44,40.16,57.18,57.77c20.94,17.4,43.32,33.13,66.59,47.53l0,0l13.8,8.84l-6.64,14.68
						c-1.22,2.7-2.74,6.49-4.01,9.88c-1.32,3.48-2.56,7.04-3.73,10.61c-2.39,7.14-4.38,14.43-6.19,21.74
						c-3.51,14.64-5.91,29.49-6.81,44.27c-1.86,29.5,2.72,58.86,16.09,83.45c6.66,12.28,15.46,23.28,25.9,32.79
						c10.42,9.52,22.35,17.74,35.55,24.14c26.03,13.48,55.99,20.78,86.2,25.45c30.09,4.44,60.48,4.51,88.88-2.02
						c28.54-6.13,54.23-20.36,74.92-40.3c10.24-10.14,19.11-21.74,26.98-34.13c7.39-12.74,14.17-25.99,19.25-40.17
						c1.46-3.44,2.53-7.08,3.71-10.66c1.12-3.61,2.43-7.14,3.4-10.81c1.89-7.35,4.05-14.62,5.45-22.14
						c3.38-14.87,5.3-30.15,6.95-45.43c2.68-30.69,2.7-61.83-0.3-92.71c-1.34-15.46-3.67-30.8-6.31-46.06
						c-1.58-7.56-2.9-15.21-4.81-22.67c-0.94-3.64-1.69-7.75-2.77-11.01c-1.1-3.34-1.9-6.74-3.19-10.05
						c-9.61-26.75-28.22-51.67-47.46-76.72c-19.43-25.08-40.24-50.59-58.03-78.98c-8.93-14.14-17.25-28.88-24.21-44.38
						c-3.73-7.63-6.64-15.65-9.8-23.56c-1.47-4-2.71-8.09-4.06-12.13c-1.36-4.04-2.68-8.1-3.66-12.26
						c-8.94-32.95-12.62-67.27-11.08-100.94c1.44-33.69,7-66.82,15.4-98.86c8.46-32.04,19.48-63.09,31.73-93.51
						c3.8-9.43,14.52-14,23.96-10.21c9.43,3.8,14,14.53,10.21,23.96l-0.12,0.3c-11.72,29.13-22.19,58.67-30.13,88.72
						c-7.88,30.04-12.94,60.6-14.25,91.06c-1.4,30.47,1.96,60.72,9.79,89.72c0.85,3.66,2.02,7.23,3.23,10.8
						c1.2,3.56,2.27,7.17,3.57,10.7c2.82,6.99,5.35,14.08,8.69,20.88c6.18,13.79,13.67,27.08,21.87,40.07
						c16.31,26.08,36.13,50.47,56.01,76.09c9.92,12.85,19.88,26.05,29.12,40.25c9.23,14.17,17.73,29.53,23.83,46.43
						c1.6,4.17,2.73,8.59,4.09,12.88c1.37,4.39,2.05,8.2,3.1,12.33c2.06,8.09,3.48,16.28,5.18,24.43
						c2.84,16.36,5.32,32.78,6.76,49.31c3.2,33.01,3.21,66.34,0.3,99.59c-1.78,16.61-3.89,33.23-7.6,49.69
						c-1.56,8.27-3.93,16.41-6.06,24.59c-1.08,4.09-2.55,8.1-3.81,12.15c-1.32,4.04-2.54,8.11-4.2,12.06
						c-5.78,16.06-13.59,31.53-22.34,46.51c-9.29,14.73-20,28.75-32.61,41.21c-25.38,24.7-58.07,42.52-92.37,49.86
						c-34.25,7.86-69.17,7.48-102.48,2.6c-33.05-5.14-66.4-13.04-97.6-29.06c-31.17-15.27-59.85-40.17-77.19-72.27
						c-17.43-32.12-22.61-68.8-20.45-103.12c1.05-17.27,3.81-34.22,7.79-50.78c2.04-8.27,4.3-16.47,7-24.55
						c1.33-4.05,2.73-8.08,4.25-12.1c1.56-4.13,2.99-7.8,5.08-12.41l7.16,23.52l0,0c-24.78-15.32-48.72-32.14-71.25-50.87
						c-22.34-18.96-43.15-39.85-61.89-62.53c-37.56-45.32-66.11-98.36-83.25-154.79c-17.41-56.36-23.56-116.01-18.62-174.36
						c4.84-58.24,19.79-116.15,49.13-166.6c2.57-4.43,8.25-5.93,12.68-3.36c3.72,2.16,5.38,6.51,4.28,10.48L1970.61,2694.91z"/>
				</g>
			</g>
			<g>
				<g>
					<path class="st1" d="M2117.96,3098.23c-65.11,0-128.02-19.5-186.47-58.36c-8.47-5.63-10.77-17.06-5.14-25.53
						c5.63-8.48,17.08-10.76,25.53-5.14c93.89,62.42,196.49,69.26,305,20.35c82.7-37.29,138.04-94.56,138.58-95.14
						c7.03-7.34,18.68-7.62,26.04-0.59c7.35,7.02,7.63,18.66,0.62,26.02c-2.41,2.53-60.07,62.41-148.98,102.78
						C2220.79,3086.38,2168.71,3098.23,2117.96,3098.23z"/>
				</g>
			</g>
			<g>
				<g>
					<path class="st1" d="M2376.7,3301.13c-9.84,4.58-18.97,7.57-28.67,10.46c-9.62,2.65-19.34,4.99-29.19,6.56
						c-19.67,3.29-39.69,4.8-59.71,4.21c-5.01-0.02-9.99-0.57-15-0.84l-7.51-0.51c-2.5-0.24-4.97-0.63-7.46-0.94l-14.93-1.99
						l-14.76-2.96c-9.95-1.7-19.46-4.88-29.22-7.42c-9.63-2.87-18.99-6.52-28.54-9.79c-9.63-3.3-14.77-13.79-11.47-23.42
						c3.3-9.64,13.79-14.77,23.42-11.47c0.43,0.15,0.85,0.31,1.26,0.48l1.53,0.66c8.33,3.58,16.54,7.61,25.03,10.89
						c8.58,2.94,17.01,6.61,25.84,8.82l13.15,3.77l13.37,2.87c2.24,0.46,4.46,1.01,6.71,1.41l6.77,1c4.52,0.6,9.03,1.49,13.59,1.87
						c18.19,2.01,36.6,2.1,54.9,0.54c9.17-0.7,18.24-2.15,27.26-3.86c8.83-1.83,18.14-4.21,25.94-7.08l0.62-0.23
						c4.76-1.76,10.05,0.68,11.81,5.45C2383.12,3294.13,2380.98,3299.12,2376.7,3301.13z"/>
				</g>
			</g>
			<g>
				<g>
					<path class="st6" d="M3220.49,2233.94c-89.62,81.56-484.38,254.38-805.49,61.18c-18.27-10.98-36.34-23.15-54.1-36.65
						l-87.26-217.73l-118.93-296.73l163.99,27l67.19,11.04c0,0,59.49,70.47,156.7,124.83c109.74,61.34,267.37,102.09,441.63-2.46
						c7.03-4.21,14.12-8.67,21.2-13.4c85.46-56.67,119.65-198.74,212.76-151.62C3432.53,1847.9,3444.03,2030.47,3220.49,2233.94z"/>
				</g>
			</g>
			<g class="st7">
				<g>
					<path class="st1" d="M3220.49,2233.94c-89.62,81.56-484.38,254.38-805.49,61.18c10.83,43.17,19.81,84.38,24.89,125.81
						c3.08,24.64,4.72,49.38,4.52,74.63l-65.44-16.27l-18.07-220.81c0,0,18.02,6.62,48.71,15.71
						c118.36,34.9,425.56,106.25,620.3-23.15c175.85-116.87-56.1-183.86-49.48-283.69c1.44-21.46,2.67-42.76,3.8-62.93
						c7.03-4.21,14.12-8.67,21.2-13.4c85.46-56.67,119.65-198.74,212.76-151.62C3432.53,1847.9,3444.03,2030.47,3220.49,2233.94z"/>
				</g>
			</g>
			<g>
				<g>
					<path class="st1" d="M2366.46,2251.13c12.02,5.44,23.38,11.52,34.52,17.8c11.64,5.5,22.73,11.72,34,17.57
						c5.72,2.77,11.43,5.55,17.07,8.44c5.72,2.74,11.13,6.07,17,8.48l17.27,7.93l8.63,3.97c2.91,1.24,5.89,2.32,8.84,3.49
						c46.97,19.03,96.41,31.87,146.73,38.9c50.33,7.24,101.59,7.77,152.45,4.06c50.92-3.68,101.48-12.73,151-25.6
						c24.73-6.53,49.27-13.91,73.33-22.59c24.11-8.52,47.86-18.05,70.95-28.82c23.1-10.71,45.72-22.45,67.03-35.64
						c5.34-3.29,10.62-6.63,15.65-10.19c5.21-3.42,10.01-7.11,14.84-10.78c2.51-1.79,4.6-3.76,6.86-5.64c2.23-1.9,4.44-3.7,6.8-6.02
						l13.95-13.15c36.7-35.42,70.46-73.9,96.48-116.39c12.97-21.21,23.86-43.44,31.5-66.38c7.59-22.92,11.87-46.6,11.34-69.97
						c-0.78-23.33-6.06-46.26-16.02-67.43c-10.12-21.11-24.4-40.49-41.42-57.71c-17.02-17.24-36.68-32.35-57.72-45.64
						c-10.58-6.58-21.36-12.91-32.54-18.67c-5.85-3.18-10.43-5.43-15.14-7.11c-2.36-0.83-4.7-1.69-6.99-2.07
						c-2.31-0.68-4.55-0.87-6.77-1.1c-2.24-0.34-4.37-0.04-6.55-0.1c-2.12,0.4-4.29,0.37-6.39,1.08c-4.26,0.84-8.51,2.85-12.82,5.13
						c-8.6,4.95-17.17,12.31-25.31,20.99c-16.35,17.46-31.38,38.69-47.77,59.67c-16.42,20.99-34.2,42.43-56.9,60.58
						c-2.81,2.28-5.69,4.5-8.74,6.57l-4.5,3.17l-4.34,2.7l-17.33,10.68c-11.34,7.45-23.68,13.32-35.69,19.73
						c-3.03,1.55-6,3.22-9.08,4.66l-9.4,4.08l-18.81,8.12c-6.28,2.67-12.88,4.62-19.31,6.96c-6.51,2.12-12.84,4.77-19.5,6.42
						c-13.3,3.39-26.4,7.52-40.01,9.61c-6.76,1.19-13.48,2.68-20.28,3.59l-20.49,2.27c-27.36,2.31-55,2.55-82.25-0.76l-10.23-1.05
						c-3.4-0.43-6.76-1.09-10.14-1.62c-6.74-1.19-13.53-2.14-20.22-3.54l-19.98-4.62c-6.68-1.46-13.13-3.7-19.71-5.52
						c-52.35-15.53-101.25-40.18-146.14-69.92c-22.43-14.95-43.84-31.31-64.23-48.84c-10.26-8.69-20.1-17.88-29.81-27.22
						c-4.82-4.72-9.59-9.49-14.28-14.38c-4.74-5.02-9.17-9.69-14.03-15.41l-0.01-0.01l11.08,6.29l-231.21-38.03
						c-10.04-1.65-16.83-11.12-15.18-21.16c1.65-10.04,11.12-16.83,21.16-15.18l231.21,38.03l6.57,1.08l4.51,5.21l0,0.01
						c3.65,4.21,8.24,9.01,12.53,13.44c4.4,4.5,8.92,8.93,13.49,13.31c9.23,8.68,18.59,17.26,28.37,25.36
						c19.42,16.36,39.81,31.58,61.02,45.43c42.36,27.7,88.06,50.32,136.14,64.25c6.03,1.62,11.97,3.68,18.08,4.95l18.26,4.12
						c6.11,1.24,12.28,2.04,18.42,3.1c3.07,0.47,6.14,1.06,9.22,1.44l9.28,0.88c24.71,2.89,49.64,2.47,74.31,0.26l18.47-2.14
						c6.14-0.85,12.19-2.27,18.3-3.37c12.28-1.9,24.13-5.8,36.16-8.89c6.03-1.51,11.78-4.01,17.69-5.96
						c5.83-2.17,11.82-3.93,17.54-6.42l17.15-7.54l8.58-3.74c2.83-1.32,5.56-2.88,8.35-4.31c11.04-5.93,22.39-11.26,32.9-18.23
						l16.06-9.9l3.99-2.47l3.5-2.49c2.37-1.59,4.66-3.37,6.92-5.21c18.25-14.55,34.32-33.54,50.01-53.7
						c15.82-20.18,30.92-41.88,50.29-62.69c9.75-10.32,20.96-20.51,35.05-28.63c13.98-8.02,32.16-13.1,49.42-11.32
						c4.29,0.4,8.55,0.92,12.56,1.98c4.17,0.81,7.99,2.12,11.8,3.46c7.6,2.69,14.75,6.33,20.38,9.39
						c12.07,6.22,23.86,13.11,35.48,20.34c23.15,14.61,45.29,31.49,65.04,51.46c19.72,19.92,37.02,43.09,49.51,69.18
						c12.36,26.13,19.12,55.17,20.02,84.08c0.69,28.97-4.58,57.47-13.38,84.12c-8.82,26.72-21.32,51.64-35.71,74.94
						c-28.91,46.65-65.03,87.15-103.64,124.11l-14.65,13.68c-2.31,2.26-5.15,4.61-7.91,6.94c-2.76,2.29-5.49,4.76-8.31,6.77
						c-5.6,4.23-11.2,8.46-16.94,12.19c-5.67,3.96-11.45,7.58-17.26,11.12c-23.22,14.22-47.16,26.48-71.54,37.64
						c-24.36,11.21-49.24,21.06-74.47,29.84c-25.17,8.95-50.8,16.53-76.64,23.22c-51.73,13.19-104.58,22.4-158.01,26.02
						c-53.37,3.65-107.31,2.83-160.52-5.05c-53.19-7.68-105.65-21.54-155.51-42.02c-3.12-1.26-6.29-2.43-9.38-3.77l-9.17-4.26
						l-18.33-8.53c-6.16-2.74-11.95-6.23-17.83-9.52c-5.87-3.3-11.67-6.73-17.46-10.16c-11.3-7.33-22.16-15.35-32.81-23.5
						c-10.3-8.67-20.16-17.89-29.47-27.55c-3.57-3.7-3.46-9.59,0.24-13.16c2.82-2.72,6.91-3.3,10.28-1.79L2366.46,2251.13z"/>
				</g>
			</g>
			<g>
				<g class="st7">
					<g>
						<path class="st1" d="M2542.6,1906.87c-59.54,48.66-125.7,85.82-195.35,111.43c-24.18,8.88-48.71,16.37-73.61,22.43
							c-107.94,26.49-221.48,26.69-330.04,0.26c-12.73-3.08-25.36-6.57-37.98-10.37c-3.39-1.03-6.83-2.1-10.21-3.23
							c-30.95-9.96-61.34-22.12-90.95-36.6c-27.2-13.29-53.79-28.44-79.46-45.58c-19.66-13.04-38.8-27.2-57.33-42.5
							c-9.55-7.9-18.94-16.12-28.18-24.59c-8.93-8.32-17.66-16.73-26.02-25.36c-6.62-6.78-13.04-13.6-19.3-20.58
							c38.75-16.37,79.25-41.06,121.54-76.17c26.18-75.97,47.07-130.99,47.07-130.99h80.07c126.42-144.59,178.88-160.4,178.88-160.4
							l-34.29,160.4h330.25c-1.44,52.05-0.97,100.55,1.03,145.98l67.19,11.04C2385.9,1782.04,2445.39,1852.52,2542.6,1906.87z"/>
					</g>
				</g>
				<g>
					<g>
						<path class="st6" d="M1418.65,1406.62c17.25,111.58,62.82,219.51,136.25,312.63c14.98,18.98,31.05,37.33,48.29,54.95
							c8.36,8.6,17.09,17.03,26.04,25.35c27.1,24.95,55.68,47.3,85.49,67.09c25.65,17.12,52.24,32.29,79.45,45.58
							c32.85,16.07,66.72,29.31,101.2,39.83c12.59,3.8,25.24,7.25,37.95,10.37c232.78,56.58,488.3-9,662.88-193.57
							c257.23-271.84,241.29-698.86-35.48-953.76c-53.34-49.06-112.47-88.28-175.04-117.44c-7.28-3.48-14.69-6.76-22.16-9.88
							c-19.92-8.49-40.13-16-60.57-22.52c-47.29-15.06-95.87-24.86-144.72-29.49c-48.83-4.68-98.07-4.17-146.67,1.5
							c-15.45,1.79-30.84,4.09-46.19,6.94c-22.99,4.28-45.77,9.66-68.33,16.32c-112.42,32.82-217.62,94.7-303.29,185.29
							C1445.78,1002.17,1388.23,1209.86,1418.65,1406.62z"/>
					</g>
					<g>
						<path class="st1" d="M2097.38,1983.94c-54.76,0-109.97-6.46-164.5-19.71c-12.73-3.13-25.54-6.63-38.05-10.4
							c-34.95-10.67-69.09-24.1-101.48-39.94c-27.69-13.52-54.49-28.9-79.67-45.7c-30.09-19.98-58.93-42.61-85.71-67.27
							c-9.81-9.14-18.35-17.45-26.11-25.43c-16.92-17.29-33.21-35.83-48.42-55.09c-71.74-90.98-118.99-199.38-136.63-313.5
							C1385,1201.05,1449,996.07,1592.41,844.52c82.92-87.67,188.09-151.92,304.13-185.79c21.95-6.48,45-11.98,68.51-16.36
							c15.05-2.8,30.63-5.14,46.31-6.96c48.72-5.68,98.2-6.18,147.06-1.5c49.32,4.67,98.14,14.62,145.1,29.58
							c20.44,6.51,40.87,14.11,60.74,22.58c7.82,3.27,15.31,6.61,22.24,9.91c63.85,29.76,122.9,69.38,175.5,117.75
							c134.77,124.12,212.42,292.36,218.65,473.74c6.19,179.94-58.84,351.35-183.09,482.66
							C2466.98,1908.18,2284.89,1983.94,2097.38,1983.94z M1420.48,1406.33c17.54,113.48,64.53,221.29,135.88,311.77
							c15.13,19.16,31.33,37.6,48.16,54.8c7.72,7.93,16.22,16.21,25.98,25.29c26.63,24.52,55.31,47.03,85.24,66.91
							c25.04,16.71,51.71,32,79.25,45.45c32.21,15.75,66.17,29.12,100.93,39.73c12.44,3.75,25.18,7.23,37.85,10.34
							c240.01,58.32,493.3-15.64,661.09-193.05c123.56-130.58,188.23-301.05,182.08-479.98c-6.2-180.38-83.43-347.7-217.46-471.14
							c-52.31-48.11-111.05-87.52-174.57-117.13c-6.89-3.29-14.32-6.6-22.09-9.85c-19.77-8.43-40.1-15.98-60.42-22.46
							c-46.71-14.87-95.27-24.77-144.33-29.41c-48.6-4.66-97.82-4.16-146.28,1.49c-15.6,1.81-31.1,4.14-46.06,6.92
							c-23.38,4.36-46.31,9.83-68.14,16.27c-115.41,33.69-220,97.58-302.47,184.78C1452.48,997.78,1388.84,1201.62,1420.48,1406.33z
							"/>
					</g>
				</g>
				<g class="st7">
					<g>
						<path class="st1" d="M2596.21,1768.84c-174.57,184.61-430.13,250.18-662.89,193.57c-12.72-3.1-25.36-6.55-37.93-10.35
							c-34.5-10.51-68.35-23.78-101.21-39.82c-27.2-13.31-53.82-28.47-79.45-45.57c-29.83-19.79-58.4-42.14-85.52-67.1
							c-8.91-8.35-17.65-16.76-26.04-25.34c-17.24-17.64-33.27-36.01-48.27-54.98c-73.44-93.13-119.03-201.03-136.26-312.64
							c-9.49-61.3-10.43-123.7-2.75-185.25c18.92,106.13,63.63,208.41,133.69,297.26c14.96,19.02,31.03,37.34,48.27,54.98
							c8.35,8.59,17.08,16.99,26.04,25.34c27.12,24.96,55.69,47.31,85.47,67.1c25.68,17.1,52.25,32.26,79.45,45.57
							c32.86,16.04,66.76,29.31,101.21,39.82c12.61,3.8,25.25,7.25,37.97,10.35c232.76,56.61,488.28-8.96,662.89-193.57
							c101.89-107.66,160.87-239.68,177.8-375.66C2804.7,1393.86,2748.05,1608.39,2596.21,1768.84z"/>
					</g>
				</g>
				<g>
					<g>
						<path class="st1" d="M2097.37,1996.36c-55.74,0-111.91-6.57-167.42-20.06c-12.97-3.19-25.98-6.74-38.7-10.58
							c-35.62-10.87-70.38-24.55-103.35-40.68c-28.18-13.76-55.47-29.42-81.11-46.53c-30.62-20.33-59.97-43.37-87.23-68.46
							c-10.02-9.32-18.7-17.78-26.61-25.9c-17.2-17.58-33.78-36.45-49.26-56.06c-73.07-92.66-121.19-203.07-139.16-319.3l0,0
							c-32.41-209.67,32.77-418.45,178.84-572.81c84.43-89.27,191.52-154.69,309.67-189.17c22.32-6.59,45.79-12.19,69.72-16.65
							c15.33-2.85,31.19-5.23,47.15-7.08c49.58-5.78,99.95-6.29,149.68-1.53c50.19,4.76,99.88,14.89,147.69,30.1
							c20.81,6.63,41.62,14.37,61.84,22.99c7.93,3.32,15.61,6.74,22.72,10.13c64.9,30.25,125.02,70.58,178.55,119.82
							c137.24,126.39,216.31,297.73,222.66,482.45c6.3,183.28-59.93,357.88-186.48,491.62
							C2473.63,1919.22,2288.24,1996.36,2097.37,1996.36z M1432.75,1404.44c17.22,111.37,63.33,217.18,133.36,305.97
							c14.85,18.81,30.76,36.92,47.29,53.81c7.6,7.81,15.95,15.94,25.56,24.89c26.09,24.03,54.26,46.13,83.65,65.65
							c24.61,16.42,50.79,31.44,77.83,44.64c31.63,15.47,64.97,28.59,99.1,39.01c12.2,3.68,24.73,7.1,37.19,10.16
							c235.65,57.28,484.38-15.35,649.11-189.52c121.26-128.15,184.72-295.43,178.69-471.02
							c-6.09-177.03-81.89-341.26-213.46-462.43c-51.37-47.24-109.04-85.94-171.4-115c-6.81-3.25-14.05-6.48-21.64-9.65
							c-19.49-8.31-39.45-15.73-59.4-22.09c-45.86-14.6-93.55-24.32-141.73-28.88c-47.74-4.57-96.07-4.08-143.67,1.46
							c-15.33,1.78-30.54,4.06-45.23,6.79c-22.96,4.28-45.47,9.65-66.9,15.97c-113.33,33.08-216.01,95.81-296.96,181.4
							C1464.17,1003.51,1401.7,1203.55,1432.75,1404.44L1432.75,1404.44z"/>
					</g>
				</g>
				<g>
					<g>
						<path class="st1" d="M2097.36,2000.5c-56.06,0-112.55-6.61-168.39-20.18c-13.05-3.21-26.13-6.78-38.92-10.63
							c-35.84-10.94-70.81-24.7-103.97-40.92c-28.34-13.84-55.8-29.59-81.59-46.8c-30.79-20.44-60.32-43.62-87.73-68.86
							c-10.08-9.38-18.81-17.89-26.76-26.06c-17.29-17.68-33.98-36.66-49.55-56.38c-73.52-93.22-121.92-204.3-140-321.23l0,0
							c-32.61-210.94,32.97-421,179.93-576.29c84.94-89.8,192.66-155.61,311.51-190.3c22.45-6.62,46.06-12.26,70.12-16.75
							c15.42-2.86,31.38-5.26,47.44-7.12c49.88-5.81,100.54-6.33,150.55-1.54c50.47,4.78,100.46,14.97,148.54,30.28
							c20.94,6.67,41.87,14.45,62.21,23.12c7.97,3.33,15.7,6.78,22.88,10.21c65.25,30.42,125.73,70.98,179.58,120.51
							c138.06,127.15,217.61,299.52,223.99,485.36c6.34,184.4-60.29,360.06-187.61,494.61
							C2475.86,1922.9,2289.36,2000.5,2097.36,2000.5z M1436.85,1403.8c17.11,110.67,62.93,215.8,132.52,304.04
							c14.76,18.69,30.57,36.69,46.99,53.47c7.56,7.77,15.86,15.85,25.42,24.75c25.92,23.86,53.92,45.83,83.12,65.23
							c24.46,16.33,50.48,31.25,77.35,44.37c31.44,15.37,64.57,28.42,98.5,38.77c12.11,3.65,24.57,7.06,36.96,10.1
							c234.18,56.93,481.39-15.25,645.11-188.34c120.5-127.34,183.55-293.56,177.55-468.03c-6.04-175.91-81.38-339.11-212.12-459.52
							c-51.05-46.95-108.37-85.41-170.35-114.3c-6.78-3.24-13.96-6.44-21.48-9.58c-19.4-8.27-39.23-15.64-59.06-21.96
							c-45.58-14.51-92.98-24.17-140.86-28.71c-47.47-4.55-95.5-4.06-142.8,1.45c-15.24,1.77-30.36,4.04-44.96,6.75
							c-22.82,4.25-45.19,9.59-66.48,15.88c-112.64,32.88-214.67,95.21-295.13,180.27
							C1468.06,1005.42,1405.99,1204.19,1436.85,1403.8L1436.85,1403.8z"/>
					</g>
				</g>
				<g>
					<g>
						<path class="st1" d="M1467.1,1573.01c282.5,394.91,863.18,394.04,1053.77-44.22c129.66-298.16-66.83-654.9-365.75-760.68
							c-217.56-76.99-463.68-58.45-675.61,241.34c0,0-72.97,147.09-68.02,264.24s29.81,230.34,29.81,230.34L1467.1,1573.01z"/>
					</g>
				</g>
				<g>
					<g>
						<path class="st15" d="M2520.84,1528.79c-190.57,438.25-771.26,439.11-1053.76,44.24l-5.22-13.99
							c388.44,221.9,891.36,125.67,1092.42-313.87C2569.83,1339.19,2560.84,1436.77,2520.84,1528.79z"/>
					</g>
				</g>
				<g>
					<g>
						<path class="st1" d="M2015.07,1951.57c-103.56,0-209.19-22.86-308.03-68.18l-2.51-1.4c-30.83-20.47-60.36-43.64-87.77-68.89
							c-10.08-9.38-18.81-17.89-26.76-26.06c-17.29-17.68-33.98-36.66-49.55-56.38c-73.52-93.23-121.92-204.3-140-321.23v0
							c-32.61-210.94,32.97-421,179.93-576.29c84.94-89.8,192.66-155.61,311.51-190.3l1.82-0.53l1.88-0.15
							c90.14-7.17,186.53,7.13,286.5,42.51c179.93,63.67,334.5,210.11,413.48,391.72c71.13,163.56,74.1,336.88,8.36,488.02
							c-71.56,164.49-193.55,283.63-352.78,344.53C2176.66,1937.42,2096.5,1951.57,2015.07,1951.57z M1723.71,1850.5
							c167.29,76.3,354.66,85.07,514.29,24.03c149.79-57.29,264.65-169.61,332.16-324.82c61.62-141.67,58.65-304.55-8.36-458.64
							c-74.98-172.41-221.51-311.35-391.99-371.68c-94.37-33.39-184.99-47.08-269.41-40.66c-111.87,33-213.24,95.12-293.26,179.72
							c-139.08,146.97-201.14,345.74-170.29,545.35v0c17.11,110.67,62.93,215.81,132.52,304.05c14.76,18.69,30.57,36.69,46.99,53.47
							c7.56,7.77,15.86,15.85,25.42,24.75C1667.34,1809.61,1694.93,1831.3,1723.71,1850.5z"/>
					</g>
				</g>
				<g>
					<g>
						<path class="st1" d="M2010.87,1882.04c-214.82,0-424.35-110.43-558.75-298.32l-1.42-1.98l-27.4-73.76
							c-1.03-4.69-25.26-116.11-30.21-233.51c-5.09-120.48,66.86-267.02,69.92-273.2l1.46-2.45
							c185.61-262.55,420.05-346.01,696.79-248.07c160.6,56.83,298.56,187.52,369.05,349.59c63.51,146.03,66.16,300.8,7.45,435.79
							c-85.08,195.62-253.24,320.45-461.39,342.46C2054.54,1880.91,2032.66,1882.04,2010.87,1882.04z M1483.49,1564.26
							c140.43,194.93,365.92,301.32,589.01,277.71c194.58-20.58,351.85-137.4,431.48-320.52c54.59-125.52,51.94-269.86-7.45-406.42
							c-66.48-152.87-196.41-276.07-347.55-329.56c-258.89-91.62-478.78-13.09-653.56,233.39c-6.86,14.25-69.99,148.59-65.53,254.05
							c4.55,107.74,26.45,213.35,29.13,225.93L1483.49,1564.26z"/>
					</g>
				</g>
				<g class="st5">
					<g>
						<path class="st6" d="M2269.08,960.31c0,0-258.61-127.16-470.7-22.47c-0.22,0.11-0.45,0.22-0.67,0.33
							c-44.62,22.07-118.36,101.81-145.44,143.15c-35.82,54.67-45.36,96.72-58.44,135.03c-39.72,116.54-36.2,183.57-36.2,183.57
							c-46.33-84.16-60.43-166.79-28.32-264.19c3.19-9.59,6.84-19.37,10.91-29.28c0.93-2.29,1.9-4.53,2.92-6.78
							c-0.04-0.04,0-0.08,0.08-0.13c9.68-19.5,29.89-68.36,47.75-95.44c53.81-81.73,138.74-162.49,271.27-178.43
							C2110.05,795.88,2282.98,951.41,2269.08,960.31z"/>
					</g>
				</g>
				<g class="st5">
					<g>
						
							<ellipse transform="matrix(0.0548 -0.9985 0.9985 0.0548 950.2913 3586.6865)" class="st6" cx="2369.57" cy="1291.42" rx="98.75" ry="85.97"/>
					</g>
				</g>
				<g class="st5">
					<g>
						
							<ellipse transform="matrix(0.9993 -0.0382 0.0382 0.9993 -55.5787 91.6704)" class="st6" cx="2368.25" cy="1498.53" rx="35.49" ry="40.79"/>
					</g>
				</g>
			</g>
			<g>
				<g>
					<path class="st6" d="M3381.46,1991.1c-20.33,151.93-96.03,151.62-154.4,121.8c-34.54-17.66-230-148.9-249.66-207.31
						c-4.11-12.27-3.95-28.13-0.57-45.48c12.93-65.08,72.12-151.73,125.5-154.29c69.45-3.34,263.52,71.09,280.1,231.9
						C3384.18,1954.56,3383.98,1972.37,3381.46,1991.1z"/>
				</g>
			</g>
			<g class="st7">
				<g>
					<path class="st1" d="M3381.46,1991.1c-20.33,151.93-96.03,151.62-154.4,121.8c-34.54-17.66-230-148.9-249.66-207.31
						c-4.11-12.27-3.95-28.13-0.57-45.48c68.58,66.88,282.87,251.15,405.6,77.61C3384.18,1954.56,3383.98,1972.37,3381.46,1991.1z"
						/>
				</g>
			</g>
			<g>
				<g>
					<path class="st1" d="M3283.81,2146.89c-20.25,0-42.21-5.88-65.14-17.59c-24.93-12.74-235.54-148.91-258.71-217.81v0
						c-14.15-42.08,10.42-106.15,41.04-150.98c30.63-44.85,67.25-71.49,100.43-73.08c53.45-2.58,165.09,34.66,235.43,111.25
						c50.76,55.27,72.49,122.65,62.84,194.87c-10,74.83-34.49,122.95-72.81,143.03C3313.76,2143.46,3299.28,2146.89,3283.81,2146.89
						z M2994.87,1899.74c16.15,48.04,200.56,176.33,240.55,196.75c20.46,10.45,49.98,20.23,74.38,7.45
						c26.73-14.01,45.2-53.88,53.4-115.29c8.27-61.91-9.71-117.45-53.46-165.08c-61.91-67.4-161.61-101.63-206.54-99.37
						c-20.92,1-48.43,22.87-71.79,57.06C3002.24,1823.99,2986.53,1874.92,2994.87,1899.74L2994.87,1899.74z"/>
				</g>
			</g>
			<g>
				<g>
					<path class="st6" d="M2976.31,1863.28c0,0,140.29,49.16,133.15,136.72s-160.42,25.2-186.68-17.88
						C2906.1,1954.78,2909.96,1874.59,2976.31,1863.28z"/>
				</g>
			</g>
			<g class="st7">
				<g>
					<path class="st1" d="M3109.47,1999.98c-7.13,87.57-160.45,25.2-186.68-17.86c-12.16-19.97-13.4-68.16,12.68-97.06
						c-1.85,18.89,1.54,36.8,7.85,47.17c20.84,34.24,121.9,80.58,166.1,54.3C3109.83,1990.9,3109.83,1995.41,3109.47,1999.98z"/>
				</g>
			</g>
			<g>
				<g>
					<path class="st1" d="M3056.22,2062.5c-54.76,0-128.19-36.41-149.17-70.8c-12.24-20.07-16.7-60.18-0.87-94.98
						c12.78-28.09,36.59-46.41,67.03-51.6l4.69-0.8l4.49,1.57c6.28,2.2,153.61,55.02,145.42,155.6
						c-2.51,30.86-19.98,51.67-49.18,58.6C3071.7,2061.74,3064.15,2062.5,3056.22,2062.5z M2974.87,1882.37
						c-16.21,3.99-28.03,13.93-35.17,29.62c-10.49,23.05-7.38,50.43-1.21,60.54c14.98,24.57,91.38,61.32,131.63,51.73
						c13.5-3.2,19.77-10.9,20.98-25.75C3095.79,1940.99,3012.84,1896.88,2974.87,1882.37z"/>
				</g>
			</g>
			<g>
				<g>
					<path class="st6" d="M1162.69,1833.83c-19.51,58.41-214.81,189.91-249.35,207.62c-58.31,29.87-134.07,30.34-154.55-121.6
						c-2.77-20.58-2.77-39.98-0.46-58.26c19.71-157.48,210.45-230.62,279.23-227.44c56.97,2.67,120.72,101.27,127.6,167.12
						C1166.44,1813.56,1165.77,1824.7,1162.69,1833.83z"/>
				</g>
			</g>
			<g class="st7">
				<g>
					<path class="st1" d="M1162.69,1833.83c-19.51,58.41-214.81,189.91-249.35,207.62c-58.31,29.87-134.07,30.34-154.55-121.6
						c-2.77-20.58-2.77-39.98-0.46-58.26c16.17,37.42,51.53,79.97,128.78,74.79c102.19-6.83,222.97-74.94,278.04-135.1
						C1166.44,1813.56,1165.77,1824.7,1162.69,1833.83z"/>
				</g>
			</g>
			<g>
				<g>
					<path class="st1" d="M856.5,2075.51c-15.42,0-29.85-3.41-42.97-10.26c-38.34-20.03-62.9-68.12-73-142.94
						c-9.75-72.2,11.89-139.62,62.59-194.96c70.23-76.67,181.63-114.06,235.28-111.56c33.19,1.55,69.83,28.13,100.53,72.93
						c30.68,44.79,55.34,108.83,41.25,150.94l0,0c-23.08,68.94-233.5,205.39-258.42,218.16
						C898.79,2069.6,876.79,2075.51,856.5,2075.51z M1032.62,1652.5c-46.8,0-142.32,34.21-202.34,99.73
						c-43.69,47.69-61.6,103.25-53.24,165.15c8.29,61.4,26.81,101.25,53.56,115.22c24.4,12.75,53.91,2.93,74.37-7.55
						c39.96-20.48,224.19-149.01,240.28-197.07c8.32-24.84-7.47-75.75-36.7-118.43c-23.4-34.16-50.94-55.98-71.86-56.96
						C1035.38,1652.53,1034.02,1652.5,1032.62,1652.5z M1162.71,1833.82h0.05H1162.71z"/>
				</g>
			</g>
			<g>
				<g>
					<path class="st6" d="M1225.11,1900.3c-0.46,7.03-1.33,12.78-2.36,16.68c-6.06,23.15-184.68,98.96-191.97,11.4
						c-1.95-23.3,6.57-43.89,20.17-61.54c37.26-48.76,112.82-75.35,112.82-75.35C1219,1800.83,1227.32,1865.55,1225.11,1900.3z"/>
				</g>
			</g>
			<g class="st7">
				<g>
					<path class="st1" d="M1225.11,1900.3c-0.46,7.03-1.33,12.78-2.36,16.68c-6.06,23.15-184.68,98.96-191.97,11.4
						c-1.95-23.3,6.57-43.89,20.17-61.54c9.7,23.51,32.7,51.79,87.1,53.84C1179.89,1922.32,1207.4,1912.11,1225.11,1900.3z"/>
				</g>
			</g>
			<g>
				<g>
					<path class="st1" d="M1085.25,1987.91c-3.5,0-6.86-0.14-10.1-0.42c-37.08-3.22-59.94-24.21-62.71-57.59
						c-8.33-100.57,138.94-153.58,145.21-155.79l4.49-1.58l4.69,0.79c23.8,4.03,43.4,17.02,56.69,37.58
						c24.49,37.89,21.94,91.91,17.02,110.73C1232.95,1950.68,1143.15,1987.91,1085.25,1987.91z M1165.17,1810.6
						c-37.97,14.58-120.78,58.78-116.02,116.26c1.01,12.13,6.14,18.47,17.72,21.89c41.57,12.25,124.96-24.22,138.52-38.51
						c3.02-14.99,3.42-54.24-12.8-79.34C1185.71,1820.26,1176.71,1813.59,1165.17,1810.6z M1206.25,1909.25L1206.25,1909.25
						L1206.25,1909.25z"/>
				</g>
			</g>
			<g>
				<g>
					<path class="st4" d="M2889.12,1444.97c-2.21,16.12-5.44,32.39-9.86,48.71c-42.76,158.3-177.95,259.46-302.01,226
						c-124.06-33.52-189.97-188.99-147.21-347.29c1.95-7.24,4.11-14.37,6.47-21.35c28.33-84.95,83.77-151.21,148.49-185.45
						c44.19-23.3,92.75-31.72,139.97-20.94c2.36,0.51,4.72,1.13,7.08,1.74C2843.33,1176.47,2907.8,1304.64,2889.12,1444.97z"/>
				</g>
			</g>
			<g class="st5">
				<g>
					<path class="st6" d="M2450.7,1405.25c1.95-7.24,4.11-14.37,6.47-21.35c28.33-84.95,83.77-151.21,148.49-185.45
						c44.19-23.3,92.75-31.72,139.97-20.94c2.36,0.51,4.72,1.13,7.08,1.75c37.83,10.23,70.23,31.81,95.82,61.33
						c-27.74-43.8-67.59-75.97-116.48-89.19c-2.36-0.62-4.72-1.23-7.08-1.74c-47.22-10.78-95.78-2.36-139.97,20.94
						c-64.72,34.24-120.16,100.5-148.49,185.45c-2.36,6.98-4.52,14.11-6.47,21.35c-29.74,110.1-6.87,218.79,51.53,286.07
						C2438.86,1596.12,2424.78,1501.23,2450.7,1405.25z"/>
				</g>
			</g>
			<g class="st7">
				<g>
					<path class="st1" d="M2745.2,1340.36L2612.05,1361L2585,1165.59c44.19-23.3,92.75-31.72,139.97-20.94L2745.2,1340.36z"/>
				</g>
			</g>
			<g class="st7">
				<g>
					<path class="st1" d="M2889.12,1444.97c-2.21,16.12-5.44,32.39-9.86,48.71c-42.76,158.3-177.95,259.46-302.01,226
						c-124.06-33.52-189.97-188.99-147.21-347.29c1.95-7.24,4.11-14.37,6.47-21.35c21.25,82.48,55.59,151.78,140.54,11.65
						L2889.12,1444.97z"/>
				</g>
			</g>
			<g>
				<g>
					<path class="st1" d="M2625.28,1744.43c-17.66,0-35.36-2.27-52.85-7c-133.66-36.1-205.52-202.02-160.19-369.87
						c45.33-167.85,190.97-275.05,324.61-238.93c133.66,36.1,205.52,202.02,160.19,369.87l-17.78-4.8l17.78,4.8
						C2857.64,1644.37,2742.5,1744.43,2625.28,1744.43z M2683.6,1158.42c-100.77,0-200.83,89.27-235.8,218.75
						c-40.04,148.24,20.18,293.9,134.23,324.71c14.43,3.9,29.06,5.77,43.66,5.77c100.77,0.01,200.83-89.27,235.8-218.75
						c40.04-148.24-20.18-293.9-134.23-324.71C2712.82,1160.29,2698.2,1158.42,2683.6,1158.42z"/>
				</g>
			</g>
			<g>
				<g>
					<path class="st2" d="M2789.85,1422.49l-146.23-0.92c0,0,52.1-186.27,21.04-389.27c-7.9-51.74-21.2-104.61-42.14-155.73
						c-101.68-248.02-545.21-340.72-782.55-324.29c-32.03,2.21-60.31,6.42-83.51,12.47c-67.96,17.76-107.99,64.47-111.59,68.73
						c4.47-6.47,78.58-110.25,236.73-147.93c125.96-30.03,566.15,0.26,793.79,226.15c38.8,38.44,71.45,82.64,95.27,133.15
						c24.84,52.61,41.27,112.46,49.07,180.78C2832.15,1134.74,2822.5,1265.47,2789.85,1422.49z"/>
				</g>
			</g>
			<g class="st16">
				<g>
					<path class="st6" d="M2675.39,711.69c-193.4-121.13-476.43-197.41-653.66-197.41c-82.64,0-141.05,16.94-181.75,37.98
						c-32.03,2.21-60.31,6.42-83.51,12.47c-67.96,17.76-107.99,64.47-111.59,68.73c4.47-6.47,78.58-110.25,236.73-147.93
						C2007.56,455.52,2447.75,485.8,2675.39,711.69z"/>
				</g>
			</g>
			<g>
				<g>
					<path class="st3" d="M2789.85,1422.49l-146.23-0.92c0,0,52.1-186.27,21.04-389.27c26.59,21.51,58.72,37.26,94.75,34.85
						c24.59-1.64,44.6-19.15,60.31-41.52C2832.15,1134.74,2822.5,1265.47,2789.85,1422.49z"/>
				</g>
			</g>
			<g>
				<g>
					<path class="st1" d="M2789.87,1440.93c-1.25,0-2.5-0.13-3.77-0.39c-9.96-2.07-16.35-11.82-14.28-21.78
						c51.32-246.78,45.49-431.93-17.8-566.05c-162.76-344.91-738.47-380.16-868.16-349.26c-37.19,8.86-69.58,21.62-97.31,35.88
						c112.23-17.83,283.84-3.12,435.64,38.86c124.65,34.48,344.37,118.18,415.36,291.4c104.32,254.57,25.21,544.73,21.79,556.96
						c-2.74,9.79-12.92,15.5-22.69,12.78c-9.79-2.73-15.52-12.89-12.79-22.69c0.81-2.88,79.03-290.43-20.4-533.08
						c-65.03-158.67-272.94-237.19-391.09-269.87c-182.76-50.55-366.37-53.93-453.26-31.14c-64.58,16.93-101.71,62.32-102.08,62.77
						c-6.19,7.69-17.34,9.13-25.28,3.27c-7.94-5.86-9.85-16.93-4.34-25.11c3.17-4.71,79.65-115.75,247.91-155.85
						c82.33-19.63,267.21-13.5,447.6,36.52c160.26,44.44,370.57,138.25,462.4,332.85c66.83,141.62,73.55,334.37,20.55,589.27
						C2806.07,1434.95,2798.41,1440.93,2789.87,1440.93z"/>
				</g>
			</g>
			<g>
				<g>
					<path class="st1" d="M2715.2,1718.63c-14.82,0-29.57-1.93-44.06-5.85c-109.5-29.57-168.48-165.11-131.47-302.13
						c17.71-65.59,54.57-121.98,103.77-158.78c50.55-37.82,108.06-50.63,161.93-36.08c109.5,29.57,168.48,165.11,131.47,302.13l0,0
						c-17.71,65.58-54.57,121.98-103.77,158.78C2796.12,1704.35,2755.45,1718.63,2715.2,1718.63z M2761.48,1246.81
						c-32.42,0-65.56,11.78-95.99,34.55c-42.64,31.9-74.7,81.23-90.27,138.9c-31.71,117.41,15.62,232.69,105.52,256.97
						c42.73,11.53,88.98,0.87,130.27-30.01c42.64-31.9,74.7-81.23,90.27-138.9c31.71-117.41-15.62-232.69-105.52-256.97
						C2784.53,1248.31,2773.05,1246.81,2761.48,1246.81z M2919.06,1513.12h0.05H2919.06z"/>
				</g>
			</g>
			<g>
				<g>
					
						<ellipse transform="matrix(0.2607 -0.9654 0.9654 0.2607 610.6376 3726.0115)" class="st2" cx="2738.25" cy="1464.29" rx="238.99" ry="187.29"/>
				</g>
			</g>
			<g>
				<g>
					<path class="st3" d="M2729.28,1552.19c7.08,3.18,14.42,5.8,22.07,7.85c50.2,13.6,102.66-0.26,146.8-33.52
						c-20.99,54.05-70.01,86.85-115.28,74.63C2758.69,1594.64,2740.01,1576.47,2729.28,1552.19z"/>
				</g>
			</g>
			<g>
				<g>
					<path class="st3" d="M2920.53,1507.28c-0.46,1.95-0.97,3.9-1.49,5.85c-34.39,127.4-143.26,208.85-243.09,181.86
						c-99.89-26.95-152.96-152.14-118.52-279.53c14.06-52.2,40.65-96.65,73.96-129.09c-19.4,77.66-6.47,153.93,29.56,207.06
						c-2.16,67.6,31.57,126.42,86.23,141.15c65.44,17.71,136.58-34.13,161.17-116.26
						C2912.52,1514.83,2916.58,1511.13,2920.53,1507.28z"/>
				</g>
			</g>
			<g>
				<g>
					<path class="st6" d="M2830.67,1325.71c-66.87-18.04-139.72,36.45-162.76,121.79c-23.04,85.28,12.49,169.06,79.31,187.09
						c66.87,18.09,139.72-36.45,162.76-121.73C2933.02,1427.58,2897.48,1343.8,2830.67,1325.71z M2903.24,1511.03
						c-17.01,63.15-70.96,103.48-120.39,90.13c-49.48-13.35-75.75-75.38-58.74-138.48c17.07-63.15,70.96-103.48,120.44-90.13
						C2894.04,1385.96,2920.31,1447.93,2903.24,1511.03z"/>
				</g>
			</g>
			<g>
				<g>
					<path class="st6" d="M2830.66,1325.73c-66.88-18.07-139.72,36.44-162.76,121.75c-4.21,15.5-6.47,30.9-6.93,45.94
						c17.61,25.97,40.76,46.45,68.32,58.77c-11.24-25.36-13.86-57.28-5.18-89.52c17.09-63.13,70.99-103.48,120.47-90.13
						c49.48,13.4,75.76,75.4,58.67,138.48c-1.44,5.34-3.13,10.52-5.08,15.5c3.49-2.62,6.88-5.34,10.21-8.21
						c0.56-1.8,1.08-3.59,1.59-5.44C2933,1427.57,2897.49,1343.8,2830.66,1325.73z"/>
				</g>
			</g>
			<g class="st7">
				<g>
					<path class="st1" d="M2908.37,1518.32c-24.59,82.13-95.73,133.97-161.17,116.26c-54.66-14.73-88.39-73.55-86.23-141.15
						c17.61,25.97,40.76,46.45,68.32,58.77c10.73,24.28,29.41,42.45,53.59,48.97c45.27,12.22,94.29-20.58,115.28-74.63
						C2901.64,1523.91,2905.03,1521.19,2908.37,1518.32z"/>
				</g>
			</g>
			<g>
				<g>
					<path class="st1" d="M2715.2,1718.63c-14.82,0-29.57-1.93-44.06-5.85c-109.5-29.57-168.48-165.11-131.47-302.13
						c17.71-65.59,54.57-121.98,103.77-158.78c50.55-37.82,108.06-50.63,161.93-36.08c109.5,29.57,168.48,165.11,131.47,302.13l0,0
						c-17.71,65.58-54.57,121.98-103.77,158.78C2796.12,1704.35,2755.45,1718.63,2715.2,1718.63z M2761.48,1246.81
						c-32.42,0-65.56,11.78-95.99,34.55c-42.64,31.9-74.7,81.23-90.27,138.9c-31.71,117.41,15.62,232.69,105.52,256.97
						c42.73,11.53,88.98,0.87,130.27-30.01c42.64-31.9,74.7-81.23,90.27-138.9c31.71-117.41-15.62-232.69-105.52-256.97
						C2784.53,1248.31,2773.05,1246.81,2761.48,1246.81z M2919.06,1513.12h0.05H2919.06z"/>
				</g>
			</g>
			<g>
				<g>
					<line class="st17" x1="2053.21" y1="2285.76" x2="2128.7" y2="2294.22"/>
				</g>
				<g>
					<path class="st1" d="M2128.72,2312.64c-0.69,0-1.38-0.04-2.08-0.12l-75.48-8.46c-10.11-1.13-17.38-10.24-16.25-20.35
						s10.29-17.36,20.35-16.25l75.48,8.46c10.11,1.13,17.38,10.24,16.25,20.35C2145.94,2305.68,2137.97,2312.64,2128.72,2312.64z"/>
				</g>
			</g>
			<g>
				<g>
					<path class="st1" d="M2137.66,2308.5c-3.28,0-6.71-0.18-10.33-0.53c-7.59-0.76-13.13-7.52-12.38-15.11
						c0.76-7.58,7.43-13.1,15.11-12.38c33.21,3.29,40.58-12.23,56.82-57.63c17.99-50.32,42.64-119.22,139.59-169.17
						c65.44-33.71,140.25-35.66,206.25-37.38c75.06-1.96,139.88-3.65,175.62-47.7c35.92-44.27,41.26-131.86,16.32-267.78
						c-1.38-7.5,3.59-14.7,11.09-16.08c7.53-1.39,14.7,3.59,16.08,11.09c26.86,146.34,19.85,238.54-22.03,290.17
						c-43.75,53.92-117.88,55.86-196.35,57.91c-66.12,1.73-134.5,3.52-194.33,34.33c-87.26,44.95-108.87,105.36-126.23,153.91
						C2198.88,2271.34,2185.59,2308.5,2137.66,2308.5z"/>
				</g>
			</g>
			<g>
				<g>
					<path class="st1" d="M2824.96,2397.72c-6.21,0-12.26-3.13-15.73-8.82c-123.08-201.45-33.7-419.53-29.83-428.72
						c3.94-9.37,14.74-13.78,24.12-9.83c9.37,3.94,13.77,14.73,9.84,24.1l0,0c-0.87,2.08-85.74,210.22,27.3,395.25
						c5.3,8.68,2.57,20.01-6.11,25.31C2831.55,2396.84,2828.23,2397.72,2824.96,2397.72z"/>
				</g>
			</g>
			<g>
				<g>
					<path class="st1" d="M1320.99,2277.84c-4.83,0-9.66-1.89-13.27-5.65c-7.05-7.33-6.83-18.99,0.5-26.04
						c137-131.79,87.69-385.28,87.18-387.83c-2.01-9.97,4.44-19.68,14.4-21.7c9.93-2.02,19.68,4.43,21.7,14.41
						c2.26,11.2,53.67,276.01-97.74,421.66C1330.19,2276.13,1325.59,2277.84,1320.99,2277.84z"/>
				</g>
			</g>
			<g class="st16">
				<g>
					<path class="st6" d="M2896.98,1416.3c-18.89-43.06-56.05-77.3-104.56-90.39c-53.74-14.53-108.56,0.41-147.83,35.06
						c34.9-65.08,98.96-102.04,158.55-85.92C2859.31,1290.19,2895.13,1347.98,2896.98,1416.3z"/>
				</g>
			</g>
			<g>
				<g>
					<path class="st6" d="M2443.7,2350.27c0,0,46.19,19.5,41.07,81.38c-4.01,48.49-27.74,67.27-27.74,67.27
						s-167.42,45.22-374.75-23.18c0,0-38.51-19.82-37.88-77.8c0.24-22.15,15.66-54.91,47.04-60.29
						C2091.44,2337.64,2280.8,2387.61,2443.7,2350.27z"/>
				</g>
			</g>
			<g class="st7">
				<g>
					<path class="st1" d="M2044.42,2397.96c-0.65,57.95,37.87,77.78,37.87,77.78c207.32,68.38,374.77,23.16,374.77,23.16
						s23.72-18.74,27.73-67.25c1.2-14.69-0.47-26.98-3.77-37.22c-7.84,32.37-24.28,45.33-24.28,45.33s-167.45,45.22-374.77-23.16
						c0,0-22.14-11.41-32.52-42.15C2046.12,2382.52,2044.5,2390.81,2044.42,2397.96z"/>
				</g>
			</g>
			<g>
				<g>
					<path class="st1" d="M2317.93,2532.18c-65.84,0-149.61-8.67-241.42-38.95l-2.66-1.11c-1.98-1.03-48.61-25.82-47.87-94.38
						c0.3-28.1,19.84-70.95,62.34-78.24l3.94-0.68l3.87,1.02c1.86,0.49,187.04,48.34,343.45,12.49l5.8-1.33l5.48,2.31
						c2.39,1.01,58.42,25.54,52.27,99.86c-4.54,54.86-31.59,77.76-34.66,80.19l-2.97,2.35l-3.66,0.99
						C2457.87,2517.77,2402.8,2532.18,2317.93,2532.18z M2089.85,2458.84c180.09,58.89,330.56,29.58,357.97,23.36
						c4.83-5.51,16.07-21.39,18.6-52.07c3.09-37.29-16.05-54.35-25.43-60.4c-151.79,32.52-319.91-5.77-349.82-13.16
						c-19.73,5.69-28.22,29.35-28.35,41.56C2062.37,2438.95,2085.1,2455.78,2089.85,2458.84z"/>
				</g>
			</g>
		</g>
		<g>
			<g>
				<g>
					<path class="st6" d="M3171.49,1381.51c3.74,0.79,7.48,2.21,11.22,2.25c15.13,0.15,27.34-6.14,35.97-18.5
						c5.17-7.41,5.31-16.24,4.86-24.97c-0.78-15.3-6.54-29.29-11.38-43.53c-2.06-6.06-4.24-12.08-6.47-18.43
						c-3.88,0.91-7.64,1.96-11.46,2.65c-36.28,6.62-66.77-4.67-92.07-30.64c-16.96-17.41-27.01-38.5-30.07-62.66
						c-2.58-20.36,1.53-39.81,9.2-58.6c7.99-19.58,19.31-37.19,32.24-53.83c6.36-8.19,12.74-16.36,19.25-24.43
						c1.66-2.05,2-3.71,1.06-6.31c-9.05-24.85-15.34-50.26-14.9-76.96c0.33-20.2,3.22-39.82,12.6-58.06
						c3.97-7.72,9.5-14.08,16.43-19.27c6.93-5.19,10.74-5.18,16.88,0.83c10.85,10.62,18.87,23.27,23.91,37.47
						c19.96,56.21,12.7,108.47-23.47,156.35c-0.86,1.14-1.31,3.24-0.9,4.57c3.82,12.64,7.91,25.2,11.82,37.81
						c0.62,2,1.41,2.78,3.66,2.36c29.3-5.45,51.64,5.94,66.82,30.3c16.7,26.8,18.88,55.21,3.44,83.71
						c-5.97,11.01-15.06,19.16-25.97,25.2c-2.58,1.43-3.06,2.84-2.19,5.55c5.08,15.74,10.17,31.47,14.91,47.31
						c2.77,9.24,4.6,18.77,3.75,28.48c-1.84,20.96-12.72,36-31.79,44.23c-23.23,10.03-45.77,8.13-65.65-8.36
						c-15.76-13.07-18.13-37.4-6.24-54.1c14.19-19.93,41.94-17.65,52.57,4.47c9.66,20.1-0.62,38.36-16.63,43.34
						c-0.43,0.13-0.82,0.38-1.23,0.57C3171.6,1380.73,3171.54,1381.12,3171.49,1381.51z M3151.01,1100.91
						c-1.31,1.25-2.21,1.91-2.86,2.75c-9.45,12.17-19.3,24.06-28.17,36.64c-9.03,12.81-15.2,27.07-17.82,42.71
						c-3.18,18.98-0.86,36.84,9.93,53.23c18.31,27.82,54.52,38.46,84.73,27.6c3.28-1.18,4.14-2.17,3.04-5.67
						c-7.92-25.19-15.61-50.45-23.37-75.69c-0.85-2.78-1.75-5.54-2.76-8.74c-7.26,4.12-12.34,9.58-16.18,16.14
						c-6.47,11.05-6.62,22.11,0.1,33.3c4.49,7.46,10.5,12.6,18.92,14.98c3.5,0.99,5.54,4.07,4.99,6.84
						c-0.56,2.81-4.07,4.74-7.67,4.24c-24.93-3.48-46.23-27.59-45.87-52.46c0.36-25.11,10.4-45.33,31.48-59.64
						c0.87-0.59,1.88-2.22,1.65-3.02C3157.95,1123.25,3154.56,1112.43,3151.01,1100.91z M3146.55,1035.62
						c2.39-2.71,4.06-4.34,5.42-6.19c12.26-16.69,21.31-34.89,25.46-55.31c2.04-10.04,2.3-20.05-1.1-29.93
						c-2.68-7.79-8.71-10.2-16.01-6.22c-5.1,2.79-8.52,7.25-10.66,12.41c-8.86,21.41-12.1,43.63-8.19,66.59
						C3142.49,1022.95,3144.64,1028.73,3146.55,1035.62z M3215.6,1255.01c15.21-6.43,23.56-33.52,16.83-53.19
						c-7.19-20.99-26.22-33.69-43.21-31.09C3198.02,1198.85,3206.81,1226.91,3215.6,1255.01z"/>
				</g>
			</g>
			<g>
				<g>
					<path class="st6" d="M1062.83,1141.94c-26.81,12.82-53.62,25.63-80.43,38.45c-22.13,10.58-44.99,21.53-67.46,32.27
						c-11.71,5.6-17.85,18.68-14.67,31.26c11.53,45.58,23.07,92.2,34.56,137.4c0.06,0.23,0.19,0.65,0.25,0.88
						c0.17,0.61-0.09,0.89-0.86,1.03c-5.14,0.92-10.06,2.56-14.78,4.74c-16.02,7.42-28.65,18.55-36.77,34.38
						c-4.36,8.49-6.44,17.49-4.69,27.09c0.02,0.93,0.41,1.77,0.58,2.67c1.73,7.45,6.42,12.69,12.81,16.38
						c6.51,3.76,13.72,4.96,21.2,4.77c2.61-0.07,5.15-0.62,7.73-0.89c0.63-0.2,1.62-0.51,2.24-0.7c0.47-0.23,1.01-0.23,1.49-0.41
						c1.32-0.25,2.56-0.87,3.96-0.74c0.61-0.23,1.13-0.42,1.75-0.65c0.13-0.11,0.28-0.12,0.46-0.02l0.57-0.14
						c-0.02-0.34,0.25-0.35,0.47-0.43c9.91-3.45,18.77-8.7,26.56-15.7c8.89-7.98,15.5-17.47,18.65-29.12
						c1.89-6.99,2.08-13.97,0.24-21.12c-12.79-49.71-25.42-99.46-38.15-149.19c-0.35-1.37-0.17-2,1.17-2.62
						c14.8-6.87,29.58-13.81,44.36-20.74c23.45-11.01,46.89-22.01,70.31-33.08c1.18-0.56,1.31-0.22,1.56,0.79
						c2.65,10.54,5.34,21.08,8.02,31.62c6.54,25.73,13.07,51.46,19.64,77.18c0.28,1.09,0.16,1.5-1.04,1.67
						c-3.84,0.54-7.59,1.55-11.22,2.89c-16.01,5.93-29.02,15.77-38.62,29.94c-5.27,7.78-8.73,16.27-9.24,25.78
						c-0.72,13.19,6.08,24.07,18.11,28.86c8.34,3.32,16.98,3.48,25.67,1.86c14.11-2.64,26.32-9.16,36.97-18.65
						c9.14-8.14,16.29-17.7,20.09-29.48c2.25-6.97,2.6-13.94,0.74-21.2c-15.11-59.2-30.45-119.84-45.52-179.28
						c-1.84-7.26-9.86-11.01-16.62-7.78C1062.91,1141.9,1062.87,1141.92,1062.83,1141.94z"/>
				</g>
			</g>
			<g>
				<g>
					<path class="st6" d="M3131.33,2678.76c0.1-1.78,0.04-3.56-0.04-5.35c0.08-3.25,0.01-6.64-0.26-10.16
						c-0.11-2.25-0.36-4.49-0.73-6.7c-2.82-19.9-11.87-43.67-32.55-70.4c-2.35-4.5-4.64-9.04-7.1-13.49
						c-2.72-4.89-5.07-9.91-6.61-15.29c-2.56-8.93-5.06-17.87-7.63-26.8c-1.24-4.31-5.17-6.86-10.2-6.72
						c-4.55,0.12-7.65,2.71-8.73,7.24c-8.54,35.93-17.09,71.86-25.63,107.79c-0.12-0.03-0.23-0.05-0.35-0.08
						c-1.53,6.65-2.98,13.32-4.61,19.95c-7.26,29.57-14.53,59.13-21.92,88.67c-1.03,4.14-3.03,7.97-5.98,11.16
						c-2.6,2.82-5.47,3.36-8.94,1.79c-0.75-0.34-1.46-0.76-2.15-1.2c-8.47-5.48-17.66-9.21-27.51-11.29
						c-19.93-4.22-39.17-1.3-57.62,6.62c-13.62,5.84-24.14,15.48-30.83,28.89c-3.68,7.38-5.83,15.21-5.02,23.55
						c1.12,11.48,7.11,20.26,15.72,27.49c4.95,4.15,10.74,6.75,16.61,9.36c12.54,5.57,25.56,7.37,39.12,6.16
						c8.25-0.74,16.18-2.84,24.08-5.16c10.73-3.15,21.13-7.02,30.48-13.31c11.15-7.5,18.84-17.39,21.99-30.72
						c7.59-32.08,15.42-64.1,23.11-96.15c4.41-18.36,8.72-36.73,13.09-55.1c2.04-8.57,4.11-17.13,6.17-25.69
						c0.65-2.73,1.06-5.54,1.99-8.16c0.73-2.05,1.82-4.12,3.25-5.74c3.49-3.94,9.52-4.04,14.4-0.56c0.82,0.59,1.6,1.22,2.33,1.89
						c-0.76-0.63-1.53-1.27-2.33-1.89c0,0,34.47,42.28,25.33,101.26c-1.4,3.79-1.55,7.68,0.06,11.49c1.05,2.48,2.92,4.04,5.7,3.97
						c3.01-0.07,5.57-1.32,7.28-3.85c0,0,5.43-6.42,9.97-18.18C3128.66,2696.03,3130.82,2687.64,3131.33,2678.76z"/>
				</g>
			</g>
		</g>
	</g>
</g>
</svg>
