<?xml version="1.0" encoding="utf-8"?>
<!-- Generator: Adobe Illustrator 27.1.0, SVG Export Plug-In . SVG Version: 6.00 Build 0)  -->
<svg version="1.1" id="Layer_1" xmlns="http://www.w3.org/2000/svg" xmlns:xlink="http://www.w3.org/1999/xlink" x="0px" y="0px"
	 viewBox="0 0 4000 4000" style="enable-background:new 0 0 4000 4000;" xml:space="preserve">
<style type="text/css">
	.st0{fill:#8655FF;}
	.st1{opacity:0.5;}
	.st2{fill:#FFFFFF;}
	.st3{opacity:0.35;}
	.st4{fill:#371A45;}
	.st5{fill:#220F2D;}
	.st6{fill:#4097FF;}
	.st7{fill:#FFDA22;}
	.st8{opacity:0.7;}
	.st9{fill:#F92323;}
	.st10{opacity:0.2;}
	.st11{fill:#102770;}
</style>
<g>
	<g>
		<g>
			<g>
				<path class="st0" d="M2659.67,3117.24c-586.7,448.85-1419.13,225.98-1700.6-177.83c-173.48-248.87-161.16-580.28-12.19-742.43
					c165.72-180.49,470.62-289.89,746.87-443.79c13.85-7.71,28.49-17.38,43.79-28.74c249.12-184.59,681.22-813.97,998.4-755.66
					c83.28,15.26,158.59,77.93,220.63,208.44C3227.76,1747.75,3244.59,2669.71,2659.67,3117.24z"/>
			</g>
			<g class="st1">
				<path class="st2" d="M3101.39,2370.41c27.03-173.16-398.42,569.93-808,569.93c677.4-200.31,756.21-1122.24,727.24-1378.94
					c-17.56-155.64-54.39-253.79-79.28-306.17c-312.91-658.33-964.22,409.62-1262.82,575.96
					c-276.2,153.86-582.85,244.5-748.57,424.98c-44.62,48.61-75.27,131.2-94.06,203.4c11.65-106.29,49.81-201.43,110.98-268.03
					c165.72-180.49,470.62-289.89,746.87-443.79c298.56-166.34,949.91-1234.29,1262.82-575.96
					C3115.45,1506.05,3187.03,1960.96,3101.39,2370.41z"/>
			</g>
			<g>
				<path class="st0" d="M2659.67,3117.22c-586.7,448.88-1419.13,225.99-1700.6-177.82c-134.11-192.37-157.16-434.06-91.96-608.81
					c0.17-0.46,0.84-0.41,0.92,0.07c24.51,150.31,125.75,511.04,537.76,628.5c606.49,172.94,1127.72-38.81,1385.13-345.14
					c259.47-308.78,289.94-857.3,291.5-1070.18c0-0.56,0.82-0.62,0.95-0.07C3211.54,2088.34,3130.85,2756.71,2659.67,3117.22z"/>
			</g>
			<g>
				<g class="st3">
					<path class="st4" d="M926.52,2887.96c1.8,2.66,3.54,5.34,5.37,7.98c281.48,403.81,1113.91,626.7,1700.6,177.82
						c436.91-334.29,538.03-933.27,448.24-1452.81c-8.76,247.82-57.47,716.56-289.83,993.08
						c-257.41,306.33-778.65,518.08-1385.13,345.14c-223.42-63.69-355.43-198.92-433.4-333.33
						c-62.29-92.48-96.8-188.31-115.88-263.58c-48.6,161.94-26.42,371.27,82.46,546.51C934.7,2901.86,930.53,2894.94,926.52,2887.96
						z"/>
				</g>
			</g>
			<g>
				<path class="st4" d="M1911.06,3381.84c-70.98,0-142.94-5.58-215.41-16.86c-318.4-49.58-605.85-209.02-750.19-416.09
					c-129.29-185.47-166.15-430.44-93.89-624.1c2.7-7.23,9.92-11.75,17.66-11.03c7.69,0.75,13.92,6.6,15.17,14.22
					c23.93,146.72,123.07,500.37,525.94,615.22c603.11,171.98,1121.6-46.78,1367.88-339.86
					c254.82-303.25,286.02-842.05,287.6-1059.63c0.08-8.66,6.61-15.88,15.19-16.82c8.6-0.96,16.56,4.7,18.51,13.13
					c68.29,290.12,72.89,596.67,12.94,863.13c-69.07,307.02-222.16,558.49-442.71,727.24l0,0
					C2454.05,3295.43,2190.36,3381.84,1911.06,3381.84z M864.32,2396.41c-41.75,172.54-1.82,375.46,108.36,533.51
					c139.34,199.9,418.32,354.04,728.08,402.28c348.61,54.29,685.58-26.73,948.84-228.14l0,0
					c445.4-340.79,520.13-947.74,444.79-1418.53c-15,262.5-74.38,681.65-290.76,939.17c-137.26,163.34-339.59,290.32-569.71,357.54
					c-261,76.25-548.93,73.79-832.67-7.12C1030.26,2869.35,905.77,2570.64,864.32,2396.41z M2659.67,3117.23h0.05H2659.67z
					 M3067.21,1547.56c0.01,0.04,0.02,0.08,0.03,0.12C3067.24,1547.65,3067.22,1547.59,3067.21,1547.56z"/>
			</g>
			<g>
				<path class="st4" d="M1838.9,3037.66c-144.17,0-291.47-20.86-437.67-62.55c-422.22-120.37-525.2-490.17-549.88-643.57l-0.7-4.37
					l1.56-4.14c20.28-53.65,48.01-99.85,82.42-137.31c118.87-129.4,305.82-221.83,503.75-319.68
					c81.62-40.35,166.02-82.08,247.26-127.34c81.12-45.18,193.96-163.97,313.42-289.73c237.65-250.17,507.01-533.72,734.25-497.52
					c96.43,15.36,176.58,88.92,238.23,218.63c53.17,111.86,95.91,234.98,127.02,365.93l0.46,1.94l-0.01,1.99
					c-1.27,221.96-32.6,771.98-295.41,1084.75l0,0c-137.26,163.34-339.59,290.32-569.71,357.54
					C2107.38,3019.19,1974.53,3037.66,1838.9,3037.66z M884.83,2330.65c24.91,149.67,125.56,498.54,525.5,612.56
					c603.11,171.98,1121.6-46.78,1367.88-339.86l0,0c255.07-303.55,286.19-841.95,287.62-1061.6
					c-30.54-127.97-72.34-248.21-124.25-357.42c-57.48-120.92-127.31-186.37-213.49-200.1c-209.99-33.43-484.44,255.46-704.97,487.6
					c-126.52,133.19-235.79,248.22-321.33,295.86c-81.95,45.65-166.72,87.56-248.7,128.09
					c-195.07,96.45-379.33,187.54-494.02,312.39C928.41,2241.54,903.45,2282.73,884.83,2330.65z M2790.92,2614.02h0.05H2790.92z"/>
			</g>
			<g>
				<path class="st2" d="M1541.31,2117.19c0,0-249.81,0-374.75,286.18c-61.81,141.56-44.9,278.52-44.9,278.52
					s-185.96,63.71-150.83,196.42c24.97,94.34,167.66,136.93,351.32,40.98c119.99-62.68,121.65-177.31,134.15-227.1
					c30.09-119.8,107.32-216.53,301.47-225.61"/>
			</g>
			<g class="st3">
				<path class="st4" d="M1757.78,2466.58c-194.17,9.08-271.39,105.84-301.5,225.61c-12.48,49.81-14.14,164.44-134.12,227.1
					c-183.68,95.97-326.38,53.37-351.35-40.97c-1.08-4.02-1.91-7.96-2.57-11.86c62.04,38.94,170.62,39.73,299.26-27.5
					c119.98-62.66,121.64-177.29,134.16-227.1c30.07-119.81,107.29-216.53,301.46-225.61l-166.59-268.95
					c3.11-0.12,4.77-0.12,4.77-0.12L1757.78,2466.58z"/>
			</g>
			<g>
				<path class="st4" d="M1512.99,2588.08c-6.93,0-13.39-4.37-15.72-11.3c-62.46-185.65-227.87-244.9-280.89-251.02
					c-9.1-1.05-15.63-9.28-14.58-18.38c1.05-9.1,9.26-15.63,18.38-14.58c58.45,6.75,240.59,71.46,308.53,273.4
					c2.92,8.68-1.75,18.09-10.43,21.01C1516.53,2587.8,1514.74,2588.08,1512.99,2588.08z"/>
			</g>
			<g>
				<path class="st4" d="M1128.14,2990.21c-34.02,0-65.3-5.94-92.6-17.98c-41.62-18.35-70.3-50.2-80.75-89.66
					c-29.16-110.16,78.66-183.87,149.22-211.82c-2.67-38.38-5.11-153.86,47.35-274c66.64-152.64,168.67-225.01,242.52-258.86
					c80.44-36.86,144.74-37.28,147.43-37.28c9.16,0,16.59,7.43,16.59,16.59c0,9.15-7.41,16.57-16.56,16.59l0,0
					c-0.6,0-60.97,0.62-135.09,34.94c-99.08,45.87-174.61,127.06-224.49,241.3c-59.13,135.43-43.8,268.54-43.64,269.87l1.63,13.34
					l-12.71,4.37c-1.7,0.59-170.91,60.36-140.17,176.49c7.92,29.94,29.39,53.38,62.06,67.79c66.93,29.51,163.71,15.93,265.54-37.27
					c94.72-49.49,110.03-133.35,120.16-188.85c1.92-10.49,3.57-19.56,5.59-27.58c38.19-152.06,141.81-229.96,316.78-238.14
					c9.15-0.35,16.92,6.65,17.34,15.8c0.43,9.16-6.64,16.92-15.8,17.35c-160.6,7.5-251.53,75.21-286.15,213.08
					c-1.75,6.97-3.32,15.54-5.12,25.45c-10.6,58.09-28.34,155.31-137.44,212.3C1258.72,2971.16,1189.05,2990.2,1128.14,2990.21z"/>
			</g>
			<g class="st3">
				<path class="st4" d="M2778.45,1703.29c-40.35,63-90.08,116.33-146.19,159.33c36.29,390.42-156.81,980.11-860.17,817.62
					c-279.98-64.7-493.77-434.25-327.88-598.61c117.9-116.74,265.5-170.95,397.43-234.57c1.87-0.91,3.77-1.82,5.64-2.74
					c-4.85-4.02-9.62-8.17-14.31-12.36c-36.37-32.51-68.26-68.68-95.43-107.54c249.12-184.59,681.22-813.97,998.4-755.66
					C2902.99,1172.91,2928.41,1469.14,2778.45,1703.29z"/>
			</g>
			<g>
				<path class="st2" d="M1730.62,2680.25c-279.98-64.7-493.76-434.25-327.88-598.61c117.9-116.74,265.5-170.95,397.43-234.57
					c98.99-47.73,189.19-100.74,251.4-189.44c127.98-182.6,457.35-130.06,512.8,60.26c9.91,33.97,17.63,71.62,22.81,111.85
					C2637.69,2218.79,2454.05,2847.38,1730.62,2680.25z"/>
			</g>
			<g class="st3">
				<path class="st4" d="M1730.62,2680.25c-242.74-56.11-435.7-341.36-374.66-523.33c32.64,164.39,193.27,378.74,381.97,422.32
					c590.31,136.36,819.22-289.28,856.75-650.09C2604.14,2316.04,2395.04,2833.74,1730.62,2680.25z"/>
			</g>
			<g>
				<path class="st4" d="M1956.39,2724.44c-71.93,0-148.61-9.35-229.51-28.04c-87.49-20.21-171.99-69.2-244.36-141.66
					c-67.71-67.8-117.68-149.75-140.69-230.75c-29.35-103.33-11.86-193.57,49.26-254.12c98.89-97.95,216.45-151.98,330.15-204.23
					c124.6-57.26,242.3-111.35,316.73-217.52c64.45-91.94,183.54-135.96,310.78-114.91c116.06,19.21,204.78,88.21,231.53,180.07
					c34.73,119.27,40.96,270.14,17.09,413.94c-19.57,117.89-68.69,285.71-191.61,415.75c-74.41,78.72-165.99,132.58-272.19,160.07
					C2078.42,2717.3,2019.22,2724.43,1956.39,2724.44z M2287.85,1561.41c-79.28,0-167.83,27.45-222.71,105.74
					c-79.59,113.53-201.25,169.44-330.05,228.63c-111.08,51.05-225.94,103.83-320.65,197.66c-52.15,51.66-66.6,130.31-40.7,221.48
					c39.18,137.92,178.89,307.17,360.61,349.16c278.44,64.32,496.23,15.92,647.3-143.91c210.42-222.62,224.2-600.44,166.77-797.62
					c-23.15-79.49-101.74-139.5-205.1-156.61C2325.8,1563.03,2307.09,1561.41,2287.85,1561.41z"/>
			</g>
			<g>
				<path class="st2" d="M1971.5,2281.83c75.7,138.64,348.96,202.36,463.85,192.89c125.35-10.34,90.6-135.1,90.6-135.1
					s-150.41,21.4-446.48-161.8C1936.73,2089.5,1880.68,2115.49,1971.5,2281.83z"/>
			</g>
			<g class="st3">
				<path class="st4" d="M2435.35,2474.71c-114.88,9.5-388.18-54.25-463.86-192.89c-5.43-9.91-10.33-19.37-14.72-28.28
					c95.76,117.61,337.21,171.4,443.38,162.61c65.82-5.43,87.46-42.38,93.23-76.27c21.69,1.29,32.6-0.25,32.6-0.25
					S2560.68,2464.39,2435.35,2474.71z"/>
			</g>
			<g>
				<path class="st4" d="M2410.42,2492.25c-133.77,0-380.46-68.73-453.48-202.48c-48.23-88.34-58.41-141.14-32.02-166.13
					c26.19-24.81,79.6-11.7,163.28,40.07c285.72,176.79,434.03,159.67,435.5,159.47l14.29-1.89l3.95,13.87
					c0.73,2.62,17.47,64.58-14.57,110.57c-18.65,26.78-49.15,42.09-90.65,45.51C2428.56,2491.92,2419.76,2492.25,2410.42,2492.25z
					 M1959.54,2144.56c-6.01,0-9.83,1.3-11.81,3.17c-7.48,7.08-7.82,41.63,38.32,126.15c70.58,129.28,333.82,193.77,447.92,184.3
					c31.17-2.57,53.43-13.14,66.16-31.41c15.66-22.48,14.53-52.78,12.23-69.77c-46.56,0.75-194.36-12.07-441.63-165.07
					C2010.93,2154.92,1976.51,2144.56,1959.54,2144.56z"/>
			</g>
			<g>
				<g class="st3">
					<path class="st4" d="M2587.18,1829.74c-123.67,104.59-282.71,156.14-441.59,146.85c-11.99-0.71-23.93-1.78-35.87-3.11
						c-32.8-3.86-65.48-10.33-97.71-19.49c-26.67-7.59-53.13-17-79.05-28.37c-30.07-13.1-59.51-28.74-88-46.99
						c-9.46-6.1-18.7-12.36-27.66-18.83c-5.81-4.15-11.53-8.42-17.13-12.73c98.99-47.73,189.19-100.74,251.4-189.44
						c127.98-182.6,457.35-130.06,512.8,60.26C2574.28,1751.86,2582,1789.51,2587.18,1829.74z"/>
				</g>
				<g>
					<path class="st2" d="M1590.45,1505.13c33.97,99.04,92.82,190.01,174.31,262.81c16.62,14.84,34.12,28.91,52.55,42.12
						c8.95,6.46,18.2,12.7,27.63,18.81c28.51,18.26,57.93,33.9,88.03,47c25.92,11.35,52.36,20.76,79.05,28.36
						c32.23,9.19,64.9,15.62,97.68,19.47c11.96,1.36,23.92,2.41,35.87,3.13c218.87,12.78,438.02-89.81,564.65-287.58
						c186.6-291.3,101.68-678.69-189.57-865.27c-56.12-35.9-115.83-61.85-176.96-78.03c-7.13-1.96-14.34-3.72-21.58-5.32
						c-19.33-4.43-38.76-7.91-58.24-10.45c-45.06-5.85-90.4-6.69-135.13-2.76c-44.73,3.88-88.96,12.58-131.77,25.88
						c-13.61,4.22-27.09,8.89-40.43,14.05c-19.99,7.75-39.6,16.47-58.81,26.32c-95.76,48.76-180.22,122.87-242.36,219.93
						C1548.03,1131.15,1530.55,1330.48,1590.45,1505.13z"/>
					<path class="st4" d="M2182.15,1929.57c-12.19,0-24.41-0.36-36.68-1.07c-11.99-0.73-24.09-1.78-35.96-3.13
						c-33.22-3.91-66.17-10.48-97.94-19.53c-27.14-7.72-53.81-17.29-79.26-28.43c-30.39-13.22-60.09-29.07-88.26-47.12
						c-10.36-6.72-19.42-12.88-27.7-18.86c-18.09-12.97-35.82-27.18-52.69-42.23c-79.6-71.11-140.04-162.23-174.78-263.51
						c-62.66-182.7-38.93-380.61,65.1-542.98c60.14-93.93,144.17-170.19,243.01-220.51c18.71-9.59,38.55-18.47,58.96-26.39
						c13.09-5.07,26.73-9.81,40.54-14.09c42.91-13.33,87.36-22.06,132.11-25.94c45.18-3.97,90.76-3.04,135.49,2.77
						c19.46,2.53,39.1,6.05,58.4,10.47c7.6,1.69,14.89,3.48,21.65,5.34c62.39,16.51,122.08,42.83,177.42,78.23
						c291.58,186.81,376.85,576.01,190.07,867.58C2595.88,1820.92,2395.49,1929.57,2182.15,1929.57z M1592.03,1504.59
						c34.55,100.74,94.67,191.37,173.85,262.1c16.78,14.97,34.41,29.11,52.41,42.01c8.24,5.95,17.26,12.09,27.56,18.76
						c28.02,17.95,57.56,33.72,87.79,46.87c25.32,11.09,51.84,20.6,78.84,28.28c31.6,9.01,64.38,15.54,97.41,19.42
						c11.8,1.35,23.85,2.4,35.78,3.12c225.61,13.12,441.43-96.72,563.14-286.82c185.79-290.03,100.97-677.15-189.06-862.97
						c-55.05-35.21-114.43-61.39-176.49-77.82c-6.72-1.85-13.95-3.63-21.51-5.31c-19.21-4.4-38.75-7.9-58.1-10.42
						c-44.49-5.78-89.83-6.7-134.77-2.75c-44.51,3.87-88.73,12.55-131.42,25.81c-13.74,4.26-27.3,8.97-40.32,14.02
						c-20.3,7.88-40.04,16.71-58.65,26.25c-98.32,50.06-181.9,125.91-241.72,219.34C1553.3,1126,1529.71,1322.86,1592.03,1504.59z"
						/>
				</g>
				<g>
					<path class="st4" d="M1661.56,1649.03c319.54,313.52,842.06,215.7,941.17-216.47c67.43-294.02-168.39-587.05-454.93-633.72
						c-208.55-33.97-427.01,24.09-568.22,333.35c0,0-41.37,146.56-17.55,252.73c23.82,106.18,64.9,205.42,64.9,205.42
						L1661.56,1649.03z"/>
				</g>
				<g class="st3">
					<path class="st4" d="M2710.22,1639.23c-126.61,197.8-345.8,300.4-564.66,287.58c-11.96-0.71-23.91-1.75-35.85-3.12
						c-32.79-3.84-65.45-10.3-97.68-19.46c-26.69-7.62-53.15-17.01-79.04-28.35c-30.12-13.09-59.53-28.73-88.06-47
						c-9.4-6.14-18.65-12.36-27.62-18.8c-18.43-13.23-35.9-27.33-52.54-42.16c-81.49-72.8-140.36-163.74-174.32-262.81
						c-18.67-54.4-29.83-111.25-33.1-168.76c34.57,93.78,91.72,179.74,169.46,249.19c16.61,14.87,34.11,28.93,52.54,42.16
						c8.93,6.45,18.18,12.67,27.62,18.8c28.54,18.27,57.94,33.91,88.02,47.01c25.94,11.33,52.36,20.74,79.04,28.35
						c32.23,9.16,64.93,15.61,97.68,19.46c11.98,1.36,23.93,2.4,35.89,3.11c218.86,12.82,438.01-89.78,564.66-287.58
						c73.91-115.37,105.18-245.82,97.95-372.86C2835.9,1261.87,2820.37,1467.3,2710.22,1639.23z"/>
				</g>
				<g>
					<path class="st4" d="M2182.15,1940.76c-12.41,0-24.85-0.36-37.33-1.09c-12.22-0.74-24.51-1.82-36.58-3.19
						c-33.85-3.98-67.4-10.67-99.75-19.89c-27.62-7.86-54.77-17.6-80.68-28.95c-30.91-13.44-61.14-29.58-89.81-47.95
						c-10.57-6.85-19.78-13.12-28.22-19.21c-18.39-13.18-36.43-27.64-53.59-42.96c-81.03-72.39-142.55-165.14-177.91-268.23l0,0
						c-63.77-185.95-39.62-387.38,66.26-552.65c61.21-95.61,146.75-173.22,247.36-224.45c19.03-9.75,39.22-18.79,59.99-26.85
						c13.34-5.17,27.22-9.99,41.27-14.35c43.67-13.56,88.91-22.45,134.46-26.4c45.97-4.05,92.37-3.1,137.9,2.82
						c19.81,2.58,39.81,6.16,59.46,10.66c7.71,1.71,15.18,3.55,22.12,5.46c63.4,16.78,124.17,43.57,180.48,79.59
						c296.79,190.14,383.57,586.27,193.47,883.04C2603.24,1830.18,2399.29,1940.76,2182.15,1940.76z M1602.61,1500.96
						c33.93,98.93,92.97,187.93,170.72,257.39c16.48,14.7,33.8,28.59,51.48,41.26c8.12,5.86,16.98,11.89,27.13,18.47
						c27.47,17.6,56.48,33.08,86.17,46c24.88,10.89,50.93,20.23,77.44,27.78c31.03,8.84,63.22,15.26,95.66,19.07
						c11.57,1.32,23.41,2.35,35.15,3.07c221.5,13.01,433.51-94.99,553.04-281.68c182.46-284.83,99.17-665.03-185.67-847.51
						c-54.06-34.58-112.38-60.3-173.32-76.42c-6.64-1.83-13.69-3.57-21.07-5.2c-18.94-4.33-38.12-7.78-57.12-10.25
						c-43.69-5.68-88.22-6.58-132.35-2.7c-43.73,3.8-87.16,12.32-129.08,25.34c-13.5,4.18-26.81,8.81-39.59,13.76
						c-19.94,7.74-39.32,16.41-57.59,25.78c-96.57,49.17-178.65,123.66-237.4,215.42
						C1564.58,1129.15,1541.4,1322.48,1602.61,1500.96L1602.61,1500.96z"/>
				</g>
				<g>
					<path class="st4" d="M2182.15,1944.49c-12.49,0-24.99-0.36-37.55-1.09c-12.29-0.75-24.65-1.83-36.78-3.21
						c-34.06-4-67.81-10.74-100.34-20.01c-27.78-7.9-55.09-17.7-81.16-29.11c-31.08-13.52-61.48-29.75-90.33-48.23
						c-10.64-6.89-19.9-13.2-28.39-19.33c-18.48-13.25-36.63-27.8-53.89-43.2c-81.51-72.81-143.39-166.11-178.96-269.8v0
						c-64.14-187.03-39.85-389.63,66.65-555.87c61.57-96.16,147.6-174.23,248.8-225.76c19.13-9.81,39.45-18.9,60.33-27.01
						c13.42-5.2,27.39-10.05,41.52-14.43c43.92-13.64,89.43-22.58,135.24-26.56c46.23-4.07,92.9-3.12,138.7,2.83
						c19.93,2.59,40.05,6.2,59.81,10.73c7.75,1.72,15.28,3.57,22.28,5.5c63.74,16.87,124.86,43.81,181.5,80.05
						c298.52,191.25,385.82,589.69,194.6,888.2C2605.7,1833.26,2400.55,1944.49,2182.15,1944.49z M1606.14,1499.75
						c33.73,98.33,92.4,186.79,169.67,255.82c16.38,14.61,33.6,28.41,51.17,41.01c8.07,5.83,16.89,11.83,26.98,18.37
						c27.29,17.48,56.13,32.87,85.63,45.71c24.73,10.83,50.62,20.11,76.97,27.61c30.84,8.79,62.83,15.17,95.07,18.96
						c11.49,1.31,23.27,2.33,34.94,3.05c220.24,12.83,430.87-94.41,549.68-279.97c181.35-283.1,98.56-660.98-184.55-842.36
						c-53.73-34.37-111.69-59.93-172.26-75.96c-6.62-1.82-13.61-3.54-20.92-5.17c-18.85-4.31-37.92-7.73-56.8-10.19
						c-43.42-5.64-87.68-6.55-131.54-2.68c-43.47,3.77-86.63,12.25-128.3,25.19c-13.42,4.16-26.65,8.76-39.36,13.68
						c-19.82,7.69-39.07,16.31-57.23,25.62c-95.99,48.88-177.57,122.91-235.96,214.11
						C1568.34,1130.2,1545.3,1322.36,1606.14,1499.75L1606.14,1499.75z"/>
				</g>
				<g>
					<path class="st5" d="M2602.71,1432.55c-99.1,432.16-621.63,529.98-941.16,216.49l-7.01-11.91
						c386.31,137.79,823.07-34.15,931.4-469.24C2615.47,1251.18,2623.51,1341.82,2602.71,1432.55z"/>
				</g>
				<g>
					<path class="st4" d="M2098.41,1910.56c-56.06,0-112.87-7.1-168.83-21.54l-2.03-0.7c-30.97-13.47-61.23-29.63-89.94-48.02
						c-10.58-6.86-19.8-13.14-28.25-19.23c-18.4-13.2-36.46-27.67-53.65-43c-81.13-72.47-142.72-165.33-178.12-268.54l0,0
						c-63.85-186.16-39.67-387.82,66.33-553.27c61.28-95.71,146.91-173.41,247.64-224.7l1.26-0.64l1.36-0.37
						c79.53-21.49,168.23-24.52,263.63-8.97c169.89,27.68,331.44,133.63,432.15,283.42c92.51,137.59,124.56,295.75,90.24,445.35
						c-37.32,162.65-127.99,291.77-262.2,373.39C2323.85,1881,2212.7,1910.56,2098.41,1910.56z M1937.41,1862.98
						c162.68,41.68,332.65,18.94,466.48-62.45c127.81-77.73,214.2-200.92,249.84-356.25c32.62-142.2,1.97-292.82-86.31-424.12
						c-96.6-143.68-251.35-245.27-413.97-271.76c-91-14.83-175.38-12.13-250.81,8.02c-95.88,49.1-177.4,123.25-235.83,214.5
						c-101.5,158.44-124.65,351.54-63.51,529.81l0,0c33.89,98.81,92.86,187.71,170.51,257.08c16.46,14.68,33.76,28.55,51.42,41.22
						c8.11,5.85,16.96,11.88,27.1,18.45C1879.46,1834.84,1908.1,1850.17,1937.41,1862.98z"/>
				</g>
				<g>
					<path class="st4" d="M2097.36,1849.49c-160.94,0-322.79-66.34-447.41-188.62l-1.56-1.53l-36.79-62.66
						c-1.7-4.11-41.9-101.79-65.76-208.14c-24.45-109.02,16.04-254.72,17.78-260.87l0.87-2.38
						c123.6-270.69,320.75-386.04,585.97-342.83c152.35,24.82,297.2,119.79,387.49,254.07c83.01,123.45,111.75,265.41,80.95,399.73
						c-44.48,193.93-176.2,336.25-361.39,390.45C2205.19,1842.02,2151.32,1849.49,2097.36,1849.49z M1674.73,1638.7
						c157.74,153.74,377.28,213.6,573.46,156.17c173.33-50.73,296.66-184.14,338.37-366.03c28.73-125.29,1.69-258.04-76.15-373.81
						c-85.26-126.81-221.82-216.46-365.28-239.84c-248.24-40.42-433.25,68.12-549.91,322.65c-3.76,13.92-38.52,147.54-17.01,243.42
						c21.92,97.72,59.19,190.79,63.61,201.66L1674.73,1638.7z"/>
				</g>
				<g>
					
						<ellipse transform="matrix(0.1566 -0.9877 0.9877 0.1566 868.7513 3900.8792)" class="st2" cx="2718.38" cy="1441.78" rx="224" ry="162.76"/>
					<path class="st4" d="M2701.92,1681.06c-2.63,0-5.27-0.08-7.92-0.23c-39.37-2.29-75-20.97-103.06-54.01
						c-41.04-48.34-59.97-119.88-51.93-196.27c13.82-131.37,105.14-233.62,203.73-227.83c39.37,2.29,75.01,20.97,103.06,54.01
						c41.04,48.34,59.97,119.88,51.93,196.27C2884.29,1580.84,2797.37,1681.06,2701.92,1681.06z M2734.64,1235.67
						c-78.72,0-150.94,87.26-162.62,198.36c-6.99,66.43,9.55,130.47,44.23,171.33c22.04,25.96,49.59,40.61,79.69,42.36
						c81.09,4.75,156.82-84.18,168.81-198.18c6.99-66.42-9.55-130.47-44.23-171.32c-22.04-25.96-49.6-40.61-79.69-42.36
						C2738.75,1235.72,2736.69,1235.67,2734.64,1235.67z"/>
				</g>
				<g>
					
						<ellipse transform="matrix(0.1903 -0.9817 0.9817 0.1903 802.6479 3904.865)" class="st2" cx="2768.6" cy="1465.84" rx="177.77" ry="132.62"/>
					<path class="st4" d="M2753.47,1644.01c-20.06,0-39.38-5.94-56.97-17.68c-63.63-42.44-83.22-148.92-43.66-237.36
						c22.15-49.52,58.81-84.84,100.59-96.9c30.75-8.87,60.93-4.29,87.26,13.27c63.63,42.44,83.21,148.92,43.66,237.36l0,0
						c-22.15,49.52-58.81,84.84-100.6,96.9C2773.56,1642.55,2763.42,1644.01,2753.47,1644.01z M2783.69,1291.14
						c-9.63,0-19.43,1.42-29.3,4.27c-40.8,11.77-76.66,46.4-98.39,94.98c-38.9,86.96-19.87,191.51,42.42,233.05
						c25.45,16.98,54.63,21.42,84.37,12.83c40.8-11.78,76.66-46.39,98.39-94.98c38.89-86.97,19.86-191.51-42.42-233.06
						C2821.76,1296.89,2803.09,1291.14,2783.69,1291.14z"/>
				</g>
				<g class="st3">
					<path class="st4" d="M2636.13,1527.62c-4.75-33.35-0.37-68.11,10.94-100c17.23,75.12,80.07,111.64,145.99,82.04
						c42.61-19.11,76.69-61.47,94.16-110.83c1.12,4.73,2,9.67,2.73,14.73c12.05,84.92-34.99,179.29-105.1,210.79
						C2714.75,1655.83,2648.18,1612.49,2636.13,1527.62z"/>
				</g>
				<g>
					<path class="st4" d="M2754.15,1656.32c-1.62,0-3.24-0.04-4.86-0.12c-28.48-1.43-54.44-14.98-75.07-39.17
						c-32.67-38.32-48-99.4-41.02-163.38c11.68-107,82.01-191,157.03-187.23c28.48,1.43,54.44,14.98,75.07,39.18
						c32.67,38.32,48,99.39,41.01,163.38l-13.5-1.47l13.5,1.47C2894.9,1573.66,2827.22,1656.32,2754.15,1656.32z M2785.19,1293.45
						c-59.43,0-115.03,72.05-124.98,163.13c-6.19,56.69,6.78,110.07,34.69,142.81c15.65,18.36,34.93,28.62,55.76,29.67
						c60.78,3.07,118.51-70.08,128.66-163.04c6.19-56.68-6.78-110.07-34.68-142.81c-15.65-18.36-34.93-28.62-55.76-29.67
						C2787.65,1293.48,2786.42,1293.45,2785.19,1293.45z"/>
				</g>
				<g class="st1">
					<path class="st2" d="M2283.97,945.88c0,0-275.64-27.04-451.28,105.57c-0.18,0.14-0.37,0.28-0.55,0.42
						c-36.94,27.94-65.65,65.38-83.4,108.17c-23.47,56.58-31.36,99.01-36.87,136.62c-16.69,114.42-3.1,171.15-3.1,171.15
						c-56.26-69.95-82.92-143.93-69.97-239.37c1.3-9.4,2.99-19.06,5.04-28.91c0.46-2.27,0.97-4.51,1.52-6.76
						c-0.05-0.03-0.02-0.08,0.05-0.13c5.55-19.66,13.82-45.22,25.55-73.27c35.34-84.63,101.98-192.01,220-229.14
						C2111.65,820.81,2295.14,935.31,2283.97,945.88z"/>
				</g>
				<g class="st1">
					
						<ellipse transform="matrix(0.9932 -0.1163 0.1163 0.9932 -130.3757 291.2232)" class="st2" cx="2430.11" cy="1262.71" rx="81.49" ry="94.96"/>
				</g>
				<g class="st1">
					
						<ellipse transform="matrix(0.9799 -0.1997 0.1997 0.9799 -237.0575 518.2657)" class="st2" cx="2450.18" cy="1434.07" rx="33.65" ry="39.21"/>
				</g>
			</g>
			<g>
				<path class="st2" d="M1684.74,2410.32c0,0-149.18,62.52-213.5,270.22c-45.74,147.69-13.01,282.01-13.01,282.01
					s-103.49,186.35-14.18,263.37c67.29,58.03,208.29,78.36,288.42-54.6c70.37-116.75,69.85-180.86,76.86-231.71
					c16.86-122.37,85.82-226.42,287.69-254.73c0,0,13.32-119.64-73.66-209.25C1936.38,2386.03,1684.74,2410.32,1684.74,2410.32z"/>
			</g>
			<g class="st3">
				<path class="st4" d="M2097.02,2684.89c-201.89,28.33-270.81,132.34-287.69,254.72c-7.01,50.84-6.51,114.96-76.85,231.7
					c-80.17,132.96-221.17,112.64-288.44,54.62c-24.76-21.36-34.71-51.14-36.12-83.03c69.67,53.46,203.92,68.06,281.3-60.38
					c70.38-116.74,69.88-180.86,76.89-231.7c13.73-99.57,131.47-222.17,321.57-259.82
					C2101.63,2643.42,2097.02,2684.89,2097.02,2684.89z"/>
			</g>
			<g>
				<path class="st4" d="M1568.65,3287.41c-49.33,0-99.11-17.6-135.43-48.92c-90.22-77.81-9.94-244.87,7.49-278.35
					c-6.01-28.97-26.78-150.59,14.69-284.5c65.85-212.66,216.55-277.94,222.93-280.61c8.45-3.54,18.17,0.44,21.71,8.89
					c3.54,8.44-0.43,18.15-8.86,21.7c-2.02,0.87-143.17,63.12-204.09,259.84c-43.87,141.67-13.06,271.88-12.74,273.17l1.53,6.3
					l-3.14,5.67c-0.97,1.75-95.89,175.46-17.85,242.76c36.37,31.36,91.38,46.6,140.14,38.81c50.2-8.02,92.82-38.94,123.24-89.41
					c59.87-99.34,66.71-158.29,72.2-205.65c0.79-6.84,1.56-13.39,2.43-19.75c21.43-155.46,120.15-243.42,301.82-268.9
					c9.11-1.31,17.46,5.05,18.73,14.12c1.27,9.07-5.05,17.46-14.12,18.73c-167.25,23.46-254.17,99.9-273.56,240.58
					c-0.84,6.13-1.58,12.45-2.34,19.04c-5.55,47.88-13.16,113.46-76.74,218.96c-45.01,74.68-104.47,98.34-146.43,105.04
					C1589.83,3286.6,1579.25,3287.41,1568.65,3287.41z"/>
			</g>
			<g>
				<g>
					<path class="st6" d="M2267.52,1757.21l-4.21,326.78l-3.58,276.97l-0.81,64.22c-0.04,0.98-0.76,1.79-1.7,1.97l-649.57,100.06
						c-1.21,0.18-2.28-0.76-2.28-1.97l1.43-126.69l6.13-549.91c0.04-0.98,0.76-1.79,1.7-1.92l574.61-80.78l76.03-10.7
						C2266.49,1755.07,2267.57,1756,2267.52,1757.21z"/>
				</g>
				<g>
					<g>
						<path class="st7" d="M1827.28,2248.75l76.35-35.64l72.64,42.7c14.57,8.57,32.64-3.3,30.58-20.07l-10.3-83.63l63.07-55.91
							c12.65-11.2,6.94-32.05-9.64-35.27l-46.9-9.1c-0.01-0.02-0.03-0.01-0.03-0.01l-35.81-6.96l-33.67-77.24
							c-6.74-15.49-28.33-16.52-36.52-1.74l-40.83,73.72l-83.88,8.15c-16.81,1.63-24.45,21.84-12.93,34.19l57.49,61.62l-14.92,67.54
							l-3.26,14.74C1795.11,2242.37,1811.95,2255.88,1827.28,2248.75z"/>
					</g>
					<g class="st8">
						<path class="st2" d="M1783.73,2067.99l83.88-8.15l40.83-73.72c6.46-11.65,21.27-13.48,30.54-6.12l-5.4-12.36
							c-6.74-15.49-28.33-16.52-36.52-1.74l-40.83,73.72l-83.88,8.15c-16.81,1.63-24.45,21.84-12.93,34.19l5.87,6.29
							C1765.37,2078.47,1772.5,2069.08,1783.73,2067.99z"/>
					</g>
					<g class="st3">
						<path class="st4" d="M1827.28,2248.75l76.35-35.64l72.64,42.7c14.57,8.57,32.64-3.3,30.58-20.07l-10.3-83.63l63.07-55.91
							c12.65-11.2,6.94-32.05-9.64-35.27l-46.9-9.1c19.3,8.8,38.63,22.41,25.7,38.39c-8.49,10.48-29.64,21.84-45.83,29.5
							c-11.98,5.67-19.08,18.3-17.72,31.48c2.12,20.61,3.3,48.7-5.26,53.51c-9.71,5.46-32.54-10.67-49.18-24.39
							c-11.36-9.37-27.66-9.65-39.3-0.63c-21.89,16.97-55.71,39.85-69.51,31.43l-3.26,14.74
							C1795.11,2242.37,1811.95,2255.88,1827.28,2248.75z"/>
					</g>
					<g>
						<path class="st4" d="M1986.63,2269.53c-5.45,0-10.92-1.45-15.85-4.35l-67.72-39.81l-71.19,33.22
							c-10.86,5.07-23.42,3.55-32.77-3.94s-13.55-19.42-10.97-31.12l16.94-76.71l-53.59-57.44c-8.18-8.76-10.62-21.17-6.38-32.38
							c4.24-11.21,14.28-18.89,26.21-20.05l78.19-7.6l38.07-68.72c5.81-10.48,16.88-16.67,28.82-16.07
							c11.97,0.57,22.39,7.74,27.17,18.73l31.39,72.02l77.11,14.97c11.77,2.28,21.04,10.88,24.19,22.44
							c3.16,11.56-0.45,23.68-9.42,31.63l-58.79,52.1l9.59,77.96c1.46,11.89-3.85,23.37-13.87,29.95
							C1998.53,2267.8,1992.58,2269.53,1986.63,2269.53z M1904.22,2200.84l77.57,45.6c4.6,2.71,8.56,0.73,10.05-0.24
							c1.49-0.98,4.88-3.82,4.23-9.12l-10.99-89.31l67.34-59.68c4-3.54,3.34-7.92,2.87-9.63c-0.47-1.72-2.13-5.82-7.37-6.84
							l-88.33-17.15l-35.95-82.49c-2.13-4.89-6.5-5.62-8.28-5.7c-1.78-0.06-6.19,0.22-8.78,4.9l-43.6,78.71l-89.56,8.7
							c-5.32,0.52-7.36,4.44-7.98,6.11c-0.63,1.67-1.7,5.96,1.94,9.87l61.38,65.79l-19.4,87.87c-1.15,5.21,1.95,8.36,3.34,9.48
							c1.39,1.12,5.15,3.46,9.98,1.2L1904.22,2200.84z M1856.23,2039.62h0.05H1856.23z"/>
					</g>
				</g>
				<g class="st3">
					<path class="st2" d="M2267.52,1757.21l-0.58,45.24l-34.77,4.88l-515.91,72.52c-33.78,4.75-59.06,33.41-59.54,67.53
						l-6.99,492.56l-0.9,80.91l-41.17,6.35c-1.21,0.18-2.28-0.76-2.28-1.97l1.43-126.69l6.13-549.91c0.04-0.98,0.76-1.79,1.7-1.92
						l574.61-80.78l76.03-10.7C2266.49,1755.07,2267.57,1756,2267.52,1757.21z"/>
				</g>
				<g class="st3">
					<path class="st4" d="M2267.52,1757.21l-4.21,326.78l-3.09,239.15l-0.49,37.81l-0.81,64.22c-0.04,0.98-0.76,1.79-1.7,1.97
						l-649.57,100.06c-1.21,0.18-2.28-0.76-2.28-1.97l1.43-126.69c137.75-18.21,243.81-74.11,325.21-145.89
						c61.13-54.73,121.15-111.43,176.46-239.65c53.12-110.31,74.29-210.33,80.78-247.07l76.03-10.7
						C2266.49,1755.07,2267.57,1756,2267.52,1757.21z"/>
				</g>
				<g>
					<path class="st6" d="M1612.94,1848.51l-7.56,676.42c0,1.3-1.3,2.24-2.55,1.83l-158.11-49.54c-0.81-0.27-1.39-1.03-1.39-1.88
						l0.76-133.99l3.04-531.43c0-1.3,1.21-2.19,2.42-1.92l158.51,37.77l3.36,0.81C1612.31,1846.81,1612.98,1847.61,1612.94,1848.51z
						"/>
				</g>
				<g class="st3">
					<path class="st2" d="M1612.94,1848.51l-0.4,35.22l-108.26-25.8c-15.5-3.69-30.41,7.99-30.52,23.93l-3.57,502.6l-0.58,100.56
						l-24.88-7.79c-0.81-0.27-1.39-1.03-1.39-1.88l0.76-133.99l3.04-531.43c0-1.3,1.21-2.19,2.42-1.92l158.51,37.77l3.36,0.81
						C1612.31,1846.81,1612.98,1847.61,1612.94,1848.51z"/>
				</g>
				<g class="st3">
					<path class="st4" d="M1612.94,1848.51l-7.56,676.42c0,1.3-1.3,2.24-2.55,1.83l-158.11-49.54c-0.81-0.27-1.39-1.03-1.39-1.88
						l0.76-133.99c135.18-117.73,141.77-391.62,163.97-495.58l3.36,0.81C1612.31,1846.81,1612.98,1847.61,1612.94,1848.51z"/>
				</g>
				<g>
					<path class="st6" d="M1447.13,1807.87l-3.76,659.86c0,2.15-2.91,2.73-3.76,0.81l-117.29-259.6c-0.13-0.27-0.18-0.58-0.18-0.85
						l1.7-97.87l4.7-272.49l4.74-272.85c0-2.1,2.91-2.69,3.76-0.76l109.91,242.91C1447.09,1807.29,1447.13,1807.6,1447.13,1807.87z"
						/>
				</g>
				<g class="st3">
					<path class="st2" d="M1323.5,2211.54l0.34-19.82l4.7-272.5l4.74-272.85c0-2.1,2.91-2.69,3.76-0.76l109.63,242.3l0.46-80.05
						c0-0.27-0.04-0.58-0.18-0.85l-109.91-242.91c-0.85-1.92-3.76-1.34-3.76,0.76l-4.74,272.85l-4.7,272.5l-1.7,97.87
						c0,0.27,0.04,0.58,0.18,0.85L1323.5,2211.54z"/>
				</g>
				<g>
					<path class="st4" d="M1607.35,2543.84c-4.44,0-8.76-1.59-12.16-4.55c-4.13-3.58-6.46-8.77-6.39-14.24l7.56-676.62
						c0.11-9.23,6.83-16.86,15.97-18.15l650.65-91.47c5.38-0.74,10.78,0.87,14.85,4.45c4.07,3.58,6.36,8.74,6.3,14.16l-8.63,668
						c-0.11,9.11-6.74,16.73-15.74,18.11l-649.56,100.1C1609.24,2543.77,1608.3,2543.84,1607.35,2543.84z M1629.4,1861.38
						l-7.23,646.83l620.31-95.59l8.25-638.58L1629.4,1861.38z"/>
				</g>
				<g>
					<path class="st4" d="M1603.39,2543.46c-1.85,0-3.71-0.27-5.51-0.83l-158.11-49.56c-7.82-2.45-13.06-9.61-13.01-17.82
						l3.79-665.41c0.03-5.69,2.62-10.97,7.09-14.49c4.48-3.52,10.21-4.78,15.75-3.47l161.9,38.57c8.48,2.03,14.34,9.53,14.25,18.25
						l-7.56,676.41c-0.06,5.84-2.92,11.38-7.65,14.81C1611.12,2542.24,1607.27,2543.46,1603.39,2543.46z M1459.99,2464.63
						l129.03,40.44l7.21-645.07l-132.61-31.59L1459.99,2464.63z M1607.56,1862.7c0,0,0.01,0,0.01,0L1607.56,1862.7z"/>
				</g>
				<g>
					<path class="st4" d="M1441.33,2486.31c-7.17,0-13.76-4.13-16.83-10.91l-117.3-259.63c-1.15-2.58-1.69-5.22-1.64-7.96
						l11.13-643.2c0.15-8.75,6.24-16.09,14.81-17.86c8.55-1.77,17.07,2.56,20.67,10.53l109.92,242.93v0
						c1.1,2.44,1.67,5.14,1.65,7.81l-3.76,659.82c-0.05,8.8-6.1,16.22-14.7,18.06C1443.96,2486.17,1442.63,2486.31,1441.33,2486.31z
						 M1338.79,2205.1l88.39,195.65l3.36-589.78l-81.81-180.8L1338.79,2205.1z M1431.86,1813.89h0.05H1431.86z M1430.56,1807.77
						c0,0.03,0,0.06,0,0.09V1807.77z"/>
				</g>
				<g>
					<path class="st2" d="M1481.38,1633.47c-72.46-43.62-93.74-66.15-93.74-66.15l-43.46,12.55l102.96,228.59l65.86,14.4
						C1512.99,1822.86,1570.2,1686.94,1481.38,1633.47z"/>
				</g>
				<g>
					<path class="st2" d="M1513.01,1822.86l-36.74-8.06l-29.13-6.35l-84.45-187.47l-18.53-41.13l43.5-12.53
						c0,0,21.26,22.51,93.71,66.14C1570.2,1686.95,1513.01,1822.86,1513.01,1822.86z"/>
				</g>
				<g class="st3">
					<path class="st4" d="M1476.27,1814.81l-29.13-6.35l-84.45-187.47c14.63,10.92,36.83,26.27,69.5,45.96
						C1489.51,1701.45,1485.98,1770.33,1476.27,1814.81z"/>
				</g>
				<g>
					<path class="st2" d="M1512.99,1822.86c0,0,18.8-87.7,163.35-119.6c144.55-31.91,517.43,15.19,517.43,15.19l23.83,43.49
						l-600.65,84.44L1512.99,1822.86z"/>
				</g>
				<g>
					<path class="st2" d="M2217.62,1761.96l-83.82,11.77l-516.84,72.63l-62.74-14.19l-41.22-9.31c0,0,18.8-87.71,163.34-119.62
						c144.55-31.91,517.42,15.22,517.42,15.22L2217.62,1761.96z"/>
				</g>
				<g class="st3">
					<path class="st4" d="M2133.8,1773.73l-516.84,72.63l-62.74-14.19c23.67-24.43,63.64-51.15,130.59-65.92
						C1790.74,1742.89,2019.24,1761.91,2133.8,1773.73z"/>
				</g>
				<g>
					<path class="st4" d="M1522.93,1842.01l-87.49-19.13l-114.25-253.65l71.56-20.66l6.94,7.35c0.14,0.15,21.62,22.02,90.24,63.33
						l0,0c99.98,60.19,40.91,203.94,38.35,210.03L1522.93,1842.01z M1458.83,1794.03l43.47,9.5
						c10.58-32.77,31.3-119.27-29.47-155.86c-51.21-30.83-77.79-51.68-89.54-61.84l-16.13,4.66L1458.83,1794.03z"/>
				</g>
				<g>
					<path class="st4" d="M1616.25,1863.23l-122.92-27.81l3.44-16.04c0.86-4.01,22.8-98.51,176-132.32
						c145.68-32.16,507.74,13,523.08,14.93l8.4,1.06l39.44,71.97L1616.25,1863.23z M1535.44,1810.93l82.21,18.6l573.87-80.68
						l-8.2-14.96c-55.87-6.66-375.14-42.75-503.4-14.44C1583.89,1740.65,1548,1786.79,1535.44,1810.93z"/>
				</g>
			</g>
			<g>
				<path class="st2" d="M2370.95,1966.32c0,0-32.2,67.33-106.24,71.94c-105.78,6.58-218.08-13.15-290.73,13.29
					c-113.43,41.27-170.17,231.53-22.83,317.41c91.55,53.35,495.05,139.56,574.1-180.38"/>
			</g>
			<g class="st3">
				<path class="st4" d="M2525.26,2188.56c-79.09,319.96-482.57,233.74-574.1,180.4c-71.95-41.97-95.26-108.82-86.97-171.03
					c8.88,36.36,31.6,67.16,63.2,86.12c178.9,107.34,473.73,136.75,590.85-105.58L2525.26,2188.56z"/>
			</g>
			<g>
				<path class="st4" d="M2193.76,2437.51c-110.24,0-212.22-31.65-250.96-54.23c-67.7-39.45-102.71-104.74-96.04-179.11
					c6.76-75.46,56.74-144.64,121.55-168.22c48.96-17.81,112.62-16,180.02-14.08c37.99,1.08,77.27,2.2,115.36-0.17
					c63.57-3.96,92.02-61.95,92.3-62.54c3.96-8.26,13.86-11.75,22.12-7.81c8.26,3.96,11.76,13.86,7.81,22.12
					c-1.49,3.11-37.36,76.18-120.17,81.34c-39.59,2.45-79.63,1.32-118.36,0.22c-64.13-1.82-124.73-3.55-167.73,12.1
					c-53.13,19.33-94.19,76.9-99.85,140c-3.21,35.86,2.87,102.71,79.7,147.49c52.91,30.83,247.34,82.31,392.49,20.84
					c81.51-34.5,134.38-98.72,157.15-190.87c2.19-8.89,11.17-14.32,20.08-12.12c8.89,2.2,14.32,11.19,12.12,20.08
					c-25.41,102.85-84.77,174.67-176.42,213.47C2310.8,2428.93,2251.16,2437.51,2193.76,2437.51z"/>
			</g>
			<g>
				<path class="st2" d="M1329.06,1777.55c0,0,29.65,25.59,34.41,107.07c2.91,49.88,2.31,196.46-39.63,204.85
					c-36.22,7.25-93.7-26.97-114.31-95.9C1184.65,1910.38,1210.6,1782.72,1329.06,1777.55z"/>
			</g>
			<g>
				<path class="st4" d="M1313.73,2107.03c-44.51,0-99.57-40.07-120.09-108.7c-15.3-51.15-13.91-126.41,23.68-179.25
					c25.58-35.96,63.97-56.05,111.03-58.1l6.58-0.29l4.98,4.3c3.58,3.09,35.11,32.66,40.13,118.66
					c2.04,34.91,9.07,209.69-52.94,222.08C1322.79,2106.6,1318.31,2107.03,1313.73,2107.03z M1321.89,1794.68
					c-33.2,3.28-59.26,17.93-77.54,43.63c-31.09,43.71-31.91,107.09-18.92,150.52c18.08,60.46,67.6,89.87,95.16,84.38
					c4.3-0.86,16.89-15.56,23.41-72.49c5.04-44.01,4.2-93.08,2.92-115.13C1343.76,1831.52,1329.03,1804.7,1321.89,1794.68z"/>
			</g>
			<g>
				<path class="st4" d="M1862.57,2818.07c-5.75,0-11.35-3-14.41-8.34c-55.79-97.39-131.32-156.31-224.49-175.15
					c-69.94-14.16-124.41,0.74-124.95,0.89c-8.81,2.47-17.97-2.66-20.46-11.46c-2.49-8.8,2.61-17.95,11.4-20.46
					c2.48-0.71,61.49-17.08,138.95-1.82c71.29,14.05,172.25,58.67,248.35,191.5c4.55,7.95,1.8,18.09-6.15,22.64
					C1868.2,2817.36,1865.36,2818.07,1862.57,2818.07z"/>
			</g>
			<g>
				<path class="st4" d="M2298.27,2426.53c-2.41,0-4.86-0.53-7.18-1.65c-8.25-3.97-11.73-13.89-7.75-22.14
					c112.33-233.37-16.46-347.8-21.99-352.55c-6.93-5.95-7.76-16.41-1.84-23.36c5.93-6.96,16.35-7.82,23.32-1.92
					c1.63,1.38,40.21,34.57,62.96,100.09c20.65,59.51,31.77,158.5-32.55,292.13C2310.38,2423.06,2304.45,2426.53,2298.27,2426.53z"
					/>
			</g>
			<g>
				<path class="st0" d="M1891.62,2781.23c0,0,193.94-269.32,562.8-248.83c0,0,52.21,73.19-201.26,200.53
					S1891.62,2781.23,1891.62,2781.23z"/>
			</g>
			<g class="st8">
				<path class="st2" d="M2458.62,2546c-240.33,16.63-454.66,160.66-556.84,240.99c-6.84-3.32-10.16-5.76-10.16-5.76
					s193.96-269.32,562.82-248.83C2454.43,2532.4,2457.75,2537.04,2458.62,2546z"/>
			</g>
			<g>
				<path class="st4" d="M1884.89,2776.38c15.44-23.09,33.08-43.37,51.88-63.06c18.84-19.53,38.99-37.82,60.28-54.73
					c42.39-34.07,89.35-62.63,139.13-84.98c49.71-22.58,102.62-38.01,156.4-46.75c53.89-8.07,108.69-9.36,162.3-2.75
					c4.56,0.56,7.8,4.71,7.23,9.27c-0.51,4.16-4.02,7.22-8.09,7.3h-0.06c-52.79,0.99-104.98,5.84-156.06,15.96
					c-50.99,10.48-100.77,26.06-148.31,47.05c-23.76,10.5-46.89,22.41-69.52,35.26l-16.76,10.02c-5.55,3.39-10.98,7-16.47,10.5
					c-10.92,7.1-21.73,14.4-32.26,22.1c-21.04,15.42-41.61,31.61-61.02,49.15c-19.41,17.38-38.42,35.99-55.19,55.35l-0.3,0.35
					c-3,3.46-8.24,3.84-11.7,0.84C1883.16,2784.49,1882.59,2779.81,1884.89,2776.38z"/>
			</g>
		</g>
		<g>
			<g>
				<g>
					<path class="st9" d="M1287.81,1371.79c-2.53,0-5.07-0.62-7.4-1.91l-104.69-58.02c-5.83-3.23-12.4-4.94-19-4.94
						c-3.64,0-7.25,0.52-10.73,1.54c-19.86,5.81-40.49,9.09-61.31,9.73c-2.54,0.08-5.08,0.12-7.61,0.12
						c-130.18,0-240.14-105.78-245.11-235.81c-2.57-67.15,21.62-130.82,68.11-179.27c46.49-48.45,109.11-75.25,176.32-75.46l0.77,0
						c133.22,0,243.19,108.44,245.13,241.73c0.88,60.04-20.25,118.15-59.49,163.63c-11.48,13.3-12.95,32.41-3.65,47.55l41.68,67.86
						c3.63,5.92,2.82,13.54-1.98,18.55C1295.9,1370.17,1291.88,1371.79,1287.81,1371.79z"/>
				</g>
				<g>
					<g>
						<path class="st4" d="M1077.15,843.04c124.99-0.01,228.03,101.62,229.86,226.67c0.85,58.51-20.28,112.28-55.79,153.43
							c-15.83,18.34-17.78,44.88-5.1,65.52l41.68,67.86l-104.69-58.02c-8.15-4.52-17.25-6.85-26.41-6.85
							c-5.04,0-10.1,0.71-15.02,2.15c-18.3,5.36-37.57,8.51-57.5,9.13c-2.39,0.07-4.77,0.11-7.13,0.11
							c-122.5,0-225.13-97.91-229.85-221.12c-4.98-130.17,98.85-238.46,229.21-238.87C1076.67,843.04,1076.92,843.04,1077.15,843.04
							 M1077.16,812.49v30.55V812.49h-0.83c-71.4,0.22-137.92,28.69-187.3,80.16c-49.38,51.47-75.08,119.1-72.35,190.43
							c2.58,67.44,31.04,130.53,80.13,177.64c48.97,46.99,112.98,72.86,180.24,72.86c2.68,0,5.38-0.04,8.08-0.12
							c22.11-0.69,44.03-4.17,65.13-10.34c2.08-0.61,4.25-0.92,6.44-0.92c4.02,0,8.03,1.04,11.6,3.02l104.69,58.02
							c4.65,2.58,9.74,3.83,14.8,3.83c8.14,0,16.17-3.25,22.09-9.44c9.59-10.03,11.22-25.27,3.95-37.1l-41.68-67.86
							c-5.8-9.45-4.92-21.33,2.19-29.58c41.69-48.31,64.14-110.04,63.2-173.83C1335.49,927.68,1218.68,812.49,1077.16,812.49
							L1077.16,812.49z"/>
					</g>
				</g>
			</g>
			<g class="st10">
				<path class="st11" d="M847.16,1067.47c0.06-2.53,0.16-5.04,0.3-7.55c0.07-1.28,0.15-2.57,0.24-3.85
					c0.18-2.54,0.42-5.06,0.69-7.58c0.12-1.09,0.2-2.19,0.34-3.27c0.4-3.34,0.88-6.67,1.43-9.97c0.24-1.44,0.52-2.86,0.79-4.29
					c0.36-1.96,0.74-3.91,1.15-5.85c0.36-1.71,0.75-3.41,1.15-5.11c0.37-1.58,0.77-3.16,1.18-4.73c0.48-1.84,0.95-3.69,1.47-5.52
					c0.31-1.1,0.66-2.18,0.99-3.26c1.29-4.25,2.68-8.46,4.21-12.6c0.22-0.59,0.42-1.18,0.64-1.77c0.87-2.3,1.78-4.57,2.72-6.83
					c0.28-0.68,0.57-1.37,0.86-2.05c1.01-2.36,2.04-4.71,3.12-7.03c0.08-0.18,0.17-0.36,0.26-0.54
					c4.94-10.53,10.64-20.63,17.05-30.23c-10.66,28.03-16.02,58.63-14.8,90.56c4.1,107.31,82.51,195.37,183.6,216.32
					c107.16,21.23,168.78-0.11,205.71-38.2c0.18-0.22,14.52-36.68,14.7-36.9c6.16-7.14,11.85-14.68,17.11-22.53
					c0,0,0,0.01-0.01,0.01c-0.81,2.13-1.67,4.24-2.55,6.35c0.02-0.02,0.03-0.04,0.05-0.06c-9.45,22.76-22.43,43.71-38.32,62.12
					c-15.82,18.34-17.78,44.88-5.1,65.52l41.69,67.86l-104.7-58.02c-12.64-7-27.56-8.76-41.43-4.7c-18.3,5.36-37.57,8.51-57.5,9.12
					c-3.61,0.11-7.21,0.12-10.78,0.06c-3.33-0.05-6.63-0.21-9.92-0.4c-0.5-0.03-1-0.04-1.49-0.07c-3.02-0.2-6.02-0.49-9.01-0.81
					c-0.76-0.08-1.52-0.13-2.27-0.22c-2.81-0.33-5.6-0.74-8.38-1.17c-0.92-0.14-1.84-0.25-2.75-0.41c-2.65-0.44-5.28-0.97-7.9-1.5
					c-1.02-0.21-2.05-0.39-3.07-0.61c-2.52-0.55-5.02-1.17-7.51-1.8c-1.09-0.28-2.2-0.53-3.29-0.83c-2.41-0.65-4.79-1.37-7.17-2.09
					c-1.14-0.35-2.3-0.68-3.43-1.05c-2.3-0.74-4.58-1.55-6.86-2.36c-1.18-0.42-2.37-0.83-3.54-1.27c-2.21-0.83-4.39-1.72-6.56-2.61
					c-1.21-0.5-2.42-0.98-3.62-1.5c-2.11-0.91-4.19-1.87-6.27-2.85c-1.23-0.57-2.46-1.14-3.68-1.74c-2.02-0.99-4.01-2.02-6-3.07
					c-1.23-0.65-2.47-1.3-3.69-1.97c-1.93-1.06-3.84-2.16-5.74-3.28c-1.24-0.73-2.47-1.45-3.7-2.2c-1.84-1.13-3.66-2.29-5.46-3.47
					c-1.24-0.81-2.47-1.62-3.69-2.44c-1.75-1.19-3.48-2.41-5.2-3.65c-1.23-0.88-2.45-1.77-3.65-2.68c-1.67-1.25-3.31-2.52-4.94-3.82
					c-1.21-0.96-2.42-1.93-3.61-2.92c-1.58-1.3-3.14-2.62-4.68-3.97c-1.19-1.04-2.37-2.09-3.54-3.15c-1.49-1.35-2.97-2.73-4.43-4.12
					c-1.17-1.11-2.32-2.24-3.46-3.38c-1.41-1.4-2.8-2.81-4.17-4.25c-1.14-1.19-2.25-2.4-3.36-3.61c-1.32-1.44-2.63-2.9-3.92-4.38
					c-1.1-1.26-2.17-2.55-3.25-3.84c-1.23-1.48-2.46-2.97-3.66-4.48c-1.06-1.34-2.1-2.71-3.13-4.07c-1.15-1.52-2.29-3.04-3.4-4.58
					c-1.02-1.42-2-2.85-2.98-4.29c-1.06-1.55-2.11-3.09-3.14-4.67c-0.97-1.49-1.9-3.01-2.83-4.52c-0.97-1.57-1.94-3.15-2.88-4.74
					c-0.91-1.57-1.79-3.16-2.66-4.75c-0.88-1.59-1.77-3.19-2.61-4.8c-0.86-1.64-1.66-3.31-2.48-4.97c-0.79-1.62-1.6-3.22-2.35-4.86
					c-0.79-1.71-1.53-3.45-2.28-5.18c-0.71-1.63-1.43-3.26-2.1-4.91c-0.72-1.78-1.39-3.59-2.06-5.4c-0.62-1.65-1.26-3.28-1.84-4.94
					c-0.65-1.86-1.23-3.74-1.84-5.62c-0.53-1.65-1.08-3.29-1.57-4.95c-0.57-1.94-1.08-3.92-1.6-5.88c-0.44-1.63-0.9-3.26-1.3-4.91
					c-0.5-2.05-0.92-4.13-1.36-6.2c-0.34-1.6-0.72-3.18-1.03-4.79c-0.42-2.19-0.75-4.41-1.11-6.62c-0.24-1.52-0.53-3.03-0.75-4.57
					c-0.35-2.48-0.6-5-0.86-7.51c-0.14-1.29-0.32-2.56-0.44-3.85c-0.34-3.82-0.59-7.66-0.74-11.53c-0.14-3.68-0.17-7.34-0.14-10.99
					C847.09,1069.77,847.13,1068.62,847.16,1067.47z"/>
			</g>
			<g class="st1">
				<g>
					<path class="st2" d="M967.16,1008.57c24.66-25.79,66.81-26.03,96.03-1.35c12.59-11.64,28.42-18.81,45.06-20.32
						c19.27-1.74,37.38,4.42,50.94,17.38c28.09,26.86,29.09,71.56,2.24,99.64l-75.78,79.25c-4.83,5.05-11.34,7.92-18.33,8.08
						c-6.99,0.16-13.62-2.42-18.67-7.25l-79.25-75.78C941.31,1081.36,940.31,1036.66,967.16,1008.57z"/>
				</g>
			</g>
			<g class="st1">
				<g>
					<path class="st2" d="M1295.02,1086.47c-1.83-125.29-105.28-227.06-230.58-226.67c-73.29,0.23-138.19,34.56-180.08,87.7
						c40.84-62.56,111.35-104.21,192.08-104.46c125.3-0.39,228.75,101.38,230.58,226.67c0.8,54.69-17.62,105.23-49.02,145.2
						C1282.01,1177.97,1295.71,1133.78,1295.02,1086.47z"/>
				</g>
			</g>
			<g>
				<path class="st2" d="M1164.16,999.08L1164.16,999.08c-24.02-22.97-62.01-17.9-84.98,6.11l-3.57,3.74l-3.74-3.57
					c-24.02-22.97-62.2-26.32-85.16-2.3l0,0c-22.97,24.02-22.11,62.11,1.9,85.07l3.74,3.57l75.51,72.2
					c6.33,6.05,16.37,5.83,22.43-0.5l72.2-75.51l3.57-3.74C1189.03,1060.13,1188.17,1022.04,1164.16,999.08z"/>
				<path class="st4" d="M1078.81,1178.98c-6.6,0-13.21-2.44-18.35-7.35l-79.25-75.78c-13.68-13.08-21.45-30.71-21.87-49.63
					c-0.42-18.92,6.55-36.88,19.63-50.56c13.04-13.64,30.92-20.6,50.41-19.76c16.67,0.77,32.77,7.17,45.89,18.16
					c12.61-11.56,28.42-18.68,45.03-20.2c19.42-1.76,37.6,4.44,51.24,17.48c13.68,13.08,21.45,30.71,21.87,49.63
					c0.42,18.92-6.55,36.88-19.63,50.56l-75.78,79.25C1092.8,1176.23,1085.81,1178.98,1078.81,1178.98z M1026.13,997.22
					c-12.31,0-23.5,4.65-31.7,13.23c-9.13,9.55-14,22.09-13.71,35.3c0.3,13.21,5.72,25.52,15.27,34.65l79.25,75.78
					c2.06,1.97,5.34,1.9,7.31-0.16l75.78-79.25c9.13-9.55,14-22.09,13.71-35.3c-0.3-13.21-5.72-25.52-15.27-34.65
					c-9.1-8.7-21.36-12.84-34.52-11.64c-13,1.18-25.88,7.53-35.33,17.42l-3.57,3.74c-4.08,4.26-10.84,4.43-15.11,0.34l-3.74-3.57
					c-9.89-9.46-23.04-15.22-36.08-15.82C1027.64,997.23,1026.88,997.22,1026.13,997.22z"/>
			</g>
		</g>
	</g>
</g>
</svg>
