<?xml version="1.0" encoding="utf-8"?>
<!-- Generator: Adobe Illustrator 27.1.0, SVG Export Plug-In . SVG Version: 6.00 Build 0)  -->
<svg version="1.1" id="Layer_1" xmlns="http://www.w3.org/2000/svg" xmlns:xlink="http://www.w3.org/1999/xlink" x="0px" y="0px"
	 viewBox="0 0 4000 4000" style="enable-background:new 0 0 4000 4000;" xml:space="preserve">
<style type="text/css">
	.st0{opacity:0.2;}
	.st1{fill:#371A45;}
	.st2{fill:#FFFFFF;}
	.st3{opacity:0.3;}
	.st4{fill:#9DA9B9;}
	.st5{opacity:0.6;}
	.st6{fill:#00AAFF;}
	.st7{opacity:0.7;}
	.st8{fill:#220F2D;}
	.st9{opacity:0.4;}
</style>
<g>
	<g>
		<g>
			<g>
				<g class="st0">
					<g>
						<ellipse class="st1" cx="1839.81" cy="3419.53" rx="874.92" ry="88.5"/>
					</g>
				</g>
				<g>
					<g>
						<g>
							<path class="st2" d="M1767.58,1844.8l-89.31,424.45c-9.6,9.63-19.27,18.74-29.07,27.36
								c-137.39,121.13-293.4,145.62-412.79,71.51l103.87-228.63l17.64-38.81C1519.96,1966.03,1638.11,1814.85,1767.58,1844.8z"/>
						</g>
						<g>
							<path class="st1" d="M1384.49,2429.52c-55.61,0-109.35-14.83-158.18-45.16c-8.16-5.06-11.29-15.41-7.32-24.15l121.51-267.43
								c1.2-2.63,2.97-4.95,5.19-6.8c36.61-30.41,70.85-61.6,103.97-91.75c114.02-103.81,212.52-193.46,322.23-168.06
								c10.14,2.35,16.54,12.38,14.4,22.56l-89.31,424.45c-0.76,3.62-2.56,6.94-5.17,9.56
								C1595.66,2379.22,1486.9,2429.52,1384.49,2429.52z M1260.97,2360.26c119.56,64.23,270.76,26.59,399.78-100.53l83.99-399.2
								c-83.74-7-166.47,68.34-269.33,161.98c-32.42,29.52-65.91,60.01-101.9,90.07L1260.97,2360.26z M1678.28,2269.26h0.05H1678.28
								z"/>
						</g>
						<g class="st3">
							<g>
								<path class="st1" d="M1683.11,2171.47c-9.35,34.07-19.99,67.82-31.83,101.17c-133.7,111.15-285.8,133.33-402.41,64.84
									l100.76-210.18c9.96,6.06,20.72,10.84,32.01,14.14c26.96,7.89,55.77,7.41,83.85,5.45c20.92-1.44,42.16-3.74,61.26-11.81
									c20.67-8.71,37.6-23.57,54.09-38.18c30.17-26.66,60.29-53.37,90.46-80.08l-13.05,7.32c11.54-9.15,23.09-18.29,34.64-27.44
									C1710.76,2053.43,1698.77,2114.33,1683.11,2171.47z"/>
							</g>
						</g>
					</g>
					<g>
						<g>
							<path class="st2" d="M2399.63,1917.42l52.62,430.55c8.74,10.42,17.6,20.32,26.62,29.75
								c126.51,132.45,279.85,170.23,405.15,106.61l-83.9-236.69l-14.25-40.18C2635.96,2059.42,2531.19,1898.67,2399.63,1917.42z"/>
						</g>
						<g>
							<path class="st1" d="M2757.54,2533.94c-110.31,0-224.85-60.34-319.94-173.69c-2.38-2.84-3.88-6.3-4.33-9.97l-52.61-430.54
								c-1.26-10.33,5.98-19.78,16.28-21.25c111.47-15.9,201.93,81.85,306.64,195.04c30.42,32.88,61.87,66.88,95.73,100.33
								c2.06,2.03,3.62,4.49,4.59,7.22l98.15,276.86c3.21,9.05-0.8,19.08-9.37,23.43
								C2849.57,2523.26,2803.92,2533.94,2757.54,2533.94z M2470.53,2339.97c117.65,137.72,265.08,188.16,389.69,134.42
								l-90.9-256.41c-33.28-33.04-64.04-66.29-93.81-98.48c-94.45-102.1-170.42-184.23-254.45-184.46L2470.53,2339.97z"/>
						</g>
						<g class="st3">
							<g>
								<path class="st1" d="M2455.8,2250.12c6.39,34.75,14.1,69.29,23.04,103.53c123.69,122.2,273.32,157.33,395.37,99.08
									l-82.38-218.04c-10.44,5.19-21.57,9.02-33.1,11.35c-27.54,5.55-56.2,2.61-84.01-1.76c-20.72-3.22-41.68-7.34-60.03-17.02
									c-19.85-10.45-35.44-26.7-50.62-42.68c-27.77-29.15-55.5-58.34-83.27-87.53l12.38,8.41c-10.72-10.1-21.44-20.2-32.16-30.31
									C2438.37,2130.15,2445.1,2191.85,2455.8,2250.12z"/>
							</g>
						</g>
					</g>
				</g>
				<g>
					<g>
						<path class="st2" d="M2563.91,3004.48c-4.83,32.37-16.6,63.4-34.24,91.01c-45.6,71.39-93.47,126.74-159.13,195.16
							c20.58,47.67,21.89,84.09,10.05,110.23c-54.73,121.56-392.96,19.54-390.35-211.66c0.45-39.45,13.95-77.62,37.65-109.14
							l96.46-128.48c-6.22-6.68-12.19-13.58-17.91-20.72c-20.67-25.57-38.21-53.93-52.91-84.8l-57.2-4.85
							c-0.21,0.37-0.46,0.75-0.72,1.12c-42.49,70.47-89.38,136.2-141.93,195.76c-27.55,31.16-46.17,69.21-54.34,110.05
							c-55.68,174.82-208.32,245.49-326.75,240.4c-96.42-4.14-170.2-58.45-150.68-147.65c8.04-36.92,32.08-79.76,77.04-127.49
							c66-154.33,98.62-295.74,151.48-476.28c7.28-24.71,11.96-50.1,14.16-75.8c23.5-274.52,48.35-455.49,111.36-551.3l29.08-241.79
							l764.16,111.07l4.7,229.27C2529.4,2444.05,2599.24,2767.64,2563.91,3004.48z"/>
					</g>
					<g>
						<path class="st1" d="M1680.43,2012.96c-11.08,20.03-20.24,42.57-27.83,64.24c-21.98,67.23-33.99,136.96-44.01,207.12
							c-12.86,94.01-20.52,188.57-27.91,283.95c-2.21,24.75-6.67,49.35-13.55,73.3c-46.66,159.09-84.37,334.08-154.26,484.98
							c-31.67,34.13-60.97,72.25-72.13,117.76c-17.71,74.7,46.8,116.42,113.65,123.56c117.47,13.54,237.59-52.19,295.38-154.47
							c13.03-22.32,23.24-46.35,31.36-71.02c-1.03,4.02-0.25,0.94-0.46,1.75c0.05-0.16,0.15-0.74,0.2-0.93l0.27-1.24
							c8.93-42.97,29.1-83.54,58.14-116.47c0,0,12.07-13.92,12.07-13.92c48.03-56.17,90.4-116.84,128.6-180.2
							c3.88-6.44,10.98-9.77,18-9.19l57.2,4.85c7,0.59,12.82,4.93,15.65,10.84c17.5,36.85,40,71.11,67.56,100.69
							c6.41,6.88,6.75,17.24,1.29,24.5c-23.84,32.49-82.64,108.51-104.73,140.57c-39.51,61.14-30.3,143.33,8.84,202.54
							c52.23,82.63,188.64,152,284.1,118.53c55.05-20.89,44.92-81.8,25.2-126.31c-3.23-7.27-1.49-15.56,3.7-20.95
							c54.07-55.97,105.33-113.19,148.11-177.81c13.37-19.94,26.42-41.82,33.44-64.9c7.44-20.19,10.13-51.83,12.97-73.28
							c7.52-76.54,5.8-155.1,0.14-231.8c-14.33-208.41-59.7-412.58-82.76-620.16c-0.32-2.93,1.8-5.57,4.73-5.89
							c2.73-0.3,5.21,1.53,5.79,4.15c33.98,153.22,62.02,307.62,85.36,462.89c15.1,104.27,27.12,208.9,25.67,314.62
							c0.04,26.49-1.83,53.05-3.77,79.6c-2.74,24.48-5.53,57.59-13.54,80.88c-8.09,26.65-21.5,51.5-37.13,74.38
							c-43.48,66.5-96.9,126.88-151.4,183.8c-0.01,0.1,3.75-21.42,3.82-20.64c45.78,101.85,8.02,187.73-110.85,188.32
							c-83.88-1.17-165.04-38.29-225.43-95.92c-61.42-58.47-95.48-148.88-74.76-232.79c6.57-26.34,18.43-51.16,34.5-72.93
							c5.59-7.5,20.8-27.76,26.62-35.51l70.82-94.33l1.29,24.5c-30.45-32.68-55.13-70.38-74.09-110.31l15.65,10.84l-57.2-4.85
							l17.99-9.19c-42.37,70.38-90.3,137.99-144.77,199.7c-24.92,28.26-42.1,63.16-49.61,100.08
							c-23.65,78.9-73.59,150.73-142.34,196.87c-65.63,44.52-146.88,67.32-226.24,58.08c-112.86-12.74-184.9-97.35-132.89-209
							c16.61-35.92,41.49-68.16,68.19-96.51l-3.66,5.59c18.38-43.39,35.05-87.52,50.29-132.25c15.29-44.72,28.91-90.12,42.42-135.69
							c13.14-45.33,46.82-162.27,59.91-206.05c6.46-21.82,11.05-44.23,13.55-66.93c9.24-94.57,18.88-190.03,33.78-284.72
							c13.71-82.55,29.46-168.2,70.41-242.41c5.76-10.3,12.73-21.23,19.75-30.75c1.67-2.42,4.99-3.03,7.41-1.36
							C1681.32,2007.42,1681.86,2010.53,1680.43,2012.96L1680.43,2012.96z"/>
					</g>
					<g>
						<path class="st1" d="M1774.98,2732.46c86.17,44.04,172.36,81.66,268.84,87.14c95.68,5.84,186.96-24.29,275.33-62.56
							c2.25-1.25,5.27-0.41,6.27,2.05c0.82,1.93,0.14,4.11-1.52,5.26c-10.2,7.1-20.49,14.15-30.91,21.04
							c-31.49,19.98-66.08,36.95-101.34,49.34c-26.45,9.61-55.1,15.92-83.02,19.62c-5.88,0.56-22.34,2.16-28.47,2.74
							c-12.7,0.4-25.44,0.41-38.17,0.41c-63.19-3.56-125.75-21.79-181.15-52.27c-33.11-17.57-64.08-39.67-92.86-63.52
							C1762.53,2737.04,1768.67,2728.44,1774.98,2732.46L1774.98,2732.46z"/>
					</g>
					<g>
						<path class="st1" d="M1415.39,3103.62c35.53,63.93,120.42,79.44,188.04,63.39c3.56-0.88,7.16,1.32,7.99,4.89
							c0.77,3.29-1.12,6.6-4.23,7.7c-75.51,27.53-176.22,15-224.7-56.48C1368.51,3100.41,1402.14,3080.41,1415.39,3103.62
							L1415.39,3103.62z"/>
					</g>
					<g>
						<path class="st1" d="M2376.82,3308.73c-61.45,16.22-128.25-10.46-162.15-61.76c-3.57-5.36,4.03-11.35,8.37-6.56
							c34.94,38.4,95.06,53.18,141.21,32.2C2390.01,3262.28,2403.49,3300.78,2376.82,3308.73L2376.82,3308.73z"/>
					</g>
					<g>
						<path class="st1" d="M2443.27,3225.58c-0.64,0-1.3-0.04-1.95-0.13c-143.64-19.55-277.37-111.87-348.99-240.95
							c-3.84-6.92-1.34-15.65,5.58-19.5c6.93-3.83,15.65-1.34,19.5,5.58c67.32,121.33,192.92,208.1,327.78,226.45
							c7.85,1.07,13.34,8.3,12.28,16.14C2456.48,3220.36,2450.33,3225.58,2443.27,3225.58z"/>
					</g>
					<g>
						<path class="st1" d="M2089.61,2873.3c26.89,33.83,50.56,70.49,80.62,101.61c11.97,12.1,24.62,23.51,38.46,33.51
							c0,0,10.63,7.42,10.63,7.42c5.01,4,18.4,7.71,13.62,16.02c-1.57,2.42-4.55,3.37-7.16,2.5c-17.44-5.8-34.27-13.85-50-23.69
							c-46.81-29.24-83.32-73.34-117.29-115.16c-6.64-8.18-5.39-20.19,2.79-26.83C2070.21,2861.36,2083.26,2863.89,2089.61,2873.3
							L2089.61,2873.3z"/>
					</g>
					<g>
						<path class="st1" d="M1800.28,3090.33c-130.27,0-254.4-55.06-344.07-153.54c-5.33-5.85-4.91-14.93,0.95-20.25
							c5.86-5.34,14.92-4.92,20.25,0.95c90.09,98.94,217.14,151.2,348.65,143.4c7.74-0.44,14.69,5.56,15.17,13.47
							c0.47,7.91-5.56,14.69-13.47,15.17C1818.58,3090.06,1809.41,3090.33,1800.28,3090.33z"/>
					</g>
					<g class="st3">
						<g>
							<path class="st1" d="M2311.09,3415.98c-57.58,2.12-115.36-21.5-157.53-64.32c-14.09-14.29-26.68-30.95-33.82-50.54
								c-13.04-35.63-6.61-77.21,9.09-111.8c15.71-34.59,39.8-63.55,63.61-92c22.4-26.84,44.79-53.62,67.23-80.46
								c5.26-6.28,10.65-12.8,13.38-20.81c3.92-11.46,1.81-24.08,0.56-36.19c-7.34-69.5,15.22-142.4,59.66-192.88l-4.73,0.22
								c11.8-11.14,24.46-25.54,36.49-44.11c-50.85,21.8-133.26,49.72-237.96,53.77c-106.34,4.11-185.62-18.35-224.17-29.61
								c-48.44-14.16-75.04-27.58-85.9-33.33c-54.35-28.77-91.38-64.77-113.76-90.23c0.57,15.47,3.49,39.39,16.18,64.51
								c0.93,1.84,1.9,3.65,2.91,5.44c5.19,9.19,9.94,18.64,13.47,28.59c4.55,12.84,8.31,25.9,10.36,39.35
								c1.48,9.73,2.04,19.56,2.38,29.4c-1.58,46.24-7.14,84.44-12.65,112.9c-7.94,40.88-36.58,102.81-81.82,229.91
								c-29.6,83.16-40.46,101.41-63.02,123.7c-56.69,56.03-128.76,60.04-143.45,60.54c-29.17,0.99-67.67,2.29-96.18-25.66
								c-25.95-25.44-28.44-60.23-28.75-72.33c-3.63,17.2-6.05,44.04,5.84,70.71c20.12,45.14,72.44,71.52,134.99,74.21
								c110.91,4.76,254.01-65.05,306.51-237.11c7.73-40.19,25.24-77.65,51.11-108.35c48.67-57.89,92.17-121.7,131.68-190.04
								c22.4,5.69,46.4,10.11,71.6,12.37c47.3,4.25,89.37,0.07,96.31-0.65c2.44-0.25,9.3-0.99,19.26-2.45
								c-11.6,2.35-23.25,4.38-34.94,6.01c-4.23,0.58-9.23,1.8-10.67,6.24c-1.1,3.3,0.44,6.86,2,9.89
								c11.82,23.62,25.38,46.16,40.55,67.33c-0.97,1.3-1.97,2.55-2.94,3.84c5.16,7.11,10.54,13.99,16.15,20.64l-87.95,128.85
								c-21.6,31.61-34,69.83-34.56,109.27c-3.29,231.18,302.88,331.82,352.98,210.06
								C2358.31,3409.92,2334.8,3415.09,2311.09,3415.98z"/>
						</g>
					</g>
					<g class="st3">
						<g>
							<path class="st1" d="M1577.24,2422.13c15.59,4.42,31.88,5.71,48.04,6.98c35.64,2.8,71.29,5.59,106.93,8.39
								c11.22,0.88,22.46,1.76,33.71,1.57c12.96-0.22,25.89-1.88,38.49-4.93c2.24-0.54,4.62-1.22,6.08-3
								c1.43-1.73,1.67-4.12,1.85-6.35c1.81-22.06,3.62-44.13,5.43-66.19c-37.39-0.77-74.81-1.55-112.07-4.7
								c-39.17-3.31-78.12-9.25-116.51-17.76c-2.85,15.02-5.7,30.03-8.56,45.05c-2.67,14.07-5.25,29.15,0.46,42.29"/>
						</g>
					</g>
					<g class="st3">
						<g>
							<path class="st1" d="M2388.55,2462.38c58.86,4,151.05,10.26,151.05,10.26l0,0c0,0-0.7-13.04-0.75-13.94
								c-0.39-7.28-1.75-24.6-5.61-66.04c-40.93-6.25-81.86-12.5-122.78-18.74c-1.26-0.19-5.56-1.54-9.09,0.59
								c-4.56,2.75-5.16,9.48-5.41,12.13C2394.87,2398.57,2392.03,2425.85,2388.55,2462.38z"/>
						</g>
					</g>
				</g>
				<g>
					<g>
						<g>
							<g>
								<path class="st4" d="M1081.9,1715.84l-36.33,135.99l-63.53,237.78l-114.28-18.87c-26.07-4.29-48.91-20.52-60.53-44.2
									c-47.28-96.59-6.71-252.51,56.53-314.33c17.2-16.76,40.78-24.96,64.44-22.92c2.5,0.16,5.04,0.52,7.58,0.94L1081.9,1715.84z"
									/>
							</g>
							<g class="st5">
								<path class="st2" d="M935.78,1690.22c-2.54-0.42-5.08-0.78-7.58-0.94c-23.66-2.04-47.24,6.16-64.44,22.92
									c-26.14,25.55-48.38,67.19-62.17,114.06c13.33-32.85,30.81-61.21,50.49-80.45c17.2-16.76,40.78-24.96,64.44-22.92
									c2.5,0.16,5.04,0.52,7.58,0.94l146.12,25.61l-36.33,135.99l-54.43,203.74l2.58,0.43l63.53-237.78l36.33-135.99
									L935.78,1690.22z"/>
							</g>
							<g class="st3">
								<g>
									<path class="st1" d="M1045.57,1851.83l-63.53,237.78l-114.28-18.87c-16.12-6.39-41.2-19.07-60.53-44.2
										c-45.94-59.69-22.46-141.46-8.47-190.17c9.84-34.27,25.46-85.99,73.85-122.98c16.07-12.28,31.52-19.71,42.77-24.2
										c-12.95,8.78-34.93,26.51-49.26,56.33c0,0-15.69,32.65-11.29,64.33c1.32,9.5,4.8,14.83,6.37,16.97
										c3.72,5.08,8.37,8.62,13.35,10.81c22.05,9.7,45.92,15.17,70.04,15.95C978.23,1852.98,1011.92,1852.43,1045.57,1851.83z"/>
								</g>
							</g>
							<g>
								<path class="st1" d="M982.06,2106.33c-0.9,0-1.82-0.07-2.73-0.22l-114.29-18.84c-31.8-5.24-59.01-25.2-72.81-53.39
									c-50.47-103.08-8.53-266.81,59.85-333.64c22.63-22.12,54.98-32.02,86.58-26.48l146.14,25.63c4.62,0.81,8.69,3.52,11.21,7.48
									c2.52,3.95,3.27,8.79,2.06,13.32l-99.87,373.73C996.22,2101.33,989.51,2106.33,982.06,2106.33z M921.3,1705.7
									c-17.09,0-33.62,6.54-45.83,18.46c-60.17,58.8-96.53,206.48-53.19,295c9.05,18.49,27.07,31.6,48.2,35.08l99.32,16.38
									l91.24-341.43l-128.15-22.48C929.02,1706.03,925.15,1705.7,921.3,1705.7z"/>
							</g>
							<g>
								
									<ellipse transform="matrix(0.2582 -0.9661 0.9661 0.2582 -1072.6632 2408.5259)" class="st4" cx="1031.98" cy="1902.73" rx="193.42" ry="91.09"/>
							</g>
							<g class="st5">
								<path class="st2" d="M1081.91,1715.86c-46.51-12.43-105.05,54.05-134.17,150.25c31.38-76.44,81.03-125.52,121.56-114.69
									c48.6,12.99,65.64,107.18,38.06,210.38c-1.18,4.43-2.45,8.78-3.76,13.1c6.25-15.23,11.79-31.52,16.37-48.66
									C1147.55,1823.04,1130.51,1728.85,1081.91,1715.86z"/>
							</g>
							<g class="st3">
								<path class="st1" d="M1119.19,1752.62c13,32.65,13.66,84.2-0.94,138.85c-22.67,84.85-73.5,144.96-113.54,134.26
									c-40.03-10.7-54.1-88.15-31.43-173c22.67-84.85,73.5-144.96,113.54-134.26c2.94,0.79,5.72,1.97,8.37,3.45
									c-4.12-2.74-8.54-4.79-13.27-6.06c-48.6-12.99-110.35,60.15-137.93,163.35c-27.58,103.2-10.53,197.39,38.06,210.38
									c48.6,12.99,110.35-60.15,137.93-163.35C1138.47,1857.05,1136.87,1791.95,1119.19,1752.62z"/>
							</g>
							<g>
								<path class="st1" d="M993.63,2107.84c-5.38,0-10.69-0.69-15.91-2.08c-58.4-15.61-80.32-117.01-49.9-230.86
									c13.96-52.24,36.85-99.03,64.46-131.72c30.47-36.08,63.85-51.51,93.96-43.47c30.11,8.05,51.33,38.07,59.74,84.54
									c7.62,42.11,4.13,94.07-9.83,146.32c-13.96,52.24-36.85,99.02-64.46,131.72C1046.49,2092.12,1019.31,2107.84,993.63,2107.84
									z M1070.45,1731.11c-15.49,0-34.21,11.87-52.6,33.65c-24.5,29.01-44.99,71.19-57.7,118.77
									c-26.88,100.6-7.76,180.82,26.22,189.9c16.66,4.44,38.43-7.49,59.75-32.73c24.5-29.01,44.99-71.19,57.7-118.77l0,0
									c12.71-47.58,16-94.36,9.23-131.72c-5.88-32.52-18.8-53.73-35.45-58.17C1075.3,1731.41,1072.91,1731.11,1070.45,1731.11z"/>
							</g>
						</g>
						<g>
							<g>
								<path class="st2" d="M1424.21,2228.5c-11.25,80.37-67.33,149.78-141.74,162.27c-148.05-51.8-225.86-185.18-248.36-325.22
									c-5.56-34.35-7.75-69.08-6.86-103.16c1.47-57.68,29.4-112.03,75.8-144.1c98.21-67.79,223.15-33.77,280.6,68.98
									c0.09,0.2,0.22,0.34,0.31,0.54c0.49,0.83,0.93,1.71,1.37,2.59c3.1,5.68,5.96,11.55,8.57,17.59
									C1369.24,2042.33,1375.57,2152.16,1424.21,2228.5z"/>
							</g>
							<g>
								<path class="st1" d="M1282.47,2407.5c-1.88,0-3.75-0.31-5.53-0.94c-203.4-71.18-270.65-284-266.45-444.62
									c1.67-63.79,32.72-122.64,83.05-157.4c53.07-36.67,115.25-47.45,175.07-30.34c62.02,17.73,113.28,64.06,140.63,127.12
									c1.32,3.04,1.71,6.42,1.11,9.68c-25.04,136.32-15.64,240.11,27.94,308.48c2.14,3.36,3.01,7.37,2.46,11.31
									c-12.68,90.65-76.63,163.22-155.52,176.47C1284.32,2407.42,1283.4,2407.5,1282.47,2407.5z M1212.79,1799.78
									c-34.86,0-69.33,10.95-100.22,32.29c-41.57,28.72-67.22,77.6-68.62,130.75c-3.89,148.25,56.74,343.99,239.91,410.68
									c61.08-12.38,110.65-69.51,122.87-141.47c-45.51-75.56-55.4-181.01-30.2-321.95c-23.79-51.51-66.23-89.17-117.1-103.72
									C1243.99,1801.96,1228.35,1799.78,1212.79,1799.78z"/>
							</g>
							<g class="st3">
								<g>
									<path class="st1" d="M1425.14,2206.43c-10.84,81.02-64.03,151.11-134.37,163.91c-139.75-51.8-212.92-186-233.8-327.07
										c0.44-2.78,0.91-5.51,1.44-8.23c8.52,43.71,21.88,87.3,47.21,122.76c25.33,35.42,64.29,61.83,106.18,62.13
										c41.89,0.3,84.73-30.12,93.44-73.86c3.22-16.11,1.9-32.75,1.57-49.21c-1.09-54.58,8.85-109.41,29.05-159.7
										c11.54-28.82,27.32-57.22,51.88-74.49c0.33-0.23,0.7-0.5,1.03-0.73l-0.73,1.27l-3.46,5.88c1.58-1.09,3.17-2.18,4.75-3.27
										c2.92,5.72,5.6,11.62,8.05,17.7C1373.7,2018.97,1379.4,2129.63,1425.14,2206.43z"/>
								</g>
							</g>
						</g>
						<g>
							<g>
								<path class="st4" d="M1626.33,1871.68l-35.88,134.3l-62.74,234.83l-112.86-18.64c-25.74-4.24-48.3-20.27-59.78-43.65
									c-46.69-95.4-6.63-249.38,55.82-310.42c16.98-16.55,40.27-24.65,63.64-22.64c2.47,0.16,4.98,0.52,7.49,0.93L1626.33,1871.68
									z"/>
							</g>
							<g class="st5">
								<path class="st2" d="M1482.03,1846.39c-2.51-0.41-5.02-0.77-7.49-0.93c-23.36-2.01-46.65,6.08-63.64,22.64
									c-25.82,25.23-47.78,66.36-61.4,112.65c13.16-32.44,30.43-60.45,49.87-79.45c16.98-16.55,40.27-24.65,63.64-22.64
									c2.47,0.16,4.98,0.52,7.49,0.93l144.31,25.3l-35.88,134.3l-53.76,201.21l2.55,0.42l62.74-234.83l35.88-134.3
									L1482.03,1846.39z"/>
							</g>
							<g class="st3">
								<g>
									<path class="st1" d="M1590.45,2005.98l-62.74,234.83l-112.86-18.64c-15.92-6.31-40.68-18.84-59.78-43.65
										c-45.37-58.95-22.18-139.7-8.37-187.8c9.72-33.84,25.15-84.92,72.93-121.45c15.87-12.13,31.13-19.46,42.24-23.9
										c-12.79,8.67-34.49,26.18-48.65,55.63c0,0-15.5,32.24-11.15,63.53c1.3,9.38,4.74,14.65,6.29,16.76
										c3.67,5.02,8.27,8.51,13.19,10.67c21.78,9.58,45.35,14.98,69.17,15.75C1523.95,2007.12,1557.22,2006.58,1590.45,2005.98z"
										/>
								</g>
							</g>
							<g>
								<path class="st1" d="M1527.73,2257.53c-0.9,0-1.82-0.07-2.73-0.22l-112.87-18.61c-31.47-5.19-58.41-24.94-72.06-52.83
									c-49.88-101.89-8.42-263.69,59.16-329.74c22.4-21.89,54.44-31.69,85.69-26.21l144.32,25.31c4.62,0.81,8.69,3.52,11.21,7.48
									c2.52,3.95,3.27,8.79,2.06,13.32l-98.63,369.09C1541.89,2252.53,1535.18,2257.53,1527.73,2257.53z M1467.72,1861.88
									c-16.82,0-33.1,6.44-45.11,18.18c-59.38,58.02-95.26,203.74-52.5,291.1c8.91,18.19,26.65,31.1,47.46,34.53l97.9,16.14
									l90-336.79l-126.33-22.16C1475.33,1862.2,1471.51,1861.88,1467.72,1861.88z"/>
							</g>
							<g>
								
									<ellipse transform="matrix(0.2582 -0.9661 0.9661 0.2582 -816.6424 3048.989)" class="st4" cx="1577.03" cy="2056.25" rx="191.02" ry="89.95"/>
							</g>
							<g class="st5">
								<path class="st2" d="M1626.34,1871.71c-45.94-12.27-103.75,53.38-132.5,148.38c30.99-75.49,80.03-123.96,120.05-113.26
									c48,12.83,64.83,105.85,37.59,207.77c-1.17,4.38-2.42,8.68-3.71,12.94c6.17-15.04,11.65-31.13,16.17-48.06
									C1691.17,1977.55,1674.34,1884.53,1626.34,1871.71z"/>
							</g>
							<g class="st3">
								<path class="st1" d="M1663.15,1908.01c12.84,32.25,13.49,83.16-0.93,137.12c-22.39,83.79-72.59,143.16-112.13,132.59
									c-39.53-10.56-53.43-87.06-31.04-170.85c22.39-83.79,72.59-143.16,112.13-132.59c2.9,0.78,5.65,1.95,8.27,3.41
									c-4.07-2.7-8.44-4.73-13.11-5.98c-48-12.83-108.98,59.4-136.22,161.32c-27.23,101.92-10.4,194.94,37.59,207.77
									c48,12.83,108.98-59.4,136.22-161.32C1682.19,2011.14,1680.62,1946.85,1663.15,1908.01z"/>
							</g>
							<g>
								<path class="st1" d="M1539.16,2259.02c-5.33,0-10.6-0.68-15.77-2.07c-29.82-7.97-50.83-37.68-59.15-83.65
									c-7.53-41.62-4.08-92.97,9.71-144.59c30.08-112.55,98.95-188.62,156.7-173.17c57.79,15.44,79.51,115.7,49.44,228.25
									c0,0,0,0,0,0c-13.79,51.62-36.42,97.85-63.71,130.16C1591.47,2243.47,1564.58,2259.02,1539.16,2259.02z M1615.06,1886.98
									c-33.79,0-84.02,57.73-108.78,150.37c-12.55,46.96-15.78,93.12-9.11,129.99c5.8,32.04,18.5,52.92,34.86,57.29
									c16.38,4.37,37.8-7.39,58.8-32.26c24.17-28.62,44.39-70.25,56.94-117.21l0,0c26.51-99.23,7.71-178.35-25.75-187.29
									C1619.8,1887.28,1617.47,1886.98,1615.06,1886.98z M1663.93,2079.48h0.05H1663.93z"/>
							</g>
							<g class="st3">
								
									<ellipse transform="matrix(0.2582 -0.9661 0.9661 0.2582 -812.521 3058.9102)" class="st1" cx="1585.55" cy="2058.53" rx="74.05" ry="31.36"/>
							</g>
							<g>
								<path class="st1" d="M1570.25,2142.53c-2.28,0-4.58-0.3-6.89-0.92c-27.47-7.34-30.68-52.98-19.64-94.27
									c5.51-20.62,14.21-39.26,24.51-52.47c16.82-21.61,31.99-21.44,39.54-19.43c7.54,2.02,20.77,9.45,24.57,36.56
									c2.33,16.59,0.58,37.08-4.94,57.7l0,0C1617.29,2107.51,1595.02,2142.53,1570.25,2142.53z M1601.06,1998.47
									c-2.28,0-7.54,2.81-13.99,11.09c-8.25,10.6-15.64,26.62-20.27,43.96c-10.41,38.97-2.72,63.55,2.72,65.01
									c5.39,1.39,24.36-16,34.78-54.99l0,0c4.63-17.34,6.22-34.92,4.36-48.21c-1.58-11.28-5.18-16.29-7.08-16.79
									C1601.43,1998.49,1601.26,1998.47,1601.06,1998.47z"/>
							</g>
						</g>
					</g>
					<g>
						<g>
							<g>
								<path class="st4" d="M3151.94,1845.49l20.41,139.27l35.68,243.52l115.69-5.57c26.39-1.26,50.95-14.74,65.23-36.93
									c58.11-90.5,35.79-250.06-19.9-318.75c-15.15-18.63-37.63-29.5-61.36-30.2c-2.5-0.13-5.07-0.06-7.64,0.06L3151.94,1845.49z"
									/>
							</g>
							<g class="st5">
								<path class="st2" d="M3300.04,1836.9c2.57-0.12,5.14-0.19,7.64-0.06c23.73,0.7,46.21,11.57,61.36,30.2
									c23.02,28.39,40.31,72.32,48.6,120.47c-9.45-34.17-23.54-64.36-40.88-85.74c-15.15-18.63-37.63-29.5-61.36-30.2
									c-2.5-0.13-5.07-0.06-7.64,0.06l-148.1,8.59l20.41,139.27l30.57,208.66l-2.61,0.13l-35.68-243.52l-20.41-139.27
									L3300.04,1836.9z"/>
							</g>
							<g class="st3">
								<g>
									<path class="st1" d="M3172.35,1984.76l35.68,243.52l115.69-5.57c16.75-4.49,43.12-14.2,65.23-36.93
										c52.51-53.99,38.62-137.93,30.34-187.92c-5.82-35.18-15.38-88.35-59.18-130.68c-14.55-14.06-29.03-23.21-39.69-28.97
										c11.85,10.22,31.64,30.36,42.44,61.64c0,0,11.82,34.24,3.8,65.21c-2.41,9.29-6.48,14.18-8.28,16.12
										c-4.28,4.62-9.31,7.6-14.51,9.2c-23.02,7.09-47.36,9.78-71.41,7.77C3239.11,1993.67,3205.7,1989.24,3172.35,1984.76z"/>
								</g>
							</g>
							<g>
								<path class="st1" d="M3208.02,2245c-8.26,0-15.33-6.05-16.54-14.3l-56.1-382.76c-0.68-4.64,0.62-9.36,3.58-12.99
									c2.96-3.64,7.31-5.86,12-6.14l148.12-8.61c32.11-1.85,63.03,11.71,82.95,36.29c60.22,74.27,83.01,241.73,20.99,338.32
									c-16.95,26.41-46.29,43.09-78.48,44.63l-115.69,5.54C3208.56,2244.99,3208.29,2245,3208.02,2245z M3171.13,1861.16
									l51.25,349.68l100.55-4.81c21.4-1.03,40.81-11.97,51.92-29.29c53.26-82.94,34.17-233.82-18.82-299.17
									c-13.17-16.24-33.83-25.2-55.02-23.96L3171.13,1861.16z"/>
							</g>
							<g>
								
									<ellipse transform="matrix(0.9894 -0.145 0.145 0.9894 -261.7822 482.7126)" class="st4" cx="3179.98" cy="2036.89" rx="91.09" ry="193.42"/>
							</g>
							<g class="st5">
								<path class="st2" d="M3151.93,1845.51c47.64-6.98,98.12,65.8,115.95,164.72c-22.35-79.55-66.02-134.02-107.52-127.94
									c-49.77,7.3-77.56,98.89-62.07,204.59c0.66,4.54,1.42,9.01,2.22,13.45c-4.45-15.85-8.08-32.67-10.65-50.22
									C3074.36,1944.41,3102.16,1852.81,3151.93,1845.51z"/>
							</g>
							<g class="st3">
								<path class="st1" d="M3110.67,1877.73c-16.68,30.94-23.28,82.06-15.08,138.03c12.74,86.9,56.3,152.47,97.3,146.46
									c41-6.01,63.91-81.32,51.17-168.22c-12.74-86.9-56.3-152.47-97.3-146.46c-3.01,0.44-5.91,1.3-8.72,2.46
									c4.41-2.24,9.04-3.78,13.88-4.49c49.77-7.3,102.68,72.47,118.17,178.17c15.49,105.69-12.3,197.29-62.07,204.59
									c-49.77,7.3-102.68-72.47-118.17-178.17C3079.47,1979.24,3088.56,1914.76,3110.67,1877.73z"/>
							</g>
							<g>
								<path class="st1" d="M3201.89,2245.45c-56.9,0-112.31-81.89-128.58-192.92c-7.84-53.51-5.32-105.53,7.1-146.48
									c13.71-45.19,38.25-72.57,69.09-77.09c59.92-8.76,120.06,75.7,137.15,192.29c7.84,53.51,5.32,105.53-7.1,146.48
									c-13.71,45.19-38.25,72.57-69.09,77.09C3207.6,2245.24,3204.74,2245.45,3201.89,2245.45z M3106.41,2047.67
									c15.1,103.03,64.45,169.18,99.19,164.04c17.05-2.5,32.33-22.07,41.93-53.7c11.02-36.33,13.16-83.18,6.02-131.91
									c-15.1-103.03-64.46-169.16-99.19-164.04c-17.05,2.5-32.33,22.07-41.93,53.7
									C3101.41,1952.1,3099.27,1998.94,3106.41,2047.67z"/>
							</g>
						</g>
						<g>
							<g>
								<path class="st2" d="M2752.8,2315.26c1.9,81.13,49.61,156.54,122.08,177.54c153.04-34.39,245.71-157.9,284.21-294.41
									c9.48-33.48,15.67-67.73,18.71-101.68c5.19-57.47-16.28-114.67-58.67-151.88c-89.74-78.66-217.77-59.28-286.68,36.16
									c-0.11,0.18-0.26,0.32-0.37,0.5c-0.58,0.77-1.12,1.6-1.66,2.42c-3.74,5.29-7.25,10.78-10.55,16.49
									C2828.88,2136.67,2809.91,2245.04,2752.8,2315.26z"/>
							</g>
							<g>
								<path class="st1" d="M2874.88,2509.52c-1.57,0-3.13-0.22-4.65-0.66c-76.85-22.26-132.01-101.72-134.14-193.23
									c-0.09-3.98,1.24-7.86,3.75-10.95c51.17-62.9,72.48-164.91,63.33-303.21c-0.22-3.31,0.55-6.61,2.22-9.49
									c34.45-59.48,90.71-99.59,154.36-110.05c61.38-10.09,121.91,7.79,170.4,50.33c45.99,40.34,70.04,102.38,64.35,165.93
									c-14.35,160.03-105.69,363.67-315.94,410.92C2877.34,2509.39,2876.11,2509.52,2874.88,2509.52z M2769.76,2320.79
									c3.83,72.89,46.48,135.35,105.73,154.69c189.63-45.12,272.43-232.56,285.66-380.27c4.75-52.96-15.1-104.47-53.08-137.8
									c-40.83-35.82-91.58-50.9-142.92-42.46c-52.21,8.58-98.71,41.1-128.28,89.52
									C2845.66,2147.38,2823.68,2250.98,2769.76,2320.79z"/>
							</g>
							<g class="st3">
								<g>
									<path class="st1" d="M2754.42,2293.23c1.43,81.73,46.17,157.49,114.57,178.31c144.8-35.34,232.94-160.21,269.96-297.92
										c-0.11-2.81-0.27-5.57-0.48-8.34c-13.5,42.44-31.8,84.19-61.05,116.5c-29.24,32.26-70.99,54-112.63,49.47
										c-41.64-4.53-80.7-39.69-84.3-84.14c-1.34-16.38,1.89-32.76,4.12-49.06c7.38-54.09,3.82-109.7-10.44-161.99
										c-8.14-29.96-20.54-59.99-42.94-79.97c-0.3-0.26-0.64-0.58-0.93-0.84l0.58,1.35l2.76,6.24c-1.45-1.26-2.89-2.53-4.34-3.79
										c-3.56,5.34-6.91,10.9-10.04,16.66C2827.13,2112.95,2808.71,2222.22,2754.42,2293.23z"/>
								</g>
							</g>
						</g>
						<g>
							<g>
								<path class="st4" d="M2593.17,1937.51l20.16,137.54l35.24,240.5l114.25-5.5c26.06-1.24,50.32-14.56,64.42-36.47
									c57.38-89.37,35.34-246.95-19.65-314.79c-14.96-18.4-37.16-29.13-60.6-29.83c-2.47-0.13-5.01-0.06-7.55,0.06
									L2593.17,1937.51z"/>
							</g>
							<g class="st5">
								<path class="st2" d="M2739.43,1929.03c2.54-0.12,5.08-0.19,7.55-0.06c23.44,0.69,45.64,11.42,60.6,29.83
									c22.73,28.04,39.81,71.43,48,118.98c-9.33-33.74-23.25-63.56-40.37-84.67c-14.96-18.4-37.16-29.13-60.6-29.83
									c-2.47-0.13-5.01-0.06-7.55,0.06l-146.26,8.49l20.16,137.54l30.19,206.07l-2.58,0.12l-35.24-240.5l-20.16-137.54
									L2739.43,1929.03z"/>
							</g>
							<g class="st3">
								<g>
									<path class="st1" d="M2613.33,2075.06l35.24,240.5l114.25-5.5c16.54-4.43,42.58-14.02,64.42-36.47
										c51.86-53.32,38.14-136.22,29.97-185.59c-5.75-34.74-15.19-87.25-58.44-129.05c-14.36-13.88-28.67-22.92-39.2-28.61
										c11.7,10.09,31.24,29.99,41.91,60.87c0,0,11.68,33.81,3.75,64.4c-2.38,9.17-6.4,14-8.18,15.92
										c-4.22,4.56-9.2,7.5-14.33,9.08c-22.73,7-46.77,9.66-70.52,7.67C2679.26,2083.86,2646.27,2079.48,2613.33,2075.06z"/>
								</g>
							</g>
							<g>
								<path class="st1" d="M2648.55,2332.26c-8.26,0-15.33-6.05-16.54-14.3l-55.41-378c-0.68-4.64,0.62-9.36,3.58-12.99
									c2.96-3.64,7.31-5.86,12-6.14l146.28-8.5c31.71-1.83,62.36,11.58,82.09,35.91c59.51,73.4,82.04,238.91,20.74,334.36
									c-16.79,26.14-45.83,42.65-77.67,44.17l-114.26,5.47C2649.09,2332.26,2648.82,2332.26,2648.55,2332.26z M2612.36,1953.18
									l50.56,344.92l99.11-4.74c21.06-1.01,40.17-11.79,51.12-28.83c52.55-81.83,33.71-230.72-18.57-295.21
									c-12.96-15.98-33.13-24.84-54.16-23.58L2612.36,1953.18z"/>
							</g>
							<g>
								
									<ellipse transform="matrix(0.9894 -0.145 0.145 0.9894 -280.694 402.5737)" class="st4" cx="2620.86" cy="2126.54" rx="89.95" ry="191.02"/>
							</g>
							<g class="st5">
								<path class="st2" d="M2593.16,1937.54c47.04-6.9,96.9,64.99,114.51,162.67c-22.07-78.56-65.2-132.36-106.19-126.35
									c-49.16,7.21-76.6,97.66-61.3,202.05c0.66,4.48,1.41,8.9,2.2,13.28c-4.4-15.65-7.98-32.26-10.52-49.6
									C2516.56,2035.2,2544.01,1944.74,2593.16,1937.54z"/>
							</g>
							<g class="st3">
								<path class="st1" d="M2552.41,1969.35c-16.47,30.55-22.99,81.04-14.89,136.32c12.58,85.82,55.6,150.57,96.09,144.64
									c40.49-5.93,63.11-80.31,50.54-166.13c-12.58-85.82-55.6-150.57-96.09-144.64c-2.97,0.44-5.83,1.28-8.61,2.43
									c4.35-2.21,8.93-3.73,13.71-4.43c49.15-7.21,101.41,71.57,116.71,175.95c15.3,104.38-12.15,194.84-61.3,202.05
									c-49.16,7.21-101.41-71.57-116.71-175.95C2521.6,2069.6,2530.58,2005.92,2552.41,1969.35z"/>
							</g>
							<g>
								<path class="st1" d="M2642.17,2332.73c-27.65,0-55.25-18.89-78.59-54.08c-23.38-35.24-40.52-83.77-48.27-136.64l0,0
									c-16.89-115.26,16.24-212.35,75.42-221.03c59.22-8.73,118.79,74.82,135.69,190.08c7.75,52.88,5.25,104.28-7.03,144.75
									c-13.56,44.71-37.86,71.8-68.4,76.27C2648.05,2332.52,2645.11,2332.73,2642.17,2332.73z M2548.41,2137.16
									c7.05,48.1,22.34,91.78,43.05,123c18,27.13,37.93,41.32,54.68,38.82c16.76-2.46,31.79-21.73,41.24-52.89
									c10.88-35.85,12.99-82.08,5.94-130.18c-14.9-101.62-63.48-166.9-97.73-161.83
									C2561.32,1959.11,2533.52,2035.54,2548.41,2137.16L2548.41,2137.16z"/>
							</g>
							<g class="st3">
								
									<ellipse transform="matrix(0.9894 -0.145 0.145 0.9894 -280.9719 401.3218)" class="st1" cx="2612.14" cy="2127.82" rx="31.36" ry="74.05"/>
							</g>
							<g>
								<path class="st1" d="M2620.68,2213.2c-26.15,0-45.49-38.81-51.4-79.1l0,0c-3.1-21.12-2.48-41.68,1.75-57.89
									c6.91-26.5,20.9-32.35,28.62-33.48c7.73-1.17,22.81,0.46,37.03,23.86c8.7,14.32,15.2,33.83,18.29,54.95
									c6.2,42.28-2.24,87.25-30.38,91.37C2623.29,2213.1,2621.98,2213.2,2620.68,2213.2z M2592.93,2130.63
									c5.86,39.92,22.82,59.33,28.21,58.63c5.57-0.82,16.05-24.35,10.2-64.26c-2.61-17.76-8.1-34.53-15.07-46.01
									c-5.92-9.75-11.3-12.86-13.14-12.63c-1.94,0.29-6.09,4.84-8.96,15.87C2590.78,2095.23,2590.33,2112.87,2592.93,2130.63
									L2592.93,2130.63z"/>
							</g>
						</g>
					</g>
				</g>
				<g>
					<g>
						<path class="st2" d="M1786.31,2391.67l-166.01-7.12c-29.29-1.26-51.59-16.62-48.06-33.11l16.58-77.34
							c5.92-27.64,47.91-47.12,97-45.01l107.26,4.6L1786.31,2391.67z"/>
					</g>
					<g class="st3">
						<path class="st1" d="M1582.31,2293.5l-9.31,40.21c-3.47,14.99,18.88,29.06,48.17,30.32l166.01,7.12l2.44-56.81l-166.01-7.12
							C1605.91,2306.46,1590.78,2301,1582.31,2293.5z"/>
					</g>
					<g>
						<path class="st2" d="M2397.79,2417.91l123.73,5.31c20.37,0.87,36.92-12.82,35.67-29.52l-5.86-78.31
							c-2.09-27.98-29.74-50.45-63.88-51.92l-82.88-3.56L2397.79,2417.91z"/>
					</g>
					<g class="st3">
						<path class="st1" d="M2554.28,2338.51c-6.39,6.52-17.25,10.64-29.57,10.11l-123.73-5.31l-2.32,54.09l123.73,5.31
							c20.37,0.87,36.84-10.9,35.49-25.37L2554.28,2338.51z"/>
					</g>
					<g>
						<path class="st2" d="M1793.57,2222.38l-9.71,226.22c-1.92,44.67,32.74,82.45,77.42,84.36l449.7,19.3
							c44.67,1.92,82.45-32.74,84.36-77.42l9.71-226.22c1.92-44.68-32.74-82.45-77.42-84.36l-449.7-19.3
							C1833.26,2143.05,1795.49,2177.71,1793.57,2222.38z"/>
					</g>
					<g class="st3">
						
							<ellipse transform="matrix(0.0429 -0.9991 0.9991 0.0429 -178.2943 4457.0879)" class="st1" cx="2237.09" cy="2321.6" rx="68.8" ry="76.85"/>
					</g>
					<g>
						
							<ellipse transform="matrix(0.7071 -0.7071 0.7071 0.7071 -967.5383 2257.2046)" class="st6" cx="2240.92" cy="2296.52" rx="64.5" ry="64.5"/>
					</g>
					<g>
						
							<ellipse transform="matrix(0.7071 -0.7071 0.7071 0.7071 -967.5383 2257.2046)" class="st6" cx="2240.92" cy="2296.52" rx="64.5" ry="64.5"/>
					</g>
					<g class="st3">
						<path class="st1" d="M2239.36,2332.86c-30.76-1.32-55.51-23.99-60.69-53.08c-1.2,4.49-1.98,9.15-2.19,13.99
							c-1.53,35.59,26.08,65.68,61.67,67.2s65.68-26.08,67.2-61.67c0.21-4.83-0.17-9.55-0.98-14.12
							C2296.72,2313.71,2270.11,2334.18,2239.36,2332.86z"/>
					</g>
					<g class="st3">
						<path class="st1" d="M2316.39,2426.27l-449.7-19.3c-44.67-1.92-79.47-36.56-77.72-77.39l-4.27,99.6
							c-1.75,40.82,33.04,75.47,77.72,77.39l449.7,19.3c44.67,1.92,82.31-29.62,84.06-70.44l4.27-99.59
							C2398.7,2396.65,2361.06,2428.19,2316.39,2426.27z"/>
					</g>
					<g>
						<path class="st1" d="M2314.5,2569.08c-1.41,0-2.81-0.03-4.23-0.09l-449.7-19.3c-53.82-2.31-95.72-47.98-93.42-101.8
							l9.71-226.22l0,0c2.31-53.82,48.14-95.75,101.79-93.41l449.7,19.3c26.07,1.12,50.15,12.32,67.79,31.55
							c17.65,19.23,26.74,44.17,25.62,70.24l-9.71,226.22C2409.81,2527.96,2366.45,2569.08,2314.5,2569.08z M1810.29,2223.1
							l-9.71,226.22c-1.51,35.39,26.04,65.42,61.43,66.93l449.7,19.3c35.4,1.47,65.42-26.04,66.93-61.43l9.71-226.22
							c0.74-17.14-5.25-33.55-16.85-46.19s-27.43-20.01-44.57-20.74l-449.7-19.3C1841.75,2160.16,1811.81,2187.71,1810.29,2223.1
							L1810.29,2223.1z"/>
					</g>
					<g>
						<path class="st1" d="M2150.58,2559.72c-0.21,0-0.42-0.01-0.62-0.01c-7.91-0.34-14.05-7.03-13.71-14.94l5.91-137.7
							l-171.42-64.55c-5.8-2.18-9.54-7.84-9.27-14.03l7.71-179.6c0.34-7.91,7.02-14.04,14.94-13.71
							c7.91,0.34,14.05,7.03,13.71,14.94l-7.27,169.23l171.42,64.55c5.8,2.18,9.54,7.84,9.27,14.03L2164.9,2546
							C2164.56,2553.7,2158.22,2559.72,2150.58,2559.72z"/>
					</g>
					<g>
						<path class="st1" d="M2240.95,2372.98c-1.1,0-2.2-0.02-3.31-0.07c-20.4-0.87-39.24-9.64-53.05-24.69
							c-13.81-15.05-20.93-34.57-20.05-54.97c1.81-42.11,37.53-74.97,79.66-73.1c20.4,0.87,39.24,9.64,53.04,24.68
							c13.81,15.05,20.93,34.57,20.05,54.97C2315.53,2340.8,2281.61,2372.98,2240.95,2372.98z M2240.89,2243.98
							c-27.95,0-51.26,22.11-52.48,50.29c-0.6,14.02,4.29,27.44,13.78,37.78s22.44,16.37,36.46,16.97
							c28.95,1.26,53.51-21.3,54.75-50.25c0.6-14.02-4.29-27.44-13.78-37.78c-9.49-10.34-22.44-16.37-36.46-16.97
							C2242.41,2243.99,2241.65,2243.98,2240.89,2243.98z"/>
					</g>
					<g>
						<path class="st1" d="M1786.32,2408.4c-0.24,0-0.49,0-0.73-0.01l-166.01-7.12c-24.4-1.05-45.55-10.19-56.58-24.44
							c-6.72-8.69-9.25-18.95-7.12-28.89l16.58-77.34c7.77-36.24,55.82-60.68,114.08-58.22l107.26,4.6
							c4.43,0.19,8.61,2.13,11.61,5.4c3,3.27,4.58,7.6,4.39,12.03l-6.78,157.98C1802.64,2401.37,1795.23,2408.4,1786.32,2408.4z
							 M1678.54,2245.65c-40.07,0-69.93,15.95-73.36,31.95l-16.58,77.34c0.47,2.71,11.12,11.97,32.42,12.89l149.29,6.41l5.35-124.56
							l-90.55-3.89C1682.89,2245.7,1680.7,2245.65,1678.54,2245.65z"/>
					</g>
					<g>
						<path class="st1" d="M2523.38,2439.99c-0.86,0-1.72-0.01-2.58-0.05l-123.73-5.31c-4.43-0.19-8.61-2.13-11.61-5.4
							c-3-3.27-4.58-7.6-4.39-12.03l6.78-157.99c0.19-4.43,2.13-8.61,5.4-11.61c3.27-3,7.59-4.57,12.03-4.39l82.88,3.56
							c42.78,1.84,77.11,30.8,79.85,67.38l5.85,78.32c0.88,11.75-3.36,23.1-11.93,31.95
							C2552.27,2434.39,2538.33,2439.99,2523.38,2439.99z M2415.22,2401.92l107.01,4.59c6.33,0.24,12.15-1.74,15.67-5.38
							c1.88-1.94,2.75-4.02,2.59-6.17l-5.85-78.32c-1.45-19.35-22.5-35.36-47.92-36.45l-66.16-2.84L2415.22,2401.92z"/>
					</g>
					<g class="st7">
						
							<ellipse transform="matrix(0.7368 -0.6761 0.6761 0.7368 -949.3876 2127.6887)" class="st2" cx="2257.97" cy="2283.18" rx="21.96" ry="21.96"/>
					</g>
				</g>
				<g>
					<g>
						<path class="st2" d="M2803.67,1160.6l37.1,1.59c67.49,2.9,119.78,61.71,116.79,131.37l-10.4,242.32
							c-2.95,68.81-58.79,122.62-125.5,120.95l-74.13-1.86C2805.55,1518.1,2845.14,1368.13,2803.67,1160.6z"/>
					</g>
					<g>
						<path class="st2" d="M1492.94,1104.35l-37.1-1.59c-67.49-2.9-124.63,51.22-127.62,120.88l-10.4,242.32
							c-2.95,68.81,48.07,127.21,114.68,131.26l74.02,4.5C1460.45,1460.37,1433.85,1307.56,1492.94,1104.35z"/>
					</g>
					<g class="st3">
						<g>
							<path class="st1" d="M1438.53,1456.63c-66.6-4.05-117.63-62.45-114.68-131.26l-6.03,140.59
								c-2.95,68.81,48.07,127.21,114.68,131.26l74.02,4.5c-15.01-46.05-27.92-93.34-36.51-143.18L1438.53,1456.63z"/>
						</g>
					</g>
					<g class="st3">
						<g>
							<path class="st1" d="M2844.75,1516.99c66.71,1.67,122.55-52.15,125.5-120.95l-6.03,140.59
								c-2.95,68.81-58.79,122.62-125.5,120.95l-74.13-1.86c18.9-44.6,35.82-90.61,48.64-139.52L2844.75,1516.99z"/>
						</g>
					</g>
					<g>
						
							<ellipse transform="matrix(0.0429 -0.9991 0.9991 0.0429 724.7743 3418.3584)" class="st2" cx="2146.49" cy="1330.91" rx="698.67" ry="690.92"/>
					</g>
					<g class="st3">
						<path class="st1" d="M2121.18,1920.72c-363.23-15.59-648.75-312.06-660.6-673.46c-2.12,17.8-3.59,35.81-4.37,54.02
							c-16.55,385.51,279.09,711.29,660.33,727.66c381.24,16.36,703.7-282.89,720.25-668.4c0.78-18.21,0.86-36.28,0.27-54.2
							C2794.28,1665.39,2484.41,1936.3,2121.18,1920.72z"/>
					</g>
					<g>
						
							<ellipse transform="matrix(0.0429 -0.9991 0.9991 0.0429 644.2457 3489.1318)" class="st1" cx="2143.17" cy="1408.32" rx="527.31" ry="690.92"/>
					</g>
					<g>
						<path class="st8" d="M2131.33,1765.75c-347.22-14.9-626.12-222.9-663.7-479.71c-8.36,29.92-13.38,60.88-14.75,92.66
							c-12.49,290.96,286.44,540.09,667.68,556.45c381.24,16.36,700.41-206.24,712.9-497.2c1.11-25.96-0.29-51.58-3.98-76.74
							C2761.28,1605.28,2470.93,1780.32,2131.33,1765.75z"/>
					</g>
					<g>
						<path class="st1" d="M2146.21,2048.69c-10.14,0-20.27-0.21-30.49-0.65c-391.16-16.79-695.58-352.15-678.61-747.58
							c16.97-395.43,349.19-703.46,740.17-686.68c391.16,16.78,695.58,352.15,678.61,747.58l0,0
							C2839.35,1746.45,2523.96,2048.69,2146.21,2048.69z M2146.8,651.36c-357.45,0-655.85,286.14-671.5,650.74
							c-16.06,374.36,271.96,691.85,642.05,707.74c370.26,15.98,684.26-275.76,700.33-650.12
							c16.06-374.36-271.96-691.85-642.05-707.73C2165.99,651.57,2156.36,651.36,2146.8,651.36z M2836.78,1360.53h0.05H2836.78z"/>
					</g>
					<g>
						<path class="st1" d="M2155.53,1950.23c-11.81,0-23.66-0.25-35.59-0.76c-388.52-16.67-692.95-301.86-678.63-635.73
							c14.33-333.87,342.09-591.88,730.61-575.25c388.52,16.67,692.95,301.86,678.63,635.73l0,0
							C2836.65,1697.84,2528.29,1950.23,2155.53,1950.23z M2136.31,766.41c-357.5,0-653.11,240.32-666.34,548.56
							c-13.65,318.07,278.48,589.85,651.21,605.85c372.69,16,687.07-229.76,700.72-547.82c13.65-318.07-278.48-589.85-651.21-605.85
							C2159.18,766.65,2147.7,766.41,2136.31,766.41z M2836.22,1373.61h0.05H2836.22z"/>
					</g>
					<g>
						<path class="st1" d="M2160.21,1950.34c-13.38,0-26.79-0.29-40.27-0.87c-187.5-8.05-361.54-71.46-490.05-178.56
							c-129.62-108.03-197.57-247.54-191.34-392.83s85.89-278.46,224.29-374.99c137.22-95.7,316.05-143.97,503.55-135.92
							c187.5,8.05,361.54,71.46,490.05,178.56c129.61,108.02,197.56,247.55,191.34,392.83l0,0
							c-6.24,145.29-85.89,278.46-224.29,374.99C2496.15,1902.37,2332.92,1950.34,2160.21,1950.34z M2126.08,894.99
							c-166.88,0-324.27,46.15-446.83,131.63c-130.9,91.29-206.2,216.55-212.05,352.7c-5.84,136.15,58.45,267.4,181.05,369.57
							c123.71,103.1,291.66,164.16,472.92,171.94c181.29,7.8,353.83-38.67,485.91-130.79c130.9-91.29,206.2-216.55,212.05-352.7l0,0
							c5.84-136.15-58.45-267.4-181.04-369.57c-123.71-103.1-291.66-164.16-472.92-171.94
							C2152.1,895.26,2139.05,894.99,2126.08,894.99z"/>
					</g>
					<g class="st9">
						
							<ellipse transform="matrix(0.0429 -0.9991 0.9991 0.0429 582.493 3977.4006)" class="st2" cx="2367.13" cy="1684.69" rx="94.51" ry="100.92"/>
					</g>
					<g class="st9">
						
							<ellipse transform="matrix(0.0429 -0.9991 0.9991 0.0429 928.7844 4015.3394)" class="st2" cx="2560.07" cy="1522.92" rx="62.99" ry="67.18"/>
					</g>
					<g class="st9">
						<path class="st2" d="M1609.69,1439.84c-115.76-384.73,316.35-544.16,717.52-444.63
							C1999.85,1048.03,1646.85,1212.63,1609.69,1439.84z"/>
					</g>
					<g>
						<path class="st1" d="M1506.52,1620.84c-0.39,0-0.77-0.01-1.16-0.03l-74.02-4.5c-76.5-4.66-135.99-72.47-132.61-151.17
							l10.4-242.32c1.66-38.68,17.84-74.44,45.57-100.71c27.89-26.42,64.06-40.11,101.96-38.45l37.1,1.59
							c5.86,0.25,11.29,3.18,14.71,7.95c3.42,4.77,4.47,10.85,2.83,16.49c-60.11,206.7-29.09,355.79,13.39,486.11
							c1.96,6.02,0.82,12.61-3.05,17.62C1518.01,1618.12,1512.42,1620.84,1506.52,1620.84z M1450.66,1121.77
							c-25.84,0-50.43,9.89-69.66,28.1c-20.48,19.4-32.44,45.89-33.67,74.59l-10.4,242.32c-2.49,58.01,40.9,107.96,96.73,111.36
							l46.25,2.81c-36.58-120.16-62.18-267.42-11.82-458.53l-13.08-0.56C1453.56,1121.8,1452.1,1121.77,1450.66,1121.77z"/>
					</g>
					<g>
						<path class="st1" d="M2824.62,1676c-1.14,0-2.29-0.01-3.44-0.04l-74.13-1.86c-6.33-0.16-12.16-3.44-15.59-8.76
							c-3.43-5.32-4-11.99-1.53-17.82c53.49-126.21,97.17-272.09,54.99-483.17c-1.15-5.76,0.41-11.73,4.23-16.18
							c3.82-4.46,9.52-6.92,15.34-6.67l37.1,1.59c77.92,3.34,138.51,71.22,135.07,151.29l-10.4,242.32
							C2962.94,1614.23,2899.75,1676,2824.62,1676z M2775.82,1636.57l46.32,1.16c0.83,0.02,1.66,0.03,2.49,0.03
							c54.83,0,100.98-45.54,103.44-102.69l10.4-242.32c2.53-59.01-41.66-109.01-98.51-111.45l-13.08-0.56
							C2860.69,1375.46,2822.56,1519.98,2775.82,1636.57z"/>
					</g>
				</g>
			</g>
		</g>
	</g>
</g>
</svg>
