<?xml version="1.0" encoding="utf-8"?>
<!-- Generator: Adobe Illustrator 27.1.0, SVG Export Plug-In . SVG Version: 6.00 Build 0)  -->
<svg version="1.1" id="Layer_1" xmlns="http://www.w3.org/2000/svg" xmlns:xlink="http://www.w3.org/1999/xlink" x="0px" y="0px"
	 viewBox="0 0 4000 4000" style="enable-background:new 0 0 4000 4000;" xml:space="preserve">
<style type="text/css">
	.st0{fill:#FFFFFF;}
	.st1{fill:#BFBFBF;}
	.st2{fill:#371A45;}
	.st3{opacity:0.2;}
	.st4{fill:#2CA0FF;}
	.st5{opacity:0.4;}
	.st6{opacity:0.5;}
	.st7{fill:#E5E5E5;}
	.st8{fill:#D8D8D8;}
	.st9{opacity:0.35;}
	.st10{fill:#111A28;}
	.st11{fill:#371944;}
	.st12{fill:#22A7F0;}
	.st13{fill:#1C7AEA;}
	.st14{fill:#999999;}
	.st15{fill:#686868;}
	.st16{fill:#545354;}
	.st17{fill:#B5B5B5;}
	.st18{fill:#AAAAAA;}
	.st19{fill:#FF2943;}
	.st20{opacity:0.7;}
	.st21{fill:#D81D4A;}
	.st22{fill:#858585;}
	.st23{fill:#5E5E5E;}
	.st24{fill:#2788E0;}
	.st25{fill:#FFED48;}
	.st26{fill:#FFCB4A;}
</style>
<g>
	<g>
		<g>
			<g>
				<g>
					<g>
						<path class="st0" d="M2155.77,3430.68l-27.13,75.75c-7.94,22.17-26.06,39.17-48.74,45.55c-19.61,5.52-46.53,10.48-79.9,10.48
							c-33.38,0-60.29-4.96-79.91-10.48c-22.67-6.38-40.79-23.38-48.74-45.55l-27.13-75.75L2000,3436L2155.77,3430.68z"/>
					</g>
					<g>
						<path class="st0" d="M1844.22,3426.91l-40.56,69.49c-11.87,20.34-32.81,33.73-56.26,35.84c-20.29,1.82-47.66,1.77-80.47-4.36
							c-32.81-6.12-58.36-15.93-76.63-24.96c-21.12-10.43-35.82-30.46-39.56-53.72l-12.77-79.44l152.15,33.8L1844.22,3426.91z"/>
					</g>
					<g>
						<path class="st1" d="M2196.33,3496.4c11.87,20.34,32.81,33.72,56.26,35.84c20.3,1.83,47.67,1.77,80.47-4.35"/>
					</g>
					<g>
						<path class="st2" d="M2000,3579.36c-29.86,0-58.29-3.74-84.49-11.12c-27.83-7.83-50.29-28.81-60.06-56.11l-35.52-99.19
							l180.08,6.15l180.07-6.15l-35.53,99.19c-9.78,27.31-32.23,48.29-60.07,56.11C2058.29,3575.62,2029.86,3579.36,2000,3579.36z
							 M1868.53,3448.42l18.74,52.31c6.1,17.03,20.08,30.11,37.4,34.98c23.23,6.54,48.57,9.85,75.34,9.85s52.1-3.31,75.32-9.85
							c17.33-4.87,31.31-17.95,37.41-34.98l18.74-52.31L2000,3452.9L1868.53,3448.42z"/>
					</g>
					<g>
						<path class="st2" d="M1723.52,3550.19c-19.39,0-39.38-1.9-59.7-5.69c-29.35-5.48-56.6-14.37-81.01-26.42
							c-25.93-12.8-44.15-37.54-48.76-66.19l-16.72-104.01l175.89,39.07l178.15,26.98l-53.11,90.99
							c-14.62,25.05-40.54,41.56-69.34,44.16C1740.58,3549.82,1732.11,3550.19,1723.52,3550.19z M1558.6,3391.67l8.82,54.86
							c2.87,17.86,14.22,33.28,30.35,41.25c21.64,10.68,45.94,18.59,72.25,23.5c26.27,4.91,51.8,6.3,75.87,4.14
							c17.92-1.62,34.06-11.9,43.18-27.52l28.01-48l-130.62-19.82L1558.6,3391.67z"/>
					</g>
					<g>
						<path class="st0" d="M2155.77,3426.91l40.56,69.49c11.87,20.34,32.81,33.73,56.26,35.84c20.3,1.82,47.66,1.77,80.47-4.36
							c32.81-6.12,58.36-15.93,76.63-24.96c21.12-10.43,35.82-30.46,39.56-53.72l12.77-79.44l-152.16,33.8L2155.77,3426.91z"/>
					</g>
					<g>
						<path class="st2" d="M2276.47,3550.19c-8.59,0-17.06-0.37-25.39-1.12c-28.8-2.6-54.72-19.1-69.35-44.16l-53.11-90.99
							l178.14-26.98l175.89-39.07l-16.72,104.01c-4.6,28.64-22.84,53.38-48.76,66.19c-24.39,12.05-51.65,20.94-81.01,26.42
							C2315.85,3548.29,2295.86,3550.19,2276.47,3550.19z M2182.92,3439.89l28.01,48c9.12,15.62,25.26,25.91,43.18,27.52
							c24.06,2.16,49.58,0.77,75.86-4.14c26.31-4.91,50.62-12.82,72.24-23.5c16.14-7.97,27.49-23.39,30.36-41.25l8.82-54.86
							l-128.99,28.61L2182.92,3439.89z"/>
					</g>
					<g>
						<path class="st1" d="M2665.07,3016.86c0,145.47-113.55,358.71-259.83,404.29c-86.79,27.05-244.82,53.63-405.25,53.63
							c-160.42,0-318.46-26.58-405.24-53.63c-146.27-45.58-259.83-258.82-259.83-404.29c0-137.27,236.39-62.25,665.07-62.25
							S2665.07,2879.59,2665.07,3016.86"/>
					</g>
					<g>
						<path class="st1" d="M2665.07,3016.86c0,145.47-113.55,358.71-259.83,404.29c-86.79,27.05-244.82,53.63-405.25,53.63
							c-160.42,0-318.46-26.58-405.24-53.63c-146.27-45.58-259.83-258.82-259.83-404.29c0-137.27,236.39-62.25,665.07-62.25
							S2665.07,2879.59,2665.07,3016.86"/>
					</g>
					<g class="st3">
						<path class="st2" d="M2559.01,3302.16c-42.67,56.31-95.64,100.93-153.76,119c-86.77,27.04-244.85,53.61-405.25,53.61
							c-160.44,0-318.48-26.57-405.25-53.61c-58.13-18.08-111.1-62.69-153.76-119c32.1,27.46,162.5,120.1,559.01,120.1
							C2396.51,3422.26,2526.91,3329.61,2559.01,3302.16"/>
					</g>
					<g>
						<path class="st2" d="M2000,3491.68c-162.89,0-323.42-27.32-410.27-54.4c-153.01-47.68-271.7-265.15-271.7-420.42
							c0-27.38,8.52-49.27,25.31-65.05c46.61-43.81,149.48-37.45,319.94-26.88c91.91,5.69,206.29,12.78,336.72,12.78
							s244.81-7.08,336.72-12.78c170.46-10.56,273.33-16.93,319.94,26.88c16.79,15.78,25.31,37.67,25.31,65.05
							c0,155.27-118.69,372.74-271.7,420.42C2323.42,3464.35,2162.88,3491.68,2000,3491.68z M1492.39,2951.11
							c-61.62,0-105.47,6.12-125.91,25.33c-10,9.4-14.65,22.25-14.65,40.42c0,140.82,110.61,345.35,247.96,388.15
							c84.4,26.31,240.88,52.87,400.21,52.87s315.81-26.55,400.21-52.87c137.35-42.8,247.96-247.34,247.96-388.15
							c0-18.18-4.65-31.03-14.65-40.42c-35.96-33.8-144.49-27.08-294.71-17.77c-92.38,5.72-207.34,12.85-338.81,12.85
							s-246.44-7.12-338.81-12.85C1596.32,2954.64,1539.22,2951.11,1492.39,2951.11z"/>
					</g>
					<g>
						<path class="st1" d="M3186.71,2714.52c0,201.76-430.38,511.87-624.66,560.79c-155.46,39.12-339.56,74.35-562.06,74.35
							c-222.46,0-406.6-35.24-562.06-74.35c-194.24-48.92-624.66-359.03-624.66-560.79c0-190.39,592.13-86.3,1186.72-86.3
							S3186.71,2524.13,3186.71,2714.52"/>
					</g>
					<g class="st3">
						<path class="st2" d="M2899.92,3024.94c-125.03,102.46-271.89,186.61-363.67,209.71c-148.32,37.32-323.97,70.94-536.25,70.94
							c-212.24,0-387.93-33.61-536.26-70.94c-91.73-23.09-238.68-107.29-363.71-209.75c71.26,38.65,234.89,173.96,899.96,173.96
							C2665.07,3198.86,2828.66,3063.56,2899.92,3024.94"/>
					</g>
					<g>
						<path class="st2" d="M2000,3366.56c-238.14,0-427.67-40.01-566.18-74.87c-101.12-25.47-258.57-116.46-391.8-226.43
							c-91.74-75.72-245.63-221.98-245.63-350.74c0-26.8,9.88-49.78,29.35-68.31c84.57-80.5,349.86-67.39,685.73-50.77
							c150.57,7.44,321.22,15.88,488.53,15.88c167.31,0,337.97-8.44,488.54-15.88c335.87-16.6,601.16-29.73,685.73,50.77
							c19.47,18.53,29.35,41.51,29.35,68.31c0,128.76-153.89,275.02-245.62,350.74c-133.22,109.97-290.68,200.97-391.82,226.43
							C2427.67,3326.55,2238.14,3366.56,2000,3366.56z M1154.16,2616.76c-149.25,0-261.49,12.4-305.13,53.93
							c-12.69,12.08-18.85,26.41-18.85,43.83c0,83.93,85.05,202.27,233.35,324.68c127.69,105.4,283.34,195.75,378.54,219.72
							c136.62,34.38,323.5,73.84,557.93,73.84c234.43,0,421.31-39.46,557.93-73.84c95.21-23.97,250.87-114.32,378.55-219.72
							c148.29-122.41,233.33-240.75,233.33-324.68c0-17.42-6.17-31.76-18.85-43.83c-74.08-70.51-345.95-57.06-660.77-41.5
							c-150.95,7.47-322.05,15.93-490.2,15.93c-168.14,0-339.24-8.46-490.2-15.93C1380.43,2622.8,1258.28,2616.76,1154.16,2616.76z"
							/>
					</g>
					<g>
						<path class="st2" d="M1644.04,3336.16c-2.46,0-4.94-0.53-7.3-1.67c-159.71-76.66-269.78-213.62-333.99-315.01
							c-69.35-109.49-100.79-199.78-102.09-203.57c-3.04-8.82,1.65-18.43,10.47-21.47c8.8-3.05,18.43,1.65,21.48,10.46
							c1.23,3.57,126.66,358.91,418.76,499.12c8.41,4.04,11.96,14.13,7.92,22.54C1656.38,3332.63,1650.34,3336.16,1644.04,3336.16z"
							/>
					</g>
					<g>
						<path class="st2" d="M1886.11,3363.45c-4.69,0-9.36-1.94-12.7-5.75c-158-179.91-214.9-529.83-217.24-544.64
							c-1.46-9.21,4.83-17.87,14.04-19.33c9.24-1.46,17.88,4.83,19.34,14.04c0.56,3.54,57.75,355.12,209.25,527.63
							c6.16,7.02,5.47,17.69-1.54,23.85C1894.04,3362.06,1890.07,3363.45,1886.11,3363.45z"/>
					</g>
					<g>
						<path class="st2" d="M2355.88,3336.16c-6.29,0-12.34-3.53-15.24-9.59c-4.04-8.41-0.49-18.51,7.92-22.54
							c292.1-140.21,417.53-495.54,418.76-499.12c3.05-8.82,12.68-13.51,21.48-10.46c8.82,3.04,13.51,12.65,10.47,21.47
							c-1.3,3.79-32.75,94.08-102.09,203.57c-64.21,101.39-174.28,238.35-334,315.01
							C2360.83,3335.63,2358.34,3336.16,2355.88,3336.16z"/>
					</g>
					<g>
						<path class="st2" d="M2113.82,3363.45c-3.96,0-7.93-1.39-11.15-4.2c-7.01-6.16-7.7-16.84-1.54-23.85
							c151.5-172.5,208.69-524.09,209.25-527.63c1.46-9.21,10.11-15.5,19.34-14.04c9.21,1.46,15.5,10.12,14.04,19.33
							c-2.34,14.81-59.23,364.73-217.24,544.64C2123.18,3361.5,2118.51,3363.45,2113.82,3363.45z"/>
					</g>
					<g>
						<path class="st4" d="M3186.71,2714.51c0,209.86-531.31,379.99-1186.71,379.99c-655.4,0-1186.71-170.12-1186.71-379.99
							S1344.6,2250.04,2000,2250.04C2655.41,2250.04,3186.71,2504.65,3186.71,2714.51"/>
					</g>
					<g class="st5">
						<g>
							<g>
								<path class="st0" d="M2697.15,2718.47c-60.41,95.56-349.36,196.56-697.15,196.56c-347.79,0-636.74-101.01-697.16-196.56
									c-56.43-89.3,127.57,31.81,697.16,31.81C2569.59,2750.28,2753.58,2629.17,2697.15,2718.47"/>
							</g>
						</g>
					</g>
					<g class="st6">
						<g>
							<g>
								<path class="st0" d="M3186.72,2714.5c0,8.91-0.97,17.74-2.88,26.53c-42.49-204.04-556.26-437.47-1183.84-437.47
									c-627.57,0-1141.35,233.44-1183.84,437.47c-1.9-8.78-2.88-17.62-2.88-26.53c0-209.87,531.31-464.47,1186.72-464.47
									C2655.41,2250.03,3186.72,2504.63,3186.72,2714.5"/>
							</g>
						</g>
					</g>
					<g>
						<path class="st2" d="M2000,3111.4c-318.68,0-618.52-39.81-844.28-112.1c-231.71-74.19-359.33-175.33-359.33-284.79
							c0-110.64,133.81-232.71,357.95-326.52c238.57-99.85,538.9-154.85,845.65-154.85c306.76,0,607.08,55,845.66,154.85
							c224.14,93.81,357.95,215.88,357.95,326.52c0,109.45-127.61,210.59-359.33,284.79C2618.53,3071.59,2318.69,3111.4,2000,3111.4
							z M2000,2266.94c-302.38,0-598.07,54.06-832.6,152.23c-207.99,87.06-337.2,200.23-337.2,295.35
							c0,92.19,122.41,184.26,335.83,252.6c222.52,71.25,518.7,110.49,833.97,110.49c315.28,0,611.46-39.24,833.98-110.49
							c213.43-68.34,335.83-160.41,335.83-252.6c0-95.12-129.21-208.29-337.2-295.35C2598.08,2321,2302.38,2266.94,2000,2266.94z"/>
					</g>
					<g>
						<path class="st2" d="M2000,3111.4c-318.68,0-618.52-39.81-844.28-112.1c-231.71-74.19-359.33-175.33-359.33-284.79
							c0-110.64,133.81-232.71,357.95-326.52c238.57-99.85,538.9-154.85,845.65-154.85c306.76,0,607.08,55,845.66,154.85
							c224.14,93.81,357.95,215.88,357.95,326.52c0,109.45-127.61,210.59-359.33,284.79C2618.53,3071.59,2318.69,3111.4,2000,3111.4
							z M2000,2266.94c-302.38,0-598.07,54.06-832.6,152.23c-207.99,87.06-337.2,200.23-337.2,295.35
							c0,92.19,122.41,184.26,335.83,252.6c222.52,71.25,518.7,110.49,833.97,110.49c315.28,0,611.46-39.24,833.98-110.49
							c213.43-68.34,335.83-160.41,335.83-252.6c0-95.12-129.21-208.29-337.2-295.35C2598.08,2321,2302.38,2266.94,2000,2266.94z"/>
					</g>
					<g>
						<path class="st7" d="M3186.72,2714.5c0,209.87-531.31,379.98-1186.72,379.98c-655.41,0-1186.72-170.12-1186.72-379.98
							c0-44.61,24-91.25,68.1-137.04c-10.43,21.38-15.88,42.58-15.88,63.37c0,200.66,507.94,363.3,1134.5,363.3
							c626.56,0,1134.51-162.64,1134.51-363.3c0-20.78-5.45-41.99-15.89-63.37C3162.72,2623.25,3186.72,2669.89,3186.72,2714.5"/>
					</g>
					<g>
						<path class="st0" d="M3186.72,2714.5c0,209.87-531.31,379.98-1186.72,379.98c-655.41,0-1186.72-170.12-1186.72-379.98
							c0-24.89,7.48-50.4,21.76-76c-2.88,11.07-4.31,22.01-4.31,32.87c0,206.78,523.49,374.41,1169.27,374.41
							s1169.27-167.63,1169.27-374.41c0-10.86-1.44-21.8-4.3-32.87C3179.24,2664.1,3186.72,2689.62,3186.72,2714.5"/>
					</g>
					<g>
						<path class="st2" d="M2000,3111.39c-318.69,0-618.53-39.81-844.29-112.09c-231.71-74.19-359.33-175.33-359.33-284.79
							c0-48.54,24.5-98.59,72.82-148.76c5.77-5.99,15.04-6.89,21.86-2.12c6.82,4.77,9.15,13.78,5.5,21.25
							c-9.4,19.27-14.16,38.1-14.16,55.96c0,87.8,116.83,175.57,320.54,240.81c212.66,68.1,495.72,105.6,797.06,105.6
							c301.34,0,584.4-37.5,797.06-105.6c203.71-65.23,320.55-153,320.55-240.81c0-17.86-4.77-36.69-14.17-55.95
							c-3.65-7.48-1.31-16.49,5.5-21.26c6.82-4.76,16.09-3.87,21.86,2.12c48.33,50.17,72.83,100.22,72.83,148.76
							c0,109.45-127.61,210.59-359.33,284.79C2618.53,3071.58,2318.69,3111.39,2000,3111.39z M848.8,2648.25
							c-12.38,22.74-18.62,44.89-18.62,66.25c0,92.19,122.4,184.26,335.83,252.6c222.51,71.25,518.7,110.48,833.98,110.48
							s611.47-39.23,833.99-110.48c213.43-68.33,335.83-160.41,335.83-252.6c0-21.37-6.24-43.52-18.62-66.25
							c-5.62,102.13-127.22,196.21-343.83,265.57c-215.9,69.14-502.63,107.21-807.37,107.21s-591.46-38.08-807.36-107.21
							C976.02,2844.46,854.43,2750.39,848.8,2648.25z"/>
					</g>
					<g>
						<path class="st0" d="M2359.41,2575.05h-712.27c-104.78,0-192.18-54.25-202.06-125.16c-23.52-168.73-23.52-337.56,0-506.29
							c9.88-70.91,97.27-125.16,202.05-125.16h712.27c104.78,0,192.17,54.25,202.05,125.16c23.51,168.73,23.51,337.57,0,506.29
							C2551.58,2520.8,2464.19,2575.05,2359.41,2575.05"/>
					</g>
					<g>
						<path class="st2" d="M2359.41,2591.95h-712.27c-113.64,0-207.7-60.07-218.79-139.73c-23.63-169.52-23.63-341.43,0-510.95
							c11.09-79.66,105.15-139.72,218.78-139.72h712.27c113.63,0,207.69,60.07,218.78,139.73c23.63,169.53,23.63,341.44,0,510.96
							C2567.1,2531.88,2473.04,2591.95,2359.41,2591.95z M1647.14,1835.34c-95.28,0-176.67,48.58-185.31,110.6
							c-23.2,166.43-23.2,335.2,0,501.63c8.64,62.02,90.04,110.6,185.32,110.6h712.27c95.27,0,176.67-48.58,185.32-110.6
							c23.19-166.42,23.19-335.2,0-501.63c-8.65-62.02-90.04-110.6-185.32-110.6H1647.14z"/>
					</g>
					<g>
						<path class="st0" d="M2188.92,1812c346.47,75.68,450.36,231.48,503.63,312.18c66.94,101.41,63.62,245.75-3.32,295.61
							c-109.91,81.85-402.7-32.8-402.7-32.8"/>
					</g>
					<g class="st3">
						<path class="st2" d="M2429.07,1891.93c-52.42,63.53-121.45,115.07-201.25,149.21L2188.91,1812
							C2286.92,1833.38,2365.54,1861.22,2429.07,1891.93"/>
					</g>
					<g>
						<path class="st8" d="M1811.42,1812l-38.91,229.26c-79.88-34.09-148.99-85.63-201.46-149.21
							C1634.59,1861.26,1713.29,1833.42,1811.42,1812"/>
					</g>
					<g>
						<path class="st8" d="M2349.19,1969.58C2255.36,2043,2133.41,2087.3,2000,2087.3c-131.55,0-251.98-43.08-345.26-114.69
							c48.5-69.75,151.61-169.11,345.43-169.11C2191.15,1803.51,2297.44,1900.04,2349.19,1969.58"/>
					</g>
					<g>
						<path class="st2" d="M2572.63,2465.95c-128.77,0-283.35-59.74-292.27-63.23c-8.69-3.4-12.97-13.2-9.57-21.89
							c3.4-8.7,13.21-12.97,21.89-9.58c2.11,0.83,158.97,61.45,280.81,61.46c41.96,0,79.74-7.19,105.65-26.48
							c60.67-45.19,60.33-180.29-0.69-272.74c-53.18-80.55-152.16-230.5-493.14-304.98c-9.12-1.99-14.89-11-12.9-20.11
							c2-9.11,10.98-14.89,20.12-12.9c354.4,77.42,462.28,240.84,514.13,319.38c71.2,107.87,67.64,262.63-7.32,318.47
							C2667.24,2457.23,2621.81,2465.95,2572.63,2465.95z"/>
					</g>
					<g>
						<path class="st0" d="M1811.44,1812c-346.47,75.68-450.36,231.48-503.63,312.18c-66.94,101.41-63.62,245.75,3.32,295.61
							c109.91,81.85,402.7-32.8,402.7-32.8L1811.44,1812z"/>
					</g>
					<g class="st3">
						<path class="st2" d="M1790.26,2285.73l-333.23-16.76c0,0,22.82-265.66,288.93-232.79"/>
					</g>
					<g class="st3">
						<path class="st2" d="M2210.11,2285.73l333.23-16.76c0,0-22.83-265.66-288.93-232.79"/>
					</g>
					<g class="st3">
						<path class="st2" d="M1811.42,1812l-38.91,229.26c-79.88-34.09-148.99-85.63-201.46-149.21
							C1634.59,1861.26,1713.29,1833.42,1811.42,1812"/>
					</g>
					<g>
						<path class="st2" d="M1427.72,2465.95c-49.19,0-94.59-8.72-126.69-32.61c-74.96-55.83-78.52-210.61-7.32-318.47
							c51.85-78.54,159.73-241.97,514.13-319.38c9.14-1.97,18.12,3.79,20.12,12.9c1.99,9.12-3.78,18.12-12.9,20.11
							c-340.98,74.48-439.96,224.43-493.14,304.99c-61.03,92.45-61.37,227.55-0.69,272.74c83.98,62.54,307.44-4.05,386.45-34.98
							c8.7-3.42,18.49,0.88,21.89,9.57c3.4,8.69-0.88,18.5-9.57,21.89C1711.07,2406.21,1556.48,2465.94,1427.72,2465.95z"/>
					</g>
					<g>
						<path class="st0" d="M2390.29,2039.46c32.35,75.75,61.76,156.77,85.12,239.73c24.38,86.69,42.12,175.48,49.56,262.51
							c-117.69,51.96-308.89,85.79-524.8,85.79c-211.13,0-398.69-32.36-516.94-82.42c7.39-89.13,25.6-180.17,50.73-268.96
							c23.19-81.87,52.3-161.84,84.23-236.65c0,0,83.33-235.94,381.97-235.94C2298.81,1803.52,2390.29,2039.46,2390.29,2039.46"/>
					</g>
					<g class="st3">
						<path class="st2" d="M2349.19,1969.58C2255.36,2043,2133.41,2087.3,2000,2087.3c-131.55,0-251.98-43.08-345.26-114.69
							c48.5-69.75,151.61-169.11,345.43-169.11C2191.15,1803.51,2297.44,1900.04,2349.19,1969.58"/>
					</g>
					<g>
						<path class="st2" d="M2398.06,2036.14c21.27,38.42,39.05,78.59,54.8,119.53c15.67,40.99,28.89,82.89,40.82,125.18
							c23.73,84.58,41.44,171.21,49.35,259.3l0,0.04c0.71,7.91-3.85,15.09-10.75,18.09c-83.88,36.35-172.15,55.84-260.6,69.12
							c-88.59,12.94-177.92,18.82-267.21,19.21c-89.28-0.12-178.62-5.46-267.27-17.97c-88.52-12.77-176.8-31.86-261.04-66.91
							c-7.39-3.08-11.63-10.53-10.98-18.11l0.01-0.05c7.75-88.68,25.43-175.9,49.21-261.06c11.95-42.58,25.26-84.76,41.17-125.96
							c15.91-41.18,33.71-81.64,54.85-120.42c2.24-4.11,7.4-5.63,11.51-3.39c3.63,1.98,5.23,6.23,4.02,10.02
							c-13.21,41.78-27.35,82.92-40.66,124.31c-13.3,41.37-26.53,82.71-37.88,124.55c-22.7,83.65-39.3,168.99-46.16,254.94
							l-10.98-18.16c39.67,16.31,81.31,28.86,123.58,39.01c42.29,10.21,85.3,18,128.59,24.02c86.63,11.97,174.33,16.98,261.95,16.83
							c87.63-0.19,175.3-5.68,261.84-18.08c43.24-6.25,86.2-14.3,128.38-24.83c42.16-10.49,83.67-23.39,123.01-40.26l-10.75,18.14
							c-7.02-85.37-23.65-170.13-46.3-253.21c-11.33-41.56-24.51-82.63-37.89-123.66c-13.33-41.07-27.29-81.97-40.18-123.58
							c-1.39-4.48,1.11-9.24,5.59-10.63C2392.01,2030.93,2396.15,2032.7,2398.06,2036.14"/>
					</g>
					<g>
						<polygon class="st8" points="2004.87,1443.6 2004.87,1446.11 2003.27,1444.88 						"/>
					</g>
					<g>
						<polygon class="st8" points="2003.27,1444.88 2001.68,1446.11 2001.68,1443.6 						"/>
					</g>
					<g>
						<path class="st0" d="M2681.71,1321.18c0,372.65-302.09,674.74-674.74,674.74s-674.74-302.09-674.74-674.74
							c0-372.65,302.09-674.74,674.74-674.74S2681.71,948.53,2681.71,1321.18"/>
					</g>
					<g>
						<path class="st8" d="M2681.72,1321.17c0,372.65-302.09,674.74-674.74,674.74c-372.65,0-674.78-302.09-674.78-674.74
							c0-39.35,3.36-77.92,9.87-115.4c54.74,317.65,331.6,559.3,664.91,559.3c333.31,0,610.13-241.64,664.87-559.3
							C2678.36,1243.24,2681.72,1281.82,2681.72,1321.17"/>
					</g>
					<g>
						<path class="st2" d="M2006.96,2012.82c-381.37,0-691.64-310.27-691.64-691.64s310.27-691.64,691.64-691.64
							c381.37,0,691.64,310.27,691.64,691.64S2388.34,2012.82,2006.96,2012.82z M2006.96,663.34
							c-362.73,0-657.84,295.11-657.84,657.84s295.1,657.84,657.84,657.84s657.84-295.11,657.84-657.84
							S2369.7,663.34,2006.96,663.34z"/>
					</g>
					<g>
						<path class="st2" d="M2006.96,2012.82c-381.37,0-691.64-310.27-691.64-691.64s310.27-691.64,691.64-691.64
							c381.37,0,691.64,310.27,691.64,691.64S2388.34,2012.82,2006.96,2012.82z M2006.96,663.34
							c-362.73,0-657.84,295.11-657.84,657.84s295.1,657.84,657.84,657.84s657.84-295.11,657.84-657.84
							S2369.7,663.34,2006.96,663.34z"/>
					</g>
					<g>
						<path class="st2" d="M2006.96,2012.82c-381.37,0-691.64-310.27-691.64-691.64s310.27-691.64,691.64-691.64
							c381.37,0,691.64,310.27,691.64,691.64S2388.34,2012.82,2006.96,2012.82z M2006.96,663.34
							c-362.73,0-657.84,295.11-657.84,657.84s295.1,657.84,657.84,657.84s657.84-295.11,657.84-657.84
							S2369.7,663.34,2006.96,663.34z"/>
					</g>
					<g>
						<path class="st2" d="M2006.95,2012.81c-315.13,0-590.2-212.54-669.34-517.04c-0.13-0.39-0.25-0.79-0.36-1.19
							c-14.56-56.19-21.94-114.53-21.94-173.4c0-26.08,1.47-52.14,4.37-77.47c38.94-350.1,334.4-614.16,687.26-614.16
							c352.96,0,648.45,264.14,687.33,614.4c2.85,25.39,4.29,51.38,4.29,77.22c0,58.8-7.36,117.13-21.88,173.38
							c-0.1,0.39-0.21,0.77-0.34,1.15C2597.19,1800.24,2322.08,2012.81,2006.95,2012.81z M1370.09,1486.37
							c74.97,290.06,336.83,492.65,636.86,492.65c300,0,561.88-202.56,636.91-492.62c0.11-0.45,0.24-0.9,0.39-1.34
							c13.62-53.16,20.53-108.29,20.53-163.87c0-24.59-1.37-49.31-4.08-73.48c-36.99-333.14-318.03-584.36-653.75-584.36
							c-335.62,0-616.64,251.13-653.68,584.16c-2.76,24.1-4.15,48.87-4.15,73.68c0,55.62,6.92,110.72,20.57,163.8
							C1369.84,1485.44,1369.98,1485.9,1370.09,1486.37z"/>
					</g>
					<g>
						<path class="st2" d="M2658.19,1161.12c-6.57,0-12.78-3.86-15.52-10.22c-106.47-247.19-356.01-406.92-635.71-406.92
							c-279.53,0-529.01,159.59-635.6,406.56c-3.51,8.14-12.72,12.17-21.09,9.26c-8.37-2.92-13.05-11.82-10.73-20.38
							c81.45-300.22,355.9-509.9,667.42-509.9c311.71,0,586.21,209.83,667.54,510.28c2.32,8.56-2.37,17.45-10.75,20.37
							C2661.92,1160.82,2660.04,1161.12,2658.19,1161.12z M2006.96,710.19c206.76,0,397.85,83.4,531.77,223.6
							c-121.27-165.99-317.26-270.47-531.77-270.47c-214.39,0-410.34,104.42-531.62,270.32
							C1609.28,793.54,1800.32,710.19,2006.96,710.19z"/>
					</g>
					<g>
						<path class="st2" d="M2681.66,1321.2c0,58.4-7.4,115.14-21.34,169.16c0,0-0.06,0-0.06,0.06
							c-117.05,226.14-365.64,420.72-653.34,420.72c-287.69,0-536.21-194.58-653.26-420.72c0-0.06-0.06-0.06-0.06-0.06
							c-14-54.02-21.4-110.76-21.4-169.16c0-25.53,1.42-50.76,4.25-75.54c91.03-251.86,356.76-434.09,670.47-434.09
							c313.78,0,579.58,182.36,670.54,434.28C2680.25,1270.57,2681.66,1295.73,2681.66,1321.2"/>
					</g>
					<g class="st9">
						<g>
							<g>
								<path class="st10" d="M2681.69,1321.21c0,58.4-7.4,115.14-21.34,169.16c0,0-0.06,0-0.06,0.06
									c-117.05,226.14-365.64,420.71-653.33,420.71c-287.69,0-536.21-194.57-653.26-420.71c0-0.06-0.06-0.06-0.06-0.06
									c-8.33-32.19-14.31-65.31-17.82-99.23c151.28,169.96,371.25,293.61,616.14,293.61c311.98,0,583.71-200.68,724.31-442.18
									c0.43,1.11,0.86,2.16,1.23,3.27C2680.27,1270.58,2681.69,1295.74,2681.69,1321.21"/>
							</g>
						</g>
					</g>
					<g class="st6">
						<g>
							<g>
								<path class="st0" d="M2394.74,1309.62c-9.5,59.24,17.6,112.84,60.52,119.72c42.92,6.88,85.42-35.56,94.92-94.79
									c9.5-59.24-17.6-112.84-60.52-119.73S2404.24,1250.39,2394.74,1309.62"/>
							</g>
						</g>
					</g>
					<g class="st6">
						<g>
							<g>
								<path class="st0" d="M2339.5,1526.64c-8.07,26.33,3.69,53.29,26.29,60.22c22.59,6.93,47.45-8.79,55.53-35.12
									c8.07-26.33-3.7-53.29-26.29-60.21C2372.44,1484.59,2347.58,1500.31,2339.5,1526.64"/>
							</g>
						</g>
					</g>
					<g class="st6">
						<g>
							<g>
								<path class="st0" d="M1500.83,1543.71c0,0-108.67-323.08,63.94-456.2s424.73-137.7,419.16-121.42
									c0,0-277.73,73.22-382.47,296.08C1520.7,1434.03,1500.83,1543.71,1500.83,1543.71"/>
							</g>
						</g>
					</g>
					<g>
						<path class="st0" d="M2274.99,2534.88c0,0,165.54,12.62,235.22-37.55c74.05-53.31-0.56-114.99-0.56-114.99
							s-133.32,29.1-245.28,24.95L2274.99,2534.88z"/>
					</g>
					<g>
						<path class="st11" d="M2320.93,2553.24c-26.51,0-44.99-1.34-47.23-1.51l-14.36-1.1l-13.39-160.94l19.04,0.71
							c108.51,3.95,239.74-24.29,241.05-24.58l8.03-1.75l6.34,5.24c1.67,1.38,40.84,34.28,39.41,77.08
							c-0.82,24.5-14.19,46.25-39.75,64.65C2469.88,2547.19,2377.26,2553.24,2320.93,2553.24z M2290.61,2518.78
							c40.68,1.61,157.25,2.62,209.73-35.17c16.57-11.93,25.22-24.8,25.72-38.25c0.64-17.53-12.41-35.13-21.58-44.7
							c-29.83,6.03-129.24,24.45-221.71,23.91L2290.61,2518.78z"/>
					</g>
					<g>
						<path class="st0" d="M1734.74,2534.88c0,0-165.54,12.62-235.21-37.55c-74.05-53.31,0.56-114.99,0.56-114.99
							s133.32,29.1,245.28,24.95L1734.74,2534.88z"/>
					</g>
					<g>
						<path class="st11" d="M1688.8,2553.24c-56.33,0-148.94-6.04-199.15-42.2c-25.56-18.4-38.93-40.15-39.75-64.65
							c-1.43-42.8,37.74-75.7,39.41-77.08l6.33-5.24l8.04,1.75c1.31,0.29,132.59,28.53,241.05,24.58l19.05-0.71l-13.4,160.94
							l-14.36,1.1C1733.78,2551.9,1715.3,2553.24,1688.8,2553.24z M1734.74,2534.88h0.05H1734.74z M1505.25,2400.67
							c-9.15,9.55-22.22,27.16-21.57,44.7c0.49,13.45,9.15,26.31,25.72,38.25c52.48,37.79,169.02,36.78,209.73,35.17l7.84-94.2
							C1634.55,2425.07,1535.08,2406.69,1505.25,2400.67z"/>
					</g>
					<g>
						<path class="st0" d="M2281.09,2611.32c0.38-1.18,0.8-2.37,1.14-3.59c-0.13,0.55-0.3,1.06-0.47,1.61
							C2281.55,2610.01,2281.3,2610.68,2281.09,2611.32"/>
					</g>
					<g>
						<path class="st0" d="M2285.69,2348.48v235.89c0,1.06-0.04,2.11-0.08,3.13c0,0.84-0.04,1.73-0.13,2.57
							c-0.04,0.34-0.04,0.68-0.08,1.02c-0.09,0.97-0.17,1.9-0.3,2.79c-0.08,0.84-0.21,1.73-0.34,2.53c-0.17,1.27-0.38,2.5-0.63,3.72
							c-0.29,1.48-0.63,2.96-1.01,4.39c-0.17,0.81-0.38,1.53-0.6,2.28c-0.08,0.34-0.17,0.64-0.29,0.93c0.08-0.3,0.17-0.63,0.25-0.93
							c-68.01,10.61-142.7,17.45-221.48,19.82c-20.03,0.59-40.3,0.89-60.84,0.89c-101.17,0-196.94-7.44-282.27-20.7h-0.04
							c-2.07-7.18-3.17-14.74-3.17-22.6v-235.72c0-1.35,0.04-2.75,0.09-4.1c0.08-1.35,0.17-2.67,0.29-4.01
							c0.6-5.83,1.77-11.49,3.55-16.9c10.09-31.56,38.86-54.49,72.57-54.49h417.96C2251.22,2268.97,2285.69,2304.75,2285.69,2348.48
							"/>
					</g>
					<g class="st3">
						<path class="st2" d="M2285.69,2504.82v79.55c0,1.06-0.04,2.11-0.08,3.13c0,0.85-0.04,1.73-0.13,2.58
							c-0.04,0.34-0.04,0.68-0.08,1.01c-0.09,0.97-0.17,1.9-0.3,2.79c-0.08,0.84-0.21,1.73-0.34,2.53c-0.17,1.27-0.38,2.5-0.63,3.72
							c-0.29,1.48-0.63,2.96-1.01,4.39c-0.17,0.76-0.38,1.52-0.64,2.28c-68.01,10.6-142.7,17.45-221.48,19.81
							c-20.03,0.59-40.3,0.89-60.84,0.89c-101.17,0-196.94-7.43-282.27-20.7c0.42,1.56,0.89,3.13,1.44,4.65
							c-0.55-1.52-1.06-3.08-1.48-4.65c-2.11-7.18-3.21-14.79-3.21-22.64v-235.72c0-1.35,0.04-2.7,0.13-4.05
							c0.08-1.36,0.17-2.67,0.29-4.02c0.55-5.91,1.77-11.62,3.51-17.07c0,0.04,0.05,0.08,0.05,0.17c2.7,10.18,4.3,45.37,7.52,84.19
							c2.54,30.42,6.05,63.07,11.91,87.66c5.32,22.6,12.64,38.4,22.94,39.54c12.88,1.44,15.97-88.88,15.97-88.88s3.55,3.8,9.84,10.1
							c0,0,0.04,0,0.04,0.04c1.9,1.9,4.06,4.01,6.43,6.34c0.63,0.59,1.26,1.23,1.94,1.86c8.32,7.98,19.05,17.91,31.34,28.43
							c14.7,12.5,31.64,25.81,49.34,37.47c16.9,11.19,34.43,20.87,51.41,26.95c45.37,16.26,90.66,21.12,133.71,18.88
							c85.46-4.44,161.96-36.96,212.06-64.21C2277.5,2509.47,2281.68,2507.1,2285.69,2504.82"/>
					</g>
					<g>
						<path class="st11" d="M2297.13,2616.63l-32.13-10.47l0.05-0.14h0l0.39-1.17c0.19-0.55,0.37-1.09,0.53-1.66l32.71,8.47
							c-0.19,0.8-0.41,1.54-0.65,2.3L2297.13,2616.63z"/>
					</g>
					<g>
						<path class="st11" d="M2000.16,2644.4c-99.68,0-195.4-7.02-284.51-20.85l0,0c-1.19-0.16-2.37-0.32-3.56-0.53l-12.25-2.18
							l-1.55-12.34c-0.38-2.98-0.56-5.98-0.56-9.17v-2.28l-2.96-10.94l2.96,0.46v-253.25c0-44.79,36.45-81.24,81.24-81.24h442.38
							c44.79,0,81.23,36.45,81.23,81.24v253.24l3.1-0.48l-3.1,11.3v1.95c0,3.29-0.19,6.31-0.57,9.24l-1.6,12.26l-12.17,2.19
							c-1.19,0.21-2.34,0.38-3.54,0.54l0,0c-69.93,10.89-145.02,17.61-223.21,19.96C2041.17,2644.1,2020.54,2644.4,2000.16,2644.4z
							 M1731.53,2591.77c84.36,12.5,174.66,18.83,268.63,18.83c20.05,0,40.35-0.29,60.34-0.88c72.78-2.19,142.8-8.22,208.28-17.94
							l0-0.01v-258.46c0-26.16-21.27-47.44-47.43-47.44h-442.38c-26.16,0-47.44,21.28-47.44,47.44V2591.77z"/>
					</g>
					<g>
						<path class="st12" d="M1786.09,2466.31c0,37.86,29.55,68.55,66.01,68.55c36.45,0,66-30.69,66-68.55
							c0-37.86-29.55-68.55-66-68.55C1815.64,2397.76,1786.09,2428.45,1786.09,2466.31"/>
					</g>
					<g>
						<path class="st0" d="M1786.08,2466.33c0,4.67,0.43,9.21,1.3,13.61c6.1-31.39,32.77-55.01,64.73-55.01
							c31.96,0,58.64,23.62,64.69,55.01c0.87-4.4,1.3-8.94,1.3-13.61c0-37.86-29.53-68.57-65.99-68.57
							C1815.65,2397.75,1786.08,2428.47,1786.08,2466.33"/>
					</g>
					<g>
						<path class="st13" d="M1786.09,2466.3c0,37.88,29.57,68.55,66,68.55c36.43,0,66-30.66,66-68.55c0-6.35-0.84-12.55-2.4-18.36
							c-7.76,28.9-33.33,50.14-63.61,50.14c-30.28,0-55.85-21.24-63.61-50.14C1786.94,2453.75,1786.09,2459.95,1786.09,2466.3"/>
					</g>
					<g>
						<path class="st11" d="M1852.1,2547.53c-43.38,0-78.68-36.44-78.68-81.22s35.29-81.22,78.68-81.22
							c43.38,0,78.67,36.44,78.67,81.22S1895.47,2547.53,1852.1,2547.53z M1852.1,2410.43c-29.41,0-53.33,25.07-53.33,55.88
							s23.93,55.88,53.33,55.88c29.4,0,53.33-25.07,53.33-55.88S1881.5,2410.43,1852.1,2410.43z"/>
					</g>
					<g>
						<path class="st11" d="M2061,2643.51c-9.33,0-16.9-7.57-16.9-16.9v-83.6c0-34.87,16.07-68.24,43-89.27l10.6-8.28
							c18.78-14.71,30-38.14,30-62.68v-113.81c0-9.33,7.57-16.9,16.9-16.9s16.9,7.57,16.9,16.9v113.81
							c0,34.84-16.07,68.22-42.98,89.3l-10.62,8.3c-18.78,14.67-30,38.09-30,62.63v83.6
							C2077.9,2635.94,2070.33,2643.51,2061,2643.51z"/>
					</g>
					<g>
						<path class="st0" d="M1481.09,2171.71c49.57,1.49,160.03,25.63,160.03,25.63s38.67,238.9-28.36,283.33
							c-45.81,30.36-227.92,41.57-311.96-25.52c-65.92-52.63-87.09-179.52,7-330.97"/>
					</g>
					<g>
						<path class="st0" d="M1612.75,2480.68c-2.58,1.69-5.53,3.34-8.91,4.9c-56.94,26.44-223.68,32.91-303.02-30.42
							c-46.26-36.92-70.51-110.43-48.33-203.32c9.42-39.46,27.21-82.46,55.3-127.66l173.28,47.52
							c49.59,1.48,160.06,25.65,160.06,25.65S1679.79,2436.24,1612.75,2480.68"/>
					</g>
					<g class="st3">
						<path class="st2" d="M1603.83,2485.58c-56.94,26.44-223.68,32.91-303.01-30.42c-46.26-36.92-70.51-110.43-48.33-203.32
							c-3.8,96.06,48.96,239.52,263.81,136.95L1603.83,2485.58z"/>
					</g>
					<g>
						<path class="st2" d="M1481.35,2163.26c14.19-1.21,28.02-0.91,41.79-0.19c13.78,0.62,27.45,1.79,41.04,3.29
							c13.59,1.55,27.16,3.17,40.58,5.54c13.46,2.29,26.72,5.12,39.97,8.93l0.1,0.02c6.95,1.5,11.93,7.16,12.97,13.79
							c3.21,20.9,5.54,41.23,7.43,61.95c1.85,20.64,3.16,41.37,3.65,62.21c0.49,20.85,0.22,41.81-1.51,62.96
							c-1.8,21.13-4.79,42.5-11.9,64.05c-3.61,10.74-8.41,21.63-15.92,31.96c-3.77,5.13-8.32,10.1-13.83,14.36
							c-5.7,4.39-11.28,7.09-16.75,9.64c-10.89,4.72-21.51,7.75-32.12,10.27c-10.61,2.51-21.17,4.23-31.74,5.66
							c-42.23,5.41-84.57,5.08-126.66-0.79c-21.02-3.02-41.99-7.51-62.53-14.42c-10.29-3.39-20.45-7.44-30.37-12.28
							c-9.97-4.69-19.6-10.49-28.82-17.05c-18.81-13.14-34.12-31.4-44.94-51.14c-5.45-9.91-9.92-20.26-13.46-30.85
							c-3.46-10.61-6.03-21.41-7.87-32.29c-7.12-43.67-1.56-87.57,10.28-128.48c11.93-41.07,30.63-79.41,52.7-115.14
							c4.91-7.94,15.32-10.4,23.26-5.5c7.94,4.9,10.4,15.31,5.5,23.26l-0.05,0.07c-20.78,33.63-38.12,69.38-48.96,106.77
							c-10.82,37.24-15.49,76.4-9.38,113.55c5.88,36.9,23.4,71.81,52.69,92.35c7.4,5.25,15.3,10.06,23.8,14.05
							c8.41,4.11,17.24,7.65,26.34,10.64c18.14,6.11,37.23,10.24,56.59,13.01c38.72,5.43,78.74,5.72,117.45,0.74
							c9.64-1.3,19.25-2.87,28.5-5.07c9.23-2.17,18.29-4.85,26.13-8.26c3.76-1.75,7.4-3.6,9.77-5.49c2.56-1.98,5.02-4.57,7.28-7.65
							c4.52-6.19,8.25-14.11,11.09-22.69c5.73-17.24,8.64-36.58,10.25-56.05c1.61-19.53,1.88-39.43,1.41-59.37
							c-1.03-39.81-4.79-80.33-10.67-119.56l13.07,13.81c-13.18-1.9-26.42-4.45-39.5-7.35c-13.11-2.84-26.13-6.11-39.18-9.18
							l-39.09-9.21c-13.02-2.84-26.06-5.83-38.91-7.96l-0.16-0.03c-4.63-0.76-7.77-5.15-7-9.78
							C1474.33,2166.43,1477.56,2163.58,1481.35,2163.26"/>
					</g>
					<g>
						<path class="st8" d="M2719.34,1564.78l-6.15,20.37c-11.47,37.89-28,73.55-48.89,106.04
							c-52.96,82.73-133.64,145.55-229.62,175.89l-146.67,46.35l-8.37-26.5l146.67-46.35c85.97-27.17,158.86-82.27,208.32-154.85
							c22.47-32.94,40.12-69.44,51.95-108.63l6.19-20.38L2719.34,1564.78z"/>
					</g>
					<g>
						<path class="st14" d="M2719.34,1564.78l-6.15,20.37c-11.47,37.89-28,73.55-48.89,106.04c-10-1.82-20-3.63-29.67-5.46
							c22.47-32.94,40.12-69.44,51.95-108.63l6.19-20.38L2719.34,1564.78z"/>
					</g>
					<g>
						<path class="st2" d="M2697.07,1564.77l14.2,4.3l-4.29,14.17c-40.01,132.24-142.55,236.03-274.27,277.67l-140.45,44.39
							l-4.47-14.15l140.45-44.39c127.06-40.16,225.95-140.27,264.54-267.81L2697.07,1564.77 M2685.79,1543.71l-9.18,30.35
							c-36.98,122.19-131.73,218.12-253.46,256.59l-156.56,49.48l14.65,46.38l156.56-49.48
							c137.05-43.31,243.73-151.31,285.36-288.88l9.18-30.35L2685.79,1543.71z"/>
					</g>
					<g>
						<path class="st15" d="M2302.15,1935l-61.23,19.35c-16.68,5.27-34.48-3.98-39.75-20.66l-4.25-13.44
							c-5.27-16.68,3.98-34.48,20.65-39.75l61.24-19.35c16.68-5.27,34.48,3.98,39.75,20.66l4.25,13.44
							C2328.08,1911.94,2318.83,1929.73,2302.15,1935"/>
					</g>
					<g class="st6">
						<g>
							<g>
								<path class="st0" d="M2319.32,1884.24l2.72,8.61c0.38,1.22,0.68,2.47,0.92,3.68c-6.94-15.75-24.79-24.08-41.58-18.77
									l-56.39,17.82c-16.8,5.31-26.62,22.38-23.24,39.26c-0.5-1.13-0.98-2.32-1.36-3.54l-2.72-8.61
									c-5.69-18.02,4.31-37.25,22.32-42.95l56.39-17.82C2294.39,1856.23,2313.62,1866.23,2319.32,1884.24"/>
							</g>
						</g>
					</g>
					<g>
						<path class="st16" d="M2319.32,1884.24l2.72,8.61c5.69,18.01-4.32,37.21-22.33,42.9l-56.38,17.82
							c-18.01,5.69-37.24-4.26-42.93-22.27l-2.72-8.61c-1.06-3.35-1.55-6.74-1.6-10.08c8.34,12.01,23.81,17.79,38.47,13.16
							l56.38-17.82c14.66-4.63,24-18.25,23.92-32.87C2316.73,1877.84,2318.26,1880.89,2319.32,1884.24"/>
					</g>
					<g>
						<path class="st2" d="M2231.32,1966.41c-6.69,0-13.33-1.61-19.43-4.78c-10.01-5.2-17.4-13.99-20.79-24.75l-4.25-13.44
							c-7.02-22.2,5.33-45.98,27.54-53l61.24-19.35c10.77-3.4,22.2-2.41,32.2,2.8c10.01,5.2,17.4,13.99,20.8,24.75l4.25,13.44
							c7.02,22.22-5.35,45.99-27.55,53.01l-61.23,19.35C2239.9,1965.75,2235.6,1966.41,2231.32,1966.41z M2288.38,1870.24
							c-2.14,0-4.29,0.33-6.39,0.99l-61.24,19.35c-5.38,1.7-9.77,5.39-12.37,10.4c-2.6,5-3.1,10.72-1.4,16.1l4.25,13.44
							c1.7,5.38,5.39,9.77,10.4,12.38c5,2.6,10.72,3.09,16.1,1.4l61.23-19.35c11.1-3.51,17.29-15.4,13.77-26.5l-4.25-13.43
							c-1.7-5.38-5.4-9.78-10.4-12.38C2295.04,1871.04,2291.73,1870.24,2288.38,1870.24z"/>
					</g>
					<g>
						<path class="st8" d="M2706.45,1314.24c3.95-30.27,5.95-61.09,5.95-91.8c0-388.55-316.1-704.65-704.65-704.65
							s-704.64,316.1-704.64,704.65c0,30.7,1.99,61.52,5.94,91.8H1241c-3.6-30.27-5.42-61.11-5.42-91.8
							c0-425.78,346.4-772.18,772.18-772.18c425.76,0,772.13,346.4,772.13,772.18c0,30.69-1.82,61.53-5.42,91.8H2706.45z"/>
					</g>
					<g>
						<path class="st8" d="M2779.87,1222.45c0,7.86-0.14,15.72-0.33,23.53c-0.7,22.88-2.42,45.72-5.06,68.27h-68.05
							c2.94-22.55,4.79-45.44,5.58-68.32c0.23-7.82,0.37-15.67,0.37-23.49c0-388.53-316.06-704.64-704.63-704.64
							c-388.53,0-704.64,316.11-704.64,704.64c0,7.82,0.14,15.67,0.37,23.49c0.79,22.88,2.65,45.76,5.58,68.32h-68.04
							c-2.7-22.55-4.42-45.39-5.12-68.27c-0.19-7.82-0.33-15.68-0.33-23.53c0-425.78,346.39-772.17,772.17-772.17
							S2779.87,796.67,2779.87,1222.45"/>
					</g>
					<g>
						<path class="st17" d="M2779.87,1269.23c0,30.7-1.81,61.53-5.39,91.8h-68.05c2-15.49,3.54-31.11,4.52-46.79
							c0.98-14.98,1.44-30,1.44-45.02c0-7.81-0.14-15.58-0.37-23.3c0.23-7.81,0.37-15.67,0.37-23.48
							c0-388.53-316.06-704.64-704.63-704.64c-388.53,0-704.64,316.11-704.64,704.64c0,7.81,0.14,15.67,0.37,23.48
							c-0.23,7.72-0.37,15.49-0.37,23.3c0,15.02,0.46,30.04,1.44,45.02c0.97,15.67,2.51,31.3,4.51,46.79h-68.04
							c-3.63-30.28-5.45-61.11-5.45-91.8c0-7.76,0.09-15.53,0.33-23.25c12.36-415.08,353.83-748.92,771.84-748.92
							s759.42,333.83,771.79,748.92C2779.78,1253.7,2779.87,1261.47,2779.87,1269.23"/>
					</g>
					<g>
						<path class="st2" d="M2789.48,1331.14h-102.27l2.49-19.08c3.85-29.52,5.81-59.67,5.81-89.61
							c0-379.23-308.52-687.75-687.75-687.75c-379.22,0-687.74,308.52-687.74,687.75c0,29.96,1.95,60.11,5.8,89.62l2.49,19.08H1226
							l-1.77-14.9c-3.68-30.9-5.55-62.46-5.55-93.8c0-435.1,353.98-789.07,789.08-789.07c435.07,0,789.03,353.98,789.03,789.07
							c0,31.33-1.87,62.88-5.54,93.8L2789.48,1331.14z M2725.44,1297.35h33.87c2.45-24.8,3.68-49.93,3.68-74.9
							c0-416.46-338.79-755.28-755.23-755.28c-416.46,0-755.28,338.82-755.28,755.28c0,24.99,1.24,50.12,3.68,74.9h33.92
							c-2.56-24.8-3.86-49.92-3.86-74.9c0-397.86,323.68-721.54,721.54-721.54c397.86,0,721.55,323.68,721.55,721.54
							C2729.3,1247.42,2728,1272.53,2725.44,1297.35z"/>
					</g>
					<g>
						<path class="st8" d="M2749.08,1608.42c-21.88-5.53-32.82-8.3-54.7-13.83c-13.89-3.51-22.24-17.8-18.91-31.96
							c30-136.57,43.7-272.13,41.64-411.95c-0.43-14.54,10.6-26.87,24.92-27.53c22.55-1.04,33.82-1.57,56.37-2.61
							c49.73-1.36,85.2,41.74,85.05,89.48c-2.23,110.68-13.17,218.88-33.13,327.77C2840.9,1584.58,2797.53,1619.7,2749.08,1608.42"
							/>
					</g>
					<g>
						<path class="st18" d="M2694.38,1594.6c21.86,5.53,32.83,8.28,54.69,13.81c48.46,11.3,91.85-23.86,101.25-70.64
							c8.33-45.62,15.11-91.11,20.33-136.74c-17.67,32-52.83,52.18-91.2,43.25c-21.9-5.53-32.84-8.33-54.69-13.86
							c-13.91-3.49-22.23-17.76-18.93-31.95c20.14-91.76,32.93-183.01,38.51-275.42c-0.74,0-1.53,0.05-2.33,0.09
							c-14.27,0.65-25.35,12.97-24.88,27.53c2.04,139.8-11.68,275.37-41.67,411.92C2672.15,1576.78,2680.48,1591.07,2694.38,1594.6"
							/>
					</g>
					<g>
						<path class="st2" d="M2800.67,1120.49c48.53,0,82.92,42.5,82.77,89.51c-2.23,110.68-13.17,218.88-33.13,327.77
							c-8.21,40.83-42.27,72.78-82.99,72.78c-5.96,0-12.06-0.68-18.24-2.12c-21.88-5.53-32.82-8.3-54.7-13.84
							c-13.9-3.51-22.24-17.8-18.91-31.96c30-136.57,43.7-272.13,41.64-411.95c-0.43-14.55,10.6-26.87,24.92-27.53
							c22.54-1.05,33.82-1.57,56.37-2.61C2799.15,1120.5,2799.91,1120.49,2800.67,1120.49 M2800.67,1095.49
							c-0.99,0-1.98,0.01-2.96,0.04l-0.24,0l-0.24,0.01l-28.18,1.31l-28.18,1.31c-27.65,1.28-49.48,25.05-48.75,53.04
							c2.03,138.17-11.39,270.94-41.03,405.91c-6.3,27.28,10.33,54.94,37.17,61.72l54.62,13.82l0.23,0.06l0.3,0.07
							c7.91,1.84,15.95,2.78,23.91,2.78c51.48,0,96.69-39.05,107.5-92.85l0.04-0.21l0.04-0.21
							c20.3-110.71,31.26-219.24,33.54-331.77l0-0.21v-0.21c0.1-31.55-12.24-62.06-33.83-83.72
							C2854.77,1106.45,2828.51,1095.49,2800.67,1095.49L2800.67,1095.49z"/>
					</g>
					<g>
						<path class="st19" d="M2627.18,1617.34c24.6,6.23,36.88,9.3,61.48,15.53c54.46,12.7,103.25-26.79,113.81-79.39
							c7.76-42.32,14.28-84.5,19.63-126.78c1.96-15.53,3.76-31.07,5.39-46.6c4.56-42.69,7.86-85.53,9.91-128.64
							c1.12-22.05,1.86-44.18,2.33-66.42c0.14-53.67-39.72-102.13-95.62-100.6c-25.35,1.21-37.99,1.77-63.34,2.93
							c-16.09,0.74-28.51,14.6-28.05,30.97c0.56,36.93,0.14,73.58-1.31,110.08c-1.72,44-4.83,87.72-9.48,131.29
							c-1.53,14.69-3.26,29.34-5.12,43.99c-7.58,59.3-17.86,118.36-30.88,177.66C2602.21,1597.34,2611.55,1613.39,2627.18,1617.34"
							/>
					</g>
					<g class="st6">
						<g>
							<g>
								<path class="st0" d="M2641.92,1359.74c45.58,14.05,120.64,31.62,185.56,20.37c4.56-42.7,7.86-85.53,9.9-128.64
									c-45.25-17.21-112.41-34.04-185.98-23.02C2649.69,1272.44,2646.58,1316.16,2641.92,1359.74"/>
							</g>
						</g>
					</g>
					<g class="st6">
						<g>
							<g>
								<path class="st0" d="M2652.9,1157.94c1.63-14.42,13.21-25.95,27.86-26.65c25.35-1.16,37.99-1.72,63.34-2.93
									c51.11-1.4,88.83,39.02,94.78,87.01c0.37-10.09,0.65-20.18,0.84-30.32c0.14-53.67-39.72-102.13-95.62-100.6
									c-25.35,1.21-37.99,1.77-63.34,2.93c-16.09,0.74-28.51,14.6-28.05,30.97C2652.9,1131.57,2652.99,1144.78,2652.9,1157.94"/>
							</g>
						</g>
					</g>
					<g class="st20">
						<g>
							<g>
								<path class="st0" d="M2610.2,1605.3c11.02-52.6,19.86-105.01,26.6-157.66c11.68-91.11,16.97-182.68,16-275.88
									c-0.84,78.13-6.14,155.2-16,231.98c-7.58,59.29-17.86,118.36-30.88,177.66C2603.93,1589.95,2605.69,1598.55,2610.2,1605.3"
									/>
							</g>
						</g>
					</g>
					<g class="st20">
						<g>
							<g>
								<path class="st0" d="M2652.71,1162.26c0.05,3.16,0.09,6.32,0.09,9.49c0.05-4.6,0.09-9.21,0.09-13.81
									C2652.71,1159.33,2652.67,1160.82,2652.71,1162.26"/>
							</g>
						</g>
					</g>
					<g>
						<path class="st21" d="M2627.18,1617.34c24.6,6.23,36.88,9.3,61.48,15.53c54.46,12.7,103.25-26.79,113.81-79.39
							c7.76-42.32,14.28-84.5,19.63-126.78c-1.49,3.16-28.42,57.43-105.48,47.99c-58.97-7.21-75.02-35.76-79.81-70.97
							c-7.58,59.3-17.86,118.36-30.88,177.66C2602.21,1597.34,2611.55,1613.39,2627.18,1617.34"/>
					</g>
					<g>
						<path class="st2" d="M2709.06,1652.14c-8.06,0-16.17-0.93-24.22-2.8l-0.31-0.08l-61.48-15.55
							c-24.35-6.16-39.4-31.36-33.56-56.18c33.48-152.43,48.66-302.63,46.35-458.93c-0.75-25.24,19.04-46.92,44.13-48.08l63.35-2.93
							c29.21-0.77,56.62,9.95,77.44,30.26c22.88,22.33,35.95,54.13,35.84,87.25c-2.54,126.16-14.81,247.55-37.51,371.42
							c-6.58,32.74-25.73,61.28-52.62,78.59C2749,1646.35,2729.21,1652.14,2709.06,1652.14z M2692.65,1616.46
							c24.56,5.66,43.73-2.19,55.53-9.78c19.24-12.39,32.99-32.99,37.72-56.54c22.32-121.78,34.41-241.4,36.91-365.43
							c0.07-23.74-9.28-46.69-25.65-62.67c-10.05-9.81-27.49-21.31-52.59-20.67l-63.04,2.92c-6.78,0.31-12.11,6.4-11.9,13.57
							c2.36,159.19-13.08,311.92-47.18,467.18c-1.7,7.23,2.31,14.26,8.89,15.92L2692.65,1616.46z"/>
					</g>
					<g>
						<path class="st8" d="M1264.79,1608.42c21.88-5.53,32.83-8.3,54.7-13.83c13.89-3.51,22.24-17.8,18.91-31.96
							c-30-136.57-43.7-272.13-41.64-411.95c0.44-14.54-10.6-26.87-24.92-27.53c-22.55-1.04-33.82-1.57-56.37-2.61
							c-49.73-1.36-85.2,41.74-85.05,89.48c2.23,110.68,13.17,218.88,33.13,327.77C1172.96,1584.58,1216.33,1619.7,1264.79,1608.42"
							/>
					</g>
					<g>
						<path class="st18" d="M1319.48,1594.6c-21.86,5.53-32.83,8.28-54.69,13.81c-48.46,11.3-91.86-23.86-101.25-70.64
							c-8.33-45.62-15.11-91.11-20.32-136.74c17.67,32,52.83,52.18,91.2,43.25c21.91-5.53,32.84-8.33,54.7-13.86
							c13.9-3.49,22.22-17.76,18.93-31.95c-20.14-91.76-32.93-183.01-38.51-275.42c0.74,0,1.53,0.05,2.32,0.09
							c14.27,0.65,25.35,12.97,24.88,27.53c-2.05,139.8,11.67,275.37,41.67,411.92C1341.72,1576.78,1333.39,1591.07,1319.48,1594.6"
							/>
					</g>
					<g>
						<path class="st2" d="M1213.2,1120.49c0.76,0,1.52,0.01,2.28,0.03c22.55,1.04,33.82,1.57,56.36,2.61
							c14.32,0.66,25.36,12.99,24.92,27.53c-2.07,139.82,11.64,275.38,41.64,411.95c3.34,14.16-5.01,28.45-18.91,31.96
							c-21.87,5.53-32.82,8.3-54.7,13.84c-6.19,1.44-12.29,2.12-18.25,2.12c-40.72,0-74.78-31.94-82.99-72.78
							c-19.96-108.88-30.9-217.09-33.13-327.77C1130.27,1162.99,1164.67,1120.49,1213.2,1120.49 M1213.2,1095.49
							c-27.85,0-54.11,10.96-73.95,30.87c-21.6,21.66-33.92,52.18-33.82,83.72v0.21l0,0.21c2.27,112.53,13.24,221.06,33.54,331.77
							l0.04,0.21l0.04,0.21c10.82,53.8,56.03,92.85,107.5,92.85c7.96,0,16.01-0.94,23.92-2.78l0.23-0.05l0.23-0.06l21.56-5.45
							l33.14-8.38c26.83-6.78,43.47-34.43,37.16-61.71c-29.63-134.97-43.06-267.74-41.03-405.91c0.72-27.99-21.11-51.76-48.76-53.04
							l-19.27-0.89l-37.09-1.72l-0.24-0.01l-0.24,0C1215.17,1095.5,1214.18,1095.49,1213.2,1095.49L1213.2,1095.49z"/>
					</g>
					<g>
						<path class="st19" d="M1386.69,1617.34c-24.6,6.23-36.87,9.3-61.48,15.53c-54.46,12.7-103.24-26.79-113.8-79.39
							c-7.77-42.32-14.28-84.5-19.63-126.78c-1.95-15.53-3.76-31.07-5.39-46.6c-4.55-42.69-7.86-85.53-9.91-128.64
							c-1.11-22.05-1.86-44.18-2.32-66.42c-0.14-53.67,39.72-102.13,95.62-100.6c25.35,1.21,37.99,1.77,63.34,2.93
							c16.09,0.74,28.51,14.6,28.05,30.97c-0.56,36.93-0.14,73.58,1.31,110.08c1.72,44,4.84,87.72,9.49,131.29
							c1.53,14.69,3.25,29.34,5.12,43.99c7.58,59.3,17.86,118.36,30.88,177.66C1411.66,1597.34,1402.32,1613.39,1386.69,1617.34"/>
					</g>
					<g class="st6">
						<g>
							<g>
								<path class="st0" d="M1371.95,1359.74c-45.58,14.05-120.64,31.62-185.57,20.37c-4.55-42.7-7.86-85.53-9.9-128.64
									c45.25-17.21,112.41-34.04,185.98-23.02C1364.18,1272.44,1367.29,1316.16,1371.95,1359.74"/>
							</g>
						</g>
					</g>
					<g class="st6">
						<g>
							<g>
								<path class="st0" d="M1360.97,1157.94c-1.63-14.42-13.21-25.95-27.86-26.65c-25.35-1.16-37.99-1.72-63.34-2.93
									c-51.11-1.4-88.83,39.02-94.78,87.01c-0.37-10.09-0.65-20.18-0.84-30.32c-0.14-53.67,39.72-102.13,95.62-100.6
									c25.35,1.21,37.99,1.77,63.34,2.93c16.09,0.74,28.51,14.6,28.05,30.97C1360.97,1131.57,1360.88,1144.78,1360.97,1157.94"/>
							</g>
						</g>
					</g>
					<g class="st20">
						<g>
							<g>
								<path class="st0" d="M1403.66,1605.3c-11.02-52.6-19.85-105.01-26.6-157.66c-11.68-91.11-16.97-182.68-16-275.88
									c0.84,78.13,6.14,155.2,16,231.98c7.58,59.29,17.86,118.36,30.88,177.66C1409.94,1589.95,1408.17,1598.55,1403.66,1605.3"/>
							</g>
						</g>
					</g>
					<g class="st20">
						<g>
							<g>
								<path class="st0" d="M1361.15,1162.26c-0.05,3.16-0.09,6.32-0.09,9.49c-0.05-4.6-0.1-9.21-0.1-13.81
									C1361.15,1159.33,1361.2,1160.82,1361.15,1162.26"/>
							</g>
						</g>
					</g>
					<g>
						<path class="st21" d="M1386.69,1617.34c-24.6,6.23-36.87,9.3-61.48,15.53c-54.46,12.7-103.24-26.79-113.8-79.39
							c-7.77-42.32-14.28-84.5-19.63-126.78c1.49,3.16,28.42,57.43,105.48,47.99c58.97-7.21,75.02-35.76,79.81-70.97
							c7.58,59.3,17.86,118.36,30.88,177.66C1411.66,1597.34,1402.32,1613.39,1386.69,1617.34"/>
					</g>
					<g>
						<path class="st2" d="M1304.8,1652.14c-20.15,0-39.93-5.79-57.4-17.04c-26.88-17.3-46.04-45.84-52.56-78.31
							c-22.76-124.12-35.03-245.51-37.56-371.41c-0.11-33.4,12.95-65.2,35.83-87.53c20.81-20.31,48.13-31.04,77.12-30.28l63.68,2.94
							c25.09,1.16,44.88,22.84,44.12,48.33c-2.3,156.03,12.88,306.23,46.42,458.92c5.79,24.58-9.27,49.78-33.62,55.94l-61.8,15.62
							C1320.97,1651.21,1312.86,1652.14,1304.8,1652.14z M1325.19,1632.88h0.05H1325.19z M1266.89,1101.32
							c-23.81,0-40.41,11.18-50.18,20.72c-16.38,15.98-25.72,38.93-25.64,62.95c2.5,123.77,14.58,243.4,36.96,365.43
							c4.68,23.27,18.43,43.88,37.67,56.26c11.8,7.59,30.99,15.43,55.52,9.78l61.33-15.51c6.58-1.66,10.59-8.7,8.95-15.68
							c-34.16-155.51-49.6-308.25-47.25-467.17c0.22-7.42-5.12-13.51-11.89-13.82l-63.36-2.93
							C1268.28,1101.33,1267.58,1101.32,1266.89,1101.32z"/>
					</g>
					<g>
						<path class="st22" d="M2384.81,681.27c-243.71-147.92-510.31-148.01-754.16,0c-27.96,16.97-64.38,7.35-79.85-21.45
							c-6.31-11.74-12.62-23.48-18.93-35.22c-14-26.05-5.77-58.66,19.15-74.56c292.62-186.69,620.73-186.73,913.41,0
							c24.93,15.9,33.14,48.52,19.15,74.56c-6.31,11.74-12.61,23.48-18.93,35.22C2449.19,688.62,2412.77,698.24,2384.81,681.27"/>
					</g>
					<g class="st20">
						<g>
							<g>
								<path class="st0" d="M2487.8,614.64c-3.77-12.28-11.77-23.3-23.35-30.69c-292.67-186.73-620.83-186.68-913.41,0
									c-11.58,7.39-19.58,18.41-23.39,30.69c-7.44-23.95,1.58-50.65,23.39-64.6c292.58-186.68,620.74-186.73,913.41,0
									C2486.26,563.95,2495.28,590.69,2487.8,614.64"/>
							</g>
						</g>
					</g>
					<g>
						<path class="st23" d="M2483.57,624.59c-6.28,11.77-12.61,23.49-18.88,35.21c-15.49,28.84-51.91,38.46-79.85,21.49
							c-243.75-147.94-510.33-148.04-754.17,0c-27.95,16.97-64.37,7.35-79.85-21.49c-6.32-11.72-12.6-23.44-18.93-35.21
							c-10.23-18.98-8.6-41.48,2.75-58.41c5.39,10.05,10.79,20.09,16.18,30.18c15.49,28.79,51.9,38.42,79.85,21.44
							c243.84-147.99,510.42-147.94,754.17,0c27.95,16.97,64.36,7.35,79.85-21.44c5.39-10.09,10.79-20.14,16.18-30.18
							C2492.17,583.11,2493.8,605.62,2483.57,624.59"/>
					</g>
					<g>
						<path class="st2" d="M1600.69,706.52c-6.5,0-13.02-0.85-19.37-2.58c-19.64-5.36-35.77-18.18-45.41-36.12l-18.93-35.22
							c-18.14-33.78-7.19-76.31,24.95-96.81c148.39-94.67,305.1-142.68,465.77-142.68c160.69,0,317.41,48,465.82,142.68
							c32.13,20.5,43.1,63.02,24.95,96.81l-18.93,35.23c-9.63,17.93-25.75,30.75-45.4,36.11c-19.55,5.33-40.72,2.33-58.1-8.22h0
							c-237.51-144.16-499.11-144.16-736.62,0C1627.68,702.84,1614.21,706.52,1600.69,706.52z M2007.73,426.16
							c-151.65,0-303.29,46.04-447.62,138.12c-17.31,11.04-23.18,34.03-13.35,52.32l18.92,35.22c5.21,9.69,13.92,16.62,24.52,19.51
							c10.79,2.94,22.05,1.34,31.67-4.51c248.82-151.02,522.88-151.02,771.7,0c9.62,5.84,20.87,7.45,31.68,4.5
							c10.61-2.89,19.31-9.82,24.51-19.5l18.93-35.22c9.83-18.3,3.96-41.28-13.35-52.32
							C2311.02,472.2,2159.38,426.16,2007.73,426.16z"/>
					</g>
					<g>
						<path class="st1" d="M2382.12,2277.14v126.99c0,53.21-43.14,96.35-96.35,96.35h-571.23c-53.21,0-96.35-43.14-96.35-96.35
							v-126.99H2382.12z"/>
					</g>
					<g class="st3">
						<path class="st2" d="M2382.1,2347.91v56.23c0,53.19-43.13,96.36-96.32,96.36h-571.22c-53.23,0-96.36-43.17-96.36-96.36v-56.23
							c0,53.23,43.13,96.36,96.36,96.36h571.22C2338.96,2444.27,2382.1,2401.14,2382.1,2347.91"/>
					</g>
					<g>
						<path class="st2" d="M2285.77,2513.14h-571.23c-60.12,0-109.02-48.9-109.02-109.01v-127c0-7,5.67-12.67,12.67-12.67h763.93
							c7,0,12.67,5.67,12.67,12.67v127C2394.79,2464.24,2345.88,2513.14,2285.77,2513.14z M1630.86,2289.8v114.33
							c0,46.14,37.54,83.67,83.68,83.67h571.23c46.14,0,83.68-37.53,83.68-83.67V2289.8H1630.86z"/>
					</g>
					<g>
						<path class="st23" d="M1845.8,2468.43h-118.66c-14.68,0-26.59-11.9-26.59-26.59v-21.68c0-14.68,11.91-26.59,26.59-26.59
							h118.66c14.69,0,26.59,11.91,26.59,26.59v21.68C1872.4,2456.53,1860.49,2468.43,1845.8,2468.43"/>
					</g>
					<g>
						<path class="st2" d="M1845.8,2481.1h-118.66c-21.65,0-39.26-17.61-39.26-39.26v-21.68c0-21.65,17.61-39.26,39.26-39.26h118.66
							c21.66,0,39.27,17.61,39.27,39.26v21.68C1885.07,2463.5,1867.46,2481.1,1845.8,2481.1z M1727.14,2406.24
							c-7.67,0-13.92,6.25-13.92,13.92v21.68c0,7.67,6.25,13.92,13.92,13.92h118.66c7.68,0,13.93-6.25,13.93-13.92v-21.68
							c0-7.68-6.25-13.92-13.93-13.92H1727.14z"/>
					</g>
					<g>
						<path class="st23" d="M2272.29,2468.43h-118.67c-14.68,0-26.59-11.9-26.59-26.59v-21.68c0-14.68,11.91-26.59,26.59-26.59
							h118.67c14.68,0,26.59,11.91,26.59,26.59v21.68C2298.88,2456.53,2286.97,2468.43,2272.29,2468.43"/>
					</g>
					<g>
						<path class="st2" d="M2272.29,2481.1h-118.67c-21.65,0-39.26-17.61-39.26-39.26v-21.68c0-21.65,17.61-39.26,39.26-39.26
							h118.67c21.65,0,39.26,17.61,39.26,39.26v21.68C2311.55,2463.5,2293.94,2481.1,2272.29,2481.1z M2153.62,2406.24
							c-7.68,0-13.92,6.25-13.92,13.92v21.68c0,7.67,6.25,13.92,13.92,13.92h118.67c7.67,0,13.92-6.25,13.92-13.92v-21.68
							c0-7.68-6.25-13.92-13.92-13.92H2153.62z"/>
					</g>
					<g>
						<path class="st1" d="M1778.12,2374.11h444.07v-176.77c0,0-146.73,30.06-222.03,30.06c-75.3,0-222.03-30.06-222.03-30.06
							V2374.11z"/>
					</g>
					<g>
						<path class="st2" d="M2222.19,2386.79h-444.07c-7,0-12.67-5.67-12.67-12.67v-176.78c0-3.81,1.71-7.41,4.66-9.82
							c2.95-2.41,6.83-3.35,10.56-2.6c1.45,0.3,146.35,29.81,219.49,29.81s218.04-29.51,219.49-29.81c3.72-0.75,7.61,0.2,10.56,2.6
							c2.95,2.41,4.66,6.01,4.66,9.82v176.78C2234.86,2381.11,2229.19,2386.79,2222.19,2386.79z M1790.79,2361.44h418.73v-148.68
							c-39.79,7.7-147.2,27.3-209.37,27.3s-169.57-19.6-209.36-27.3V2361.44z"/>
					</g>
					<g>
						<path class="st1" d="M1938.05,2277.14c0,53.56-71.6,96.98-159.93,96.98s-159.93-43.42-159.93-96.98
							c0-53.57,71.6-96.98,159.93-96.98S1938.05,2223.57,1938.05,2277.14"/>
					</g>
					<g>
						<path class="st2" d="M1778.12,2386.79c-96.79,0-172.6-48.16-172.6-109.65c0-61.48,75.82-109.65,172.6-109.65
							s172.6,48.16,172.6,109.65C1950.72,2338.62,1874.91,2386.79,1778.12,2386.79z M1778.12,2192.83
							c-79.82,0-147.26,38.61-147.26,84.31s67.44,84.31,147.26,84.31c79.82,0,147.26-38.61,147.26-84.31
							S1857.94,2192.83,1778.12,2192.83z"/>
					</g>
					<g>
						<path class="st1" d="M2382.12,2277.14c0,53.56-71.6,96.98-159.93,96.98c-88.33,0-159.94-43.42-159.94-96.98
							c0-53.57,71.6-96.98,159.94-96.98C2310.51,2180.16,2382.12,2223.57,2382.12,2277.14"/>
					</g>
					<g>
						<path class="st2" d="M2222.19,2386.79c-96.79,0-172.61-48.16-172.61-109.65c0-61.48,75.82-109.65,172.61-109.65
							c96.79,0,172.6,48.16,172.6,109.65C2394.79,2338.62,2318.98,2386.79,2222.19,2386.79z M2222.19,2192.83
							c-79.82,0-147.27,38.61-147.27,84.31s67.44,84.31,147.27,84.31c79.82,0,147.26-38.61,147.26-84.31
							S2302.01,2192.83,2222.19,2192.83z"/>
					</g>
					<g>
						<path class="st2" d="M1807.1,2232.28c0,10.81-12.89,19.57-28.79,19.57c-15.9,0-28.8-8.76-28.8-19.57
							c0-10.81,12.89-19.57,28.8-19.57C1794.21,2212.71,1807.1,2221.47,1807.1,2232.28"/>
					</g>
					<g>
						<path class="st2" d="M1866.13,2272.65c0,10.81-12.89,19.57-28.79,19.57c-15.9,0-28.8-8.76-28.8-19.57
							c0-10.81,12.89-19.57,28.8-19.57C1853.24,2253.08,1866.13,2261.84,1866.13,2272.65"/>
					</g>
					<g>
						<path class="st2" d="M1806.92,2313.02c0,10.81-12.89,19.57-28.8,19.57c-15.9,0-28.8-8.76-28.8-19.57
							c0-10.81,12.89-19.57,28.8-19.57C1794.02,2293.45,1806.92,2302.21,1806.92,2313.02"/>
					</g>
					<g>
						<path class="st2" d="M1747.7,2272.65c0,10.81-12.89,19.57-28.79,19.57c-15.9,0-28.8-8.76-28.8-19.57
							c0-10.81,12.89-19.57,28.8-19.57C1734.81,2253.08,1747.7,2261.84,1747.7,2272.65"/>
					</g>
					<g>
						<path class="st2" d="M2310.22,2272.65c0,10.81-12.9,19.57-28.81,19.57h-30.42v20.8c0,10.81-12.9,19.56-28.81,19.56
							c-15.91,0-28.81-8.76-28.81-19.56v-20.8h-30.42c-15.92,0-28.82-8.76-28.82-19.57c0-10.81,12.9-19.57,28.82-19.57h30.42v-20.8
							h0.19c0-10.81,12.9-19.57,28.81-19.57c15.92,0,28.81,8.76,28.81,19.57c0,0.74-0.07,1.45-0.19,2.2v18.6h30.42
							C2297.32,2253.07,2310.22,2261.84,2310.22,2272.65"/>
					</g>
					<g>
						<path class="st0" d="M1545.7,2232.28c14.91-34.94,116.61-89.86,195.07-50.63c29.32,14.66,62.37,66.59,37.53,87.72
							c-24.41,20.75-58.18,0.47-74.02-0.4c-33.45-1.83-55.45,37.68-55.69,51.09c-0.36,19.58,28.8,26.6,77.03,37.77
							c75.93,17.59,97.09,27.33,92.77,65.14c-7.73,67.56-155.73,22.24-158.35,48.08c-1.5,14.86,29.46,38.02,121.52,35.04
							c-5.95,76.54-119.48,54.19-146.1,47.22c-97.67-25.6-130.84-98.65-133.73-166.4"/>
					</g>
					<g>
						<path class="st0" d="M1818.39,2422.98c-7.73,67.55-155.76,22.22-158.37,48.08c-1.48,14.87,29.48,38.02,121.53,35.06
							c-5.96,76.5-119.46,54.15-146.12,47.19c-97.67-25.6-130.83-98.64-133.7-166.4l43.98-154.62
							c14.91-34.93,116.6-89.85,195.04-50.65c20.83,10.39,43.52,39.58,46.05,63.2c1.06,9.67-1.27,18.42-8.49,24.55
							c-24.42,20.74-58.17,0.46-74.06-0.43c-33.41-1.82-55.42,37.69-55.67,51.12c-0.09,4.26,1.27,7.94,3.89,11.19
							c4.06,4.99,11.15,9,20.91,12.59c0.08,0.04,0.12,0.04,0.12,0.04c13.01,4.82,30.67,8.96,52.13,13.94
							C1801.54,2375.41,1822.7,2385.17,1818.39,2422.98"/>
					</g>
					<g class="st3">
						<path class="st2" d="M1660.02,2471.05c-1.48,14.87,29.48,38.02,121.54,35.06c-0.76,9.59-3.17,17.57-6.93,24.29
							c-46.64,5.02-128.08-7.14-147.6-48.5c-20.95-44.36,10.06-64.71,48.08-57.71c31.47,5.79,103.37,20.87,142.62,2.92
							C1804.45,2488.62,1662.59,2445.75,1660.02,2471.05"/>
					</g>
					<g class="st3">
						<path class="st2" d="M1778.3,2269.38c-24.42,20.74-58.17,0.46-74.05-0.43c-33.41-1.81-55.42,37.69-55.68,51.12
							c-0.08,4.27,1.27,7.94,3.89,11.19c-14.62-11.02-30.92-29.02-27.8-53.1c5.45-42.24,41.86-55.17,66.83-41.78
							c21.46,11.54,63.29,28.86,95.31,8.45C1787.85,2254.51,1785.53,2263.25,1778.3,2269.38"/>
					</g>
					<g>
						<path class="st2" d="M1537.93,2228.96c1.58-6.7,4.56-12.44,8.01-17.48c3.39-5.12,7.37-9.63,11.46-13.87
							c8.34-8.36,17.73-15.22,27.61-21.11c9.9-5.88,20.46-10.46,31.27-14.33c10.82-3.84,21.97-6.87,33.39-8.93
							c22.79-4.16,46.95-4.14,70.42,1.63c5.86,1.42,11.63,3.31,17.27,5.55c2.86,1.02,5.6,2.36,8.36,3.62
							c1.44,0.7,2.63,1.14,4.26,2.06c1.57,0.82,3.1,1.69,4.52,2.59c11.48,7.24,20.29,15.89,27.83,25.64
							c7.48,9.76,13.73,20.44,18.02,32.97c2.09,6.31,3.63,13.19,3.77,20.89c0.05,7.63-1.5,16.6-6.53,24.4
							c-2.34,3.91-5.61,7.29-8.8,10c-2.89,2.4-6.06,4.55-9.45,6.38c-6.81,3.63-14.38,5.67-21.53,6.32
							c-14.42,1.24-26.79-2.01-37.5-5.01c-5.32-1.52-10.43-3.15-14.25-3.99c-0.95-0.21-1.71-0.33-2.28-0.41
							c-0.24-0.04-1.13-0.04-1.9-0.06c-1.55,0.03-3.09,0.14-4.63,0.49c-6.11,1.17-12.57,5.15-18.2,11.02
							c-5.56,5.7-10.54,13.62-12.86,20.37c-0.56,1.5-0.76,3.19-0.73,2.68c0.03,0.38,0.02,0.06-0.02,0.03
							c-0.27-0.19,1.22,1.72,4.48,3.45c3.13,1.78,7.31,3.51,11.75,5.04c4.44,1.55,9.23,2.94,14.1,4.28
							c9.78,2.64,19.98,5.02,30.25,7.41c10.34,2.4,20.82,4.84,31.33,7.6c10.54,2.78,21.14,5.72,32.08,9.82
							c5.47,2.07,11.03,4.43,16.72,7.58c5.65,3.13,11.6,7.16,16.93,13.06c5.36,5.81,9.43,13.75,11.14,21.33
							c1.77,7.61,1.77,14.62,1.31,20.99c-0.17,1.63-0.24,3.02-0.5,4.83c-0.26,1.82-0.52,3.63-0.98,5.48
							c-0.79,3.67-2.09,7.39-3.76,10.97c-3.34,7.2-8.62,13.57-14.47,18.26c-11.91,9.42-24.67,13.02-36.41,15.48
							c-23.65,4.44-45.71,3.68-67.04,3.3c-10.57-0.22-21.13-0.58-30.44-0.1c-2.29,0.13-4.51,0.32-6.35,0.6
							c-1.78,0.25-3.49,0.71-3.54,0.8c-0.11,0.01,0.51-0.14,1.53-1.12c1.09-0.91,2.8-3.49,3.13-5.72c0.05-0.28,0.09-0.56,0.11-0.85
							l0.05-0.39c0.02-0.2,0.02-0.42-0.01-0.62c0.06-0.32-0.1-0.74-0.09-0.94c-0.16-0.55-0.19-0.69-0.22-0.71
							c-0.04,0.21,2.26,2.7,5.32,4.49c3.08,1.93,7.03,3.69,11.19,5.2c8.38,3.04,17.87,5.07,27.55,6.51
							c19.47,2.8,39.91,3.28,60.37,2.61c9.42-0.32,17.32,7.07,17.63,16.5c0.02,0.62,0,1.28-0.05,1.9
							c-0.79,10.27-3.4,21.2-8.93,31.21c-5.5,10.01-13.89,18.51-23.07,24.32c-9.2,5.86-18.98,9.48-28.54,11.83
							c-9.58,2.34-19.05,3.47-28.34,3.95c-18.6,0.89-36.58-0.69-54.25-3.56c-8.84-1.48-17.57-3.21-26.51-5.64
							c-8.79-2.23-17.48-5.09-26.07-8.31c-17.1-6.72-33.62-15.71-48.46-27.27c-7.34-5.85-14.31-12.24-20.6-19.25
							c-6.25-7.05-11.93-14.59-16.93-22.51c-4.93-7.97-9.16-16.32-12.69-24.89c-3.34-8.65-6.24-17.4-8.08-26.36
							c-3.91-17.84-4.93-36.02-2.84-53.67c0.55-4.69,4.8-8.05,9.5-7.5c3.72,0.44,6.6,3.2,7.36,6.66l0.03,0.12
							c3.52,16.15,7.69,31.67,13.36,46.31c2.94,7.27,5.94,14.43,9.66,21.16c3.53,6.82,7.5,13.33,11.93,19.46
							c8.71,12.34,19.21,23.24,31.22,32.32c5.95,4.62,12.23,8.86,18.87,12.6c6.65,3.72,13.62,6.97,20.74,9.97
							c7.19,2.86,14.53,5.5,22.1,7.6c7.37,2.12,15.27,3.69,23.1,5.05c15.7,2.63,31.63,4.05,46.87,3.33
							c15.12-0.69,29.87-3.76,40.09-10.29c5.1-3.25,8.91-7.22,11.62-12.04c2.68-4.83,4.27-10.69,4.8-17.26l17.59,18.4
							c-21.87,0.64-43.97,0.16-66.47-3.13c-11.25-1.73-22.6-4.09-34.15-8.28c-5.77-2.14-11.6-4.64-17.51-8.33
							c-2.94-1.8-5.92-4.01-8.87-6.7c-2.92-2.72-5.9-5.99-8.4-10.66c-1.22-2.36-2.34-4.96-2.99-8.12c-0.37-1.47-0.5-3.24-0.63-4.87
							c-0.01-0.87,0.01-1.74,0.05-2.61c0.03-0.47,0.03-0.8,0.11-1.38l0.3-1.82c0.82-4.83,3.89-9.84,6.96-12.52
							c3-2.74,5.92-4.27,8.26-5.27c4.84-2.01,8.38-2.56,11.82-3.14c3.4-0.51,6.47-0.75,9.47-0.92c11.86-0.59,22.5-0.15,33.1,0.05
							c20.95,0.46,41.61,0.82,59.7-2.67c8.89-1.74,17.01-4.69,21.75-8.63c2.39-1.96,4-3.97,5.14-6.39c0.55-1.23,1.06-2.52,1.36-4.03
							c0.21-0.71,0.29-1.53,0.42-2.33c0.14-0.81,0.21-2.07,0.33-3.07c0.31-4.17,0.15-7.89-0.51-10.61c-0.68-2.74-1.6-4.51-3.39-6.54
							c-3.47-4.08-11.63-8.33-20.44-11.6c-8.91-3.35-18.74-6.13-28.69-8.74c-9.98-2.61-20.14-4.98-30.44-7.38
							c-10.36-2.42-20.8-4.84-31.48-7.73c-5.35-1.46-10.75-3.02-16.31-4.95c-5.56-1.95-11.27-4.16-17.37-7.59
							c-3.04-1.73-6.21-3.79-9.42-6.64c-3.17-2.82-6.45-6.63-8.78-11.46c-2.37-4.8-3.47-10.44-3.35-15.36
							c0.24-5.82,1.38-9.31,2.48-12.83c2.32-6.77,5.27-12.43,8.69-17.89c3.43-5.42,7.35-10.51,11.9-15.22
							c8.99-9.31,20.97-17.66,35.78-20.66c3.65-0.77,7.41-1.12,11.15-1.16c1.87,0.03,3.63,0.02,6.03,0.29
							c2.05,0.26,3.9,0.6,5.54,0.96c6.53,1.48,11.49,3.15,16.37,4.52c9.56,2.79,18.25,4.54,25.07,3.85c3.39-0.33,6.22-1.16,8.78-2.5
							c1.27-0.7,2.49-1.53,3.7-2.51c0.76-0.78,1.26-1.22,1.59-1.91c0.76-1.16,1.18-3.09,1.15-5.97c-0.12-2.9-0.87-6.49-2.18-10.2
							c-2.76-7.49-7.58-15.22-13.24-22.03c-5.7-6.74-12.26-13.15-18.83-17.06c-0.82-0.52-1.61-0.94-2.39-1.34
							c-0.66-0.4-1.96-0.91-2.9-1.36c-2.06-0.93-4.08-1.94-6.23-2.68c-4.2-1.68-8.55-3.01-12.95-4.18
							c-17.66-4.7-36.79-4.93-55.72-2.08c-18.99,2.8-37.62,9.29-55.17,17.51c-8.78,4.11-17.4,8.61-25.52,13.6
							c-8.02,4.96-15.88,10.61-21.3,16.68l-0.9,1.01c-3.13,3.51-8.52,3.81-12.03,0.67
							C1538.14,2235.12,1537.25,2231.9,1537.93,2228.96"/>
					</g>
					<g>
						<path class="st0" d="M2519.26,2171.71c-49.57,1.49-160.03,25.63-160.03,25.63s-38.67,238.9,28.36,283.33
							c45.81,30.36,227.92,41.57,311.96-25.52c65.91-52.63,87.09-179.52-7-330.97"/>
					</g>
					<g class="st3">
						<path class="st2" d="M2396.51,2485.58c56.94,26.44,223.68,32.91,303.01-30.42c46.26-36.92,70.51-110.43,48.33-203.32
							c3.8,96.06-48.96,239.52-263.81,136.95L2396.51,2485.58z"/>
					</g>
					<g>
						<path class="st2" d="M2519.51,2180.15c-12.85,2.13-25.9,5.12-38.91,7.96l-39.09,9.21c-13.05,3.07-26.07,6.34-39.18,9.18
							c-13.07,2.9-26.32,5.45-39.5,7.35l13.07-13.81c-5.88,39.24-9.64,79.76-10.67,119.56c-0.47,19.94-0.19,39.84,1.41,59.37
							c1.61,19.47,4.52,38.81,10.25,56.05c2.84,8.58,6.57,16.5,11.09,22.69c2.26,3.08,4.71,5.67,7.28,7.65
							c2.37,1.89,6.01,3.73,9.77,5.49c7.84,3.41,16.9,6.1,26.13,8.26c9.25,2.2,18.86,3.77,28.5,5.07
							c38.71,4.98,78.73,4.69,117.44-0.74c19.36-2.78,38.45-6.9,56.59-13.01c9.1-2.99,17.92-6.53,26.34-10.64
							c8.5-3.98,16.4-8.8,23.8-14.05c29.29-20.54,46.81-55.45,52.7-92.35c6.11-37.15,1.44-76.31-9.38-113.55
							c-10.84-37.39-28.18-73.14-48.96-106.77l-0.04-0.07c-4.9-7.94-2.45-18.35,5.5-23.26c7.93-4.9,18.35-2.45,23.25,5.49v0
							c22.08,35.73,40.77,74.08,52.7,115.14c11.85,40.91,17.4,84.82,10.28,128.48c-1.84,10.87-4.4,21.68-7.87,32.29
							c-3.54,10.59-8.01,20.94-13.46,30.85c-10.82,19.74-26.13,38-44.94,51.14c-9.22,6.56-18.85,12.35-28.82,17.04
							c-9.92,4.85-20.08,8.9-30.37,12.29c-20.55,6.91-41.51,11.4-62.54,14.42c-42.09,5.87-84.43,6.19-126.66,0.79
							c-10.57-1.43-21.13-3.15-31.74-5.66c-10.62-2.52-21.24-5.55-32.12-10.27c-5.46-2.55-11.05-5.25-16.75-9.64
							c-5.52-4.26-10.07-9.23-13.84-14.36c-7.51-10.32-12.3-21.22-15.91-31.96c-7.11-21.55-10.1-42.92-11.9-64.05
							c-1.73-21.15-2.01-42.11-1.52-62.96c0.49-20.84,1.8-41.57,3.65-62.21c1.9-20.72,4.23-41.04,7.44-61.95
							c1.08-7.02,6.38-12.35,12.93-13.78l0.14-0.03c13.25-3.81,26.51-6.63,39.96-8.93c13.43-2.37,26.99-3.99,40.59-5.54
							c13.59-1.51,27.26-2.68,41.04-3.29c13.77-0.73,27.6-1.02,41.79,0.19c4.68,0.4,8.15,4.51,7.75,9.2
							c-0.34,3.95-3.33,7.05-7.08,7.67L2519.51,2180.15z"/>
					</g>
					<g>
						<path class="st2" d="M1283.87,2451.52c-5.13,0-9.96-3.13-11.87-8.22c-26.38-70.31-17.82-135.13,25.44-192.65
							c76.3-101.46,210.21-89.56,236.26-86.13c6.94,0.91,11.83,7.27,10.92,14.21c-0.91,6.94-7.29,11.84-14.21,10.92
							c-14.5-1.9-143.44-15.89-212.72,76.24c-37.71,50.15-45.1,106.84-21.96,168.51c2.46,6.55-0.86,13.86-7.41,16.32
							C1286.86,2451.26,1285.35,2451.52,1283.87,2451.52z"/>
					</g>
					<g>
						<path class="st2" d="M2716.52,2451.52c-1.48,0-2.98-0.26-4.45-0.81c-6.55-2.46-9.87-9.77-7.41-16.32
							c23.14-61.67,15.75-118.36-21.96-168.51c-69.28-92.12-198.23-78.14-212.72-76.24c-6.92,0.9-13.3-3.98-14.21-10.92
							c-0.91-6.94,3.97-13.3,10.92-14.21c26.07-3.43,159.98-15.33,236.26,86.13c43.26,57.52,51.82,122.34,25.44,192.65
							C2726.48,2448.38,2721.65,2451.52,2716.52,2451.52z"/>
					</g>
					<g>
						<path class="st0" d="M2181.96,2422.98c7.73,67.55,155.75,22.22,158.37,48.08c1.48,14.87-29.48,38.02-121.53,35.06
							c5.96,76.5,119.47,54.15,146.12,47.19c97.67-25.6,130.83-98.64,133.7-166.4l-43.98-154.62
							c-14.91-34.93-116.6-89.85-195.04-50.65c-20.83,10.39-43.51,39.58-46.05,63.2c-1.06,9.67,1.27,18.42,8.49,24.55
							c24.42,20.74,58.17,0.46,74.06-0.43c33.42-1.82,55.42,37.69,55.67,51.12c0.09,4.26-1.27,7.94-3.89,11.19
							c-4.06,4.99-11.15,9-20.91,12.59c-0.08,0.04-0.13,0.04-0.13,0.04c-13.01,4.82-30.67,8.96-52.13,13.94
							C2198.82,2375.41,2177.65,2385.17,2181.96,2422.98"/>
					</g>
					<g class="st3">
						<path class="st2" d="M2340.33,2471.05c1.48,14.87-29.48,38.02-121.54,35.06c0.76,9.59,3.17,17.57,6.93,24.29
							c46.64,5.02,128.08-7.14,147.6-48.5c20.95-44.36-10.05-64.71-48.07-57.71c-31.48,5.79-103.38,20.87-142.62,2.92
							C2195.91,2488.62,2337.76,2445.75,2340.33,2471.05"/>
					</g>
					<g class="st3">
						<path class="st2" d="M2222.05,2269.38c24.42,20.74,58.17,0.46,74.05-0.43c33.41-1.81,55.42,37.69,55.68,51.12
							c0.08,4.27-1.27,7.94-3.89,11.19c14.62-11.02,30.92-29.02,27.8-53.1c-5.45-42.24-41.86-55.17-66.83-41.78
							c-21.46,11.54-63.29,28.86-95.31,8.45C2212.5,2254.51,2214.83,2263.25,2222.05,2269.38"/>
					</g>
					<g>
						<path class="st2" d="M2446.88,2235.6c-5.43-6.07-13.28-11.71-21.3-16.68c-8.12-5-16.73-9.5-25.52-13.6
							c-17.56-8.22-36.19-14.71-55.18-17.51c-18.93-2.84-38.06-2.62-55.72,2.08c-4.41,1.17-8.75,2.5-12.95,4.18
							c-2.15,0.74-4.17,1.75-6.23,2.68c-0.95,0.45-2.24,0.96-2.9,1.36c-0.78,0.4-1.57,0.82-2.38,1.34
							c-6.57,3.92-13.13,10.32-18.83,17.06c-5.66,6.82-10.48,14.55-13.23,22.03c-1.32,3.71-2.07,7.3-2.19,10.2
							c-0.03,2.88,0.38,4.82,1.15,5.97c0.32,0.69,0.82,1.14,1.59,1.91c1.2,0.98,2.42,1.8,3.7,2.5c2.56,1.34,5.38,2.17,8.78,2.5
							c6.81,0.68,15.5-1.06,25.07-3.85c4.88-1.36,9.84-3.04,16.37-4.52c1.64-0.36,3.49-0.7,5.54-0.96c2.4-0.27,4.17-0.26,6.03-0.29
							c3.74,0.03,7.5,0.39,11.15,1.16c14.81,3,26.79,11.35,35.78,20.66c4.56,4.71,8.47,9.8,11.91,15.21
							c3.41,5.47,6.37,11.13,8.69,17.9c1.1,3.51,2.23,7.01,2.48,12.83c0.12,4.92-0.98,10.56-3.35,15.35
							c-2.33,4.84-5.61,8.64-8.78,11.46c-3.2,2.86-6.37,4.91-9.41,6.65c-6.1,3.43-11.81,5.64-17.37,7.59
							c-5.56,1.93-10.96,3.49-16.31,4.95c-10.68,2.89-21.12,5.31-31.48,7.73c-10.3,2.39-20.46,4.76-30.44,7.38
							c-9.95,2.61-19.78,5.39-28.69,8.74c-8.81,3.27-16.97,7.51-20.44,11.6c-1.79,2.03-2.71,3.8-3.39,6.54
							c-0.66,2.72-0.82,6.43-0.51,10.61c0.11,1.01,0.19,2.26,0.32,3.07c0.14,0.8,0.22,1.62,0.42,2.34c0.3,1.51,0.8,2.81,1.36,4.03
							c1.14,2.42,2.75,4.44,5.14,6.39c4.74,3.93,12.86,6.89,21.74,8.63c18.09,3.48,38.75,3.13,59.7,2.67
							c10.61-0.2,21.24-0.64,33.11-0.05c3,0.17,6.07,0.41,9.46,0.92c3.44,0.57,6.98,1.12,11.82,3.14c2.34,1,5.26,2.53,8.26,5.27
							c3.07,2.68,6.15,7.69,6.97,12.52l0.3,1.82c0.07,0.58,0.07,0.91,0.11,1.38c0.04,0.87,0.05,1.74,0.05,2.61
							c-0.12,1.63-0.25,3.4-0.63,4.87c-0.64,3.16-1.76,5.75-2.98,8.12c-2.5,4.66-5.48,7.94-8.4,10.66c-2.94,2.69-5.93,4.9-8.87,6.7
							c-5.91,3.69-11.73,6.2-17.51,8.33c-11.55,4.19-22.9,6.55-34.15,8.28c-22.5,3.28-44.59,3.77-66.46,3.13l17.59-18.4
							c0.54,6.56,2.12,12.43,4.8,17.26c2.71,4.81,6.52,8.78,11.62,12.03c10.22,6.54,24.97,9.61,40.09,10.3
							c15.23,0.71,31.16-0.71,46.87-3.33c7.83-1.36,15.73-2.93,23.09-5.05c7.57-2.11,14.92-4.74,22.11-7.6
							c7.12-3.01,14.08-6.25,20.74-9.98c6.64-3.74,12.93-7.98,18.87-12.6c12.01-9.08,22.51-19.98,31.22-32.32
							c4.42-6.13,8.41-12.64,11.93-19.46c3.71-6.74,6.71-13.89,9.66-21.16c5.67-14.64,9.84-30.16,13.36-46.31l0.02-0.1
							c1.01-4.62,5.57-7.54,10.18-6.54c3.66,0.8,6.25,3.84,6.67,7.36c2.08,17.65,1.07,35.84-2.84,53.67
							c-1.84,8.96-4.74,17.71-8.08,26.36c-3.52,8.56-7.76,16.91-12.68,24.88c-5.01,7.92-10.68,15.46-16.93,22.51
							c-6.29,7.02-13.26,13.41-20.6,19.26c-14.83,11.56-31.35,20.55-48.45,27.27c-8.6,3.21-17.29,6.08-26.07,8.31
							c-8.93,2.42-17.67,4.16-26.51,5.64c-17.67,2.87-35.65,4.45-54.25,3.56c-9.3-0.48-18.76-1.61-28.34-3.95
							c-9.56-2.36-19.34-5.97-28.54-11.84c-9.18-5.81-17.57-14.3-23.07-24.32c-5.54-10.01-8.14-20.94-8.93-31.21
							c-0.74-9.4,6.29-17.62,15.69-18.36c0.63-0.05,1.28-0.06,1.9-0.04c20.46,0.67,40.9,0.2,60.37-2.6
							c9.68-1.44,19.17-3.47,27.55-6.51c4.16-1.5,8.11-3.26,11.19-5.2c3.06-1.8,5.36-4.28,5.32-4.49c-0.02,0.02-0.05,0.16-0.21,0.71
							c0.01,0.2-0.16,0.63-0.09,0.94c-0.03,0.21-0.03,0.42-0.01,0.63l0.05,0.39c0.02,0.28,0.05,0.57,0.11,0.85
							c0.33,2.23,2.05,4.82,3.13,5.72c1.02,0.98,1.64,1.13,1.53,1.12c-0.04-0.08-1.76-0.55-3.54-0.79c-1.84-0.28-4.06-0.47-6.35-0.6
							c-9.31-0.48-19.87-0.13-30.44,0.1c-21.32,0.37-43.39,1.14-67.04-3.3c-11.74-2.46-24.49-6.06-36.41-15.48
							c-5.85-4.68-11.13-11.06-14.47-18.26c-1.67-3.58-2.96-7.3-3.75-10.97c-0.46-1.85-0.72-3.66-0.98-5.48
							c-0.26-1.82-0.33-3.21-0.5-4.83c-0.45-6.37-0.46-13.38,1.32-20.99c1.7-7.58,5.77-15.52,11.14-21.33
							c5.33-5.89,11.28-9.93,16.93-13.05c5.69-3.16,11.26-5.51,16.72-7.58c10.93-4.1,21.54-7.05,32.07-9.83
							c10.52-2.75,21-5.19,31.33-7.59c10.27-2.4,20.48-4.77,30.25-7.41c4.87-1.33,9.66-2.72,14.1-4.28
							c4.44-1.53,8.61-3.26,11.75-5.04c3.26-1.74,4.75-3.64,4.48-3.46c-0.05,0.03-0.05,0.35-0.03-0.03
							c0.03,0.51-0.17-1.17-0.73-2.68c-2.31-6.75-7.3-14.68-12.86-20.38c-5.63-5.86-12.09-9.85-18.2-11.01
							c-1.53-0.34-3.08-0.46-4.63-0.49c-0.77,0.02-1.67,0.02-1.9,0.05c-0.58,0.08-1.34,0.2-2.28,0.41
							c-3.81,0.84-8.93,2.47-14.25,3.98c-10.7,3-23.08,6.26-37.5,5.01c-7.15-0.65-14.72-2.68-21.54-6.32
							c-3.39-1.83-6.56-3.99-9.45-6.38c-3.19-2.72-6.47-6.09-8.8-10c-5.02-7.8-6.58-16.77-6.53-24.4c0.14-7.7,1.69-14.58,3.77-20.89
							c4.29-12.53,10.55-23.2,18.02-32.97c7.54-9.75,16.34-18.4,27.83-25.64c1.42-0.9,2.95-1.76,4.52-2.59
							c1.63-0.92,2.83-1.36,4.26-2.06c2.77-1.26,5.5-2.6,8.36-3.62c5.64-2.23,11.41-4.13,17.27-5.55
							c23.46-5.78,47.62-5.8,70.42-1.64c11.42,2.06,22.57,5.09,33.39,8.93c10.81,3.86,21.36,8.44,31.26,14.32
							c9.88,5.88,19.28,12.75,27.61,21.11c4.11,4.24,8.08,8.75,11.47,13.87c3.45,5.04,6.43,10.78,8.01,17.48
							c1.08,4.58-1.76,9.17-6.34,10.25c-3.14,0.74-6.29-0.36-8.3-2.61L2446.88,2235.6z"/>
					</g>
					<g>
						<path class="st24" d="M2117.66,2814.12c16.12,71.97-34.54,146.59-117.67,146.59c-83.12,0-133.79-74.63-117.67-146.59
							c12.66-56.48,64.32-94.08,117.67-94.08C2053.34,2720.05,2105.01,2757.64,2117.66,2814.12"/>
					</g>
					<g>
						<path class="st25" d="M2084.71,2809.5c11.6,51.81-24.87,105.53-84.71,105.53c-59.84,0-96.32-53.72-84.71-105.53
							c9.11-40.66,46.3-67.72,84.71-67.72C2038.4,2741.78,2075.59,2768.84,2084.71,2809.5"/>
					</g>
					<g>
						<path class="st26" d="M2000,2915.03c-58.54,0-94.74-51.44-85.38-102.21c7.05,38.31,39.27,70.21,85.38,70.21
							c46.11,0,78.32-31.9,85.37-70.21C2094.74,2863.59,2058.53,2915.03,2000,2915.03"/>
					</g>
					<g class="st9">
						<g>
							<g>
								<path class="st0" d="M2086.06,2840.38c-0.33-2.53-0.78-5.04-1.35-7.57c-9.12-40.68-46.32-67.73-84.72-67.73
									c-38.4,0-75.6,27.04-84.72,67.73c-0.57,2.53-1.02,5.04-1.35,7.57c-1.35-10.06-0.96-20.51,1.35-30.88
									c9.12-40.66,46.32-67.73,84.72-67.73c38.4,0,75.59,27.07,84.72,67.73C2087.02,2819.87,2087.41,2830.32,2086.06,2840.38"/>
							</g>
						</g>
					</g>
					<g>
						<path class="st2" d="M2000,2931.93c-32.63,0-61.41-13.5-81.04-38.01c-19.81-24.74-27.16-56.86-20.16-88.11
							c10.51-46.89,53.07-80.93,101.2-80.93c48.13,0,90.69,34.03,101.2,80.92v0c7,31.25-0.35,63.37-20.16,88.11
							C2061.41,2918.43,2032.63,2931.93,2000,2931.93z M2000,2758.68c-31.93,0-61.26,23.44-68.22,54.52
							c-4.68,20.87,0.39,43.15,13.55,59.59c13.09,16.34,32.5,25.34,54.66,25.34c22.16,0,41.58-9,54.66-25.34
							c13.16-16.44,18.23-38.72,13.55-59.59l0,0C2061.25,2782.12,2031.92,2758.68,2000,2758.68z"/>
					</g>
					<g>
						<path class="st25" d="M2849.56,2525c55.18,12.02,99.57,57.89,83.74,99.1c-15.83,41.21-79.51,45.58-128.55,17.57
							c-38.49-21.98-55.88-58.05-45.72-84.5C2769.19,2530.72,2806.24,2515.57,2849.56,2525"/>
					</g>
					<g class="st9">
						<g>
							<g>
								<path class="st0" d="M2932.45,2586.43c-15.61-20.59-42.62-37.35-72.85-43.92c-43.3-9.45-80.37,5.74-90.53,32.17
									c-4.39,11.42-3.63,24.63,1.74,37.72c-13.7-18.28-18.16-38.64-11.8-55.23c10.18-26.44,47.23-41.61,90.53-32.17
									C2888.01,2533.37,2921.23,2558.19,2932.45,2586.43"/>
							</g>
						</g>
					</g>
					<g>
						<path class="st26" d="M2933.3,2624.09c-15.83,41.23-79.52,45.59-128.56,17.57c-22.21-12.69-37.41-30.1-44.32-47.61
							c6.8,6.76,15,13.01,24.46,18.42c49.04,28.02,112.72,23.66,128.55-17.57c4.66-12.11,4.11-24.62-0.41-36.55
							C2932.51,2577.41,2941.99,2601.45,2933.3,2624.09"/>
					</g>
					<g>
						<path class="st2" d="M2869.57,2676.44c-24.16,0-50.08-6.89-73.2-20.1c-44.44-25.38-66.78-69.63-53.12-105.22
							c13.68-35.59,59.89-53.54,109.9-42.63h0c39.82,8.67,74.63,32.72,90.84,62.77c10.58,19.61,12.34,39.98,5.08,58.9
							c-7.27,18.92-22.21,32.88-43.2,40.36C2894.73,2674.5,2882.39,2676.44,2869.57,2676.44z M2823.78,2539.02
							c-25.92,0-43.93,11.05-48.99,24.21c-6.39,16.65,4.87,44.66,38.33,63.76c26.67,15.23,58.61,19.82,81.4,11.69
							c11.59-4.13,19.33-11.07,23-20.64c3.67-9.57,2.57-19.91-3.27-30.73c-11.49-21.29-38.3-39.27-68.3-45.81
							C2838.08,2539.79,2830.66,2539.02,2823.78,2539.02z"/>
					</g>
					<g>
						<path class="st24" d="M1388.87,2741.41c-33.19,59.41-7.85,127.53,65.84,135.56c73.69,8.03,138.21-50.29,142.8-112.82
							c3.61-49.07-32.33-85.92-79.63-91.07C1470.59,2667.93,1414.92,2694.78,1388.87,2741.41"/>
					</g>
					<g>
						<path class="st24" d="M2611.5,2741.41c33.18,59.41,7.85,127.53-65.84,135.56c-73.69,8.03-138.21-50.29-142.81-112.82
							c-3.61-49.07,32.33-85.92,79.63-91.07C2529.78,2667.93,2585.46,2694.78,2611.5,2741.41"/>
					</g>
					<g>
						<path class="st25" d="M1392.42,2729.73c-27.11,48.54-6.42,104.19,53.79,110.75c60.21,6.56,112.91-41.08,116.67-92.17
							c2.94-40.09-26.42-70.19-65.06-74.4C1459.19,2669.7,1413.7,2691.64,1392.42,2729.73"/>
					</g>
					<g>
						<path class="st26" d="M1446.21,2840.48c58.9,6.43,110.65-39.06,116.35-88.9c-18.51,36.06-60.42,63.2-106.81,58.14
							c-46.4-5.06-69.3-39.26-64.99-76.87C1366.21,2780.63,1387.31,2834.06,1446.21,2840.48"/>
					</g>
					<g class="st9">
						<g>
							<g>
								<path class="st0" d="M1381.85,2759.27c1.09-2.4,2.29-4.76,3.62-7.13c21.3-38.12,66.78-60.03,105.42-55.82
									c38.63,4.21,67.99,34.29,65.06,74.4c-0.18,2.5-0.47,4.96-0.9,7.43c4.36-9.53,7.08-19.62,7.84-29.84
									c2.93-40.09-26.43-70.2-65.06-74.41c-38.63-4.21-84.12,17.73-105.41,55.82C1387,2739.44,1383.49,2749.45,1381.85,2759.27"/>
							</g>
						</g>
					</g>
					<g>
						<path class="st2" d="M1457.53,2858c-4.37,0-8.76-0.24-13.16-0.72c-32.67-3.56-57.98-19.72-71.28-45.48
							c-13.79-26.73-12.09-60.49,4.57-90.31v0c23.71-42.43,74.98-69.54,121.99-64.37c49.12,5.35,83.54,45.09,80.07,92.43
							c-2.16,29.43-17.78,58.28-42.83,79.15C1513.93,2847.82,1486.15,2858,1457.53,2858z M1407.17,2737.97
							c-11.11,19.9-12.62,41.7-4.04,58.33c7.93,15.36,23.88,25.09,44.91,27.38c24.01,2.61,47.86-4.83,67.23-20.96
							c18.05-15.03,29.26-35.31,30.76-55.65c2.15-29.26-18.89-52.97-50.03-56.36C1462.46,2687.08,1424.27,2707.37,1407.17,2737.97
							L1407.17,2737.97z"/>
					</g>
					<g>
						<path class="st25" d="M1147.3,2525c-55.18,12.02-99.57,57.89-83.74,99.1c15.82,41.21,79.51,45.58,128.55,17.57
							c38.5-21.98,55.88-58.05,45.72-84.5C1227.66,2530.72,1190.61,2515.57,1147.3,2525"/>
					</g>
					<g class="st9">
						<g>
							<g>
								<path class="st0" d="M1064.39,2586.43c15.61-20.59,42.62-37.35,72.85-43.92c43.3-9.45,80.37,5.74,90.53,32.17
									c4.39,11.42,3.63,24.63-1.74,37.72c13.7-18.28,18.16-38.64,11.8-55.23c-10.18-26.44-47.23-41.61-90.53-32.17
									C1108.84,2533.37,1075.62,2558.19,1064.39,2586.43"/>
							</g>
						</g>
					</g>
					<g>
						<path class="st26" d="M1063.55,2624.09c15.83,41.23,79.52,45.59,128.56,17.57c22.21-12.69,37.41-30.1,44.32-47.61
							c-6.81,6.76-15,13.01-24.46,18.42c-49.04,28.02-112.73,23.66-128.56-17.57c-4.65-12.11-4.11-24.62,0.41-36.55
							C1064.34,2577.41,1054.86,2601.45,1063.55,2624.09"/>
					</g>
					<g>
						<path class="st2" d="M1127.29,2676.44c-12.83,0-25.17-1.94-36.32-5.92c-20.99-7.49-35.92-21.45-43.18-40.36
							c-7.27-18.91-5.51-39.28,5.07-58.89c16.21-30.05,51.03-54.1,90.85-62.78h0c50.01-10.89,96.22,7.04,109.89,42.62
							c13.67,35.6-8.67,79.85-53.12,105.23C1177.36,2669.55,1151.45,2676.44,1127.29,2676.44z M1150.89,2541.51L1150.89,2541.51
							c-30,6.54-56.82,24.52-68.3,45.81c-5.84,10.83-6.94,21.16-3.27,30.73c3.68,9.57,11.41,16.51,22.99,20.64
							c22.79,8.14,54.74,3.54,81.4-11.69c33.46-19.11,44.72-47.11,38.33-63.77C1215.65,2546.58,1188.55,2533.32,1150.89,2541.51z"/>
					</g>
					<g>
						<path class="st25" d="M2604.43,2729.73c27.11,48.54,6.42,104.19-53.79,110.75c-60.21,6.56-112.91-41.08-116.67-92.17
							c-2.95-40.09,26.41-70.19,65.05-74.4C2537.66,2669.7,2583.15,2691.64,2604.43,2729.73"/>
					</g>
					<g>
						<path class="st26" d="M2550.64,2840.48c-58.9,6.43-110.65-39.06-116.35-88.9c18.51,36.06,60.43,63.2,106.82,58.14
							c46.4-5.06,69.3-39.26,64.98-76.87C2630.64,2780.63,2609.53,2834.06,2550.64,2840.48"/>
					</g>
					<g class="st9">
						<g>
							<g>
								<path class="st0" d="M2614.99,2759.27c-1.09-2.4-2.29-4.76-3.61-7.13c-21.3-38.12-66.78-60.03-105.42-55.82
									c-38.63,4.21-68,34.29-65.06,74.4c0.18,2.5,0.47,4.96,0.9,7.43c-4.36-9.53-7.08-19.62-7.84-29.84
									c-2.93-40.09,26.43-70.2,65.06-74.41c38.63-4.21,84.12,17.73,105.41,55.82C2609.85,2739.44,2613.35,2749.45,2614.99,2759.27
									"/>
							</g>
						</g>
					</g>
					<g>
						<path class="st2" d="M2539.31,2858c-28.62,0-56.39-10.18-79.36-29.31c-25.05-20.86-40.66-49.71-42.83-79.14
							c-3.49-47.35,30.94-87.08,80.07-92.44c47.01-5.16,98.29,21.94,121.99,64.37v0c16.66,29.82,18.36,63.57,4.58,90.3
							c-13.3,25.77-38.61,41.92-71.28,45.48C2548.08,2857.76,2543.68,2858,2539.31,2858z M2508.79,2690.29
							c-2.67,0-5.31,0.14-7.93,0.42c-31.15,3.39-52.19,27.09-50.03,56.36c1.49,20.34,12.71,40.62,30.75,55.64
							c19.38,16.14,43.3,23.57,67.23,20.97c21.03-2.29,36.98-12.02,44.91-27.39c8.58-16.63,7.07-38.43-4.04-58.33l0,0
							C2573.92,2709.76,2540.24,2690.29,2508.79,2690.29z"/>
					</g>
				</g>
			</g>
		</g>
	</g>
</g>
</svg>
