<svg width="28" height="28" viewBox="0 0 28 28" fill="none" xmlns="http://www.w3.org/2000/svg">
<rect x="4.5" y="4.5" width="22" height="22" fill="#EE6C4D" stroke="#EE6C4D" stroke-width="3"/>
<rect x="0.5" y="0.5" width="24" height="24" fill="#000814" stroke="#EE6C4D"/>
<path d="M6.28948 17.14C5.90681 17.14 5.53814 17.112 5.18348 17.056C4.83814 17.0093 4.51614 16.93 4.21748 16.818V14.928C4.44148 15.0213 4.69348 15.096 4.97348 15.152C5.25348 15.1987 5.53814 15.222 5.82748 15.222C6.37814 15.222 6.76548 15.1147 6.98948 14.9C7.22281 14.676 7.33948 14.3073 7.33948 13.794V7.984H9.59348V14.214C9.59348 15.1567 9.31348 15.88 8.75348 16.384C8.19348 16.888 7.37214 17.14 6.28948 17.14ZM10.185 17L13.629 7.984H16.065L19.509 17H17.157L16.345 14.956H13.335L12.537 17H10.185ZM13.643 13.29H16.037L14.833 10.154L13.643 13.29Z" fill="#EE6C4D"/>
</svg>
