<svg width="128" height="128" viewBox="0 0 128 128" fill="none" xmlns="http://www.w3.org/2000/svg">
<path d="M109.049 109.077H90.0978V79.3742C90.0978 72.2916 89.9556 63.1751 80.2133 63.1751C70.336 63.1751 68.8284 70.8836 68.8284 78.8551V109.077H49.8702V48H68.0747V56.32H68.3236C70.8693 51.5271 77.056 46.4569 86.3004 46.4569C105.5 46.4569 109.056 59.1004 109.056 75.5484V109.077H109.049ZM28.4658 39.6444C26.4694 39.65 24.5091 39.1118 22.7954 38.0876C21.0817 37.0635 19.6793 35.592 18.7385 33.8311C17.7978 32.0703 17.3543 30.0865 17.4556 28.0926C17.557 26.0988 18.1993 24.1702 19.3138 22.5138C20.3714 20.9335 21.8204 19.6541 23.5195 18.8004C25.2186 17.9466 27.11 17.5475 29.0092 17.6421C30.9084 17.7366 32.7507 18.3215 34.3567 19.3398C35.9626 20.358 37.2774 21.7749 38.1729 23.4524C39.0684 25.1299 39.5141 27.0108 39.4665 28.9118C39.4189 30.8127 38.8798 32.669 37.9015 34.2996C36.9232 35.9302 35.5392 37.2796 33.8844 38.2163C32.2295 39.153 30.3673 39.645 28.4658 39.6444ZM37.9662 109.077H18.9582V48H37.9733V109.077H37.9662ZM118.542 0H9.45067C4.21689 0 0 4.12444 0 9.22311V118.777C0 123.876 4.224 128 9.44356 128H118.514C123.733 128 128 123.876 128 118.777V9.22311C128 4.12444 123.733 0 118.514 0H118.542Z" fill="#000814"/>
</svg>
