<svg width="379" height="197" viewBox="0 0 379 197" fill="none" xmlns="http://www.w3.org/2000/svg">
<rect x="15" y="180" width="349" height="17" fill="#ee6c4d"/>
<rect x="363" y="15" width="16" height="182" fill="#ee6c4d"/>
<rect x="2.5" y="2.5" width="358.5" height="176.7" stroke="#ee6c4d" stroke-width="5"/>
<path d="M79.1012 129C76.3678 129 73.7345 128.8 71.2012 128.4C68.7345 128.067 66.4345 127.5 64.3012 126.7V113.2C65.9012 113.867 67.7012 114.4 69.7012 114.8C71.7012 115.133 73.7345 115.3 75.8012 115.3C79.7345 115.3 82.5012 114.533 84.1012 113C85.7678 111.4 86.6012 108.767 86.6012 105.1V63.6H102.701V108.1C102.701 114.833 100.701 120 96.7012 123.6C92.7012 127.2 86.8345 129 79.1012 129ZM132.942 129C128.675 129 124.675 128.667 120.942 128C117.275 127.4 114.108 126.5 111.442 125.3V111.6C114.375 112.867 117.608 113.9 121.142 114.7C124.742 115.5 128.142 115.9 131.342 115.9C135.342 115.9 138.308 115.533 140.242 114.8C142.242 114.067 143.242 112.467 143.242 110C143.242 108.333 142.742 107 141.742 106C140.808 105 139.242 104.133 137.042 103.4C134.908 102.6 131.975 101.667 128.242 100.6C123.842 99.2667 120.342 97.8 117.742 96.2C115.142 94.5333 113.275 92.5333 112.142 90.2C111.008 87.8667 110.442 85 110.442 81.6C110.442 75.4667 112.642 70.7667 117.042 67.5C121.442 64.2333 127.942 62.6 136.542 62.6C140.275 62.6 143.908 62.9 147.442 63.5C150.975 64.0333 153.842 64.6667 156.042 65.4V79.2C153.175 78.0667 150.275 77.2333 147.342 76.7C144.475 76.1667 141.675 75.9 138.942 75.9C135.342 75.9 132.408 76.2333 130.142 76.9C127.942 77.5667 126.842 79.1 126.842 81.5C126.842 82.9 127.242 84.0333 128.042 84.9C128.842 85.7 130.208 86.4333 132.142 87.1C134.142 87.7667 136.842 88.5667 140.242 89.5C145.508 90.9 149.542 92.6 152.342 94.6C155.142 96.5333 157.075 98.8 158.142 101.4C159.208 103.933 159.742 106.8 159.742 110C159.742 115.667 157.542 120.267 153.142 123.8C148.742 127.267 142.008 129 132.942 129ZM198.011 129C187.544 129 179.577 126.333 174.111 121C168.644 115.667 165.911 107.367 165.911 96.1C165.911 84.1667 168.644 75.6 174.111 70.4C179.577 65.2 187.544 62.6 198.011 62.6C208.477 62.6 216.444 65.2 221.911 70.4C227.377 75.6 230.111 84.1667 230.111 96.1C230.111 107.367 227.377 115.667 221.911 121C216.444 126.333 208.477 129 198.011 129ZM198.011 115.3C203.411 115.3 207.344 113.767 209.811 110.7C212.344 107.567 213.611 102.7 213.611 96.1C213.611 88.9 212.344 83.8333 209.811 80.9C207.344 77.9 203.411 76.4 198.011 76.4C192.544 76.4 188.544 77.9 186.011 80.9C183.544 83.8333 182.311 88.9 182.311 96.1C182.311 102.7 183.544 107.567 186.011 110.7C188.544 113.767 192.544 115.3 198.011 115.3ZM238.321 128V63.6H252.121L279.521 102.1V63.6H295.721V128H281.821L254.421 89.6V128H238.321Z" fill="#ee6c4d"/>
</svg>
