<svg width="128" height="105" viewBox="0 0 128 105" fill="none" xmlns="http://www.w3.org/2000/svg">
<path d="M127.994 12.3551C123.2 14.4758 118.115 15.8685 112.91 16.4872C118.397 13.2056 122.503 8.04099 124.465 1.95583C119.315 5.02034 113.67 7.16801 107.786 8.32976C103.833 4.10085 98.5942 1.29622 92.8834 0.351884C87.1726 -0.592454 81.3097 0.376414 76.2064 3.10786C71.103 5.83931 67.045 10.1803 64.6632 15.456C62.2815 20.7316 61.7095 26.6464 63.0361 32.2807C52.5935 31.7573 42.3778 29.0436 33.0521 24.3159C23.7264 19.5881 15.4992 12.952 8.90468 4.83823C6.57043 8.84753 5.34378 13.4052 5.35034 18.0445C5.35034 27.1502 9.98479 35.1945 17.0307 39.9043C12.861 39.7726 8.78324 38.6465 5.13683 36.62V36.9466C5.13809 43.0109 7.23658 48.8882 11.0765 53.582C14.9164 58.2757 20.2615 61.4971 26.2054 62.6998C22.3346 63.7487 18.276 63.9033 14.3367 63.1519C16.0125 68.3719 19.2789 72.937 23.6783 76.2082C28.0778 79.4794 33.3902 81.2928 38.8716 81.3946C33.4248 85.6726 27.1881 88.8352 20.5183 90.7015C13.8484 92.5677 6.87612 93.1011 0 92.2711C12.0048 99.9919 25.9799 104.091 40.2532 104.077C88.5569 104.077 114.982 64.0562 114.982 29.3481C114.982 28.2177 114.944 27.0748 114.894 25.957C120.037 22.2406 124.475 17.6366 128 12.3614L127.994 12.3551Z" fill="#000814"/>
</svg>
